<svg width="141" height="41" viewBox="0 0 141 41" fill="none" xmlns="http://www.w3.org/2000/svg">
<path d="M135.781 40.7085H5.30521C2.43605 40.7085 0.0861816 38.4174 0.0861816 35.6199V5.08864C0.0861816 2.29121 2.43605 8.7738e-05 5.30521 8.7738e-05H135.781C138.65 8.7738e-05 141 2.29121 141 5.08864V35.6199C141 38.4174 138.65 40.7085 135.781 40.7085Z" fill="white"/>
<path d="M135.781 0.815527C138.197 0.815527 140.164 2.73264 140.164 5.08864V35.6199C140.164 37.9759 138.197 39.8931 135.781 39.8931H5.30521C2.8888 39.8931 0.922531 37.9759 0.922531 35.6199V5.08864C0.922531 2.73264 2.8888 0.815527 5.30521 0.815527H135.781ZM135.781 8.7738e-05H5.30521C2.43605 8.7738e-05 0.0861816 2.29121 0.0861816 5.08864V35.6199C0.0861816 38.4174 2.43605 40.7085 5.30521 40.7085H135.781C138.65 40.7085 141 38.4174 141 35.6199V5.08864C141 2.29121 138.65 8.7738e-05 135.781 8.7738e-05Z" fill="#A6A6A6"/>
<path d="M10.9782 7.67219C10.6716 7.98514 10.4941 8.47237 10.4941 9.10335V31.61C10.4941 32.241 10.6716 32.7282 10.9782 33.0412L11.0539 33.1099L23.9892 20.503V20.2053L11.0539 7.59841L10.9782 7.67219Z" fill="url(#paint0_linear_463_8625)"/>
<path d="M28.2963 24.7075L23.9893 20.5031V20.2054L28.3015 16.001L28.398 16.0557L33.5048 18.8888C34.9623 19.6928 34.9623 21.0158 33.5048 21.8249L28.398 24.6528L28.2963 24.7075Z" fill="url(#paint1_linear_463_8625)"/>
<path d="M28.3981 24.6525L23.9893 20.354L10.9783 33.041C11.4623 33.5371 12.2517 33.5969 13.1494 33.1008L28.3981 24.6525Z" fill="url(#paint2_linear_463_8625)"/>
<path d="M28.3981 16.0559L13.1494 7.60767C12.2517 7.11663 11.4623 7.17642 10.9783 7.67255L23.9893 20.3545L28.3981 16.0559Z" fill="url(#paint3_linear_463_8625)"/>
<path d="M49.5809 10.4249C49.5809 11.2747 49.32 11.9553 48.8059 12.4629C48.2148 13.0646 47.445 13.3674 46.5017 13.3674C45.6001 13.3674 44.8303 13.0595 44.1988 12.4527C43.566 11.837 43.2502 11.0813 43.2502 10.1769C43.2502 9.27236 43.566 8.51671 44.1988 7.90608C44.8303 7.29419 45.6001 6.98633 46.5017 6.98633C46.9505 6.98633 47.3785 7.07665 47.7869 7.24457C48.194 7.41377 48.5254 7.64275 48.7654 7.92517L48.2201 8.46201C47.8012 7.97987 47.2311 7.74198 46.5017 7.74198C45.8441 7.74198 45.2739 7.96587 44.7899 8.41748C44.311 8.87036 44.0709 9.45682 44.0709 10.1769C44.0709 10.8969 44.311 11.4884 44.7899 11.9413C45.2739 12.3878 45.8441 12.6168 46.5017 12.6168C47.1997 12.6168 47.7869 12.3878 48.2501 11.9362C48.5554 11.6373 48.7289 11.2251 48.7746 10.6984H46.5017V9.96313H49.534C49.5705 10.1221 49.5809 10.2761 49.5809 10.4249Z" fill="black" stroke="black" stroke-width="0.123556" stroke-miterlimit="10"/>
<path d="M54.3914 7.87575H51.5432V9.8094H54.1109V10.5447H51.5432V12.4783H54.3914V13.2276H50.7368V7.12646H54.3914V7.87575Z" fill="black" stroke="black" stroke-width="0.123556" stroke-miterlimit="10"/>
<path d="M57.7866 13.2276H56.9802V7.87575H55.2332V7.12646H59.5349V7.87575H57.7866V13.2276Z" fill="black" stroke="black" stroke-width="0.123556" stroke-miterlimit="10"/>
<path d="M62.6479 13.2276V7.12646H63.453V13.2276H62.6479Z" fill="black" stroke="black" stroke-width="0.123556" stroke-miterlimit="10"/>
<path d="M67.0214 13.2276H66.2216V7.87575H64.468V7.12646H68.775V7.87575H67.0214V13.2276Z" fill="black" stroke="black" stroke-width="0.123556" stroke-miterlimit="10"/>
<path d="M76.9195 12.4425C76.3024 13.0595 75.5378 13.3674 74.6257 13.3674C73.7085 13.3674 72.9439 13.0595 72.3268 12.4425C71.7109 11.8268 71.4043 11.0712 71.4043 10.1769C71.4043 9.28254 71.7109 8.52689 72.3268 7.91117C72.9439 7.29419 73.7085 6.98633 74.6257 6.98633C75.5325 6.98633 76.2971 7.29419 76.9143 7.91626C77.5354 8.53706 77.842 9.28763 77.842 10.1769C77.842 11.0712 77.5354 11.8268 76.9195 12.4425ZM72.923 11.9311C73.3875 12.3878 73.9525 12.6168 74.6257 12.6168C75.2938 12.6168 75.864 12.3878 76.3232 11.9311C76.7864 11.4744 77.0213 10.888 77.0213 10.1769C77.0213 9.46573 76.7864 8.87927 76.3232 8.42257C75.864 7.96588 75.2938 7.73689 74.6257 7.73689C73.9525 7.73689 73.3875 7.96588 72.923 8.42257C72.4598 8.87927 72.225 9.46573 72.225 10.1769C72.225 10.888 72.4598 11.4744 72.923 11.9311Z" fill="black" stroke="black" stroke-width="0.123556" stroke-miterlimit="10"/>
<path d="M78.9731 13.2276V7.12646H79.9517L82.9944 11.8715H83.0296L82.9944 10.6986V7.12646H83.7994V13.2276H82.9592L79.773 8.24849H79.7377L79.773 9.42649V13.2276H78.9731Z" fill="black" stroke="black" stroke-width="0.123556" stroke-miterlimit="10"/>
<path d="M71.206 22.1379C68.7543 22.1379 66.7515 23.957 66.7515 26.467C66.7515 28.9565 68.7543 30.7948 71.206 30.7948C73.6628 30.7948 75.6656 28.9565 75.6656 26.467C75.6656 23.957 73.6628 22.1379 71.206 22.1379ZM71.206 29.0901C69.8608 29.0901 68.7034 28.0075 68.7034 26.467C68.7034 24.906 69.8608 23.8425 71.206 23.8425C72.5512 23.8425 73.7137 24.906 73.7137 26.467C73.7137 28.0075 72.5512 29.0901 71.206 29.0901ZM61.4868 22.1379C59.03 22.1379 57.0324 23.957 57.0324 26.467C57.0324 28.9565 59.03 30.7948 61.4868 30.7948C63.9424 30.7948 65.9413 28.9565 65.9413 26.467C65.9413 23.957 63.9424 22.1379 61.4868 22.1379ZM61.4868 29.0901C60.1403 29.0901 58.9791 28.0075 58.9791 26.467C58.9791 24.906 60.1403 23.8425 61.4868 23.8425C62.832 23.8425 63.9894 24.906 63.9894 26.467C63.9894 28.0075 62.832 29.0901 61.4868 29.0901ZM49.9215 23.4647V25.3042H54.4268C54.295 26.3321 53.9427 27.0878 53.4026 27.6144C52.745 28.2505 51.7207 28.9565 49.9215 28.9565C47.1489 28.9565 44.9778 26.7748 44.9778 24.0715C44.9778 21.3682 47.1489 19.1865 49.9215 19.1865C51.4206 19.1865 52.5114 19.7577 53.3165 20.4981L54.646 19.2018C53.52 18.1535 52.0221 17.3483 49.9215 17.3483C46.1194 17.3483 42.9241 20.3645 42.9241 24.0715C42.9241 27.7785 46.1194 30.7948 49.9215 30.7948C51.9765 30.7948 53.52 30.1383 54.7334 28.9069C55.9769 27.6946 56.3644 25.9899 56.3644 24.6135C56.3644 24.186 56.3278 23.7929 56.2626 23.4647H49.9215ZM97.2137 24.8908C96.847 23.9227 95.7158 22.1379 93.4116 22.1379C91.1283 22.1379 89.2273 23.8922 89.2273 26.467C89.2273 28.8917 91.1087 30.7948 93.6308 30.7948C95.6701 30.7948 96.847 29.5824 97.3311 28.8764L95.8176 27.893C95.3126 28.6131 94.625 29.0901 93.6308 29.0901C92.6431 29.0901 91.9346 28.6487 91.4806 27.7785L97.4185 25.3831L97.2137 24.8908ZM91.1596 26.3321C91.1087 24.6631 92.4892 23.8082 93.4782 23.8082C94.2532 23.8082 94.9108 24.186 95.13 24.7267L91.1596 26.3321ZM86.3333 30.5314H88.2852V17.8101H86.3333V30.5314ZM83.1367 23.1022H83.0714C82.633 22.5958 81.7967 22.1379 80.7372 22.1379C78.5139 22.1379 76.4811 24.041 76.4811 26.481C76.4811 28.9069 78.5139 30.7948 80.7372 30.7948C81.7967 30.7948 82.633 30.333 83.0714 29.8114H83.1367V30.4322C83.1367 32.0873 82.2299 32.9765 80.7672 32.9765C79.5747 32.9765 78.8349 32.1369 78.5296 31.4308L76.8321 32.1216C77.3214 33.2691 78.617 34.6812 80.7672 34.6812C83.0558 34.6812 84.9868 33.3683 84.9868 30.174V22.4012H83.1367V23.1022ZM80.9042 29.0901C79.559 29.0901 78.433 27.9923 78.433 26.481C78.433 24.9557 79.559 23.8425 80.9042 23.8425C82.2299 23.8425 83.275 24.9557 83.275 26.481C83.275 27.9923 82.2299 29.0901 80.9042 29.0901ZM106.352 17.8101H101.684V30.5314H103.63V25.7113H106.352C108.514 25.7113 110.634 24.186 110.634 21.7601C110.634 19.3354 108.509 17.8101 106.352 17.8101ZM106.403 23.9418H103.63V19.5796H106.403C107.857 19.5796 108.686 20.7563 108.686 21.7601C108.686 22.7447 107.857 23.9418 106.403 23.9418ZM118.437 22.1137C117.03 22.1137 115.568 22.7192 114.966 24.0613L116.694 24.7674C117.066 24.0613 117.749 23.8324 118.472 23.8324C119.482 23.8324 120.506 24.4239 120.522 25.4683V25.6019C120.17 25.4035 119.415 25.1096 118.488 25.1096C116.627 25.1096 114.731 26.1082 114.731 27.9719C114.731 29.6766 116.255 30.7744 117.968 30.7744C119.278 30.7744 120.001 30.1981 120.455 29.5277H120.522V30.5111H122.402V25.6312C122.402 23.3757 120.674 22.1137 118.437 22.1137ZM118.202 29.085C117.565 29.085 116.678 28.7772 116.678 28.0075C116.678 27.0229 117.784 26.6451 118.742 26.6451C119.599 26.6451 120.001 26.8295 120.522 27.0725C120.369 28.2505 119.329 29.085 118.202 29.085ZM129.252 22.3923L127.014 27.907H126.948L124.634 22.3923H122.535L126.011 30.0989L124.028 34.3873H126.062L131.418 22.3923H129.252ZM111.704 30.5314H113.656V17.8101H111.704V30.5314Z" fill="black"/>
<defs>
<linearGradient id="paint0_linear_463_8625" x1="22.8407" y1="31.8444" x2="5.76658" y2="14.3325" gradientUnits="userSpaceOnUse">
<stop stop-color="#00A0FF"/>
<stop offset="0.0066" stop-color="#00A1FF"/>
<stop offset="0.2601" stop-color="#00BEFF"/>
<stop offset="0.5122" stop-color="#00D2FF"/>
<stop offset="0.7604" stop-color="#00DFFF"/>
<stop offset="1" stop-color="#00E3FF"/>
</linearGradient>
<linearGradient id="paint1_linear_463_8625" x1="35.4026" y1="20.3528" x2="10.1458" y2="20.3528" gradientUnits="userSpaceOnUse">
<stop stop-color="#FFE000"/>
<stop offset="0.4087" stop-color="#FFBD00"/>
<stop offset="0.7754" stop-color="#FFA500"/>
<stop offset="1" stop-color="#FF9C00"/>
</linearGradient>
<linearGradient id="paint2_linear_463_8625" x1="26.0007" y1="18.0172" x2="2.84679" y2="-5.73042" gradientUnits="userSpaceOnUse">
<stop stop-color="#FF3A44"/>
<stop offset="1" stop-color="#C31162"/>
</linearGradient>
<linearGradient id="paint3_linear_463_8625" x1="7.70312" y1="40.5294" x2="18.0424" y2="29.9251" gradientUnits="userSpaceOnUse">
<stop stop-color="#32A071"/>
<stop offset="0.0685" stop-color="#2DA771"/>
<stop offset="0.4762" stop-color="#15CF74"/>
<stop offset="0.8009" stop-color="#06E775"/>
<stop offset="1" stop-color="#00F076"/>
</linearGradient>
</defs>
</svg>
