<svg width="24" height="25" viewBox="0 0 24 25" fill="none" xmlns="http://www.w3.org/2000/svg">
<g clip-path="url(#clip0_783_1745)">
<path fill-rule="evenodd" clip-rule="evenodd" d="M12 0.5C5.38125 0.5 0 5.88125 0 12.5C0 19.1187 5.38125 24.5 12 24.5C18.6187 24.5 24 19.1187 24 12.5C24 5.88125 18.6187 0.5 12 0.5Z" fill="#4BAE4F"/>
<path fill-rule="evenodd" clip-rule="evenodd" d="M17.8027 8.45468C18.0934 8.74531 18.0934 9.22343 17.8027 9.51406L10.7715 16.5453C10.6262 16.6906 10.434 16.7656 10.2418 16.7656C10.0496 16.7656 9.85742 16.6906 9.71211 16.5453L6.19648 13.0297C5.90586 12.7391 5.90586 12.2609 6.19648 11.9703C6.48711 11.6797 6.96523 11.6797 7.25586 11.9703L10.2418 14.9562L16.7434 8.45468C17.034 8.15937 17.5121 8.15937 17.8027 8.45468Z" fill="white"/>
</g>
<defs>
<clipPath id="clip0_783_1745">
<rect width="24" height="24" fill="white" transform="translate(0 0.5)"/>
</clipPath>
</defs>
</svg>
