<svg width="39" height="20" viewBox="0 0 39 20" fill="none" xmlns="http://www.w3.org/2000/svg">
<path d="M0.416992 14C0.416992 13.4477 0.864707 13 1.41699 13H5.41699C5.96928 13 6.41699 13.4477 6.41699 14V20H0.416992V14Z" fill="#008A5A"/>
<path d="M8.41699 12C8.41699 11.4477 8.86471 11 9.41699 11H13.417C13.9693 11 14.417 11.4477 14.417 12V20H8.41699V12Z" fill="#008A5A"/>
<path d="M16.417 6C16.417 5.44772 16.8647 5 17.417 5H21.417C21.9693 5 22.417 5.44772 22.417 6V20H16.417V6Z" fill="#008A5A"/>
<path d="M24.417 9C24.417 8.44772 24.8647 8 25.417 8H29.417C29.9693 8 30.417 8.44772 30.417 9V20H24.417V9Z" fill="#B92406"/>
<path d="M32.417 1C32.417 0.447715 32.8647 0 33.417 0H37.417C37.9693 0 38.417 0.447715 38.417 1V20H32.417V1Z" fill="#008A5A"/>
</svg>
