<svg width="41" height="42" viewBox="0 0 41 42" fill="none" xmlns="http://www.w3.org/2000/svg">
<rect x="0.5" y="1" width="40" height="40" rx="20" fill="black" fill-opacity="0.08" stroke="black" stroke-opacity="0.16"/>
<path d="M30.1698 30.0624C18.6903 35.5257 11.5661 30.9547 7.00563 28.1784C6.72343 28.0035 6.24379 28.2194 6.65995 28.6974C8.17926 30.5396 13.1584 34.9798 19.6576 34.9798C26.1613 34.9798 30.0303 31.4311 30.5143 30.8121C30.9951 30.1982 30.6555 29.8596 30.1696 30.0624H30.1698ZM33.3937 28.282C33.0854 27.8805 31.5192 27.8057 30.5335 27.9268C29.5463 28.0444 28.0645 28.6477 28.1934 29.01C28.2595 29.1457 28.3944 29.0848 29.0726 29.0238C29.7526 28.956 31.6577 28.7156 32.0546 29.2345C32.4534 29.757 31.447 32.2461 31.2632 32.6475C31.0856 33.0489 31.3311 33.1524 31.6646 32.8851C31.9936 32.6178 32.5892 31.9257 32.9889 30.9462C33.3859 29.9614 33.628 28.5876 33.3937 28.282Z" fill="#FF9900"/>
<path fill-rule="evenodd" clip-rule="evenodd" d="M22.4512 18.9144C22.4512 20.3479 22.4874 21.5433 21.7629 22.8163C21.1781 23.8514 20.2517 24.4879 19.2168 24.4879C17.8039 24.4879 16.9811 23.4115 16.9811 21.8228C16.9811 18.6867 19.7911 18.1175 22.4512 18.1175V18.9144ZM26.1617 27.8828C25.9184 28.1001 25.5665 28.1157 25.2923 27.9708C24.071 26.9565 23.8536 26.4856 23.1809 25.5178C21.1626 27.5775 19.7342 28.1933 17.1157 28.1933C14.021 28.1933 11.6094 26.2837 11.6094 22.4593C11.6094 19.4734 13.2293 17.4395 15.532 16.446C17.5297 15.5661 20.319 15.4109 22.4512 15.1677V14.6916C22.4512 13.8169 22.5184 12.782 22.0061 12.0264C21.5558 11.3485 20.6968 11.069 19.9412 11.069C18.5388 11.069 17.2864 11.7883 16.9811 13.2787C16.9189 13.61 16.6758 13.9361 16.3446 13.9516L12.7737 13.5687C12.4736 13.5013 12.1425 13.2581 12.2253 12.7975C13.0481 8.4712 16.9551 7.16699 20.4534 7.16699C22.244 7.16699 24.5831 7.64314 25.996 8.99905C27.7866 10.6705 27.6158 12.901 27.6158 15.3281V21.0621C27.6158 22.7854 28.3299 23.5409 29.0026 24.4725C29.2407 24.8036 29.2925 25.2022 28.9923 25.4505C28.2419 26.0766 26.9067 27.2411 26.1719 27.8932L26.1616 27.8828" fill="black"/>
<path d="M30.1698 30.0624C18.6903 35.5257 11.5661 30.9547 7.00563 28.1784C6.72343 28.0035 6.24379 28.2194 6.65995 28.6974C8.17926 30.5396 13.1584 34.9798 19.6576 34.9798C26.1613 34.9798 30.0303 31.4311 30.5143 30.8121C30.9951 30.1982 30.6555 29.8596 30.1696 30.0624H30.1698ZM33.3937 28.282C33.0854 27.8805 31.5192 27.8057 30.5335 27.9268C29.5463 28.0444 28.0645 28.6477 28.1934 29.01C28.2595 29.1457 28.3944 29.0848 29.0726 29.0238C29.7526 28.956 31.6577 28.7156 32.0546 29.2345C32.4534 29.757 31.447 32.2461 31.2632 32.6475C31.0856 33.0489 31.3311 33.1524 31.6646 32.8851C31.9936 32.6178 32.5892 31.9257 32.9889 30.9462C33.3859 29.9614 33.628 28.5876 33.3937 28.282Z" fill="#FF9900"/>
<path fill-rule="evenodd" clip-rule="evenodd" d="M22.4512 18.9144C22.4512 20.3479 22.4874 21.5433 21.7629 22.8163C21.1781 23.8514 20.2517 24.4879 19.2168 24.4879C17.8039 24.4879 16.9811 23.4115 16.9811 21.8228C16.9811 18.6867 19.7911 18.1175 22.4512 18.1175V18.9144ZM26.1617 27.8828C25.9184 28.1001 25.5665 28.1157 25.2923 27.9708C24.071 26.9565 23.8536 26.4856 23.1809 25.5178C21.1626 27.5775 19.7342 28.1933 17.1157 28.1933C14.021 28.1933 11.6094 26.2837 11.6094 22.4593C11.6094 19.4734 13.2293 17.4395 15.532 16.446C17.5297 15.5661 20.319 15.4109 22.4512 15.1677V14.6916C22.4512 13.8169 22.5184 12.782 22.0061 12.0264C21.5558 11.3485 20.6968 11.069 19.9412 11.069C18.5388 11.069 17.2864 11.7883 16.9811 13.2787C16.9189 13.61 16.6758 13.9361 16.3446 13.9516L12.7737 13.5687C12.4736 13.5013 12.1425 13.2581 12.2253 12.7975C13.0481 8.4712 16.9551 7.16699 20.4534 7.16699C22.244 7.16699 24.5831 7.64314 25.996 8.99905C27.7866 10.6705 27.6158 12.901 27.6158 15.3281V21.0621C27.6158 22.7854 28.3299 23.5409 29.0026 24.4725C29.2407 24.8036 29.2925 25.2022 28.9923 25.4505C28.2419 26.0766 26.9067 27.2411 26.1719 27.8932L26.1616 27.8828" fill="black"/>
</svg>
