<svg width="41" height="42" viewBox="0 0 41 42" fill="none" xmlns="http://www.w3.org/2000/svg">
<rect x="0.5" y="1" width="40" height="40" rx="20" fill="black" fill-opacity="0.08" stroke="black" stroke-opacity="0.16"/>
<path d="M31.1896 16.3274C31.0193 16.4596 28.0123 18.1547 28.0123 21.9239C28.0123 26.2836 31.8386 27.826 31.9531 27.8642C31.9355 27.9582 31.3453 29.9764 29.9357 32.0329C28.6789 33.8426 27.3663 35.6493 25.3694 35.6493C23.3726 35.6493 22.8587 34.4889 20.5535 34.4889C18.3071 34.4889 17.5084 35.6875 15.6818 35.6875C13.8553 35.6875 12.5809 34.013 11.1155 31.9565C9.41823 29.5416 8.04688 25.7901 8.04688 22.2295C8.04688 16.5184 11.7586 13.4895 15.4117 13.4895C17.3527 13.4895 18.9707 14.7645 20.1894 14.7645C21.3493 14.7645 23.1582 13.4131 25.3665 13.4131C26.2034 13.4131 29.2104 13.4895 31.1896 16.3274ZM24.3182 10.9953C25.2314 9.9113 25.8775 8.40715 25.8775 6.903C25.8775 6.69441 25.8598 6.48289 25.8217 6.3125C24.3358 6.36832 22.568 7.30254 21.502 8.53935C20.6651 9.49119 19.884 10.9953 19.884 12.5201C19.884 12.7492 19.9222 12.9784 19.9398 13.0518C20.0338 13.0694 20.1865 13.09 20.3392 13.09C21.6724 13.09 23.3491 12.1969 24.3182 10.9953Z" fill="black"/>
</svg>
