<svg width="41" height="42" viewBox="0 0 41 42" fill="none" xmlns="http://www.w3.org/2000/svg">
<rect x="0.5" y="1" width="40" height="40" rx="20" fill="black" fill-opacity="0.08" stroke="black" stroke-opacity="0.16"/>
<path d="M33.15 21.288C33.15 20.3906 33.0695 19.5276 32.9199 18.6992H21V23.6006H27.8114C27.5122 25.1769 26.6148 26.5116 25.2686 27.409V30.5961H29.3761C31.7693 28.387 33.15 25.1424 33.15 21.288Z" fill="#4285F4"/>
<path d="M20.9998 33.6561C24.4169 33.6561 27.2819 32.5285 29.3759 30.5956L25.2684 27.4085C24.1408 28.1679 22.7026 28.6281 20.9998 28.6281C17.7091 28.6281 14.9132 26.4075 13.9123 23.416H9.70117V26.6836C11.7837 30.8142 16.0523 33.6561 20.9998 33.6561Z" fill="#34A853"/>
<path d="M13.9125 23.4041C13.6594 22.6448 13.5098 21.8394 13.5098 20.9994C13.5098 20.1595 13.6594 19.3541 13.9125 18.5948V15.3271H9.70142C8.83849 17.03 8.34375 18.9514 8.34375 20.9994C8.34375 23.0475 8.83849 24.9689 9.70142 26.6718L12.9805 24.1175L13.9125 23.4041Z" fill="#FBBC05"/>
<path d="M20.9998 13.3832C22.8637 13.3832 24.5205 14.0276 25.8436 15.2702L29.4679 11.6459C27.2703 9.59787 24.4169 8.34375 20.9998 8.34375C16.0523 8.34375 11.7837 11.1857 9.70117 15.3277L13.9123 18.5953C14.9132 15.6038 17.7091 13.3832 20.9998 13.3832Z" fill="#EA4335"/>
</svg>
