<svg width="42" height="42" viewBox="0 0 42 42" fill="none" xmlns="http://www.w3.org/2000/svg">
<rect x="1" y="1" width="40" height="40" rx="20" fill="black" fill-opacity="0.08" stroke="black" stroke-opacity="0.16"/>
<path d="M8.76513 23.3407C8.76513 24.5309 9.02636 25.4446 9.3678 25.9974C9.81547 26.7215 10.4832 27.0283 11.1639 27.0283C12.0419 27.0283 12.8451 26.8104 14.3929 24.6696C15.6329 22.9538 17.0941 20.5453 18.0772 19.0353L19.7421 16.4773C20.8987 14.7007 22.2373 12.7258 23.7722 11.3871C25.0252 10.2945 26.3769 9.6875 27.7372 9.6875C30.0211 9.6875 32.1965 11.011 33.8614 13.4932C35.6835 16.2117 36.568 19.6358 36.568 23.1695C36.568 25.2701 36.154 26.8136 35.4494 28.0331C34.7687 29.2124 33.442 30.3906 31.2101 30.3906V27.0283C33.1211 27.0283 33.598 25.2723 33.598 23.2627C33.598 20.3989 32.9303 17.2208 31.4594 14.95C30.4156 13.3393 29.0629 12.3551 27.5746 12.3551C25.965 12.3551 24.6697 13.5691 23.214 15.7337C22.44 16.8837 21.6455 18.2853 20.7534 19.8667L19.7714 21.6064C17.7986 25.1043 17.2989 25.901 16.3126 27.2158C14.5837 29.5181 13.1074 30.3906 11.1639 30.3906C8.85835 30.3906 7.40046 29.3923 6.49755 27.8878C5.76047 26.6619 5.39844 25.0533 5.39844 23.2204L8.76513 23.3407Z" fill="#0081FB"/>
<path d="M8.05273 13.7306C9.59626 11.3513 11.8237 9.6875 14.3786 9.6875C15.8581 9.6875 17.329 10.1254 18.865 11.3795C20.5451 12.7507 22.3357 15.0085 24.5697 18.7297L25.3707 20.0651C27.3045 23.2865 28.4047 24.9439 29.0485 25.7254C29.8766 26.7291 30.4566 27.0283 31.2099 27.0283C33.1209 27.0283 33.5978 25.2723 33.5978 23.2627L36.5678 23.1695C36.5678 25.2701 36.1537 26.8136 35.4491 28.0331C34.7684 29.2124 33.4417 30.3906 31.2099 30.3906C29.8225 30.3906 28.5933 30.0893 27.234 28.807C26.1891 27.8228 24.9675 26.0744 24.0277 24.5027L21.2323 19.8331C19.8297 17.4897 18.543 15.7424 17.7984 14.9511C16.9974 14.1002 15.9676 13.0726 14.3244 13.0726C12.9944 13.0726 11.8649 14.0059 10.9197 15.4334L8.05273 13.7306Z" fill="url(#paint0_linear_8543_1367)"/>
<path d="M14.3246 13.0726C12.9946 13.0726 11.8652 14.0059 10.92 15.4334C9.5835 17.4506 8.76513 20.4553 8.76513 23.3407C8.76513 24.5309 9.02636 25.4446 9.3678 25.9974L6.49755 27.8878C5.76047 26.6619 5.39844 25.0533 5.39844 23.2204C5.39844 19.8873 6.31328 16.4133 8.05299 13.7306C9.59651 11.3513 11.824 9.6875 14.3788 9.6875L14.3246 13.0726Z" fill="url(#paint1_linear_8543_1367)"/>
<defs>
<linearGradient id="paint0_linear_8543_1367" x1="12.0102" y1="22.3695" x2="33.4721" y2="23.4535" gradientUnits="userSpaceOnUse">
<stop stop-color="#0064E1"/>
<stop offset="0.4" stop-color="#0064E1"/>
<stop offset="0.83" stop-color="#0073EE"/>
<stop offset="1" stop-color="#0082FB"/>
</linearGradient>
<linearGradient id="paint1_linear_8543_1367" x1="10.2761" y1="24.7542" x2="10.2761" y2="16.8415" gradientUnits="userSpaceOnUse">
<stop stop-color="#0082FB"/>
<stop offset="1" stop-color="#0064E0"/>
</linearGradient>
</defs>
</svg>
