<svg width="42" height="42" viewBox="0 0 42 42" fill="none" xmlns="http://www.w3.org/2000/svg">
<rect x="1" y="1" width="40" height="40" rx="20" fill="black" fill-opacity="0.08" stroke="black" stroke-opacity="0.16"/>
<path d="M8.86113 20.7479C8.86113 20.7479 11.3758 17.0378 16.3967 16.6539V15.3079C10.8354 15.7545 6.01953 20.4647 6.01953 20.4647C6.01953 20.4647 8.74716 28.3498 16.3967 29.0717V27.641C10.7831 26.9348 8.86113 20.7479 8.86113 20.7479ZM16.3967 24.7956V26.1059C12.1541 25.3495 10.9764 20.9392 10.9764 20.9392C10.9764 20.9392 13.0135 18.6826 16.3967 18.3166V19.7544C16.3941 19.7544 16.3923 19.7537 16.3902 19.7537C14.6145 19.5406 13.2273 21.1994 13.2273 21.1994C13.2273 21.1994 14.0048 23.9919 16.3967 24.7956ZM16.3967 12.8252V15.3079C16.5599 15.2954 16.7232 15.2848 16.8873 15.2792C23.2099 15.0661 27.3295 20.4647 27.3295 20.4647C27.3295 20.4647 22.598 26.218 17.6686 26.218C17.2169 26.218 16.7939 26.1761 16.3967 26.1057V27.641C16.7364 27.6841 17.0886 27.7095 17.4561 27.7095C22.0432 27.7095 25.3605 25.3668 28.5727 22.5941C29.1052 23.0207 31.2855 24.0583 31.7337 24.5125C28.6796 27.0695 21.5617 29.1307 17.5264 29.1307C17.1374 29.1307 16.7639 29.1071 16.3967 29.0717V31.229H33.832V12.8252H16.3967ZM16.3967 18.3166V16.6539C16.5583 16.6426 16.7211 16.634 16.8873 16.6288C21.4339 16.486 24.4168 20.5358 24.4168 20.5358C24.4168 20.5358 21.195 25.0103 17.7406 25.0103C17.2435 25.0103 16.7978 24.9304 16.3967 24.7956V19.7544C18.1667 19.9683 18.5228 20.7502 19.5869 22.5241L21.9536 20.5285C21.9536 20.5285 20.226 18.2627 17.3136 18.2627C16.9971 18.2626 16.6941 18.2848 16.3967 18.3166Z" fill="#77B900"/>
</svg>
