<svg width="372" height="372" viewBox="0 0 372 372" fill="none" xmlns="http://www.w3.org/2000/svg">
<rect width="372" height="372" rx="186" fill="white"/>
<path fill-rule="evenodd" clip-rule="evenodd" d="M94.1323 151.127L86.4779 145.702C85.4172 144.932 85.1521 143.407 85.8849 142.322L108.585 109.965C109.353 108.871 110.886 108.598 111.982 109.366L119.651 114.742L94.1323 151.127ZM257.943 114.742L265.612 109.366C266.71 108.595 268.262 108.865 269.034 109.965L291.736 142.325C292.467 143.414 292.204 144.952 291.13 145.711L283.46 151.126L257.943 114.742ZM211.031 278.109L211.002 287.477C210.998 288.81 209.903 289.918 208.567 289.918H169.051C167.714 289.918 166.616 288.808 166.616 287.473V278.109H211.031ZM219.975 236.704L214.446 255.079H161.303L146.884 233.146V169.378C146.884 166.959 149.438 165.521 151.614 165.521H154.444C156.629 165.521 159.199 166.949 159.199 169.378V191.978C159.199 194.121 162.436 194.121 162.436 191.978V152.756C162.436 150.335 164.989 148.898 167.166 148.898H170.021C172.198 148.898 174.751 150.335 174.751 152.756V188.914C174.751 191.056 177.988 191.056 177.988 188.914V142.122C177.988 138.138 182.08 135.559 185.878 135.559C189.669 135.559 193.744 138.151 193.744 142.122V188.914C193.744 191.059 197.006 191.046 197.006 188.914V150.67C197.006 148.24 199.55 146.813 201.736 146.813H204.566C206.751 146.813 209.295 148.24 209.295 150.67V210.56C209.295 212.693 212.558 212.706 212.558 210.56V181.871L213.578 180.589H220.423C224.213 180.589 228.288 183.181 228.288 187.152V221.273L219.975 236.704Z" fill="#15B0DB"/>
<path fill-rule="evenodd" clip-rule="evenodd" d="M219.2 261.385C219.2 260.299 218.308 259.415 217.211 259.415H160.386C159.315 259.415 158.423 260.299 158.423 261.385V271.805C158.423 272.891 159.315 273.773 160.386 273.773H217.211C218.307 273.773 219.2 272.891 219.2 271.805V261.385ZM209.946 279.193H167.702V287.473C167.702 288.21 168.314 288.835 169.053 288.835H208.569C209.308 288.835 209.92 288.21 209.92 287.473L209.946 279.193ZM147.97 232.822L161.89 253.995H213.643L218.971 236.287L227.205 221.001V187.153C227.205 184.183 224.095 181.674 220.424 181.674H214.101L213.642 182.25V210.561C213.642 212.058 212.418 213.271 210.94 213.271C209.436 213.271 208.212 212.058 208.212 210.561V150.671C208.212 149.169 206.555 147.897 204.566 147.897H201.736C199.747 147.897 198.091 149.169 198.091 150.671V188.914C198.091 190.411 196.867 191.624 195.363 191.624C193.884 191.624 192.66 190.411 192.66 188.914V142.122C192.66 139.152 189.55 136.644 185.879 136.644C182.182 136.644 179.072 139.152 179.072 142.122V188.914C179.072 192.485 173.668 192.484 173.668 188.914V152.756C173.668 151.252 171.985 149.983 170.022 149.983H167.167C165.203 149.983 163.521 151.252 163.521 152.756V191.979C163.521 195.549 158.117 195.549 158.117 191.979V169.378C158.117 167.877 156.434 166.605 154.445 166.605H151.616C149.652 166.605 147.97 167.877 147.97 169.378L147.97 232.822ZM142.541 204.833L131.604 197.156L123.828 181.638L112.407 167.089L142.107 124.733L167.448 125.493L178.64 133.348C175.631 135.336 173.668 138.528 173.668 142.122V145.256C171.482 144.386 169.471 144.563 167.167 144.563C162.17 144.563 158.117 148.239 158.117 152.756V161.878C155.941 161.012 153.919 161.187 151.616 161.187C146.619 161.187 142.541 164.861 142.541 169.378V204.833ZM105.906 166.91L138.538 120.392C139.15 119.505 138.946 118.276 138.054 117.651L129.513 111.667C128.644 111.045 127.411 111.257 126.785 112.147L94.1528 158.665C93.5153 159.553 93.7446 160.784 94.6373 161.409L103.152 167.392C104.044 168.012 105.276 167.787 105.906 166.91ZM93.8725 149.613L118.143 115.007L111.361 110.253C110.757 109.821 109.898 109.985 109.475 110.587L86.7851 142.928C86.3769 143.532 86.5298 144.399 87.1163 144.824L93.8725 149.613ZM213.643 173.704V157.901L219.379 161.926C220.653 162.825 220.781 165.004 219.685 166.344L213.643 173.704ZM195.695 135.655L210.175 125.493L235.516 124.733L265.216 167.089L254.101 181.174C253.483 181.911 246.302 196.829 246.02 197.156L232.636 206.536V187.153C232.636 181.144 227.154 176.255 220.424 176.255H218.563L223.865 169.782C226.948 166.007 226.407 160.23 222.488 157.489L213.642 151.278V150.672C213.642 146.154 209.563 142.478 204.567 142.478C202.285 142.478 200.231 142.303 198.091 143.174C198.091 140.206 197.724 138.097 195.695 135.655ZM239.085 120.392L271.717 166.91C272.343 167.792 273.577 168.013 274.445 167.392L282.986 161.409C283.878 160.784 284.081 159.553 283.47 158.665L250.838 112.147C250.205 111.246 248.975 111.053 248.085 111.667L239.57 117.651C238.683 118.268 238.454 119.513 239.085 120.392ZM259.455 115.007L283.725 149.613L290.506 144.825C291.098 144.403 291.24 143.529 290.837 142.928L268.148 110.587C267.726 109.988 266.857 109.823 266.235 110.253L259.455 115.007ZM224.605 261.385V271.805C224.605 275.878 221.291 279.193 217.211 279.193H215.376L215.35 287.473C215.35 291.213 212.291 294.255 208.569 294.255H169.053C165.306 294.255 162.272 291.213 162.272 287.473V279.193H160.385C156.332 279.193 153.018 275.878 153.018 271.805V261.385C153.018 258.846 154.293 256.603 156.255 255.272L142.999 235.122C142.718 234.681 142.539 234.163 142.539 233.633V211.453L127.931 201.202C127.568 200.94 127.271 200.596 127.065 200.198L119.111 184.318L108.964 171.494C106.412 173.582 102.754 173.736 100.041 171.828L91.5261 165.845C88.1867 163.504 87.3705 158.887 89.7163 155.553L90.7613 154.051L84.0056 149.261C80.9464 147.114 80.2071 142.877 82.3487 139.816L105.038 107.472C107.184 104.424 111.432 103.667 114.471 105.817L121.252 110.571L122.349 109.034C124.669 105.7 129.283 104.889 132.623 107.229L141.163 113.213C143.228 114.671 144.324 117.014 144.299 119.377L168.416 120.099C168.946 120.113 169.46 120.283 169.895 120.588L185.089 131.25C185.151 131.267 187.917 130.928 191.08 132.27L207.728 120.588C208.161 120.285 208.671 120.114 209.206 120.099L233.323 119.377C233.194 117.032 234.503 114.589 236.459 113.213L244.974 107.229C248.314 104.889 252.928 105.703 255.274 109.034L256.344 110.571L263.125 105.817C266.183 103.672 270.432 104.416 272.584 107.472L295.273 139.816C297.408 142.887 296.668 147.118 293.616 149.261L286.86 154.051L287.905 155.553C290.251 158.887 289.435 163.504 286.095 165.845L277.58 171.828C276.259 172.752 274.673 173.219 273.063 173.159C271.452 173.099 269.905 172.514 268.657 171.494L258.511 184.318L250.531 200.198C250.353 200.598 250.047 200.942 249.664 201.202L232.635 213.156V221.684C232.639 222.134 232.525 222.578 232.303 222.969L223.89 238.612L219.198 254.275C222.311 255.149 224.605 258 224.605 261.385ZM84.3888 242.349C72.33 221.487 66.6452 199.244 67.41 176.129L79.6982 189.806L83.7259 186.184L67.1038 167.673C66.12 166.584 64.3877 166.451 63.2798 167.469L44.7715 184.093L48.3916 188.124L61.9801 175.904C61.1898 200.057 67.1298 223.287 79.6982 245.056C93.0823 268.256 112.891 286.594 136.983 298.089L139.302 293.196C116.231 282.176 97.2125 264.592 84.3888 242.349ZM309.04 172.144L303.636 172.568C305.65 198.075 299.914 223.316 287.065 245.562C275.031 266.418 258.614 282.477 238.218 293.373L243.904 275.894L238.754 274.214L231.055 297.844C230.549 299.258 231.338 300.813 232.788 301.283L256.421 309L258.104 303.848L240.717 298.176C262.055 286.8 279.187 270.038 291.755 248.272C305.165 225.072 311.131 198.749 309.04 172.144ZM116.996 90.5639L113.936 86.0949C135.938 70.9872 161.712 63 188.506 63C213.643 63 236.74 69.4701 257.237 82.2477L253.464 64.3561L258.767 63.2342L263.917 87.5757C264.205 89.0408 263.28 90.4783 261.826 90.7877L237.48 95.9299L236.358 90.6273L254.357 86.8261C234.701 74.6068 212.598 68.4197 188.506 68.4197C162.833 68.4202 138.104 76.0784 116.996 90.5639Z" fill="#0A456D"/>
</svg>
