<svg width="372" height="372" viewBox="0 0 372 372" fill="none" xmlns="http://www.w3.org/2000/svg">
<rect width="372" height="372" rx="186" fill="white"/>
<mask id="mask0_8000_2584" style="mask-type:luminance" maskUnits="userSpaceOnUse" x="60" y="54" width="246" height="246">
<path d="M60 54H306V300H60V54Z" fill="white"/>
</mask>
<g mask="url(#mask0_8000_2584)">
<path d="M101.002 171.875V212.875C101.002 221.382 107.869 228.25 116.377 228.25C124.884 228.25 131.752 221.382 131.752 212.875V171.875C131.752 163.367 124.884 156.5 116.377 156.5C107.869 156.5 101.002 163.367 101.002 171.875ZM162.502 171.875V212.875C162.502 221.382 169.369 228.25 177.877 228.25C186.384 228.25 193.252 221.382 193.252 212.875V171.875C193.252 163.367 186.384 156.5 177.877 156.5C169.369 156.5 162.502 163.367 162.502 171.875ZM95.877 279.5H259.877C268.384 279.5 275.252 272.632 275.252 264.125C275.252 255.617 268.384 248.75 259.877 248.75H95.877C87.3695 248.75 80.502 255.617 80.502 264.125C80.502 272.632 87.3695 279.5 95.877 279.5ZM224.002 171.875V212.875C224.002 221.382 230.869 228.25 239.377 228.25C247.884 228.25 254.752 221.382 254.752 212.875V171.875C254.752 163.367 247.884 156.5 239.377 156.5C230.869 156.5 224.002 163.367 224.002 171.875ZM168.344 69.2723L87.3695 111.912C83.167 114.065 80.502 118.472 80.502 123.187C80.502 130.26 86.242 136 93.3145 136H262.542C269.512 136 275.252 130.26 275.252 123.187C275.252 118.472 272.587 114.065 268.384 111.912L187.409 69.2723C181.464 66.0948 174.289 66.0948 168.344 69.2723Z" fill="#143960"/>
</g>
<ellipse cx="252" cy="259.5" rx="60" ry="58.5" fill="white"/>
<path d="M268.709 220.98C270.4 217.083 268.56 212.5 264.433 211.493C256.568 209.575 248.307 209.495 240.34 211.311C229.84 213.704 220.393 219.267 213.355 227.199C206.317 235.131 202.051 245.024 201.17 255.457C200.289 265.889 202.839 276.325 208.452 285.263C214.065 294.201 222.453 301.182 232.411 305.203C242.369 309.224 253.383 310.077 263.872 307.64C274.361 305.203 283.784 299.602 290.787 291.641C296.041 285.668 299.73 278.597 301.597 271.031C302.629 266.85 299.356 263.07 295.062 262.746V262.746C290.796 262.424 287.158 265.663 285.85 269.736C284.431 274.158 282.098 278.282 278.964 281.844C274.096 287.379 267.545 291.273 260.254 292.967C252.962 294.661 245.304 294.068 238.382 291.273C231.459 288.478 225.628 283.624 221.725 277.41C217.823 271.197 216.051 263.942 216.663 256.689C217.276 249.436 220.241 242.558 225.134 237.044C230.027 231.53 236.595 227.663 243.894 225.999C248.764 224.889 253.793 224.798 258.653 225.699C262.706 226.45 267.069 224.761 268.709 220.98V220.98Z" fill="#143960"/>
<path d="M237 249L257.286 267L297 219" stroke="#143960" stroke-width="15" stroke-linecap="round"/>
</svg>
