<svg width="372" height="372" viewBox="0 0 372 372" fill="none" xmlns="http://www.w3.org/2000/svg">
<rect width="372" height="372" rx="186" fill="white"/>
<path d="M303.618 106.38V162.111C303.606 165.818 302.128 169.37 299.506 171.991C296.885 174.613 293.333 176.091 289.626 176.103H104.764C97.0275 176.103 90.7715 169.8 90.7715 162.111V106.38C90.7715 98.6437 97.0275 92.3877 104.764 92.3877H289.626C297.315 92.3877 303.618 98.6437 303.618 106.38Z" fill="black"/>
<path d="M289.625 178.491H104.763C100.42 178.486 96.2568 176.759 93.186 173.688C90.1153 170.617 88.3879 166.454 88.3828 162.111V106.38C88.3828 97.3448 95.7324 90 104.763 90H289.625C293.968 90.0038 298.132 91.7308 301.203 94.8018C304.275 97.8729 306.001 102.037 306.005 106.38V162.111C306.001 166.454 304.275 170.618 301.203 173.689C298.132 176.76 293.968 178.487 289.625 178.491ZM104.763 94.7756C98.3637 94.7756 93.1584 99.9809 93.1584 106.38V162.111C93.1584 168.51 98.3637 173.716 104.763 173.716H289.625C296.024 173.716 301.23 168.51 301.23 162.111V106.38C301.23 99.9809 296.024 94.7756 289.625 94.7756H104.763Z" fill="black"/>
<path d="M287.238 106.38V162.111C287.225 165.818 285.747 169.37 283.125 171.991C280.504 174.613 276.952 176.091 273.245 176.103H88.383C80.6466 176.103 74.3906 169.8 74.3906 162.111V106.38C74.3906 98.6437 80.6466 92.3877 88.383 92.3877H273.245C280.934 92.3877 287.238 98.6437 287.238 106.38Z" fill="white"/>
<path d="M273.242 178.491H88.3802C84.0371 178.487 79.8729 176.76 76.8018 173.689C73.7308 170.618 72.0038 166.454 72 162.111V106.38C72.0038 102.037 73.7308 97.8729 76.8018 94.8018C79.8729 91.7308 84.0371 90.0038 88.3802 90H273.242C277.585 90.0051 281.748 91.7324 284.819 94.8032C287.89 97.874 289.617 102.037 289.622 106.38V162.111C289.622 171.142 282.273 178.491 273.242 178.491ZM88.3802 94.7756C81.9809 94.7756 76.7756 99.9809 76.7756 106.38V162.111C76.7756 168.51 81.9809 173.716 88.3802 173.716H273.242C279.642 173.716 284.847 168.51 284.847 162.111V106.38C284.847 99.9809 279.642 94.7756 273.242 94.7756H88.3802Z" fill="black"/>
<path d="M267.804 123.572V144.967C267.804 148.31 265.082 151.079 261.691 151.079H99.9428C96.5044 151.079 93.8301 148.31 93.8301 144.967V123.572C93.8301 120.182 96.5044 117.459 99.9428 117.459H261.691C265.082 117.459 267.804 120.182 267.804 123.572Z" fill="#283E42"/>
<path d="M261.688 153.467H99.94C95.2504 153.467 91.4395 149.652 91.4395 144.967V123.572C91.4395 118.806 95.1739 115.072 99.94 115.072H261.688C266.373 115.072 270.189 118.883 270.189 123.572V144.967C270.189 149.652 266.373 153.467 261.688 153.467ZM99.94 119.847C99.4494 119.842 98.9627 119.935 98.5085 120.12C98.0542 120.306 97.6416 120.58 97.2946 120.927C96.9477 121.274 96.6735 121.687 96.4881 122.141C96.3028 122.595 96.2099 123.082 96.215 123.572V144.967C96.215 147.054 97.853 148.692 99.94 148.692H261.688C263.742 148.692 265.413 147.02 265.413 144.967V123.572C265.413 122.584 265.021 121.637 264.322 120.938C263.624 120.24 262.676 119.847 261.688 119.847H99.94Z" fill="black"/>
<path d="M251.984 136.619H109.624C108.991 136.619 108.383 136.367 107.936 135.919C107.488 135.471 107.236 134.864 107.236 134.231C107.236 133.598 107.488 132.99 107.936 132.542C108.383 132.095 108.991 131.843 109.624 131.843H251.984C252.617 131.843 253.224 132.095 253.672 132.542C254.12 132.99 254.371 133.598 254.371 134.231C254.371 134.864 254.12 135.471 253.672 135.919C253.224 136.367 252.617 136.619 251.984 136.619Z" fill="black"/>
<path d="M243.398 276.915C243.398 286.228 235.805 293.725 226.54 293.725L135.088 293.773C125.824 293.773 118.278 286.228 118.278 276.963L118.23 134.221H243.35L243.398 276.915Z" fill="#5AE4A7"/>
<path d="M135.085 296.156C129.995 296.151 125.115 294.127 121.516 290.528C117.917 286.929 115.893 282.049 115.888 276.958L115.84 134.217C115.84 133.584 116.091 132.976 116.539 132.528C116.987 132.081 117.594 131.829 118.228 131.829H243.347C243.981 131.829 244.588 132.081 245.036 132.528C245.484 132.976 245.735 133.584 245.735 134.217L245.783 276.911C245.77 282.007 243.737 286.89 240.129 290.489C236.521 294.087 231.633 296.109 226.537 296.109L135.085 296.156ZM120.615 136.605L120.663 276.958C120.667 280.782 122.188 284.448 124.892 287.152C127.595 289.856 131.262 291.377 135.085 291.381L226.537 291.333C234.513 291.333 241.007 284.867 241.007 276.911L240.96 136.605H120.615Z" fill="black"/>
<path d="M227.133 269.38C223.977 272.585 222.181 274.38 219.024 277.537H142.634L134.53 269.428L134.482 134.232H227.085L227.133 269.38Z" fill="#50D695"/>
<path d="M214.948 134.231V144.47C214.948 147.431 212.517 149.809 209.609 149.809C206.648 149.809 204.27 147.431 204.27 144.47V134.231H214.948Z" fill="white"/>
<path d="M219.023 279.924H142.633C142.001 279.922 141.394 279.67 140.948 279.222L132.839 271.118C132.617 270.895 132.442 270.632 132.322 270.342C132.202 270.052 132.141 269.741 132.142 269.427L132.094 134.231C132.094 133.598 132.345 132.99 132.793 132.542C133.241 132.095 133.848 131.843 134.482 131.843H227.089C227.723 131.843 228.33 132.095 228.778 132.542C229.225 132.99 229.477 133.598 229.477 134.231L229.525 269.379C229.523 270.005 229.277 270.605 228.837 271.051C225.68 274.265 223.88 276.065 220.719 279.222C220.497 279.444 220.233 279.621 219.943 279.741C219.653 279.862 219.337 279.924 219.023 279.924ZM143.617 275.148H218.04C220.552 272.636 222.233 270.95 224.744 268.4L224.697 136.619H136.869L136.917 268.438L143.617 275.148Z" fill="black"/>
<path d="M180.808 231.31C199.655 231.31 214.934 216.031 214.934 197.183C214.934 178.336 199.655 163.057 180.808 163.057C161.96 163.057 146.682 178.336 146.682 197.183C146.682 216.031 161.96 231.31 180.808 231.31Z" fill="white"/>
<path d="M152.002 265.354C149.041 265.354 146.682 262.961 146.682 260.034V245.101C146.682 242.178 149.031 239.781 151.997 239.781C154.919 239.781 157.317 242.178 157.317 245.101L157.322 260.034C157.322 262.957 154.924 265.354 152.002 265.354Z" fill="white"/>
<path d="M199.361 196.065C199.314 192.908 198.344 190.382 196.401 188.639C194.462 186.891 192.274 185.965 189.849 185.965C187.179 185.965 185.044 186.791 183.54 188.443C182.036 190.096 180.918 192.617 180.288 196.013H167.327C167.523 193.343 168.545 191.547 170.336 190.578C171.358 189.995 172.914 189.656 175.097 189.508V185.339C172.375 185.339 170.192 185.769 168.592 186.695C165.632 188.348 163.979 191.452 163.688 196.065H159.08V198.343H163.688C164.027 201.208 164.662 203.391 165.632 204.943C167.427 207.665 170.436 209.021 174.657 209.021C177.571 209.021 179.753 207.956 181.257 205.822C182.179 204.508 183.153 202.034 184.17 198.343H195.722C195.675 200.53 194.801 202.13 193.196 203.099C192.254 203.665 191.189 203.998 190.092 204.069V208.247C192.814 208.2 194.944 207.273 196.596 205.621C198.244 203.926 199.17 201.5 199.414 198.343H202.518V196.065H199.361ZM178.005 202.565C176.988 204.021 175.484 204.752 173.492 204.752C172.231 204.752 171.114 204.508 170.197 203.973C168.301 202.908 167.332 201.06 167.184 198.343H179.705C179.17 200.334 178.588 201.743 178.005 202.565ZM184.61 196.013C184.944 194.265 185.579 192.861 186.453 191.839C187.375 190.774 188.588 190.287 190.14 190.287C191.453 190.287 192.714 190.726 193.879 191.6C195.092 192.474 195.722 193.926 195.818 196.013H184.61ZM94.6381 298.749C94.006 298.749 93.3998 298.498 92.9523 298.052L83.7211 288.826C83.4931 288.605 83.3112 288.342 83.186 288.051C83.0609 287.759 82.995 287.446 82.9923 287.129C82.9895 286.812 83.0499 286.497 83.17 286.204C83.2901 285.91 83.4674 285.644 83.6916 285.42C83.9157 285.195 84.1823 285.018 84.4758 284.898C84.7692 284.778 85.0837 284.718 85.4007 284.72C85.7178 284.723 86.0311 284.789 86.3224 284.914C86.6137 285.039 86.8772 285.221 87.0975 285.449L94.6429 292.985L102.174 285.449C102.394 285.221 102.658 285.039 102.949 284.914C103.24 284.789 103.554 284.723 103.871 284.72C104.188 284.718 104.502 284.778 104.796 284.898C105.089 285.018 105.356 285.195 105.58 285.42C105.804 285.644 105.981 285.91 106.101 286.204C106.221 286.497 106.282 286.812 106.279 287.129C106.276 287.446 106.211 287.759 106.085 288.051C105.96 288.342 105.778 288.605 105.55 288.826L96.3286 298.052C96.1065 298.274 95.8428 298.449 95.5528 298.569C95.2627 298.689 94.9519 298.75 94.6381 298.749Z" fill="black"/>
<path d="M94.6475 297.827C94.0143 297.827 93.4069 297.576 92.9591 297.128C92.5113 296.68 92.2598 296.073 92.2598 295.439V265.783C92.2598 265.15 92.5113 264.543 92.9591 264.095C93.4069 263.647 94.0143 263.395 94.6475 263.395C95.2808 263.395 95.8882 263.647 96.336 264.095C96.7838 264.543 97.0353 265.15 97.0353 265.783V295.439C97.0353 296.073 96.7838 296.68 96.336 297.128C95.8882 297.576 95.2808 297.827 94.6475 297.827ZM266.964 245.024C266.332 245.024 265.726 244.773 265.278 244.327L256.052 235.1C255.824 234.88 255.642 234.616 255.517 234.325C255.392 234.034 255.326 233.72 255.323 233.403C255.32 233.086 255.381 232.772 255.501 232.478C255.621 232.185 255.798 231.918 256.022 231.694C256.247 231.47 256.513 231.293 256.807 231.173C257.1 231.053 257.415 230.992 257.732 230.995C258.049 230.998 258.362 231.064 258.653 231.189C258.945 231.314 259.208 231.496 259.428 231.724L266.964 239.26L274.51 231.724C274.728 231.487 274.992 231.297 275.285 231.165C275.579 231.033 275.896 230.961 276.218 230.955C276.539 230.948 276.859 231.007 277.158 231.127C277.456 231.248 277.728 231.427 277.955 231.655C278.182 231.883 278.361 232.154 278.481 232.453C278.601 232.752 278.659 233.071 278.653 233.393C278.646 233.715 278.574 234.032 278.441 234.326C278.309 234.619 278.118 234.882 277.881 235.1L268.655 244.327C268.433 244.548 268.169 244.724 267.879 244.843C267.589 244.963 267.278 245.024 266.964 245.024Z" fill="black"/>
<path d="M266.96 244.103C266.327 244.103 265.719 243.852 265.272 243.404C264.824 242.956 264.572 242.349 264.572 241.715V212.059C264.572 211.426 264.824 210.819 265.272 210.371C265.719 209.923 266.327 209.671 266.96 209.671C267.593 209.671 268.201 209.923 268.648 210.371C269.096 210.819 269.348 211.426 269.348 212.059V241.715C269.348 242.349 269.096 242.956 268.648 243.404C268.201 243.852 267.593 244.103 266.96 244.103Z" fill="black"/>
</svg>
