<svg width="1440" height="776" viewBox="0 0 1440 776" fill="none" xmlns="http://www.w3.org/2000/svg">
<g opacity="0.7">
<mask id="mask0_1_449" style="mask-type:alpha" maskUnits="userSpaceOnUse" x="0" y="0" width="1439" height="776">
<path d="M1438.72 0H0V775.799H1438.72V0Z" fill="url(#paint0_radial_1_449)"/>
</mask>
<g mask="url(#mask0_1_449)">
<path d="M8.4234 556.756H-133.704V641.156H8.4234V556.756Z" stroke="#4D4D4D" stroke-opacity="0.17"/>
<path d="M150.557 556.756H8.42969V641.156H150.557V556.756Z" stroke="#4D4D4D" stroke-opacity="0.17"/>
<path d="M292.688 556.756H150.561V641.156H292.688V556.756Z" stroke="#4D4D4D" stroke-opacity="0.17"/>
<path d="M434.816 556.756H292.688V641.156H434.816V556.756Z" stroke="#4D4D4D" stroke-opacity="0.17"/>
<path d="M576.948 556.756H434.82V641.156H576.948V556.756Z" stroke="#4D4D4D" stroke-opacity="0.17"/>
<path d="M719.083 556.756H576.955V641.156H719.083V556.756Z" stroke="#4D4D4D" stroke-opacity="0.17"/>
<path d="M861.217 556.756H719.09V641.156H861.217V556.756Z" stroke="#4D4D4D" stroke-opacity="0.17"/>
<path d="M1003.35 556.756H861.22V641.156H1003.35V556.756Z" stroke="#4D4D4D" stroke-opacity="0.17"/>
<path d="M1145.48 556.756H1003.35V641.156H1145.48V556.756Z" stroke="#4D4D4D" stroke-opacity="0.17"/>
<path d="M1287.61 556.756H1145.48V641.156H1287.61V556.756Z" stroke="#4D4D4D" stroke-opacity="0.17"/>
<path d="M1429.74 556.756H1287.61V641.156H1429.74V556.756Z" stroke="#4D4D4D" stroke-opacity="0.17"/>
<path d="M1571.87 556.756H1429.75V641.156H1571.87V556.756Z" stroke="#4D4D4D" stroke-opacity="0.17"/>
<path d="M8.4234 641.134H-133.704V725.534H8.4234V641.134Z" stroke="#4D4D4D" stroke-opacity="0.17"/>
<path d="M8.4234 -33.8931H-133.704V50.5071H8.4234V-33.8931Z" stroke="#4D4D4D" stroke-opacity="0.17"/>
<path d="M150.557 641.134H8.42969V725.534H150.557V641.134Z" stroke="#4D4D4D" stroke-opacity="0.17"/>
<path d="M150.557 -33.8931H8.42964V50.5071H150.557V-33.8931Z" stroke="#4D4D4D" stroke-opacity="0.17"/>
<path d="M292.688 641.134H150.561V725.534H292.688V641.134Z" stroke="#4D4D4D" stroke-opacity="0.17"/>
<path d="M292.688 -33.8931H150.561V50.5071H292.688V-33.8931Z" stroke="#4D4D4D" stroke-opacity="0.17"/>
<path d="M434.816 641.134H292.688V725.534H434.816V641.134Z" stroke="#4D4D4D" stroke-opacity="0.17"/>
<path d="M434.816 -33.8931H292.689V50.5071H434.816V-33.8931Z" stroke="#4D4D4D" stroke-opacity="0.17"/>
<path d="M576.948 641.134H434.82V725.534H576.948V641.134Z" stroke="#4D4D4D" stroke-opacity="0.17"/>
<path d="M576.948 -33.8931H434.82V50.5071H576.948V-33.8931Z" stroke="#4D4D4D" stroke-opacity="0.17"/>
<path d="M719.083 641.134H576.955V725.534H719.083V641.134Z" stroke="#4D4D4D" stroke-opacity="0.17"/>
<path d="M719.083 -33.8931H576.955V50.5071H719.083V-33.8931Z" stroke="#4D4D4D" stroke-opacity="0.17"/>
<path d="M861.217 641.134H719.09V725.534H861.217V641.134Z" stroke="#4D4D4D" stroke-opacity="0.17"/>
<path d="M861.217 -33.8931H719.09V50.5071H861.217V-33.8931Z" stroke="#4D4D4D" stroke-opacity="0.17"/>
<path d="M1003.35 641.134H861.22V725.534H1003.35V641.134Z" stroke="#4D4D4D" stroke-opacity="0.17"/>
<path d="M1003.35 -33.8931H861.22V50.5071H1003.35V-33.8931Z" stroke="#4D4D4D" stroke-opacity="0.17"/>
<path d="M1145.48 641.134H1003.35V725.534H1145.48V641.134Z" stroke="#4D4D4D" stroke-opacity="0.17"/>
<path d="M1145.48 -33.8931H1003.35V50.5071H1145.48V-33.8931Z" stroke="#4D4D4D" stroke-opacity="0.17"/>
<path d="M1287.61 641.134H1145.48V725.534H1287.61V641.134Z" stroke="#4D4D4D" stroke-opacity="0.17"/>
<path d="M1287.61 -33.8931H1145.48V50.5071H1287.61V-33.8931Z" stroke="#4D4D4D" stroke-opacity="0.17"/>
<path d="M1429.74 641.134H1287.61V725.534H1429.74V641.134Z" stroke="#4D4D4D" stroke-opacity="0.17"/>
<path d="M1429.74 -33.8931H1287.61V50.5071H1429.74V-33.8931Z" stroke="#4D4D4D" stroke-opacity="0.17"/>
<path d="M1571.87 641.134H1429.75V725.534H1571.87V641.134Z" stroke="#4D4D4D" stroke-opacity="0.17"/>
<path d="M1571.87 -33.8931H1429.75V50.5071H1571.87V-33.8931Z" stroke="#4D4D4D" stroke-opacity="0.17"/>
<path d="M8.4234 725.513H-133.704V809.913H8.4234V725.513Z" stroke="#4D4D4D" stroke-opacity="0.17"/>
<path d="M8.4234 50.4863H-133.704V134.886H8.4234V50.4863Z" stroke="#4D4D4D" stroke-opacity="0.17"/>
<path d="M150.557 725.513H8.42969V809.913H150.557V725.513Z" stroke="#4D4D4D" stroke-opacity="0.17"/>
<path d="M150.557 50.4863H8.42964V134.886H150.557V50.4863Z" stroke="#4D4D4D" stroke-opacity="0.17"/>
<path d="M292.688 725.513H150.561V809.913H292.688V725.513Z" stroke="#4D4D4D" stroke-opacity="0.17"/>
<path d="M292.688 50.4863H150.561V134.887H292.688V50.4863Z" stroke="#4D4D4D" stroke-opacity="0.17"/>
<path d="M434.816 725.513H292.688V809.913H434.816V725.513Z" stroke="#4D4D4D" stroke-opacity="0.17"/>
<path d="M434.816 50.4863H292.689V134.886H434.816V50.4863Z" stroke="#4D4D4D" stroke-opacity="0.17"/>
<path d="M576.948 725.513H434.82V809.913H576.948V725.513Z" stroke="#4D4D4D" stroke-opacity="0.17"/>
<path d="M576.948 50.4863H434.82V134.887H576.948V50.4863Z" stroke="#4D4D4D" stroke-opacity="0.17"/>
<path d="M719.083 725.513H576.955V809.913H719.083V725.513Z" stroke="#4D4D4D" stroke-opacity="0.17"/>
<path d="M719.083 50.4863H576.955V134.887H719.083V50.4863Z" stroke="#4D4D4D" stroke-opacity="0.17"/>
<path d="M861.217 725.513H719.09V809.913H861.217V725.513Z" stroke="#4D4D4D" stroke-opacity="0.17"/>
<path d="M861.217 50.4863H719.09V134.886H861.217V50.4863Z" stroke="#4D4D4D" stroke-opacity="0.17"/>
<path d="M1003.35 725.513H861.22V809.913H1003.35V725.513Z" stroke="#4D4D4D" stroke-opacity="0.17"/>
<path d="M1003.35 50.4863H861.22V134.887H1003.35V50.4863Z" stroke="#4D4D4D" stroke-opacity="0.17"/>
<path d="M1145.48 725.513H1003.35V809.913H1145.48V725.513Z" stroke="#4D4D4D" stroke-opacity="0.17"/>
<path d="M1145.48 50.4863H1003.35V134.886H1145.48V50.4863Z" stroke="#4D4D4D" stroke-opacity="0.17"/>
<path d="M1287.61 725.513H1145.48V809.913H1287.61V725.513Z" stroke="#4D4D4D" stroke-opacity="0.17"/>
<path d="M1287.61 50.4863H1145.48V134.886H1287.61V50.4863Z" stroke="#4D4D4D" stroke-opacity="0.17"/>
<path d="M1429.74 725.513H1287.61V809.913H1429.74V725.513Z" stroke="#4D4D4D" stroke-opacity="0.17"/>
<path d="M1429.74 50.4863H1287.61V134.886H1429.74V50.4863Z" stroke="#4D4D4D" stroke-opacity="0.17"/>
<path d="M1571.87 725.513H1429.75V809.913H1571.87V725.513Z" stroke="#4D4D4D" stroke-opacity="0.17"/>
<path d="M1571.87 50.4863H1429.75V134.886H1571.87V50.4863Z" stroke="#4D4D4D" stroke-opacity="0.17"/>
<path d="M8.4234 134.864H-133.704V219.264H8.4234V134.864Z" stroke="#4D4D4D" stroke-opacity="0.17"/>
<path d="M150.557 134.864H8.42964V219.264H150.557V134.864Z" stroke="#4D4D4D" stroke-opacity="0.17"/>
<path d="M292.688 134.863H150.561V219.263H292.688V134.863Z" stroke="#4D4D4D" stroke-opacity="0.17"/>
<path d="M434.816 134.864H292.689V219.264H434.816V134.864Z" stroke="#4D4D4D" stroke-opacity="0.17"/>
<path d="M576.948 134.863H434.82V219.263H576.948V134.863Z" stroke="#4D4D4D" stroke-opacity="0.17"/>
<path d="M719.083 134.863H576.955V219.263H719.083V134.863Z" stroke="#4D4D4D" stroke-opacity="0.17"/>
<path d="M861.217 134.864H719.09V219.264H861.217V134.864Z" stroke="#4D4D4D" stroke-opacity="0.17"/>
<path d="M1003.35 134.863H861.22V219.263H1003.35V134.863Z" stroke="#4D4D4D" stroke-opacity="0.17"/>
<path d="M1145.48 134.864H1003.35V219.264H1145.48V134.864Z" stroke="#4D4D4D" stroke-opacity="0.17"/>
<path d="M1287.61 134.864H1145.48V219.264H1287.61V134.864Z" stroke="#4D4D4D" stroke-opacity="0.17"/>
<path d="M1429.74 134.864H1287.61V219.264H1429.74V134.864Z" stroke="#4D4D4D" stroke-opacity="0.17"/>
<path d="M1571.87 134.864H1429.75V219.264H1571.87V134.864Z" stroke="#4D4D4D" stroke-opacity="0.17"/>
<path d="M8.4234 219.243H-133.704V303.643H8.4234V219.243Z" stroke="#4D4D4D" stroke-opacity="0.17"/>
<path d="M150.557 219.243H8.42969V303.643H150.557V219.243Z" stroke="#4D4D4D" stroke-opacity="0.17"/>
<path d="M292.688 219.243H150.561V303.643H292.688V219.243Z" stroke="#4D4D4D" stroke-opacity="0.17"/>
<path d="M434.816 219.243H292.688V303.643H434.816V219.243Z" stroke="#4D4D4D" stroke-opacity="0.17"/>
<path d="M576.948 219.243H434.82V303.643H576.948V219.243Z" stroke="#4D4D4D" stroke-opacity="0.17"/>
<path d="M719.083 219.243H576.955V303.643H719.083V219.243Z" stroke="#4D4D4D" stroke-opacity="0.17"/>
<path d="M861.217 219.243H719.09V303.643H861.217V219.243Z" stroke="#4D4D4D" stroke-opacity="0.17"/>
<path d="M1003.35 219.243H861.22V303.643H1003.35V219.243Z" stroke="#4D4D4D" stroke-opacity="0.17"/>
<path d="M1145.48 219.243H1003.35V303.643H1145.48V219.243Z" stroke="#4D4D4D" stroke-opacity="0.17"/>
<path d="M1287.61 219.243H1145.48V303.643H1287.61V219.243Z" stroke="#4D4D4D" stroke-opacity="0.17"/>
<path d="M1429.74 219.243H1287.61V303.643H1429.74V219.243Z" stroke="#4D4D4D" stroke-opacity="0.17"/>
<path d="M1571.87 219.243H1429.75V303.643H1571.87V219.243Z" stroke="#4D4D4D" stroke-opacity="0.17"/>
<path d="M8.4234 303.62H-133.704V388.02H8.4234V303.62Z" stroke="#4D4D4D" stroke-opacity="0.17"/>
<path d="M150.557 303.62H8.42964V388.02H150.557V303.62Z" stroke="#4D4D4D" stroke-opacity="0.17"/>
<path d="M292.688 303.62H150.561V388.02H292.688V303.62Z" stroke="#4D4D4D" stroke-opacity="0.17"/>
<path d="M434.816 303.62H292.689V388.02H434.816V303.62Z" stroke="#4D4D4D" stroke-opacity="0.17"/>
<path d="M576.948 303.62H434.82V388.02H576.948V303.62Z" stroke="#4D4D4D" stroke-opacity="0.17"/>
<path d="M719.083 303.62H576.955V388.02H719.083V303.62Z" stroke="#4D4D4D" stroke-opacity="0.17"/>
<path d="M861.217 303.62H719.09V388.02H861.217V303.62Z" stroke="#4D4D4D" stroke-opacity="0.17"/>
<path d="M1003.35 303.62H861.22V388.02H1003.35V303.62Z" stroke="#4D4D4D" stroke-opacity="0.17"/>
<path d="M1145.48 303.62H1003.35V388.02H1145.48V303.62Z" stroke="#4D4D4D" stroke-opacity="0.17"/>
<path d="M1287.61 303.62H1145.48V388.02H1287.61V303.62Z" stroke="#4D4D4D" stroke-opacity="0.17"/>
<path d="M1429.74 303.621H1287.61V388.021H1429.74V303.621Z" stroke="#4D4D4D" stroke-opacity="0.17"/>
<path d="M1571.87 303.62H1429.75V388.02H1571.87V303.62Z" stroke="#4D4D4D" stroke-opacity="0.17"/>
<path d="M8.4234 388H-133.704V472.4H8.4234V388Z" stroke="#4D4D4D" stroke-opacity="0.17"/>
<path d="M150.557 388H8.42964V472.4H150.557V388Z" stroke="#4D4D4D" stroke-opacity="0.17"/>
<path d="M292.688 388H150.561V472.4H292.688V388Z" stroke="#4D4D4D" stroke-opacity="0.17"/>
<path d="M434.816 388H292.689V472.4H434.816V388Z" stroke="#4D4D4D" stroke-opacity="0.17"/>
<path d="M576.948 388H434.82V472.4H576.948V388Z" stroke="#4D4D4D" stroke-opacity="0.17"/>
<path d="M719.083 388H576.955V472.4H719.083V388Z" stroke="#4D4D4D" stroke-opacity="0.17"/>
<path d="M861.217 388H719.09V472.4H861.217V388Z" stroke="#4D4D4D" stroke-opacity="0.17"/>
<path d="M1003.35 388H861.22V472.4H1003.35V388Z" stroke="#4D4D4D" stroke-opacity="0.17"/>
<path d="M1145.48 388H1003.35V472.4H1145.48V388Z" stroke="#4D4D4D" stroke-opacity="0.17"/>
<path d="M1287.61 388H1145.48V472.4H1287.61V388Z" stroke="#4D4D4D" stroke-opacity="0.17"/>
<path d="M1429.74 388H1287.61V472.4H1429.74V388Z" stroke="#4D4D4D" stroke-opacity="0.17"/>
<path d="M1571.87 388H1429.75V472.4H1571.87V388Z" stroke="#4D4D4D" stroke-opacity="0.17"/>
<path d="M8.4234 472.377H-133.704V556.777H8.4234V472.377Z" stroke="#4D4D4D" stroke-opacity="0.17"/>
<path d="M150.557 472.377H8.42964V556.777H150.557V472.377Z" stroke="#4D4D4D" stroke-opacity="0.17"/>
<path d="M292.688 472.377H150.561V556.777H292.688V472.377Z" stroke="#4D4D4D" stroke-opacity="0.17"/>
<path d="M434.816 472.377H292.689V556.777H434.816V472.377Z" stroke="#4D4D4D" stroke-opacity="0.17"/>
<path d="M576.948 472.377H434.82V556.777H576.948V472.377Z" stroke="#4D4D4D" stroke-opacity="0.17"/>
<path d="M719.083 472.377H576.955V556.777H719.083V472.377Z" stroke="#4D4D4D" stroke-opacity="0.17"/>
<path d="M861.217 472.377H719.09V556.777H861.217V472.377Z" stroke="#4D4D4D" stroke-opacity="0.17"/>
<path d="M1003.35 472.377H861.22V556.777H1003.35V472.377Z" stroke="#4D4D4D" stroke-opacity="0.17"/>
<path d="M1145.48 472.377H1003.35V556.777H1145.48V472.377Z" stroke="#4D4D4D" stroke-opacity="0.17"/>
<path d="M1287.61 472.377H1145.48V556.777H1287.61V472.377Z" stroke="#4D4D4D" stroke-opacity="0.17"/>
<path d="M1429.74 472.377H1287.61V556.777H1429.74V472.377Z" stroke="#4D4D4D" stroke-opacity="0.17"/>
<path d="M1571.87 472.377H1429.75V556.777H1571.87V472.377Z" stroke="#4D4D4D" stroke-opacity="0.17"/>
<path d="M1287.97 450.835V472.634H1251.26" stroke="url(#paint1_linear_1_449)" stroke-linecap="round"/>
<path d="M1287.19 450.835V472.172H1324.68" stroke="url(#paint2_linear_1_449)" stroke-linecap="round"/>
<path d="M1287.19 493.507V472.172H1324.68" stroke="url(#paint3_linear_1_449)" stroke-linecap="round"/>
<path d="M1287.19 493.507V472.172H1249.7" stroke="url(#paint4_linear_1_449)" stroke-linecap="round"/>
</g>
</g>
<defs>
<radialGradient id="paint0_radial_1_449" cx="0" cy="0" r="1" gradientUnits="userSpaceOnUse" gradientTransform="translate(719.359 387.9) rotate(90) scale(1031.43 1912.8)">
<stop stop-color="white" stop-opacity="0.46"/>
<stop offset="0.54" stop-color="white" stop-opacity="0"/>
</radialGradient>
<linearGradient id="paint1_linear_1_449" x1="1288.45" y1="450.835" x2="1268.44" y2="483.241" gradientUnits="userSpaceOnUse">
<stop offset="0.0394381" stop-color="#EBEBEB"/>
<stop offset="0.55"/>
<stop offset="1" stop-color="#EBEBEB"/>
</linearGradient>
<linearGradient id="paint2_linear_1_449" x1="1286.7" y1="450.835" x2="1305.9" y2="483.283" gradientUnits="userSpaceOnUse">
<stop offset="0.0394381" stop-color="#EBEBEB"/>
<stop offset="0.55"/>
<stop offset="1" stop-color="#EBEBEB"/>
</linearGradient>
<linearGradient id="paint3_linear_1_449" x1="1286.7" y1="493.507" x2="1305.9" y2="461.059" gradientUnits="userSpaceOnUse">
<stop offset="0.0394381" stop-color="#EBEBEB"/>
<stop offset="0.55"/>
<stop offset="1" stop-color="#EBEBEB"/>
</linearGradient>
<linearGradient id="paint4_linear_1_449" x1="1287.68" y1="493.507" x2="1268.48" y2="461.06" gradientUnits="userSpaceOnUse">
<stop offset="0.0394381" stop-color="#EBEBEB"/>
<stop offset="0.55"/>
<stop offset="1" stop-color="#EBEBEB"/>
</linearGradient>
</defs>
</svg>
