<svg width="131" height="33" viewBox="0 0 131 33" fill="none" xmlns="http://www.w3.org/2000/svg">
<rect width="33.0229" height="32.9771" rx="3.29771" fill="#002852"/>
<path d="M12.3804 8.59229C13.2909 8.59247 14.0288 9.33118 14.0288 10.2417C14.0287 11.1522 13.2908 11.89 12.3804 11.8901H11.2759L17.6626 21.8462C18.1547 22.6134 17.9314 23.6333 17.1636 24.1245C16.3957 24.6157 15.3745 24.3917 14.8823 23.6245L6.89404 11.1743C6.82284 11.0707 6.76456 10.9582 6.71826 10.8394C6.71533 10.8319 6.71229 10.8244 6.70947 10.8169C6.69374 10.7747 6.67977 10.7318 6.66748 10.688C6.66473 10.6782 6.66223 10.6685 6.65967 10.6587C6.63527 10.5652 6.61846 10.4688 6.61084 10.3696C6.60983 10.3566 6.60959 10.3436 6.60889 10.3306C6.60732 10.3011 6.60498 10.2715 6.60498 10.2417C6.60498 10.2326 6.60581 10.2234 6.60596 10.2144C6.60619 10.2003 6.60732 10.1864 6.60791 10.1724C6.62345 9.79658 6.76267 9.45297 6.98877 9.18311C6.99777 9.17234 7.00778 9.16241 7.01709 9.15186C7.04392 9.12144 7.07112 9.09135 7.1001 9.06299C7.10635 9.05688 7.11326 9.05144 7.11963 9.04541C7.1911 8.97764 7.26837 8.91602 7.35107 8.86182C7.35598 8.85861 7.36078 8.85522 7.36572 8.85205C7.37591 8.84553 7.3867 8.83976 7.39697 8.8335C7.43289 8.8116 7.46967 8.79113 7.50732 8.77197C7.51343 8.76886 7.51975 8.76622 7.52588 8.76318C7.56643 8.74319 7.60755 8.7242 7.6499 8.70752C7.66382 8.70201 7.67789 8.697 7.69189 8.69189C7.72817 8.67875 7.76484 8.66639 7.80225 8.65576C7.82234 8.65001 7.84258 8.6451 7.86279 8.64014C7.89025 8.63346 7.91782 8.62686 7.9458 8.62158C7.97692 8.61564 8.00829 8.61203 8.03955 8.60791C8.0613 8.60509 8.08298 8.60109 8.10498 8.59912C8.14176 8.59577 8.17855 8.59414 8.21533 8.59326C8.22799 8.59297 8.24069 8.59229 8.25342 8.59229H12.3804ZM24.8071 8.59424C24.8436 8.59512 24.8801 8.59582 24.9165 8.59912C24.9388 8.60109 24.9608 8.60506 24.9829 8.60791C25.0135 8.61195 25.0442 8.61579 25.0747 8.62158C25.104 8.62707 25.1329 8.63409 25.1616 8.64111C25.1811 8.64593 25.2008 8.65021 25.2202 8.65576C25.26 8.66706 25.2989 8.68067 25.3374 8.69482C25.3474 8.69853 25.3577 8.70165 25.3677 8.70557C25.4097 8.72194 25.4505 8.74062 25.4907 8.76025C25.4988 8.76422 25.5071 8.76786 25.5151 8.77197C26.0508 9.04428 26.4185 9.59962 26.4185 10.2417C26.4184 10.5916 26.3084 10.9153 26.1226 11.1821L20.4331 20.0513L18.4722 16.9946L21.7476 11.8901H20.6431C19.7325 11.8901 18.9947 11.1523 18.9946 10.2417C18.9946 9.33106 19.7324 8.59229 20.6431 8.59229H24.77C24.7824 8.59229 24.7948 8.59396 24.8071 8.59424Z" fill="white"/>
<path d="M42.3255 23.4885H39.513L44.6337 8.94307H47.8866L53.0144 23.4885H50.2019L46.317 11.926H46.2033L42.3255 23.4885ZM42.4178 17.7854H50.0883V19.9019H42.4178V17.7854ZM59.2431 23.7016C58.1541 23.7016 57.219 23.4625 56.4377 22.9843C55.6612 22.506 55.0622 21.8455 54.6408 21.0027C54.2242 20.1552 54.0158 19.1798 54.0158 18.0766C54.0158 16.9686 54.2289 15.9909 54.6551 15.1434C55.0812 14.2911 55.6825 13.6282 56.459 13.1547C57.2403 12.6765 58.1636 12.4374 59.2289 12.4374C60.1143 12.4374 60.8979 12.6007 61.5798 12.9274C62.2663 13.2494 62.8132 13.7063 63.2204 14.2982C63.6276 14.8853 63.8596 15.5719 63.9164 16.3578H61.459C61.3596 15.8323 61.1229 15.3943 60.7488 15.0439C60.3795 14.6888 59.8847 14.5113 59.2644 14.5113C58.7389 14.5113 58.2772 14.6533 57.8795 14.9374C57.4818 15.2167 57.1716 15.6192 56.9491 16.1448C56.7313 16.6703 56.6224 17.3001 56.6224 18.034C56.6224 18.7774 56.7313 19.4166 56.9491 19.9516C57.1669 20.4819 57.4723 20.8915 57.8653 21.1803C58.263 21.4644 58.7294 21.6064 59.2644 21.6064C59.6432 21.6064 59.9818 21.5354 60.2801 21.3934C60.5831 21.2466 60.8364 21.0359 61.04 20.7613C61.2436 20.4866 61.3833 20.1528 61.459 19.7598H63.9164C63.8549 20.5316 63.6276 21.2158 63.2346 21.8124C62.8416 22.4042 62.3066 22.8683 61.6295 23.2044C60.9524 23.5359 60.1569 23.7016 59.2431 23.7016ZM69.1668 23.7087C68.4755 23.7087 67.8528 23.5856 67.2989 23.3394C66.7496 23.0884 66.314 22.7191 65.9921 22.2314C65.6748 21.7437 65.5162 21.1424 65.5162 20.4274C65.5162 19.8119 65.6298 19.3029 65.8571 18.9005C66.0844 18.498 66.3945 18.176 66.7875 17.9345C67.1805 17.6931 67.6232 17.5108 68.1156 17.3877C68.6128 17.2598 69.1265 17.1675 69.6568 17.1107C70.296 17.0444 70.8145 16.9852 71.2122 16.9331C71.61 16.8763 71.8988 16.7911 72.0787 16.6774C72.2634 16.5591 72.3557 16.3768 72.3557 16.1306V16.088C72.3557 15.5529 72.1971 15.1386 71.8798 14.8451C71.5626 14.5515 71.1057 14.4047 70.5091 14.4047C69.8794 14.4047 69.3798 14.542 69.0105 14.8167C68.6459 15.0913 68.3997 15.4156 68.2719 15.7897L65.8713 15.4488C66.0607 14.7859 66.3732 14.2319 66.8088 13.7868C67.2444 13.337 67.7771 13.0008 68.4068 12.7783C69.0366 12.551 69.7326 12.4374 70.4949 12.4374C71.0205 12.4374 71.5437 12.4989 72.0645 12.622C72.5853 12.7452 73.0612 12.9488 73.4921 13.2328C73.9229 13.5122 74.2686 13.8934 74.529 14.3763C74.7941 14.8593 74.9267 15.463 74.9267 16.1874V23.4885H72.4551V21.9899H72.3699C72.2136 22.293 71.9935 22.5771 71.7094 22.8422C71.43 23.1026 71.0773 23.3133 70.6511 23.4743C70.2297 23.6306 69.735 23.7087 69.1668 23.7087ZM69.8344 21.8195C70.3505 21.8195 70.7979 21.7177 71.1767 21.5141C71.5555 21.3058 71.8467 21.0311 72.0503 20.6902C72.2586 20.3493 72.3628 19.9776 72.3628 19.5752V18.2897C72.2823 18.3559 72.145 18.4175 71.9509 18.4743C71.7615 18.5311 71.5484 18.5809 71.3117 18.6235C71.0749 18.6661 70.8405 18.704 70.6085 18.7371C70.3765 18.7702 70.1753 18.7987 70.0048 18.8223C69.6213 18.8744 69.278 18.9596 68.975 19.078C68.672 19.1964 68.4329 19.3621 68.2577 19.5752C68.0825 19.7835 67.9949 20.0534 67.9949 20.3848C67.9949 20.8583 68.1677 21.2158 68.5134 21.4573C68.859 21.6988 69.2993 21.8195 69.8344 21.8195ZM81.5602 23.6803C80.7032 23.6803 79.9362 23.4601 79.2591 23.0198C78.582 22.5794 78.047 21.9402 77.654 21.1022C77.261 20.2641 77.0645 19.2461 77.0645 18.0482C77.0645 16.8361 77.2634 15.8133 77.6611 14.98C78.0636 14.1419 78.6057 13.5098 79.2875 13.0837C79.9693 12.6528 80.7293 12.4374 81.5673 12.4374C82.2065 12.4374 82.7321 12.5463 83.144 12.7641C83.556 12.9772 83.8827 13.2352 84.1242 13.5382C84.3656 13.8365 84.5527 14.1183 84.6852 14.3834H84.7918V8.94307H87.3699V23.4885H84.8415V21.7698H84.6852C84.5527 22.0349 84.3609 22.3167 84.11 22.6149C83.859 22.9085 83.5276 23.1595 83.1156 23.3678C82.7037 23.5761 82.1852 23.6803 81.5602 23.6803ZM82.2776 21.5709C82.8221 21.5709 83.2861 21.4241 83.6696 21.1306C84.0531 20.8323 84.3443 20.418 84.5432 19.8877C84.7421 19.3574 84.8415 18.7395 84.8415 18.034C84.8415 17.3285 84.7421 16.7153 84.5432 16.1945C84.3491 15.6737 84.0602 15.2688 83.6767 14.98C83.2979 14.6912 82.8315 14.5468 82.2776 14.5468C81.7046 14.5468 81.2264 14.6959 80.8429 14.9942C80.4594 15.2925 80.1706 15.7044 79.9764 16.23C79.7823 16.7556 79.6852 17.3569 79.6852 18.034C79.6852 18.7158 79.7823 19.3242 79.9764 19.8593C80.1753 20.3896 80.4665 20.8086 80.85 21.1164C81.2383 21.4194 81.7141 21.5709 82.2776 21.5709ZM94.9391 23.7016C93.8454 23.7016 92.9008 23.4743 92.1053 23.0198C91.3146 22.5605 90.7062 21.9118 90.2801 21.0738C89.8539 20.2309 89.6408 19.239 89.6408 18.0979C89.6408 16.9757 89.8539 15.9909 90.2801 15.1434C90.7109 14.2911 91.3122 13.6282 92.084 13.1547C92.8558 12.6765 93.7625 12.4374 94.8042 12.4374C95.4765 12.4374 96.111 12.5463 96.7076 12.7641C97.3089 12.9772 97.8392 13.3086 98.2985 13.7584C98.7625 14.2082 99.1271 14.7811 99.3923 15.4772C99.6574 16.1684 99.79 16.9923 99.79 17.9488V18.7371H90.8482V17.0042H97.3255C97.3208 16.5117 97.2142 16.0738 97.0059 15.6902C96.7976 15.302 96.5064 14.9966 96.1323 14.774C95.763 14.5515 95.3321 14.4402 94.8397 14.4402C94.3141 14.4402 93.8525 14.5681 93.4548 14.8238C93.057 15.0747 92.7469 15.4061 92.5244 15.8181C92.3066 16.2253 92.1953 16.6727 92.1906 17.1604V18.6732C92.1906 19.3077 92.3066 19.8522 92.5386 20.3067C92.7706 20.7565 93.0949 21.1022 93.5116 21.3436C93.9283 21.5804 94.4159 21.6988 94.9747 21.6988C95.3487 21.6988 95.6872 21.6467 95.9903 21.5425C96.2933 21.4336 96.5561 21.275 96.7786 21.0667C97.0012 20.8583 97.1693 20.6003 97.2829 20.2925L99.6835 20.5624C99.5319 21.1969 99.2431 21.7508 98.817 22.2243C98.3956 22.6931 97.8558 23.0577 97.1977 23.3181C96.5395 23.5738 95.7867 23.7016 94.9391 23.7016ZM101.965 23.4885V12.5794H104.422V14.4331H104.55C104.778 13.8081 105.154 13.3204 105.68 12.9701C106.205 12.6149 106.832 12.4374 107.562 12.4374C108.3 12.4374 108.923 12.6173 109.43 12.9772C109.941 13.3323 110.301 13.8176 110.509 14.4331H110.623C110.864 13.8271 111.271 13.3441 111.844 12.9843C112.422 12.6197 113.106 12.4374 113.897 12.4374C114.901 12.4374 115.72 12.7546 116.354 13.3891C116.989 14.0236 117.306 14.9492 117.306 16.1661V23.4885H114.728V16.5638C114.728 15.8867 114.548 15.3919 114.188 15.0794C113.828 14.7622 113.388 14.6036 112.867 14.6036C112.247 14.6036 111.761 14.7977 111.411 15.186C111.065 15.5695 110.893 16.069 110.893 16.6845V23.4885H108.371V16.4573C108.371 15.8938 108.201 15.444 107.86 15.1078C107.524 14.7717 107.083 14.6036 106.539 14.6036C106.17 14.6036 105.833 14.6983 105.53 14.8877C105.227 15.0723 104.986 15.3351 104.806 15.676C104.626 16.0122 104.536 16.4052 104.536 16.855V23.4885H101.965ZM121.122 27.5794C120.771 27.5794 120.447 27.551 120.149 27.4942C119.855 27.4421 119.621 27.3806 119.446 27.3095L120.042 25.3067C120.416 25.4156 120.75 25.4677 121.044 25.463C121.337 25.4582 121.595 25.3659 121.818 25.186C122.045 25.0108 122.237 24.7172 122.393 24.3053L122.613 23.7158L118.657 12.5794H121.384L123.899 20.8181H124.012L126.534 12.5794H129.268L124.9 24.8095C124.696 25.3872 124.427 25.882 124.09 26.2939C123.754 26.7106 123.342 27.0278 122.855 27.2456C122.372 27.4682 121.794 27.5794 121.122 27.5794Z" fill="#002852"/>
</svg>
