<svg width="24" height="24" viewBox="0 0 24 24" fill="none" xmlns="http://www.w3.org/2000/svg">
<path fill-rule="evenodd" clip-rule="evenodd" d="M8.19628 17.9417C8.17983 17.8281 8.15491 17.7208 8.12326 17.6197L13.0093 17.6198C13.511 17.6198 15.0852 17.6198 15.0852 17.6198L16.6606 20.1657C17.4452 21.4609 19.1215 21.8624 20.4134 21.1445C21.6991 20.43 22.2103 18.8252 21.5087 17.5076C22.6333 17.1802 23.5007 16.1668 23.5007 14.8909C23.5007 13.33 22.2025 12.1622 20.7239 12.1622H18.2856L15.7669 8.19577C15.7586 8.18265 15.7501 8.16967 15.7414 8.15682C15.5916 7.93639 15.334 7.66002 14.9371 7.50539L16.0703 5.6165C16.8737 4.27732 16.3719 2.59246 15.0452 1.8552C14.0663 1.31123 12.8669 1.41006 12.0018 2.05308C11.1365 1.40842 9.93566 1.30938 8.95618 1.8535C7.6292 2.59068 7.12774 4.27588 7.93112 5.61489L8.7776 7.02581L5.69632 12.1621H3.27748C1.79864 12.1621 0.500671 13.3301 0.500671 14.8909C0.500671 16.1671 1.36843 17.1806 2.49331 17.5078C1.79072 18.8257 2.30185 20.4315 3.58806 21.1462C4.87269 21.86 6.53751 21.467 7.32764 20.1888L7.80693 19.4607C8.0249 19.1413 8.12502 18.825 8.17106 18.5868C8.19479 18.464 8.20536 18.3561 8.20958 18.2696C8.2117 18.2261 8.21226 18.1871 8.21195 18.1534C8.21187 18.1449 8.21128 18.1486 8.21063 18.1525C8.21 18.1564 8.20932 18.1605 8.20907 18.1534C8.20838 18.1418 8.20756 18.1238 8.20661 18.1029C8.20409 18.0475 8.20064 17.9719 8.19628 17.9417ZM6.06075 19.3853L6.56264 18.6228C6.72564 18.3896 6.71173 18.1565 6.71173 18.1565C6.60921 17.4479 5.19258 17.3 5.19258 17.3C4.5906 17.2452 4.28966 17.5364 4.16772 17.705L3.84923 18.1565C3.49665 18.7442 3.70599 19.4957 4.31659 19.835C4.92729 20.1743 5.70816 19.973 6.06075 19.3853ZM17.7118 13.6622H20.7239C21.429 13.6622 22.0007 14.2123 22.0007 14.8909C22.0007 15.5695 21.429 16.1196 20.7239 16.1196H19.2024C18.9727 16.1202 19.0105 16.2429 19.0322 16.2882L20.152 18.1548C20.5047 18.7425 20.2954 19.494 19.6848 19.8333C19.0739 20.1727 18.2931 19.9713 17.9406 19.3837L14.005 13.0234C13.7658 12.5666 13.0796 11.0555 13.6805 9.72627C13.6805 9.72627 14.1837 8.53341 14.5007 8.99985L17.3797 13.5337L17.3819 13.5374C17.4172 13.5784 17.5067 13.649 17.7118 13.6622ZM13.0093 16.1198C13.6313 16.1198 13.4705 15.3327 13.4705 15.3327C13.2259 13.7183 11.434 13.6625 11.434 13.6625L9.72377 13.6621C9.55459 13.6476 9.56155 13.5647 9.58428 13.512L14.784 4.84482C15.1366 4.2571 14.9273 3.50572 14.3166 3.1664C13.7059 2.82698 12.9251 3.02845 12.5725 3.61606L12.0012 4.56838L11.4289 3.61436C11.0763 3.02664 10.2954 2.82539 9.6847 3.1647C9.074 3.50391 8.86476 4.25551 9.21735 4.84312L10.4515 6.90015C10.4613 6.91809 10.5191 7.03184 10.451 7.15216L6.71438 13.3809L6.71173 13.3796C6.71173 13.3796 6.60226 13.6364 6.14009 13.6621H3.27748C2.57231 13.6621 2.00067 14.2123 2.00067 14.8909C2.00067 15.5695 2.57231 16.1196 3.27748 16.1196L13.0093 16.1198Z" fill="#002852"/>
</svg>
