<svg width="16" height="16" viewBox="0 0 16 16" fill="none" xmlns="http://www.w3.org/2000/svg">
<path d="M12 15H4C3.73478 15 3.48043 14.8946 3.29289 14.7071C3.10536 14.5196 3 14.2652 3 14V2C3 1.73478 3.10536 1.48043 3.29289 1.29289C3.48043 1.10536 3.73478 1 4 1H12C12.2652 1 12.5196 1.10536 12.7071 1.29289C12.8946 1.48043 13 1.73478 13 2V10.309L10.5 9.059L8 10.309V2H4V14H12V12H13V14C12.9996 14.2651 12.8941 14.5192 12.7067 14.7067C12.5192 14.8941 12.2651 14.9996 12 15ZM10.5 7.941L12 8.691V2H9V8.691L10.5 7.941Z" fill="black"/>
</svg>
