<svg width="19" height="19" viewBox="0 0 19 19" fill="none" xmlns="http://www.w3.org/2000/svg">
<g clip-path="url(#clip0_463_5780)">
<path d="M13.2759 4.92301C13.5614 4.7183 13.9138 5.07069 13.7091 5.35613L11.002 9.13087C10.9244 9.239 10.9244 9.38452 11.002 9.49265L13.7091 13.2674C13.9138 13.5528 13.5614 13.9052 13.2759 13.7005L9.5012 10.9934C9.39307 10.9159 9.24755 10.9159 9.13942 10.9934L5.36468 13.7005C5.07924 13.9052 4.72686 13.5528 4.93156 13.2674L7.63865 9.49265C7.71619 9.38452 7.71619 9.239 7.63865 9.13087L4.93156 5.35613C4.72686 5.07068 5.07924 4.7183 5.36468 4.92301L9.13942 7.63009C9.24755 7.70764 9.39307 7.70764 9.5012 7.63009L13.2759 4.92301Z" fill="#6C6C6C"/>
</g>
<defs>
<clipPath id="clip0_463_5780">
<rect width="18.6324" height="18.6233" fill="white"/>
</clipPath>
</defs>
</svg>
