<svg width="32" height="32" viewBox="0 0 32 32" fill="none" xmlns="http://www.w3.org/2000/svg">
<g id="Close Icon">
<path id="Vector" d="M22.3696 9.6394C21.9752 9.24501 21.3381 9.24501 20.9437 9.6394L15.9987 14.5743L11.0537 9.62929C10.6593 9.2349 10.0222 9.2349 9.62782 9.62929C9.23343 10.0237 9.23343 10.6608 9.62782 11.0552L14.5728 16.0002L9.62782 20.9452C9.23343 21.3396 9.23343 21.9767 9.62782 22.371C10.0222 22.7654 10.6593 22.7654 11.0537 22.371L15.9987 17.426L20.9437 22.371C21.3381 22.7654 21.9752 22.7654 22.3696 22.371C22.764 21.9767 22.764 21.3396 22.3696 20.9452L17.4246 16.0002L22.3696 11.0552C22.7538 10.6709 22.7538 10.0237 22.3696 9.6394Z" fill="white"/>
</g>
</svg>
