<svg width="25" height="51" viewBox="0 0 25 51" fill="none" xmlns="http://www.w3.org/2000/svg">
<g clip-path="url(#clip0_1312_18776)">
<path d="M9.61257 38.52C9.61257 37.4427 9.61257 36.2577 9.61257 35.1804C9.72046 25.7 9.93623 16.1119 10.0441 6.63151C10.0441 5.55419 10.0441 4.58461 10.152 3.50729C10.2599 2.10678 10.5835 0.383081 12.4176 0.706275C13.1728 0.814007 14.0359 2.42998 14.1438 3.39956C14.5753 11.3717 14.899 19.2361 15.2226 27.2082C15.3305 29.0397 15.2226 30.8711 16.1936 32.8103C17.4882 30.6556 18.5671 28.3933 19.9696 26.3464C20.6169 25.3768 22.2352 24.2995 23.2062 24.5149C25.1482 24.9459 24.9324 27.1005 24.2851 28.3933C21.48 34.8572 18.675 41.4288 15.3305 47.6772C13.1728 51.6633 9.93623 51.6633 7.77851 47.6772C4.86559 42.3984 2.70787 36.6886 0.334374 31.1943C0.0107162 30.5479 0.765917 29.4706 0.981689 28.6087C1.84478 28.9319 3.13941 28.9319 3.57096 29.5783C4.64982 30.8711 5.29713 32.5948 6.16022 34.103C7.02331 35.719 7.88639 37.335 8.74948 38.8432C8.96525 38.6278 9.28891 38.52 9.61257 38.52Z" fill="#B2BECB"/>
</g>
<defs>
<clipPath id="clip0_1312_18776">
<rect width="24.4898" height="50" fill="white" transform="translate(0.254883 0.666748)"/>
</clipPath>
</defs>
</svg>
