<svg width="204" height="204" viewBox="0 0 204 204" fill="none" xmlns="http://www.w3.org/2000/svg">
<path d="M66.9375 161.645V175.166C35.6108 165.584 12.75 136.419 12.75 102C12.75 59.8166 47.0666 25.5 89.25 25.5C125.964 25.5 156.697 51.51 164.054 86.0625H150.903C148.826 78.1116 145.233 70.6369 140.32 64.0496C135.411 65.0696 129.068 68.9393 127.5 76.5C125.849 84.4369 102 97.2188 102 82.875C102 58.6118 85.4378 68.2762 83.1427 38.5624C67.874 40.0372 53.6551 46.9892 43.1141 58.1336C52.0327 64.3748 70.125 62.2009 70.125 76.5C70.125 85.7374 48.1312 89.862 50.5028 102.102C53.1802 115.955 43.6114 127.226 39.7736 142.073C46.9369 150.886 56.3106 157.639 66.9375 161.645ZM165.75 143.438V175.312C165.75 176.158 165.414 176.969 164.816 177.566C164.219 178.164 163.408 178.5 162.562 178.5H156.188C155.342 178.5 154.531 178.164 153.934 177.566C153.336 176.969 153 176.158 153 175.312V143.438C153 142.592 153.336 141.781 153.934 141.184C154.531 140.586 155.342 140.25 156.188 140.25H162.562C163.408 140.25 164.219 140.586 164.816 141.184C165.414 141.781 165.75 142.592 165.75 143.438ZM114.75 162.562V175.312C114.75 176.158 114.414 176.969 113.816 177.566C113.219 178.164 112.408 178.5 111.562 178.5H105.188C104.342 178.5 103.531 178.164 102.934 177.566C102.336 176.969 102 176.158 102 175.312V162.562C102 161.717 102.336 160.906 102.934 160.309C103.531 159.711 104.342 159.375 105.188 159.375H111.562C112.408 159.375 113.219 159.711 113.816 160.309C114.414 160.906 114.75 161.717 114.75 162.562ZM140.25 156.188V175.312C140.25 176.158 139.914 176.969 139.316 177.566C138.719 178.164 137.908 178.5 137.062 178.5H130.688C129.842 178.5 129.031 178.164 128.434 177.566C127.836 176.969 127.5 176.158 127.5 175.312V156.188C127.5 155.342 127.836 154.531 128.434 153.934C129.031 153.336 129.842 153 130.688 153H137.062C137.908 153 138.719 153.336 139.316 153.934C139.914 154.531 140.25 155.342 140.25 156.188Z" fill="#002852"/>
<path d="M89.2522 162.562V175.312C89.2522 176.157 88.9164 176.968 88.3186 177.565C87.7208 178.163 86.9101 178.499 86.0647 178.499H79.6897C78.8443 178.499 78.0336 178.163 77.4358 177.565C76.838 176.968 76.5022 176.157 76.5022 175.312V162.562C76.5022 161.716 76.838 160.905 77.4358 160.308C78.0336 159.71 78.8443 159.374 79.6897 159.374H86.0647C86.9101 159.374 87.7208 159.71 88.3186 160.308C88.9164 160.905 89.2522 161.716 89.2522 162.562ZM104.246 108.578C108.224 114.003 109.384 121.169 107.3 127.926C96.2966 129.864 84.2797 130.565 70.4523 130.661C69.4259 124.101 71.3002 116.929 76.7572 111.198C85.0383 102.515 95.7547 97.0074 104.246 108.578Z" fill="#002852"/>
<path d="M191.25 95.625V124.421C191.249 124.672 191.174 124.918 191.033 125.126C190.893 125.335 190.695 125.498 190.462 125.594C190.23 125.69 189.974 125.715 189.728 125.666C189.481 125.618 189.254 125.497 189.076 125.32L179.507 115.751C145.121 146.172 113.896 152.694 70.1951 152.987C68.4165 153 66.9375 151.572 66.9375 149.079V143.399C66.9459 142.558 67.2863 141.755 67.8846 141.164C68.4828 140.573 69.2904 140.242 70.1314 140.244C109.236 140.021 137.834 135.316 170.467 106.717L161.555 97.8053C161.376 97.6273 161.253 97.4 161.203 97.1523C161.153 96.9046 161.178 96.6477 161.274 96.414C161.371 96.1804 161.534 95.9807 161.744 95.8402C161.954 95.6997 162.201 95.6248 162.454 95.625H191.25Z" fill="#002852"/>
</svg>
