<svg width="156" height="207" viewBox="0 0 156 207" fill="none" xmlns="http://www.w3.org/2000/svg">
<circle cx="64.2815" cy="43.9611" r="43.9611" fill="#002852"/>
<path d="M60.092 54.3417C58.1444 54.3417 56.5574 52.7583 56.5574 50.8072H49.4883C49.4883 56.6533 54.2458 61.4109 60.092 61.4109V68.48H67.1611V61.4109H77.7648V50.8072C77.7648 44.961 73.0073 40.2035 67.1611 40.2035H60.092C58.1444 40.2035 56.5574 38.62 56.5574 36.6689V33.1344H67.1611C69.1087 33.1344 70.6957 34.7178 70.6957 36.6689H77.7648C77.7648 30.8227 73.0073 26.0652 67.1611 26.0652V18.9961H60.092V26.0652H49.4883V36.6689C49.4883 42.5151 54.2458 47.2726 60.092 47.2726H67.1611C69.1087 47.2726 70.6957 48.8561 70.6957 50.8072V54.3417H60.092Z" fill="white"/>
<path d="M127.244 199.254H113.106V149.77H84.8296V199.254H70.6913V135.632H42.4148V199.254H28.2765V163.909H0V206.323H155.521V107.355H127.244V199.254ZM21.2074 199.254H7.06913V170.978H21.2074V199.254ZM91.8987 156.839H106.037V199.254H91.8987V156.839ZM49.4839 142.701H63.6222V199.254H49.4839V142.701ZM134.313 114.425H148.452V199.254H134.313V114.425Z" fill="#002852"/>
<path d="M106.104 116.431C103.95 115.131 101.484 114.439 98.9678 114.426C96.6108 114.43 94.2921 115.023 92.2232 116.152C90.1544 117.281 88.4011 118.911 87.1235 120.891L70.5959 115.381C70.6171 115.059 70.6913 114.755 70.6913 114.426C70.6913 106.629 64.3503 100.288 56.553 100.288C48.7558 100.288 42.4148 106.629 42.4148 114.426C42.4148 116.052 42.747 117.59 43.2525 119.046L23.5155 132.205C20.9479 129.873 17.6068 128.576 14.1383 128.565C6.34101 128.565 0 134.906 0 142.703C0 150.5 6.34101 156.841 14.1383 156.841C21.9355 156.841 28.2765 150.5 28.2765 142.703C28.2765 141.077 27.9443 139.54 27.4388 138.083L47.1758 124.924C49.7433 127.256 53.0845 128.553 56.553 128.565C58.91 128.562 61.2287 127.968 63.2976 126.839C65.3665 125.71 67.1197 124.081 68.3974 122.1L84.925 127.61C84.9038 127.932 84.8296 128.236 84.8296 128.565C84.8296 136.362 91.1706 142.703 98.9678 142.703C106.765 142.703 113.106 136.362 113.106 128.565C113.106 125.949 112.346 123.532 111.102 121.428L134.246 98.2841C136.401 99.5834 138.867 100.276 141.383 100.288C149.18 100.288 155.521 93.9472 155.521 86.15C155.521 78.3527 149.18 72.0117 141.383 72.0117C133.585 72.0117 127.244 78.3527 127.244 86.15C127.244 88.7656 128.004 91.1832 129.248 93.2863L106.104 116.431ZM14.1383 149.772C10.2396 149.772 7.06913 146.602 7.06913 142.703C7.06913 138.804 10.2396 135.634 14.1383 135.634C18.0369 135.634 21.2074 138.804 21.2074 142.703C21.2074 146.602 18.0369 149.772 14.1383 149.772ZM56.553 121.496C52.6544 121.496 49.4839 118.325 49.4839 114.426C49.4839 110.528 52.6544 107.357 56.553 107.357C60.4517 107.357 63.6222 110.528 63.6222 114.426C63.6222 118.325 60.4517 121.496 56.553 121.496ZM98.9678 135.634C95.0692 135.634 91.8987 132.463 91.8987 128.565C91.8987 124.666 95.0692 121.496 98.9678 121.496C102.866 121.496 106.037 124.666 106.037 128.565C106.037 132.463 102.866 135.634 98.9678 135.634ZM141.383 79.0808C145.281 79.0808 148.452 82.2514 148.452 86.15C148.452 90.0486 145.281 93.2191 141.383 93.2191C137.484 93.2191 134.313 90.0486 134.313 86.15C134.313 82.2514 137.484 79.0808 141.383 79.0808Z" fill="#002852"/>
</svg>
