<svg width="180" height="180" viewBox="0 0 180 180" fill="none" xmlns="http://www.w3.org/2000/svg">
<path d="M151.843 179.967H28.1223C27.3766 179.967 26.6614 179.671 26.1341 179.144C25.6067 178.616 25.3105 177.901 25.3105 177.155V87.1763C25.2399 85.3111 25.5552 83.4514 26.2367 81.7137C26.9183 79.976 27.9513 78.3977 29.2712 77.0779C30.5911 75.758 32.1693 74.7249 33.907 74.0434C35.6447 73.3618 37.5045 73.0465 39.3697 73.1171H44.9934V78.7408H39.3697C38.2449 78.6815 37.1202 78.8597 36.0687 79.2637C35.0173 79.6677 34.0627 80.2886 33.267 81.0858C32.4713 81.8831 31.8524 82.8389 31.4505 83.8912C31.0485 84.9434 30.8726 86.0685 30.9342 87.1932V174.343H149.032V146.225H154.655V177.155C154.655 177.901 154.359 178.616 153.832 179.144C153.304 179.671 152.589 179.967 151.843 179.967ZM154.655 123.73H149.032V78.7408H143.408V73.1171H151.843C152.589 73.1171 153.304 73.4134 153.832 73.9407C154.359 74.468 154.655 75.1832 154.655 75.929V123.73Z" fill="#002852"/>
<path d="M151.847 98.4277H42.1855C39.9483 98.4277 37.8027 97.5389 36.2207 95.957C34.6387 94.375 33.75 92.2294 33.75 89.9922C33.75 87.7549 34.6387 85.6093 36.2207 84.0273C37.8027 82.4454 39.9483 81.5566 42.1855 81.5566H44.9974V87.1803H42.1855C41.4398 87.1803 40.7246 87.4766 40.1973 88.0039C39.6699 88.5312 39.3737 89.2464 39.3737 89.9922C39.3737 90.7379 39.6699 91.4531 40.1973 91.9804C40.7246 92.5078 41.4398 92.804 42.1855 92.804H151.847V98.4277ZM157.471 149.041H132.164C128.436 149.041 124.86 147.56 122.223 144.923C119.586 142.286 118.105 138.71 118.105 134.982C118.105 131.253 119.586 127.677 122.223 125.04C124.86 122.404 128.436 120.922 132.164 120.922H157.471C158.217 120.922 158.932 121.219 159.459 121.746C159.987 122.273 160.283 122.989 160.283 123.734V146.229C160.283 146.975 159.987 147.69 159.459 148.217C158.932 148.745 158.217 149.041 157.471 149.041ZM132.164 126.546C129.927 126.546 127.782 127.435 126.2 129.017C124.618 130.599 123.729 132.744 123.729 134.982C123.729 137.219 124.618 139.364 126.2 140.946C127.782 142.528 129.927 143.417 132.164 143.417H154.659V126.546H132.164Z" fill="#002852"/>
<path d="M129.357 132.176H134.98V137.799H129.357V132.176ZM129.357 95.6216H123.733V36.5729H56.2487V95.6216H50.625V33.7611C50.625 33.0153 50.9212 32.3001 51.4486 31.7728C51.9759 31.2455 52.6911 30.9492 53.4368 30.9492H126.545C127.29 30.9492 128.006 31.2455 128.533 31.7728C129.06 32.3001 129.357 33.0153 129.357 33.7611V95.6216Z" fill="#002852"/>
<path d="M143.415 95.6101H137.791C137.791 61.3815 161.096 48.1518 171.553 43.9369L139.923 17.1597C130.68 20.5541 122.836 26.9383 117.636 35.2989L112.957 32.1778C124.716 14.5531 139.431 11.432 140.041 11.3111C140.456 11.2276 140.884 11.2389 141.294 11.3441C141.704 11.4492 142.085 11.6456 142.408 11.9184L178.962 42.8487C179.361 43.1853 179.658 43.6261 179.82 44.1218C179.982 44.6176 180.004 45.1487 179.881 45.6558C179.759 46.1629 179.498 46.626 179.128 46.9933C178.757 47.3606 178.292 47.6176 177.784 47.7357C176.392 48.0647 143.415 56.2612 143.415 95.6101Z" fill="#002852"/>
<path d="M134.975 95.6162H129.352C129.352 63.3672 145.576 49.1533 152.878 44.3872L137.101 28.61C133.828 29.8652 131.023 32.1015 129.071 35.0126L124.037 32.4988C127.333 25.9078 136.522 22.7839 136.913 22.6573C137.408 22.4895 137.94 22.4641 138.448 22.5839C138.957 22.7037 139.421 22.964 139.789 23.335L159.472 43.0179C159.795 43.3404 160.034 43.7366 160.17 44.1723C160.305 44.608 160.333 45.0702 160.25 45.5189C160.167 45.9675 159.976 46.3893 159.693 46.7476C159.411 47.106 159.045 47.3903 158.629 47.5759C157.656 48.0061 134.975 58.7108 134.975 95.6162ZM56.2438 87.1807H50.6201C50.6201 53.7198 3.13939 50.6492 2.66137 50.6267C2.13507 50.5985 1.62729 50.423 1.19595 50.1201C0.764617 49.8172 0.427094 49.3992 0.221884 48.9137C0.0166736 48.4282 -0.0479605 47.8949 0.0353542 47.3744C0.118669 46.854 0.346578 46.3675 0.693083 45.9703L40.0589 0.980845C40.3224 0.675708 40.6488 0.431249 41.0158 0.264276C41.3827 0.0973021 41.7815 0.0117741 42.1846 0.0135717C58.1814 -0.3192 73.6999 5.47834 85.5601 16.2182C90.7382 20.8503 95.0131 26.4018 98.1684 32.5916L93.0508 34.9254C92.5166 33.7557 79.4809 6.27836 43.4499 5.63726L8.4847 45.6104C15.594 46.6213 22.5533 48.4966 29.208 51.1947C46.8945 58.5646 56.2438 71.007 56.2438 87.1807Z" fill="#002852"/>
<path d="M51.0924 60.6226C50.9883 60.4623 40.3821 44.9972 22.4987 44.9972C21.9427 44.997 21.3992 44.8321 20.9369 44.5231C20.4746 44.2141 20.1143 43.775 19.9015 43.2613C19.6887 42.7476 19.6331 42.1823 19.7415 41.6369C19.8499 41.0916 20.1176 40.5906 20.5108 40.1974L48.6292 12.0789C48.9459 11.7624 49.3336 11.5261 49.7601 11.3896C50.1866 11.2531 50.6395 11.2205 51.0811 11.2944C51.8038 11.4153 69.0375 14.4521 86.3472 31.7618L82.3713 35.7378C73.8891 26.9494 63.2474 20.5431 51.5113 17.1599L28.7579 39.9134C39.6605 42.1557 49.3104 48.4413 55.7685 57.507L51.0924 60.6226Z" fill="#002852"/>
<path d="M118.112 95.6242H112.488V55.9772C110.5 55.5385 108.68 54.5361 107.247 53.0899C105.814 51.6437 104.828 49.815 104.407 47.8229H75.653C75.2143 49.8112 74.2118 51.6308 72.7656 53.0641C71.3194 54.4973 69.4908 55.4833 67.4987 55.9041V95.6242H61.875V53.4466C61.875 52.7008 62.1712 51.9856 62.6986 51.4583C63.2259 50.931 63.9411 50.6347 64.6868 50.6347C65.4378 50.6826 66.1903 50.5699 66.8943 50.3042C67.5983 50.0385 68.2376 49.6259 68.7696 49.0939C69.3017 48.5618 69.7143 47.9225 69.98 47.2185C70.2457 46.5145 70.3584 45.762 70.3105 45.0111C70.3105 44.2653 70.6068 43.5501 71.1341 43.0228C71.6614 42.4955 72.3766 42.1992 73.1224 42.1992H106.864C107.61 42.1992 108.325 42.4955 108.853 43.0228C109.38 43.5501 109.676 44.2653 109.676 45.0111C109.628 45.7622 109.74 46.5151 110.005 47.2195C110.27 47.924 110.683 48.5636 111.215 49.0959C111.747 49.6282 112.387 50.0408 113.092 50.3061C113.796 50.5715 114.549 50.6835 115.3 50.6347C116.046 50.6347 116.761 50.931 117.288 51.4583C117.816 51.9856 118.112 52.7008 118.112 53.4466V95.6242Z" fill="#002852"/>
<path d="M109.67 95.6203H104.047C104.047 91.8916 102.565 88.3156 99.9288 85.679C97.2922 83.0424 93.7162 81.5611 89.9875 81.5611C86.2588 81.5611 82.6827 83.0424 80.0461 85.679C77.4095 88.3156 75.9283 91.8916 75.9283 95.6203H70.3046C70.3046 90.4001 72.3783 85.3937 76.0696 81.7024C79.7608 78.0112 84.7673 75.9374 89.9875 75.9374C95.2077 75.9374 100.214 78.0112 103.905 81.7024C107.597 85.3937 109.67 90.4001 109.67 95.6203ZM87.1756 50.6309H92.7993V64.6901H87.1756V50.6309ZM87.1756 67.5019H92.7993V73.1256H87.1756V67.5019ZM140.601 81.5611H151.848V87.1848H140.601V81.5611ZM137.789 163.105H143.412V168.728H137.789V163.105ZM89.9875 163.105H132.165V168.728H89.9875V163.105ZM101.235 129.362H39.3743C38.6286 129.362 37.9134 129.066 37.3861 128.539C36.8587 128.012 36.5625 127.296 36.5625 126.551V106.868C36.5625 106.122 36.8587 105.407 37.3861 104.879C37.9134 104.352 38.6286 104.056 39.3743 104.056H101.235C101.981 104.056 102.696 104.352 103.223 104.879C103.75 105.407 104.047 106.122 104.047 106.868V126.551C104.047 127.296 103.75 128.012 103.223 128.539C102.696 129.066 101.981 129.362 101.235 129.362ZM42.1862 123.739H98.423V109.68H42.1862V123.739Z" fill="#002852"/>
<path d="M47.8067 115.297H53.4304V120.921H47.8067V115.297ZM59.054 115.297H92.7961V120.921H59.054V115.297ZM106.855 28.1301C106.11 28.1301 105.394 27.8339 104.867 27.3066C104.34 26.7792 104.043 26.064 104.043 25.3183C104.043 19.1997 95.0119 16.8209 94.9191 16.7984C94.2531 16.6315 93.6712 16.2267 93.2831 15.6604C92.895 15.094 92.7275 14.4052 92.8123 13.7239C92.897 13.0426 93.2281 12.4158 93.7431 11.9618C94.2581 11.5077 94.9214 11.2578 95.608 11.2591C101.727 11.2591 104.105 2.22464 104.128 2.13466C104.281 1.52765 104.633 0.989201 105.127 0.604643C105.621 0.220085 106.229 0.0114205 106.855 0.0117191C107.481 0.0129876 108.089 0.223033 108.582 0.608588C109.075 0.994143 109.425 1.53317 109.577 2.14028C109.605 2.22464 111.984 11.2591 118.103 11.2591C118.789 11.2592 119.451 11.5101 119.965 11.9646C120.479 12.4191 120.809 13.0458 120.893 13.7267C120.977 14.4076 120.809 15.0957 120.421 15.6615C120.033 16.2273 119.451 16.6316 118.786 16.7984C118.699 16.8209 109.667 19.1997 109.667 25.3183C109.667 26.064 109.371 26.7792 108.844 27.3066C108.316 27.8339 107.601 28.1301 106.855 28.1301ZM102.978 14.3071C104.433 15.2207 105.741 16.351 106.855 17.6588C107.97 16.351 109.277 15.2207 110.733 14.3071C109.188 13.0488 107.875 11.5288 106.855 9.81661C105.836 11.5288 104.523 13.0488 102.978 14.3071ZM14.0646 87.1788C13.3188 87.1788 12.6036 86.8826 12.0763 86.3552C11.549 85.8279 11.2527 85.1127 11.2527 84.367C11.2527 78.2484 2.22109 75.8696 2.1283 75.8471C1.46232 75.6802 0.880427 75.2754 0.492333 74.709C0.10424 74.1427 -0.0632298 73.4539 0.0215029 72.7726C0.106236 72.0913 0.437315 71.4645 0.952311 71.0104C1.46731 70.5564 2.13063 70.3065 2.8172 70.3078C8.93577 70.3078 11.3146 61.2733 11.3371 61.1833C11.4905 60.5763 11.8421 60.0379 12.3361 59.6533C12.8302 59.2688 13.4385 59.0601 14.0646 59.0604C14.6904 59.0617 15.298 59.2717 15.791 59.6573C16.284 60.0428 16.6343 60.5818 16.7864 61.189C16.8145 61.2733 19.1934 70.3078 25.3119 70.3078C25.998 70.3078 26.6604 70.5587 27.1743 71.0132C27.6883 71.4677 28.0183 72.0945 28.1023 72.7754C28.1863 73.4563 28.0185 74.1444 27.6304 74.7102C27.2423 75.2759 26.6607 75.6803 25.9952 75.8471C25.908 75.8696 16.8764 78.2484 16.8764 84.367C16.8764 85.1127 16.5802 85.8279 16.0528 86.3552C15.5255 86.8826 14.8103 87.1788 14.0646 87.1788ZM10.187 73.3558C11.6424 74.2694 12.95 75.3996 14.0646 76.7075C15.1791 75.3996 16.4867 74.2694 17.9421 73.3558C16.3967 72.0974 15.0843 70.5775 14.0646 68.8653C13.0448 70.5775 11.7324 72.0974 10.187 73.3558ZM168.716 81.5551C167.97 81.5551 167.255 81.2589 166.728 80.7316C166.2 80.2042 165.904 79.489 165.904 78.7433C165.904 74.7224 159.662 73.0521 159.597 73.0352C158.932 72.8685 158.35 72.4641 157.962 71.8983C157.574 71.3326 157.406 70.6444 157.49 69.9635C157.574 69.2826 157.904 68.6559 158.418 68.2014C158.932 67.7469 159.594 67.496 160.28 67.4959C164.298 67.4959 165.971 61.2536 165.988 61.1918C166.141 60.5838 166.492 60.0441 166.986 59.6585C167.48 59.2729 168.089 59.0635 168.716 59.0635C169.343 59.0635 169.951 59.2729 170.446 59.6585C170.94 60.0441 171.291 60.5838 171.443 61.1918C171.457 61.2424 173.114 67.4959 177.151 67.4959C177.837 67.496 178.5 67.7469 179.014 68.2014C179.528 68.6559 179.858 69.2826 179.942 69.9635C180.026 70.6444 179.858 71.3326 179.47 71.8983C179.082 72.4641 178.5 72.8685 177.835 73.0352C177.781 73.0493 171.528 74.7055 171.528 78.7433C171.528 79.489 171.231 80.2042 170.704 80.7316C170.177 81.2589 169.462 81.5551 168.716 81.5551ZM166.964 70.409C167.591 70.8712 168.177 71.3868 168.716 71.9499C169.254 71.3868 169.84 70.8712 170.468 70.409C169.82 69.8036 169.233 69.1359 168.716 68.4154C168.199 69.1359 167.612 69.8036 166.964 70.409Z" fill="#002852"/>
<path d="M30.9346 98.421L30 84.0037L36 78.0037L45 78V84L36 87.0037V93.0037L43.1216 98.421H149.032V174.341H30.9346V98.421Z" fill="#002852"/>
</svg>
