<svg width="140" height="141" viewBox="0 0 140 141" fill="none" xmlns="http://www.w3.org/2000/svg">
<g clip-path="url(#clip0_7813_1696)">
<rect x="63.8569" y="48.6345" width="55.6172" height="55.6172" rx="3.74" transform="rotate(15 63.8569 48.6345)" fill="#5082FF" stroke="#5082FF" stroke-width="2.04" stroke-linecap="round" stroke-linejoin="round"/>
<path d="M95.44 72.4589L72.56 92.5419M81.1356 71.3957C82.254 73.905 81.2164 76.8877 78.8179 78.0578C76.4195 79.2279 73.5685 78.1423 72.4501 75.633C71.3317 73.1237 72.3693 70.141 74.7678 68.9709C77.1662 67.8008 80.0172 68.8864 81.1356 71.3957ZM95.5499 89.367C96.6683 91.8763 95.6307 94.859 93.2322 96.0291C90.8338 97.1992 87.9828 96.1136 86.8644 93.6043C85.746 91.095 86.7836 88.1123 89.1821 86.9422C91.5805 85.7721 94.4315 86.8577 95.5499 89.367Z" stroke="white" stroke-width="4.08" stroke-linecap="round" stroke-linejoin="round"/>
<path d="M52.9606 57.9875L51.2913 64.5L43.9237 56.8504L43.1978 53.9374L45.5493 53.3248C46.4899 53.0798 47.2802 52.7342 47.9202 52.2879C48.5799 51.8087 49.0794 51.2454 49.4189 50.598C49.7846 49.9438 49.9673 49.2255 49.9671 48.4431L42.3248 50.434L41.5989 47.5211L49.202 45.5403C48.8752 44.8989 48.4505 44.3668 47.9277 43.944C47.4312 43.5144 46.8334 43.237 46.1344 43.1117C45.455 42.9533 44.6842 42.9865 43.822 43.2111L40.7259 44.0177L40 41.1048L57.6752 36.5L58.4011 39.4129L52.2481 41.0159C52.8165 41.3988 53.3163 41.8415 53.7476 42.344C54.205 42.8396 54.571 43.415 54.8455 44.0701L59.2741 42.9163L60 45.8293L55.6498 46.9626C55.8724 48.9726 55.5071 50.6887 54.5538 52.1108C53.5939 53.5067 52.1963 54.6533 50.3609 55.5506L52.9606 57.9875Z" fill="#5082FF"/>
<path d="M79.998 37.4327C74.7494 27.3819 64.0588 20.5 51.7241 20.5C34.2023 20.5 19.998 34.3872 19.998 51.5178C19.998 64.7466 28.4685 76.0411 40.396 80.5" stroke="#5082FF" stroke-width="6.8" stroke-linecap="round" stroke-linejoin="round"/>
<path d="M23.7664 86.4193L35.849 92.4409C36.1836 92.6078 36.4815 92.8375 36.7254 93.1169C36.9693 93.3963 37.1546 93.72 37.2706 94.0695C37.3867 94.419 37.4312 94.7874 37.4017 95.1537C37.3722 95.52 37.2692 95.877 37.0986 96.2044C36.9281 96.5317 36.6932 96.8231 36.4076 97.0617C36.1219 97.3003 35.791 97.4815 35.4337 97.595C35.0764 97.7085 34.6998 97.7521 34.3253 97.7232C33.9508 97.6943 33.5858 97.5936 33.2511 97.4268L29.5787 95.5965C34.7096 114.085 51.1273 121.949 63.963 117.99C64.4269 117.847 64.7321 118.453 64.3536 118.729C52.5075 127.352 33.1409 124.672 23.1804 104.745C22.2392 102.808 21.3551 100.827 20.5222 98.8116L18.8605 102.002C18.69 102.329 18.4552 102.62 18.1696 102.859C17.884 103.097 17.5532 103.279 17.1959 103.392C16.8387 103.506 16.4621 103.549 16.0877 103.521C15.7133 103.492 15.3483 103.391 15.0136 103.224C14.679 103.058 14.3811 102.828 14.1372 102.549C13.8933 102.269 13.708 101.946 13.5919 101.596C13.4758 101.247 13.4313 100.878 13.4607 100.512C13.4902 100.146 13.5931 99.7888 13.7636 99.4615L19.9198 87.6429C20.0902 87.3154 20.3248 87.024 20.6104 86.7853C20.8959 86.5466 21.2267 86.3653 21.584 86.2517C21.9412 86.138 22.3177 86.0944 22.6922 86.1231C23.0667 86.1519 23.4317 86.2525 23.7664 86.4193Z" fill="#5082FF"/>
<path d="M110.53 52.6425L100.194 45.462C99.9074 45.263 99.6639 45.0109 99.4773 44.7199C99.2906 44.4289 99.1643 44.1048 99.1057 43.7661C99.0471 43.4274 99.0572 43.0808 99.1356 42.7459C99.2139 42.411 99.3589 42.0946 99.5623 41.8145C99.7657 41.5345 100.024 41.2964 100.321 41.1138C100.618 40.9312 100.95 40.8077 101.296 40.7503C101.642 40.693 101.997 40.7029 102.339 40.7795C102.681 40.8562 103.005 40.998 103.291 41.197L106.433 43.3794C104.264 25.5949 90.175 16.1329 77.7516 18.0824C77.3025 18.1533 77.1047 17.5523 77.4932 17.3473C89.6515 10.9514 107.19 16.0125 113.626 35.7708C114.226 37.6882 114.768 39.6385 115.257 41.6134L117.239 38.8845C117.442 38.6045 117.7 38.3663 117.997 38.1837C118.295 38.0011 118.626 37.8776 118.972 37.8202C119.318 37.7629 119.673 37.7727 120.015 37.8493C120.357 37.9259 120.681 38.0677 120.967 38.2666C121.253 38.4655 121.497 38.7176 121.684 39.0085C121.87 39.2994 121.997 39.6234 122.055 39.9621C122.114 40.3007 122.104 40.6474 122.025 40.9822C121.947 41.317 121.802 41.6335 121.599 41.9135L114.258 52.0237C114.055 52.3038 113.797 52.542 113.5 52.7247C113.202 52.9074 112.871 53.0311 112.525 53.0885C112.179 53.146 111.824 53.1362 111.482 53.0596C111.14 52.9831 110.816 52.8413 110.53 52.6425Z" fill="#5082FF"/>
</g>
<defs>
<clipPath id="clip0_7813_1696">
<rect width="140" height="140" fill="white" transform="translate(0 0.5)"/>
</clipPath>
</defs>
</svg>
