<svg width="3207" height="1192" viewBox="0 0 3207 1192" fill="none" xmlns="http://www.w3.org/2000/svg">
<path d="M2120.9 764.596L2477.92 1052.54H144L207.466 546.31L471.485 46.5439C485.553 19.9128 517.185 7.83876 545.421 18.3223L848.78 130.956C864.582 136.823 882.123 135.773 897.111 128.062L1072.07 38.0572C1093.35 27.111 1119.1 29.8544 1137.59 45.0382L1588.87 415.544L1828.97 562.99L2120.9 764.596Z" fill="url(#paint0_linear_8000_2523)" fill-opacity="0.46"/>
<path d="M1492.4 776.369L1351.68 810.476L1008 1049.46H2556L2556 547.078L2413.28 243.189C2400.95 216.932 2371.6 203.258 2343.56 210.707L2177.43 254.849L2055.13 295.83C2048.24 298.139 2041.83 301.682 2036.2 306.285L1825.05 479.059L1519 762.107C1511.49 769.051 1502.34 773.96 1492.4 776.369Z" fill="url(#paint1_linear_8000_2523)" fill-opacity="0.46"/>
<path d="M597.558 784.275L312 823.665L144 865.665V1053.17L314.701 1049.46H3072.98V125.592L2883 145.665L2655.48 171.706C2641.6 173.296 2628.7 179.683 2619.02 189.765L2547.84 263.917C2534.17 278.159 2514.36 284.764 2494.88 281.58L2314.17 252.053C2302.64 250.169 2290.81 251.692 2280.14 256.436L1983 388.458L1413.16 588.201C1410.06 589.288 1406.87 590.118 1403.64 590.684L946.345 670.548C943.452 671.054 940.6 671.77 937.812 672.693L608.215 781.798C604.746 782.947 601.179 783.776 597.558 784.275Z" fill="url(#paint2_linear_8000_2523)"/>
<path d="M3072 125.592L2635.83 175.286C2633.68 175.531 2631.69 176.54 2630.23 178.131L2530.83 286.053C2528.75 288.305 2525.68 289.348 2522.66 288.823L2297.66 249.628C2295.92 249.326 2294.14 249.54 2292.52 250.242L1981.5 385.516L1411.98 588.062C1408.67 589.241 1405.25 590.126 1401.78 590.707L961.575 664.393C958.529 664.902 955.528 665.646 952.597 666.618L605.395 781.736C601.806 782.926 598.113 783.774 594.365 784.269L314.701 821.187L145.5 865.665" stroke="url(#paint3_linear_8000_2523)" stroke-width="6" stroke-linecap="round"/>
<path d="M144 44.1188L144 1052.54" stroke="url(#paint4_radial_8000_2523)" stroke-opacity="0.35" stroke-width="3" stroke-linecap="round"/>
<path d="M3205.2 1052.54L147.001 1052.54" stroke="url(#paint5_radial_8000_2523)" stroke-opacity="0.35" stroke-width="3" stroke-linecap="round"/>
<g filter="url(#filter0_d_8000_2523)">
<ellipse cx="946.5" cy="666.695" rx="22.5" ry="23.0584" fill="white"/>
</g>
<g filter="url(#filter1_d_8000_2523)">
<ellipse cx="1989" cy="385.383" rx="33" ry="33.819" fill="white"/>
</g>
<g filter="url(#filter2_d_8000_2523)">
<ellipse cx="2635.5" cy="177.91" rx="22.5" ry="23.0584" fill="white"/>
</g>
<g filter="url(#filter3_d_8000_2523)">
<ellipse cx="592.5" cy="783.525" rx="22.5" ry="23.0584" fill="white"/>
</g>
<path d="M1451.28 1178.47V1134.84H1466.03C1469.44 1134.84 1472.24 1135.42 1474.42 1136.59C1476.61 1137.74 1478.23 1139.32 1479.28 1141.34C1480.33 1143.35 1480.86 1145.65 1480.86 1148.22C1480.86 1150.79 1480.33 1153.07 1479.28 1155.06C1478.23 1157.05 1476.62 1158.61 1474.44 1159.75C1472.27 1160.87 1469.49 1161.43 1466.11 1161.43H1454.18V1156.66H1465.94C1468.27 1156.66 1470.15 1156.32 1471.57 1155.63C1473 1154.95 1474.04 1153.99 1474.68 1152.74C1475.33 1151.47 1475.66 1149.97 1475.66 1148.22C1475.66 1146.47 1475.33 1144.95 1474.68 1143.64C1474.03 1142.33 1472.98 1141.32 1471.55 1140.61C1470.11 1139.89 1468.22 1139.53 1465.86 1139.53H1456.57V1178.47H1451.28ZM1471.82 1158.87L1482.56 1178.47H1476.43L1465.86 1158.87H1471.82ZM1489.66 1178.47V1134.84H1516V1139.53H1494.95V1154.27H1514.63V1158.96H1494.95V1173.79H1516.34V1178.47H1489.66ZM1523.14 1139.53V1134.84H1555.86V1139.53H1542.14L1542.14 1178.47H1536.86V1139.53H1523.14ZM1592.65 1134.84H1597.94V1163.73C1597.94 1166.71 1597.24 1169.38 1595.83 1171.72C1594.44 1174.05 1592.47 1175.89 1589.93 1177.24C1587.38 1178.57 1584.4 1179.24 1580.98 1179.24C1577.56 1179.24 1574.57 1178.57 1572.03 1177.24C1569.49 1175.89 1567.51 1174.05 1566.11 1171.72C1564.71 1169.38 1564.02 1166.71 1564.02 1163.73V1134.84H1569.3V1163.3C1569.3 1165.44 1569.77 1167.33 1570.71 1168.99C1571.65 1170.64 1572.98 1171.94 1574.71 1172.89C1576.46 1173.83 1578.55 1174.3 1580.98 1174.3C1583.41 1174.3 1585.5 1173.83 1587.24 1172.89C1588.99 1171.94 1590.33 1170.64 1591.25 1168.99C1592.19 1167.33 1592.65 1165.44 1592.65 1163.3V1134.84ZM1608.49 1178.47V1134.84H1623.24C1626.64 1134.84 1629.44 1135.42 1631.63 1136.59C1633.82 1137.74 1635.44 1139.32 1636.49 1141.34C1637.54 1143.35 1638.07 1145.65 1638.07 1148.22C1638.07 1150.79 1637.54 1153.07 1636.49 1155.06C1635.44 1157.05 1633.82 1158.61 1631.65 1159.75C1629.48 1160.87 1626.7 1161.43 1623.32 1161.43H1611.39V1156.66H1623.15C1625.48 1156.66 1627.35 1156.32 1628.78 1155.63C1630.21 1154.95 1631.25 1153.99 1631.89 1152.74C1632.54 1151.47 1632.87 1149.97 1632.87 1148.22C1632.87 1146.47 1632.54 1144.95 1631.89 1143.64C1631.23 1142.33 1630.19 1141.32 1628.75 1140.61C1627.32 1139.89 1625.42 1139.53 1623.07 1139.53H1613.78V1178.47H1608.49ZM1629.03 1158.87L1639.77 1178.47H1633.63L1623.07 1158.87H1629.03ZM1681.47 1134.84V1178.47H1676.36L1652.58 1144.21H1652.15V1178.47H1646.87V1134.84H1651.98L1675.85 1169.19H1676.27V1134.84H1681.47ZM1715.91 1145.75C1715.65 1143.59 1714.62 1141.91 1712.8 1140.72C1710.98 1139.53 1708.75 1138.93 1706.11 1138.93C1704.18 1138.93 1702.49 1139.24 1701.04 1139.87C1699.6 1140.49 1698.48 1141.35 1697.67 1142.45C1696.88 1143.54 1696.48 1144.78 1696.48 1146.17C1696.48 1147.34 1696.75 1148.34 1697.31 1149.18C1697.88 1150 1698.6 1150.69 1699.48 1151.24C1700.36 1151.78 1701.29 1152.23 1702.25 1152.59C1703.22 1152.93 1704.11 1153.21 1704.92 1153.42L1709.35 1154.61C1710.48 1154.91 1711.75 1155.32 1713.14 1155.85C1714.55 1156.37 1715.89 1157.09 1717.17 1158C1718.46 1158.89 1719.52 1160.04 1720.36 1161.45C1721.2 1162.86 1721.62 1164.58 1721.62 1166.63C1721.62 1168.99 1721 1171.12 1719.77 1173.02C1718.54 1174.92 1716.75 1176.44 1714.4 1177.56C1712.05 1178.68 1709.2 1179.24 1705.85 1179.24C1702.73 1179.24 1700.02 1178.74 1697.73 1177.73C1695.46 1176.72 1693.67 1175.31 1692.37 1173.51C1691.07 1171.71 1690.34 1169.61 1690.17 1167.22H1695.63C1695.77 1168.87 1696.32 1170.24 1697.29 1171.32C1698.27 1172.38 1699.5 1173.18 1700.99 1173.7C1702.5 1174.21 1704.12 1174.47 1705.85 1174.47C1707.87 1174.47 1709.68 1174.14 1711.29 1173.49C1712.89 1172.82 1714.16 1171.9 1715.1 1170.72C1716.04 1169.53 1716.51 1168.13 1716.51 1166.54C1716.51 1165.09 1716.1 1163.92 1715.29 1163.01C1714.48 1162.1 1713.42 1161.36 1712.1 1160.79C1710.77 1160.22 1709.35 1159.72 1707.81 1159.3L1702.44 1157.76C1699.03 1156.78 1696.34 1155.39 1694.35 1153.57C1692.36 1151.75 1691.36 1149.37 1691.36 1146.43C1691.36 1143.99 1692.02 1141.86 1693.35 1140.04C1694.68 1138.21 1696.47 1136.78 1698.71 1135.78C1700.97 1134.75 1703.49 1134.24 1706.28 1134.24C1709.09 1134.24 1711.59 1134.75 1713.78 1135.75C1715.97 1136.75 1717.7 1138.11 1718.98 1139.85C1720.27 1141.58 1720.95 1143.55 1721.02 1145.75H1715.91Z" fill="white"/>
<path d="M1788 1157.29H1882.5M1882.5 1157.29L1866 1141.92M1882.5 1157.29L1866 1174.2" stroke="white" stroke-width="6" stroke-linecap="round"/>
<path d="M55 640.635L11.3636 640.635L11.3636 625.89C11.3636 622.481 11.946 619.683 13.1108 617.496C14.2614 615.308 15.8452 613.689 17.8622 612.638C19.8793 611.586 22.1733 611.061 24.7443 611.061C27.3153 611.061 29.5952 611.586 31.5838 612.638C33.5724 613.689 35.1349 615.301 36.2713 617.474C37.3935 619.648 37.9545 622.425 37.9545 625.805L37.9545 637.737L33.1818 637.737L33.1818 625.976C33.1818 623.646 32.8409 621.771 32.1591 620.351C31.4773 618.916 30.5114 617.879 29.2614 617.24C27.9972 616.586 26.4915 616.26 24.7443 616.26C22.9972 616.26 21.4702 616.586 20.1633 617.24C18.8565 617.893 17.848 618.937 17.1378 620.372C16.4133 621.807 16.0511 623.703 16.0511 626.061L16.0511 635.351L55 635.351L55 640.635ZM35.3977 620.095L55 609.356L55 615.493L35.3977 626.061L35.3977 620.095ZM11.3636 596.972L55 596.972L55 602.256L11.3636 602.256L11.3636 596.972ZM22.2727 562.513C20.1136 562.769 18.4375 563.806 17.2443 565.624C16.0511 567.442 15.4545 569.672 15.4545 572.314C15.4545 574.246 15.767 575.937 16.392 577.385C17.017 578.82 17.8764 579.942 18.9702 580.752C20.0639 581.547 21.3068 581.945 22.6989 581.945C23.8636 581.945 24.8651 581.668 25.7031 581.114C26.527 580.546 27.2159 579.822 27.7699 578.941C28.3097 578.06 28.7571 577.137 29.1122 576.171C29.4531 575.205 29.7301 574.317 29.9432 573.508L31.1364 569.076C31.4347 567.939 31.8466 566.675 32.3722 565.283C32.8977 563.877 33.6151 562.535 34.5241 561.256C35.419 559.964 36.5696 558.898 37.9758 558.06C39.3821 557.222 41.1079 556.803 43.1534 556.803C45.5114 556.803 47.642 557.421 49.5455 558.657C51.4489 559.878 52.9616 561.668 54.0838 564.026C55.206 566.37 55.767 569.218 55.767 572.57C55.767 575.695 55.2628 578.401 54.2543 580.688C53.2457 582.961 51.8395 584.75 50.0355 586.057C48.2315 587.35 46.1364 588.081 43.75 588.252L43.75 582.797C45.3977 582.655 46.7614 582.101 47.8409 581.135C48.9062 580.155 49.7017 578.92 50.2273 577.428C50.7386 575.922 50.9943 574.303 50.9943 572.57C50.9943 570.553 50.6676 568.742 50.0142 567.137C49.3466 565.532 48.4233 564.26 47.2443 563.323C46.0511 562.385 44.6591 561.917 43.0682 561.917C41.6193 561.917 40.4403 562.322 39.5312 563.131C38.6222 563.941 37.8835 565.006 37.3153 566.327C36.7472 567.648 36.25 569.076 35.8239 570.61L34.2898 575.979C33.3097 579.388 31.9105 582.087 30.0923 584.076C28.2741 586.064 25.8949 587.059 22.9545 587.059C20.5114 587.059 18.3807 586.398 16.5625 585.077C14.7301 583.742 13.3097 581.952 12.3011 579.708C11.2784 577.449 10.767 574.928 10.767 572.144C10.767 569.331 11.2713 566.831 12.2798 564.644C13.2741 562.456 14.6378 560.724 16.3707 559.445C18.1037 558.152 20.071 557.471 22.2727 557.4L22.2727 562.513ZM55 548.115L11.3636 548.115L11.3636 542.831L33.0114 542.831L33.0114 542.32L11.3636 522.717L11.3636 515.814L31.0511 534.138L55 515.814L55 522.206L34.7159 537.377L40.8523 542.831L55 542.831L55 548.115Z" fill="white"/>
<path d="M33 455.303L33 358.457M33 358.457L18 375.367M33 358.457L49.5 375.367" stroke="white" stroke-width="6" stroke-linecap="round"/>
<path d="M457.239 881.196C456.984 879.037 455.947 877.361 454.129 876.167C452.311 874.974 450.08 874.378 447.438 874.378C445.507 874.378 443.816 874.69 442.367 875.315C440.933 875.94 439.811 876.8 439.001 877.893C438.205 878.987 437.808 880.23 437.808 881.622C437.808 882.787 438.085 883.788 438.639 884.626C439.207 885.45 439.931 886.139 440.812 886.693C441.693 887.233 442.616 887.68 443.582 888.035C444.548 888.376 445.436 888.653 446.245 888.866L450.677 890.059C451.813 890.358 453.078 890.77 454.47 891.295C455.876 891.821 457.218 892.538 458.497 893.447C459.789 894.342 460.855 895.493 461.693 896.899C462.531 898.305 462.95 900.031 462.95 902.077C462.95 904.434 462.332 906.565 461.096 908.469C459.874 910.372 458.085 911.885 455.727 913.007C453.383 914.129 450.535 914.69 447.183 914.69C444.058 914.69 441.352 914.186 439.065 913.177C436.792 912.169 435.002 910.763 433.695 908.959C432.403 907.155 431.671 905.059 431.501 902.673H436.955C437.097 904.321 437.651 905.684 438.617 906.764C439.597 907.829 440.833 908.625 442.325 909.15C443.83 909.662 445.45 909.917 447.183 909.917C449.2 909.917 451.011 909.591 452.616 908.937C454.221 908.27 455.492 907.346 456.43 906.167C457.367 904.974 457.836 903.582 457.836 901.991C457.836 900.542 457.431 899.363 456.622 898.454C455.812 897.545 454.747 896.807 453.426 896.238C452.105 895.67 450.677 895.173 449.143 894.747L443.774 893.213C440.364 892.233 437.666 890.834 435.677 889.015C433.688 887.197 432.694 884.818 432.694 881.878C432.694 879.434 433.355 877.304 434.676 875.486C436.011 873.653 437.801 872.233 440.045 871.224C442.303 870.202 444.825 869.69 447.609 869.69C450.421 869.69 452.921 870.194 455.109 871.203C457.296 872.197 459.029 873.561 460.308 875.294C461.6 877.027 462.282 878.994 462.353 881.196H457.239ZM480.586 914.69C478.513 914.69 476.63 914.3 474.94 913.518C473.25 912.723 471.907 911.579 470.913 910.088C469.919 908.582 469.422 906.764 469.422 904.633C469.422 902.758 469.791 901.238 470.53 900.074C471.268 898.895 472.255 897.971 473.491 897.304C474.727 896.636 476.091 896.139 477.582 895.812C479.088 895.471 480.601 895.202 482.121 895.003C484.109 894.747 485.721 894.555 486.957 894.427C488.207 894.285 489.116 894.051 489.684 893.724C490.267 893.398 490.558 892.829 490.558 892.02V891.849C490.558 889.747 489.983 888.113 488.832 886.949C487.696 885.784 485.97 885.202 483.655 885.202C481.254 885.202 479.372 885.727 478.008 886.778C476.645 887.829 475.686 888.952 475.132 890.145L470.359 888.44C471.211 886.452 472.348 884.903 473.768 883.795C475.203 882.673 476.765 881.892 478.456 881.452C480.16 880.997 481.836 880.77 483.484 880.77C484.535 880.77 485.743 880.898 487.106 881.153C488.484 881.395 489.812 881.899 491.091 882.666C492.383 883.433 493.456 884.591 494.308 886.139C495.16 887.687 495.586 889.761 495.586 892.361V913.923H490.558V909.491H490.302C489.961 910.202 489.393 910.961 488.598 911.771C487.802 912.581 486.744 913.27 485.423 913.838C484.102 914.406 482.49 914.69 480.586 914.69ZM481.353 910.173C483.342 910.173 485.018 909.782 486.382 909.001C487.76 908.22 488.797 907.211 489.493 905.976C490.203 904.74 490.558 903.44 490.558 902.077V897.474C490.345 897.73 489.876 897.964 489.152 898.177C488.442 898.376 487.618 898.554 486.68 898.71C485.757 898.852 484.855 898.98 483.974 899.094C483.108 899.193 482.405 899.278 481.865 899.349C480.558 899.52 479.336 899.797 478.2 900.18C477.078 900.55 476.169 901.111 475.473 901.863C474.791 902.602 474.45 903.611 474.45 904.889C474.45 906.636 475.096 907.957 476.389 908.852C477.696 909.733 479.351 910.173 481.353 910.173ZM530.354 881.196L518.252 913.923H513.138L501.036 881.196H506.49L515.524 907.275H515.865L524.899 881.196H530.354ZM536.991 913.923V881.196H542.019V913.923H536.991ZM539.548 875.741C538.568 875.741 537.722 875.407 537.012 874.74C536.316 874.072 535.968 873.27 535.968 872.332C535.968 871.395 536.316 870.592 537.012 869.925C537.722 869.257 538.568 868.923 539.548 868.923C540.528 868.923 541.366 869.257 542.062 869.925C542.772 870.592 543.127 871.395 543.127 872.332C543.127 873.27 542.772 874.072 542.062 874.74C541.366 875.407 540.528 875.741 539.548 875.741ZM556.258 894.236V913.923H551.229V881.196H556.087V886.309H556.513C557.28 884.648 558.445 883.312 560.008 882.304C561.57 881.281 563.587 880.77 566.059 880.77C568.275 880.77 570.214 881.224 571.876 882.133C573.537 883.028 574.83 884.392 575.753 886.224C576.677 888.042 577.138 890.344 577.138 893.128V913.923H572.11V893.469C572.11 890.898 571.442 888.895 570.107 887.46C568.772 886.011 566.939 885.287 564.61 885.287C563.005 885.287 561.57 885.635 560.306 886.331C559.056 887.027 558.069 888.042 557.344 889.378C556.62 890.713 556.258 892.332 556.258 894.236ZM599.537 926.878C597.108 926.878 595.02 926.565 593.273 925.94C591.526 925.329 590.07 924.52 588.905 923.511C587.754 922.517 586.838 921.452 586.156 920.315L590.162 917.503C590.617 918.099 591.192 918.781 591.888 919.548C592.584 920.329 593.536 921.004 594.743 921.572C595.965 922.155 597.563 922.446 599.537 922.446C602.179 922.446 604.36 921.807 606.078 920.528C607.797 919.25 608.656 917.247 608.656 914.52V907.872H608.23C607.861 908.469 607.335 909.207 606.654 910.088C605.986 910.954 605.02 911.728 603.756 912.41C602.506 913.078 600.816 913.412 598.685 913.412C596.043 913.412 593.671 912.787 591.568 911.537C589.48 910.287 587.825 908.469 586.604 906.082C585.396 903.696 584.793 900.798 584.793 897.389C584.793 894.037 585.382 891.118 586.561 888.632C587.74 886.132 589.381 884.2 591.483 882.836C593.585 881.459 596.014 880.77 598.77 880.77C600.901 880.77 602.591 881.125 603.841 881.835C605.105 882.531 606.071 883.327 606.739 884.221C607.421 885.102 607.946 885.827 608.316 886.395H608.827V881.196H613.685V914.861C613.685 917.673 613.046 919.96 611.767 921.721C610.503 923.497 608.798 924.797 606.654 925.621C604.523 926.459 602.151 926.878 599.537 926.878ZM599.367 908.895C601.384 908.895 603.088 908.433 604.48 907.51C605.872 906.586 606.931 905.258 607.655 903.525C608.379 901.792 608.742 899.719 608.742 897.304C608.742 894.946 608.387 892.865 607.676 891.061C606.966 889.257 605.915 887.844 604.523 886.821C603.131 885.798 601.412 885.287 599.367 885.287C597.236 885.287 595.46 885.827 594.04 886.906C592.634 887.986 591.575 889.434 590.865 891.253C590.169 893.071 589.821 895.088 589.821 897.304C589.821 899.577 590.176 901.586 590.887 903.334C591.611 905.067 592.676 906.43 594.083 907.425C595.503 908.405 597.264 908.895 599.367 908.895ZM646.071 888.525L641.554 889.804C641.27 889.051 640.851 888.319 640.297 887.609C639.757 886.885 639.019 886.288 638.081 885.819C637.144 885.351 635.943 885.116 634.48 885.116C632.477 885.116 630.808 885.578 629.473 886.501C628.152 887.41 627.492 888.568 627.492 889.974C627.492 891.224 627.946 892.211 628.855 892.936C629.764 893.66 631.185 894.264 633.117 894.747L637.975 895.94C640.901 896.65 643.081 897.737 644.516 899.2C645.95 900.649 646.668 902.517 646.668 904.804C646.668 906.679 646.128 908.355 645.048 909.832C643.983 911.309 642.492 912.474 640.574 913.327C638.656 914.179 636.426 914.605 633.884 914.605C630.546 914.605 627.783 913.88 625.595 912.432C623.408 910.983 622.023 908.866 621.441 906.082L626.213 904.889C626.668 906.65 627.527 907.971 628.791 908.852C630.07 909.733 631.739 910.173 633.798 910.173C636.142 910.173 638.003 909.676 639.381 908.682C640.773 907.673 641.469 906.466 641.469 905.059C641.469 903.923 641.071 902.971 640.276 902.204C639.48 901.423 638.259 900.841 636.611 900.457L631.156 899.179C628.159 898.469 625.958 897.368 624.551 895.876C623.159 894.371 622.463 892.488 622.463 890.23C622.463 888.383 622.982 886.75 624.019 885.329C625.07 883.909 626.497 882.794 628.301 881.984C630.119 881.175 632.179 880.77 634.48 880.77C637.719 880.77 640.262 881.48 642.108 882.9C643.969 884.321 645.29 886.196 646.071 888.525ZM680.743 914.69C678.669 914.69 676.787 914.3 675.096 913.518C673.406 912.723 672.064 911.579 671.069 910.088C670.075 908.582 669.578 906.764 669.578 904.633C669.578 902.758 669.947 901.238 670.686 900.074C671.425 898.895 672.412 897.971 673.648 897.304C674.883 896.636 676.247 896.139 677.738 895.812C679.244 895.471 680.757 895.202 682.277 895.003C684.265 894.747 685.878 894.555 687.113 894.427C688.363 894.285 689.273 894.051 689.841 893.724C690.423 893.398 690.714 892.829 690.714 892.02V891.849C690.714 889.747 690.139 888.113 688.988 886.949C687.852 885.784 686.126 885.202 683.811 885.202C681.41 885.202 679.528 885.727 678.165 886.778C676.801 887.829 675.842 888.952 675.288 890.145L670.515 888.44C671.368 886.452 672.504 884.903 673.925 883.795C675.359 882.673 676.922 881.892 678.612 881.452C680.317 880.997 681.993 880.77 683.64 880.77C684.692 880.77 685.899 880.898 687.263 881.153C688.64 881.395 689.969 881.899 691.247 882.666C692.54 883.433 693.612 884.591 694.464 886.139C695.317 887.687 695.743 889.761 695.743 892.361V913.923H690.714V909.491H690.459C690.118 910.202 689.55 910.961 688.754 911.771C687.959 912.581 686.9 913.27 685.579 913.838C684.258 914.406 682.646 914.69 680.743 914.69ZM681.51 910.173C683.498 910.173 685.175 909.782 686.538 909.001C687.916 908.22 688.953 907.211 689.649 905.976C690.359 904.74 690.714 903.44 690.714 902.077V897.474C690.501 897.73 690.032 897.964 689.308 898.177C688.598 898.376 687.774 898.554 686.836 898.71C685.913 898.852 685.011 898.98 684.131 899.094C683.264 899.193 682.561 899.278 682.021 899.349C680.714 899.52 679.493 899.797 678.356 900.18C677.234 900.55 676.325 901.111 675.629 901.863C674.947 902.602 674.606 903.611 674.606 904.889C674.606 906.636 675.253 907.957 676.545 908.852C677.852 909.733 679.507 910.173 681.51 910.173ZM718.216 914.605C715.148 914.605 712.506 913.88 710.29 912.432C708.074 910.983 706.369 908.987 705.176 906.444C703.983 903.902 703.387 900.997 703.387 897.73C703.387 894.406 703.997 891.473 705.219 888.93C706.455 886.373 708.173 884.378 710.375 882.943C712.591 881.494 715.176 880.77 718.131 880.77C720.432 880.77 722.506 881.196 724.352 882.048C726.199 882.9 727.712 884.094 728.891 885.628C730.07 887.162 730.801 888.952 731.085 890.997H726.057C725.673 889.505 724.821 888.184 723.5 887.034C722.193 885.869 720.432 885.287 718.216 885.287C716.256 885.287 714.537 885.798 713.06 886.821C711.597 887.829 710.453 889.257 709.629 891.103C708.82 892.936 708.415 895.088 708.415 897.559C708.415 900.088 708.813 902.29 709.608 904.165C710.418 906.04 711.554 907.496 713.017 908.532C714.494 909.569 716.227 910.088 718.216 910.088C719.523 910.088 720.709 909.861 721.774 909.406C722.84 908.952 723.742 908.298 724.48 907.446C725.219 906.594 725.744 905.571 726.057 904.378H731.085C730.801 906.309 730.098 908.05 728.976 909.598C727.868 911.132 726.398 912.353 724.566 913.263C722.747 914.157 720.631 914.605 718.216 914.605ZM751.732 914.605C748.664 914.605 746.021 913.88 743.806 912.432C741.59 910.983 739.885 908.987 738.692 906.444C737.499 903.902 736.902 900.997 736.902 897.73C736.902 894.406 737.513 891.473 738.735 888.93C739.97 886.373 741.689 884.378 743.891 882.943C746.107 881.494 748.692 880.77 751.646 880.77C753.948 880.77 756.021 881.196 757.868 882.048C759.715 882.9 761.227 884.094 762.406 885.628C763.585 887.162 764.317 888.952 764.601 890.997H759.573C759.189 889.505 758.337 888.184 757.016 887.034C755.709 885.869 753.948 885.287 751.732 885.287C749.771 885.287 748.053 885.798 746.575 886.821C745.112 887.829 743.969 889.257 743.145 891.103C742.335 892.936 741.931 895.088 741.931 897.559C741.931 900.088 742.328 902.29 743.124 904.165C743.933 906.04 745.07 907.496 746.533 908.532C748.01 909.569 749.743 910.088 751.732 910.088C753.039 910.088 754.225 909.861 755.29 909.406C756.355 908.952 757.257 908.298 757.996 907.446C758.735 906.594 759.26 905.571 759.573 904.378H764.601C764.317 906.309 763.614 908.05 762.492 909.598C761.384 911.132 759.914 912.353 758.081 913.263C756.263 914.157 754.146 914.605 751.732 914.605ZM785.247 914.605C782.293 914.605 779.7 913.902 777.47 912.496C775.254 911.089 773.521 909.122 772.271 906.594C771.036 904.065 770.418 901.111 770.418 897.73C770.418 894.321 771.036 891.345 772.271 888.802C773.521 886.26 775.254 884.285 777.47 882.879C779.7 881.473 782.293 880.77 785.247 880.77C788.202 880.77 790.787 881.473 793.003 882.879C795.233 884.285 796.966 886.26 798.202 888.802C799.452 891.345 800.077 894.321 800.077 897.73C800.077 901.111 799.452 904.065 798.202 906.594C796.966 909.122 795.233 911.089 793.003 912.496C790.787 913.902 788.202 914.605 785.247 914.605ZM785.247 910.088C787.492 910.088 789.338 909.513 790.787 908.362C792.236 907.211 793.308 905.699 794.004 903.824C794.7 901.949 795.048 899.917 795.048 897.73C795.048 895.542 794.7 893.504 794.004 891.615C793.308 889.726 792.236 888.199 790.787 887.034C789.338 885.869 787.492 885.287 785.247 885.287C783.003 885.287 781.156 885.869 779.708 887.034C778.259 888.199 777.186 889.726 776.49 891.615C775.794 893.504 775.446 895.542 775.446 897.73C775.446 899.917 775.794 901.949 776.49 903.824C777.186 905.699 778.259 907.211 779.708 908.362C781.156 909.513 783.003 910.088 785.247 910.088ZM828.378 900.542V881.196H833.406V913.923H828.378V908.383H828.037C827.27 910.045 826.077 911.459 824.457 912.623C822.838 913.774 820.792 914.349 818.321 914.349C816.275 914.349 814.457 913.902 812.866 913.007C811.275 912.098 810.025 910.734 809.116 908.916C808.207 907.084 807.753 904.775 807.753 901.991V881.196H812.781V901.65C812.781 904.037 813.449 905.94 814.784 907.361C816.133 908.781 817.852 909.491 819.94 909.491C821.19 909.491 822.461 909.172 823.754 908.532C825.061 907.893 826.155 906.913 827.035 905.592C827.93 904.271 828.378 902.588 828.378 900.542ZM847.644 894.236V913.923H842.616V881.196H847.474V886.309H847.9C848.667 884.648 849.832 883.312 851.394 882.304C852.957 881.281 854.974 880.77 857.445 880.77C859.661 880.77 861.6 881.224 863.262 882.133C864.924 883.028 866.217 884.392 867.14 886.224C868.063 888.042 868.525 890.344 868.525 893.128V913.923H863.497V893.469C863.497 890.898 862.829 888.895 861.494 887.46C860.159 886.011 858.326 885.287 855.997 885.287C854.392 885.287 852.957 885.635 851.693 886.331C850.443 887.027 849.455 888.042 848.731 889.378C848.007 890.713 847.644 892.332 847.644 894.236ZM891.947 881.196V885.457H874.986V881.196H891.947ZM879.93 873.355H884.958V904.548C884.958 905.969 885.164 907.034 885.576 907.744C886.002 908.44 886.542 908.909 887.195 909.15C887.863 909.378 888.566 909.491 889.305 909.491C889.859 909.491 890.313 909.463 890.668 909.406C891.023 909.335 891.307 909.278 891.52 909.236L892.543 913.753C892.202 913.88 891.726 914.008 891.116 914.136C890.505 914.278 889.731 914.349 888.793 914.349C887.373 914.349 885.981 914.044 884.617 913.433C883.268 912.822 882.145 911.892 881.251 910.642C880.37 909.392 879.93 907.815 879.93 905.912V873.355Z" fill="white"/>
<path d="M725.284 575.733V532.097H751.449V536.784H730.568V551.529H749.489V556.216H730.568V575.733H725.284ZM759.817 575.733V543.006H764.846V575.733H759.817ZM762.374 537.551C761.394 537.551 760.549 537.218 759.838 536.55C759.142 535.882 758.794 535.08 758.794 534.142C758.794 533.205 759.142 532.402 759.838 531.735C760.549 531.067 761.394 530.733 762.374 530.733C763.354 530.733 764.192 531.067 764.888 531.735C765.598 532.402 765.953 533.205 765.953 534.142C765.953 535.08 765.598 535.882 764.888 536.55C764.192 537.218 763.354 537.551 762.374 537.551ZM777.805 543.006L785.646 556.387L793.487 543.006H799.283L788.714 559.37L799.283 575.733H793.487L785.646 563.034L777.805 575.733H772.01L782.408 559.37L772.01 543.006H777.805ZM818.832 576.415C815.678 576.415 812.958 575.719 810.671 574.327C808.398 572.921 806.644 570.961 805.408 568.446C804.187 565.918 803.576 562.978 803.576 559.625C803.576 556.273 804.187 553.319 805.408 550.762C806.644 548.191 808.363 546.188 810.565 544.753C812.781 543.304 815.366 542.58 818.32 542.58C820.025 542.58 821.708 542.864 823.37 543.432C825.032 544 826.545 544.924 827.908 546.202C829.272 547.466 830.359 549.142 831.168 551.23C831.978 553.319 832.383 555.89 832.383 558.944V561.074H807.156V556.728H827.269C827.269 554.881 826.9 553.233 826.161 551.784C825.437 550.336 824.4 549.192 823.05 548.354C821.715 547.516 820.139 547.097 818.32 547.097C816.317 547.097 814.585 547.594 813.121 548.588C811.673 549.569 810.558 550.847 809.776 552.424C808.995 554 808.604 555.691 808.604 557.495V560.392C808.604 562.864 809.031 564.959 809.883 566.678C810.749 568.382 811.95 569.682 813.484 570.577C815.018 571.458 816.8 571.898 818.832 571.898C820.153 571.898 821.346 571.713 822.411 571.344C823.491 570.961 824.421 570.392 825.202 569.64C825.984 568.872 826.587 567.921 827.014 566.784L831.871 568.148C831.36 569.796 830.501 571.245 829.293 572.495C828.086 573.73 826.594 574.696 824.819 575.392C823.043 576.074 821.048 576.415 818.832 576.415ZM852.39 576.415C849.663 576.415 847.255 575.726 845.167 574.348C843.079 572.956 841.445 570.996 840.266 568.468C839.087 565.925 838.498 562.921 838.498 559.455C838.498 556.017 839.087 553.034 840.266 550.506C841.445 547.978 843.086 546.024 845.188 544.647C847.29 543.269 849.719 542.58 852.475 542.58C854.606 542.58 856.289 542.935 857.525 543.645C858.775 544.341 859.727 545.137 860.38 546.032C861.048 546.912 861.566 547.637 861.935 548.205H862.362V532.097H867.39V575.733H862.532V570.705H861.935C861.566 571.301 861.04 572.054 860.359 572.963C859.677 573.858 858.704 574.661 857.44 575.371C856.175 576.067 854.492 576.415 852.39 576.415ZM853.072 571.898C855.089 571.898 856.793 571.372 858.185 570.321C859.577 569.256 860.636 567.786 861.36 565.911C862.085 564.022 862.447 561.841 862.447 559.37C862.447 556.926 862.092 554.789 861.381 552.956C860.671 551.11 859.62 549.675 858.228 548.652C856.836 547.615 855.117 547.097 853.072 547.097C850.941 547.097 849.165 547.644 847.745 548.738C846.339 549.817 845.281 551.287 844.57 553.148C843.874 554.995 843.526 557.069 843.526 559.37C843.526 561.699 843.881 563.816 844.592 565.719C845.316 567.608 846.381 569.114 847.788 570.236C849.208 571.344 850.969 571.898 853.072 571.898ZM908.32 575.733H894.854V532.097H908.917C913.15 532.097 916.772 532.97 919.783 534.718C922.795 536.451 925.103 538.943 926.708 542.196C928.313 545.435 929.116 549.313 929.116 553.83C929.116 558.375 928.306 562.289 926.687 565.57C925.067 568.837 922.71 571.351 919.613 573.113C916.516 574.86 912.752 575.733 908.32 575.733ZM900.139 571.046H907.979C911.587 571.046 914.577 570.35 916.95 568.958C919.322 567.566 921.09 565.584 922.255 563.013C923.42 560.442 924.002 557.381 924.002 553.83C924.002 550.307 923.427 547.274 922.276 544.732C921.126 542.175 919.407 540.215 917.12 538.851C914.833 537.473 911.985 536.784 908.576 536.784H900.139V571.046ZM951.019 576.415C947.866 576.415 945.146 575.719 942.859 574.327C940.586 572.921 938.832 570.961 937.596 568.446C936.374 565.918 935.764 562.978 935.764 559.625C935.764 556.273 936.374 553.319 937.596 550.762C938.832 548.191 940.55 546.188 942.752 544.753C944.968 543.304 947.553 542.58 950.508 542.58C952.212 542.58 953.896 542.864 955.558 543.432C957.219 544 958.732 544.924 960.096 546.202C961.46 547.466 962.546 549.142 963.356 551.23C964.166 553.319 964.57 555.89 964.57 558.944V561.074H939.343V556.728H959.457C959.457 554.881 959.087 553.233 958.349 551.784C957.624 550.336 956.587 549.192 955.238 548.354C953.903 547.516 952.326 547.097 950.508 547.097C948.505 547.097 946.772 547.594 945.309 548.588C943.86 549.569 942.745 550.847 941.964 552.424C941.183 554 940.792 555.691 940.792 557.495V560.392C940.792 562.864 941.218 564.959 942.07 566.678C942.937 568.382 944.137 569.682 945.671 570.577C947.205 571.458 948.988 571.898 951.019 571.898C952.34 571.898 953.533 571.713 954.599 571.344C955.678 570.961 956.609 570.392 957.39 569.64C958.171 568.872 958.775 567.921 959.201 566.784L964.059 568.148C963.548 569.796 962.688 571.245 961.481 572.495C960.273 573.73 958.782 574.696 957.006 575.392C955.231 576.074 953.235 576.415 951.019 576.415ZM972.219 588.006V543.006H977.077V548.205H977.674C978.043 547.637 978.555 546.912 979.208 546.032C979.876 545.137 980.827 544.341 982.063 543.645C983.313 542.935 985.004 542.58 987.134 542.58C989.89 542.58 992.319 543.269 994.421 544.647C996.523 546.024 998.164 547.978 999.343 550.506C1000.52 553.034 1001.11 556.017 1001.11 559.455C1001.11 562.921 1000.52 565.925 999.343 568.468C998.164 570.996 996.531 572.956 994.443 574.348C992.354 575.726 989.947 576.415 987.219 576.415C985.117 576.415 983.434 576.067 982.17 575.371C980.906 574.661 979.933 573.858 979.251 572.963C978.569 572.054 978.043 571.301 977.674 570.705H977.248V588.006H972.219ZM977.163 559.37C977.163 561.841 977.525 564.022 978.249 565.911C978.974 567.786 980.032 569.256 981.424 570.321C982.816 571.372 984.521 571.898 986.538 571.898C988.64 571.898 990.394 571.344 991.8 570.236C993.221 569.114 994.286 567.608 994.996 565.719C995.721 563.816 996.083 561.699 996.083 559.37C996.083 557.069 995.728 554.995 995.018 553.148C994.322 551.287 993.264 549.817 991.843 548.738C990.437 547.644 988.668 547.097 986.538 547.097C984.492 547.097 982.773 547.615 981.381 548.652C979.989 549.675 978.938 551.11 978.228 552.956C977.518 554.789 977.163 556.926 977.163 559.37ZM1022.08 576.415C1019.12 576.415 1016.53 575.712 1014.3 574.306C1012.08 572.899 1010.35 570.932 1009.1 568.404C1007.87 565.875 1007.25 562.921 1007.25 559.54C1007.25 556.131 1007.87 553.155 1009.1 550.613C1010.35 548.07 1012.08 546.095 1014.3 544.689C1016.53 543.283 1019.12 542.58 1022.08 542.58C1025.03 542.58 1027.62 543.283 1029.83 544.689C1032.06 546.095 1033.8 548.07 1035.03 550.613C1036.28 553.155 1036.91 556.131 1036.91 559.54C1036.91 562.921 1036.28 565.875 1035.03 568.404C1033.8 570.932 1032.06 572.899 1029.83 574.306C1027.62 575.712 1025.03 576.415 1022.08 576.415ZM1022.08 571.898C1024.32 571.898 1026.17 571.323 1027.62 570.172C1029.07 569.022 1030.14 567.509 1030.83 565.634C1031.53 563.759 1031.88 561.728 1031.88 559.54C1031.88 557.353 1031.53 555.314 1030.83 553.425C1030.14 551.536 1029.07 550.009 1027.62 548.844C1026.17 547.679 1024.32 547.097 1022.08 547.097C1019.83 547.097 1017.99 547.679 1016.54 548.844C1015.09 550.009 1014.02 551.536 1013.32 553.425C1012.62 555.314 1012.28 557.353 1012.28 559.54C1012.28 561.728 1012.62 563.759 1013.32 565.634C1014.02 567.509 1015.09 569.022 1016.54 570.172C1017.99 571.323 1019.83 571.898 1022.08 571.898ZM1067.76 550.336L1063.25 551.614C1062.96 550.861 1062.54 550.13 1061.99 549.419C1061.45 548.695 1060.71 548.098 1059.77 547.63C1058.84 547.161 1057.64 546.926 1056.17 546.926C1054.17 546.926 1052.5 547.388 1051.17 548.311C1049.85 549.22 1049.19 550.378 1049.19 551.784C1049.19 553.034 1049.64 554.022 1050.55 554.746C1051.46 555.47 1052.88 556.074 1054.81 556.557L1059.67 557.75C1062.59 558.461 1064.77 559.547 1066.21 561.01C1067.64 562.459 1068.36 564.327 1068.36 566.614C1068.36 568.489 1067.82 570.165 1066.74 571.642C1065.68 573.12 1064.19 574.284 1062.27 575.137C1060.35 575.989 1058.12 576.415 1055.58 576.415C1052.24 576.415 1049.48 575.691 1047.29 574.242C1045.1 572.793 1043.72 570.676 1043.13 567.892L1047.91 566.699C1048.36 568.461 1049.22 569.782 1050.48 570.662C1051.76 571.543 1053.43 571.983 1055.49 571.983C1057.84 571.983 1059.7 571.486 1061.07 570.492C1062.47 569.483 1063.16 568.276 1063.16 566.87C1063.16 565.733 1062.76 564.782 1061.97 564.015C1061.17 563.233 1059.95 562.651 1058.3 562.267L1052.85 560.989C1049.85 560.279 1047.65 559.178 1046.24 557.686C1044.85 556.181 1044.16 554.299 1044.16 552.04C1044.16 550.194 1044.68 548.56 1045.71 547.14C1046.76 545.719 1048.19 544.604 1049.99 543.794C1051.81 542.985 1053.87 542.58 1056.17 542.58C1059.41 542.58 1061.95 543.29 1063.8 544.711C1065.66 546.131 1066.98 548.006 1067.76 550.336ZM1075.93 575.733V543.006H1080.96V575.733H1075.93ZM1078.49 537.551C1077.51 537.551 1076.66 537.218 1075.95 536.55C1075.26 535.882 1074.91 535.08 1074.91 534.142C1074.91 533.205 1075.26 532.402 1075.95 531.735C1076.66 531.067 1077.51 530.733 1078.49 530.733C1079.47 530.733 1080.31 531.067 1081 531.735C1081.71 532.402 1082.07 533.205 1082.07 534.142C1082.07 535.08 1081.71 535.882 1081 536.55C1080.31 537.218 1079.47 537.551 1078.49 537.551ZM1104.4 543.006V547.267H1087.44V543.006H1104.4ZM1092.38 535.165H1097.41V566.358C1097.41 567.779 1097.62 568.844 1098.03 569.554C1098.46 570.25 1099 570.719 1099.65 570.961C1100.32 571.188 1101.02 571.301 1101.76 571.301C1102.31 571.301 1102.77 571.273 1103.12 571.216C1103.48 571.145 1103.76 571.088 1103.98 571.046L1105 575.563C1104.66 575.691 1104.18 575.819 1103.57 575.946C1102.96 576.088 1102.19 576.159 1101.25 576.159C1099.83 576.159 1098.44 575.854 1097.07 575.243C1095.72 574.632 1094.6 573.702 1093.71 572.452C1092.82 571.202 1092.38 569.625 1092.38 567.722V535.165ZM1134.56 550.336L1130.04 551.614C1129.76 550.861 1129.34 550.13 1128.79 549.419C1128.25 548.695 1127.51 548.098 1126.57 547.63C1125.63 547.161 1124.43 546.926 1122.97 546.926C1120.97 546.926 1119.3 547.388 1117.96 548.311C1116.64 549.22 1115.98 550.378 1115.98 551.784C1115.98 553.034 1116.44 554.022 1117.35 554.746C1118.25 555.47 1119.68 556.074 1121.61 556.557L1126.46 557.75C1129.39 558.461 1131.57 559.547 1133.01 561.01C1134.44 562.459 1135.16 564.327 1135.16 566.614C1135.16 568.489 1134.62 570.165 1133.54 571.642C1132.47 573.12 1130.98 574.284 1129.06 575.137C1127.15 575.989 1124.92 576.415 1122.37 576.415C1119.04 576.415 1116.27 575.691 1114.09 574.242C1111.9 572.793 1110.51 570.676 1109.93 567.892L1114.7 566.699C1115.16 568.461 1116.02 569.782 1117.28 570.662C1118.56 571.543 1120.23 571.983 1122.29 571.983C1124.63 571.983 1126.49 571.486 1127.87 570.492C1129.26 569.483 1129.96 568.276 1129.96 566.87C1129.96 565.733 1129.56 564.782 1128.77 564.015C1127.97 563.233 1126.75 562.651 1125.1 562.267L1119.65 560.989C1116.65 560.279 1114.45 559.178 1113.04 557.686C1111.65 556.181 1110.95 554.299 1110.95 552.04C1110.95 550.194 1111.47 548.56 1112.51 547.14C1113.56 545.719 1114.99 544.604 1116.79 543.794C1118.61 542.985 1120.67 542.58 1122.97 542.58C1126.21 542.58 1128.75 543.29 1130.6 544.711C1132.46 546.131 1133.78 548.006 1134.56 550.336Z" fill="white"/>
<path d="M2423.28 86.2032V42.5669H2449.62V47.2544H2428.57V61.9987H2448.26V66.6862H2428.57V81.5157H2449.96V86.2032H2423.28ZM2480.79 98.476V81.1748H2480.37C2480 81.7714 2479.47 82.5243 2478.79 83.4334C2478.11 84.3282 2477.13 85.1308 2475.87 85.841C2474.61 86.5371 2472.92 86.8851 2470.82 86.8851C2468.09 86.8851 2465.68 86.1961 2463.6 84.8183C2461.51 83.4263 2459.88 81.466 2458.7 78.9376C2457.52 76.395 2456.93 73.3907 2456.93 69.9248C2456.93 66.4873 2457.52 63.5044 2458.7 60.976C2459.88 58.4476 2461.52 56.4944 2463.62 55.1166C2465.72 53.7388 2468.15 53.0498 2470.9 53.0498C2473.04 53.0498 2474.72 53.4049 2475.95 54.1152C2477.2 54.8112 2478.16 55.6067 2478.81 56.5015C2479.48 57.3822 2480 58.1067 2480.37 58.6748H2480.96V53.476H2485.82V98.476H2480.79ZM2471.5 82.368C2473.52 82.368 2475.22 81.8425 2476.62 80.7913C2478.01 79.726 2479.07 78.2558 2479.79 76.3808C2480.51 74.4916 2480.88 72.3112 2480.88 69.8396C2480.88 67.3964 2480.52 65.2586 2479.81 63.4263C2479.1 61.5797 2478.05 60.145 2476.66 59.1223C2475.27 58.0853 2473.55 57.5669 2471.5 57.5669C2469.37 57.5669 2467.6 58.1138 2466.17 59.2075C2464.77 60.2871 2463.71 61.7572 2463 63.618C2462.3 65.4646 2461.96 67.5385 2461.96 69.8396C2461.96 72.1692 2462.31 74.2856 2463.02 76.189C2463.75 78.0782 2464.81 79.5839 2466.22 80.7061C2467.64 81.814 2469.4 82.368 2471.5 82.368ZM2515.65 72.8226V53.476H2520.68V86.2032H2515.65V80.6635H2515.31C2514.54 82.3254 2513.35 83.7388 2511.73 84.9035C2510.11 86.0541 2508.06 86.6294 2505.59 86.6294C2503.55 86.6294 2501.73 86.1819 2500.14 85.2871C2498.55 84.378 2497.3 83.0143 2496.39 81.1961C2495.48 79.3638 2495.02 77.0555 2495.02 74.2714V53.476H2500.05V73.9305C2500.05 76.3169 2500.72 78.2203 2502.06 79.6407C2503.4 81.0612 2505.12 81.7714 2507.21 81.7714C2508.46 81.7714 2509.73 81.4518 2511.03 80.8126C2512.33 80.1734 2513.43 79.1933 2514.31 77.8723C2515.2 76.5513 2515.65 74.868 2515.65 72.8226ZM2529.89 86.2032V53.476H2534.92V86.2032H2529.89ZM2532.44 48.0214C2531.46 48.0214 2530.62 47.6876 2529.91 47.02C2529.21 46.3524 2528.86 45.5498 2528.86 44.6123C2528.86 43.6748 2529.21 42.8723 2529.91 42.2047C2530.62 41.5371 2531.46 41.2032 2532.44 41.2032C2533.42 41.2032 2534.26 41.5371 2534.96 42.2047C2535.67 42.8723 2536.02 43.6748 2536.02 44.6123C2536.02 45.5498 2535.67 46.3524 2534.96 47.02C2534.26 47.6876 2533.42 48.0214 2532.44 48.0214ZM2558.36 53.476V57.7373H2541.4V53.476H2558.36ZM2546.34 45.6351H2551.37V76.8282C2551.37 78.2487 2551.58 79.314 2551.99 80.0243C2552.41 80.7203 2552.95 81.189 2553.61 81.4305C2554.27 81.6578 2554.98 81.7714 2555.72 81.7714C2556.27 81.7714 2556.73 81.743 2557.08 81.6862C2557.44 81.6152 2557.72 81.5584 2557.93 81.5157L2558.96 86.0328C2558.61 86.1606 2558.14 86.2885 2557.53 86.4163C2556.92 86.5584 2556.14 86.6294 2555.21 86.6294C2553.78 86.6294 2552.39 86.324 2551.03 85.7132C2549.68 85.1024 2548.56 84.172 2547.66 82.922C2546.78 81.672 2546.34 80.0953 2546.34 78.1919V45.6351ZM2569.16 98.476C2568.31 98.476 2567.55 98.405 2566.88 98.2629C2566.21 98.1351 2565.75 98.0072 2565.5 97.8794L2566.77 93.4476C2568 93.7601 2569.08 93.8737 2570.01 93.7885C2570.95 93.7032 2571.78 93.2842 2572.51 92.5314C2573.25 91.7927 2573.92 90.5925 2574.53 88.9305L2575.47 86.3737L2563.37 53.476H2568.82L2577.85 79.5555H2578.2L2587.23 53.476H2592.68L2578.79 90.976C2578.17 92.6663 2577.39 94.0655 2576.47 95.1734C2575.55 96.2956 2574.47 97.1265 2573.25 97.6663C2572.04 98.2061 2570.68 98.476 2569.16 98.476ZM2616.88 42.5669H2623.18L2638.01 78.7885H2638.53L2653.36 42.5669H2659.66V86.2032H2654.72V53.0498H2654.29L2640.66 86.2032H2635.88L2622.25 53.0498H2621.82V86.2032H2616.88V42.5669ZM2679.21 86.9703C2677.13 86.9703 2675.25 86.5797 2673.56 85.7984C2671.87 85.003 2670.53 83.8595 2669.53 82.368C2668.54 80.8623 2668.04 79.0442 2668.04 76.9135C2668.04 75.0385 2668.41 73.5186 2669.15 72.3538C2669.89 71.1748 2670.87 70.2515 2672.11 69.5839C2673.35 68.9163 2674.71 68.4192 2676.2 68.0925C2677.71 67.7515 2679.22 67.4817 2680.74 67.2828C2682.73 67.0271 2684.34 66.8353 2685.58 66.7075C2686.83 66.5655 2687.74 66.3311 2688.3 66.0044C2688.89 65.6777 2689.18 65.1095 2689.18 64.2998V64.1294C2689.18 62.0271 2688.6 60.3936 2687.45 59.2288C2686.32 58.064 2684.59 57.4817 2682.27 57.4817C2679.87 57.4817 2677.99 58.0072 2676.63 59.0584C2675.26 60.1095 2674.31 61.2317 2673.75 62.4248L2668.98 60.7203C2669.83 58.7317 2670.97 57.1834 2672.39 56.0754C2673.82 54.9532 2675.38 54.172 2677.07 53.7317C2678.78 53.2771 2680.46 53.0498 2682.1 53.0498C2683.15 53.0498 2684.36 53.1777 2685.73 53.4334C2687.1 53.6748 2688.43 54.1791 2689.71 54.9461C2691 55.7132 2692.07 56.8709 2692.93 58.4192C2693.78 59.9674 2694.21 62.0413 2694.21 64.6407V86.2032H2689.18V81.7714H2688.92C2688.58 82.4817 2688.01 83.2416 2687.22 84.0513C2686.42 84.8609 2685.36 85.5498 2684.04 86.118C2682.72 86.6862 2681.11 86.9703 2679.21 86.9703ZM2679.97 82.4532C2681.96 82.4532 2683.64 82.0626 2685 81.2814C2686.38 80.5001 2687.42 79.4916 2688.11 78.2558C2688.82 77.02 2689.18 75.7203 2689.18 74.3567V69.7544C2688.96 70.0101 2688.5 70.2444 2687.77 70.4575C2687.06 70.6564 2686.24 70.8339 2685.3 70.9902C2684.38 71.1322 2683.47 71.2601 2682.59 71.3737C2681.73 71.4731 2681.02 71.5584 2680.48 71.6294C2679.18 71.7998 2677.96 72.0768 2676.82 72.4603C2675.7 72.8297 2674.79 73.3907 2674.09 74.1436C2673.41 74.8822 2673.07 75.8907 2673.07 77.1692C2673.07 78.9163 2673.72 80.2373 2675.01 81.1322C2676.32 82.0129 2677.97 82.4532 2679.97 82.4532ZM2703.38 86.2032V53.476H2708.24V58.4192H2708.58C2709.18 56.7998 2710.26 55.4859 2711.82 54.4774C2713.38 53.4689 2715.14 52.9646 2717.11 52.9646C2717.47 52.9646 2717.94 52.9717 2718.49 52.9859C2719.04 53.0001 2719.46 53.0214 2719.75 53.0498V58.1635C2719.58 58.1209 2719.19 58.0569 2718.58 57.9717C2717.98 57.8723 2717.35 57.8226 2716.68 57.8226C2715.09 57.8226 2713.67 58.1564 2712.42 58.824C2711.18 59.4774 2710.2 60.3865 2709.48 61.5513C2708.77 62.7018 2708.41 64.0157 2708.41 65.493V86.2032H2703.38ZM2730.4 74.2714L2730.31 68.0498H2731.33L2745.65 53.476H2751.87L2736.62 68.9021H2736.19L2730.4 74.2714ZM2725.71 86.2032V42.5669H2730.74V86.2032H2725.71ZM2746.5 86.2032L2733.72 70.0101L2737.3 66.5157L2752.9 86.2032H2746.5ZM2770.72 86.8851C2767.57 86.8851 2764.84 86.189 2762.56 84.797C2760.29 83.3907 2758.53 81.4305 2757.3 78.9163C2756.07 76.3879 2755.46 73.4476 2755.46 70.0953C2755.46 66.743 2756.07 63.7885 2757.3 61.2317C2758.53 58.6606 2760.25 56.6578 2762.45 55.2231C2764.67 53.7743 2767.25 53.0498 2770.21 53.0498C2771.91 53.0498 2773.59 53.3339 2775.26 53.9021C2776.92 54.4703 2778.43 55.3936 2779.8 56.672C2781.16 57.9362 2782.25 59.6123 2783.06 61.7004C2783.86 63.7885 2784.27 66.3595 2784.27 69.4135V71.5442H2759.04V67.1976H2779.16C2779.16 65.351 2778.79 63.7032 2778.05 62.2544C2777.32 60.8055 2776.29 59.6621 2774.94 58.824C2773.6 57.9859 2772.03 57.5669 2770.21 57.5669C2768.2 57.5669 2766.47 58.064 2765.01 59.0584C2763.56 60.0385 2762.44 61.3169 2761.66 62.8936C2760.88 64.4703 2760.49 66.1606 2760.49 67.9646V70.8623C2760.49 73.3339 2760.92 75.4291 2761.77 77.1478C2762.64 78.8524 2763.84 80.1521 2765.37 81.047C2766.9 81.9277 2768.69 82.368 2770.72 82.368C2772.04 82.368 2773.23 82.1834 2774.3 81.814C2775.38 81.4305 2776.31 80.8623 2777.09 80.1095C2777.87 79.3425 2778.47 78.3907 2778.9 77.2544L2783.76 78.618C2783.25 80.2657 2782.39 81.7146 2781.18 82.9646C2779.97 84.2004 2778.48 85.1663 2776.71 85.8623C2774.93 86.5442 2772.93 86.8851 2770.72 86.8851ZM2806.15 53.476V57.7373H2789.19V53.476H2806.15ZM2794.13 45.6351H2799.16V76.8282C2799.16 78.2487 2799.37 79.314 2799.78 80.0243C2800.21 80.7203 2800.75 81.189 2801.4 81.4305C2802.07 81.6578 2802.77 81.7714 2803.51 81.7714C2804.06 81.7714 2804.52 81.743 2804.87 81.6862C2805.23 81.6152 2805.51 81.5584 2805.73 81.5157L2806.75 86.0328C2806.41 86.1606 2805.93 86.2885 2805.32 86.4163C2804.71 86.5584 2803.94 86.6294 2803 86.6294C2801.58 86.6294 2800.19 86.324 2798.82 85.7132C2797.47 85.1024 2796.35 84.172 2795.46 82.922C2794.57 81.672 2794.13 80.0953 2794.13 78.1919V45.6351ZM2836.31 60.8055L2831.79 62.0839C2831.51 61.3311 2831.09 60.5996 2830.54 59.8893C2830 59.1649 2829.26 58.5683 2828.32 58.0996C2827.38 57.6308 2826.18 57.3964 2824.72 57.3964C2822.72 57.3964 2821.05 57.8581 2819.71 58.7814C2818.39 59.6905 2817.73 60.8481 2817.73 62.2544C2817.73 63.5044 2818.19 64.4916 2819.1 65.216C2820 65.9405 2821.43 66.5442 2823.36 67.0271L2828.21 68.2203C2831.14 68.9305 2833.32 70.0172 2834.76 71.4802C2836.19 72.9291 2836.91 74.797 2836.91 77.0839C2836.91 78.9589 2836.37 80.6351 2835.29 82.1123C2834.22 83.5896 2832.73 84.7544 2830.81 85.6067C2828.9 86.4589 2826.67 86.8851 2824.12 86.8851C2820.79 86.8851 2818.02 86.1606 2815.84 84.7118C2813.65 83.2629 2812.26 81.1464 2811.68 78.3623L2816.45 77.1692C2816.91 78.9305 2817.77 80.2515 2819.03 81.1322C2820.31 82.0129 2821.98 82.4532 2824.04 82.4532C2826.38 82.4532 2828.24 81.9561 2829.62 80.9618C2831.01 79.9532 2831.71 78.7459 2831.71 77.3396C2831.71 76.2032 2831.31 75.2515 2830.52 74.4845C2829.72 73.7032 2828.5 73.1209 2826.85 72.7373L2821.4 71.4589C2818.4 70.7487 2816.2 69.6478 2814.79 68.1564C2813.4 66.6507 2812.7 64.7686 2812.7 62.5101C2812.7 60.6635 2813.22 59.0299 2814.26 57.6095C2815.31 56.189 2816.74 55.074 2818.54 54.2643C2820.36 53.4547 2822.42 53.0498 2824.72 53.0498C2827.96 53.0498 2830.5 53.7601 2832.35 55.1805C2834.21 56.601 2835.53 58.476 2836.31 60.8055Z" fill="white"/>
<path d="M1623.18 235.859L1636.89 278.958H1637.42L1651.15 235.859H1664.45L1644.89 292.586H1629.44L1609.86 235.859H1623.18ZM1685.65 293.417C1681.27 293.417 1677.5 292.53 1674.35 290.758C1671.21 288.966 1668.79 286.437 1667.09 283.168C1665.39 279.881 1664.54 275.994 1664.54 271.507C1664.54 267.131 1665.39 263.29 1667.09 259.984C1668.79 256.679 1671.18 254.103 1674.26 252.256C1677.36 250.41 1681 249.486 1685.18 249.486C1687.98 249.486 1690.6 249.939 1693.01 250.844C1695.45 251.73 1697.58 253.069 1699.39 254.86C1701.21 256.651 1702.64 258.904 1703.65 261.618C1704.67 264.315 1705.17 267.472 1705.17 271.091V274.332H1669.25V267.02H1694.07C1694.07 265.321 1693.7 263.816 1692.96 262.505C1692.22 261.194 1691.2 260.169 1689.88 259.43C1688.59 258.673 1687.09 258.295 1685.37 258.295C1683.58 258.295 1681.99 258.71 1680.61 259.541C1679.24 260.354 1678.17 261.452 1677.39 262.837C1676.62 264.204 1676.22 265.727 1676.2 267.408V274.36C1676.2 276.465 1676.59 278.284 1677.36 279.817C1678.16 281.349 1679.28 282.531 1680.72 283.362C1682.16 284.193 1683.86 284.609 1685.84 284.609C1687.15 284.609 1688.35 284.424 1689.44 284.055C1690.53 283.685 1691.46 283.131 1692.24 282.393C1693.01 281.654 1693.61 280.749 1694.01 279.678L1704.93 280.398C1704.37 283.02 1703.24 285.31 1701.52 287.268C1699.82 289.207 1697.62 290.721 1694.93 291.81C1692.25 292.881 1689.16 293.417 1685.65 293.417ZM1748.27 262.172L1737.47 262.837C1737.29 261.914 1736.89 261.083 1736.28 260.344C1735.67 259.587 1734.87 258.987 1733.87 258.544C1732.89 258.082 1731.72 257.851 1730.35 257.851C1728.52 257.851 1726.98 258.239 1725.73 259.015C1724.47 259.772 1723.84 260.788 1723.84 262.062C1723.84 263.077 1724.25 263.936 1725.06 264.638C1725.87 265.339 1727.27 265.903 1729.24 266.327L1736.95 267.878C1741.08 268.728 1744.17 270.094 1746.2 271.978C1748.23 273.861 1749.24 276.336 1749.24 279.401C1749.24 282.19 1748.42 284.636 1746.78 286.741C1745.15 288.846 1742.92 290.49 1740.08 291.672C1737.25 292.835 1733.99 293.417 1730.3 293.417C1724.67 293.417 1720.18 292.244 1716.84 289.899C1713.51 287.535 1711.56 284.322 1710.99 280.26L1722.6 279.65C1722.95 281.368 1723.8 282.679 1725.15 283.584C1726.49 284.47 1728.22 284.913 1730.33 284.913C1732.39 284.913 1734.06 284.516 1735.31 283.722C1736.59 282.91 1737.23 281.866 1737.25 280.592C1737.23 279.521 1736.78 278.644 1735.89 277.961C1735.01 277.259 1733.64 276.724 1731.79 276.354L1724.43 274.886C1720.27 274.055 1717.18 272.615 1715.15 270.565C1713.13 268.516 1712.13 265.903 1712.13 262.726C1712.13 259.993 1712.87 257.639 1714.34 255.663C1715.84 253.687 1717.93 252.164 1720.63 251.093C1723.34 250.022 1726.52 249.486 1730.16 249.486C1735.53 249.486 1739.76 250.622 1742.84 252.893C1745.95 255.165 1747.76 258.258 1748.27 262.172ZM1779.3 250.04V258.904H1753.68V250.04H1779.3ZM1759.5 239.847H1771.3V279.512C1771.3 280.601 1771.46 281.451 1771.8 282.06C1772.13 282.651 1772.59 283.067 1773.18 283.307C1773.79 283.547 1774.49 283.667 1775.29 283.667C1775.84 283.667 1776.4 283.621 1776.95 283.528C1777.5 283.417 1777.93 283.334 1778.22 283.279L1780.08 292.06C1779.49 292.244 1778.66 292.457 1777.59 292.697C1776.52 292.955 1775.21 293.112 1773.68 293.167C1770.84 293.278 1768.34 292.9 1766.2 292.032C1764.08 291.164 1762.43 289.816 1761.24 287.988C1760.06 286.16 1759.48 283.851 1759.5 281.063V239.847ZM1805.92 293.417C1801.55 293.417 1797.78 292.53 1794.62 290.758C1791.48 288.966 1789.06 286.437 1787.36 283.168C1785.67 279.881 1784.82 275.994 1784.82 271.507C1784.82 267.131 1785.67 263.29 1787.36 259.984C1789.06 256.679 1791.45 254.103 1794.54 252.256C1797.64 250.41 1801.28 249.486 1805.45 249.486C1808.26 249.486 1810.87 249.939 1813.29 250.844C1815.73 251.73 1817.85 253.069 1819.66 254.86C1821.49 256.651 1822.91 258.904 1823.93 261.618C1824.94 264.315 1825.45 267.472 1825.45 271.091V274.332H1789.52V267.02H1814.34C1814.34 265.321 1813.97 263.816 1813.23 262.505C1812.5 261.194 1811.47 260.169 1810.16 259.43C1808.87 258.673 1807.36 258.295 1805.65 258.295C1803.85 258.295 1802.27 258.71 1800.88 259.541C1799.51 260.354 1798.44 261.452 1797.67 262.837C1796.89 264.204 1796.5 265.727 1796.48 267.408V274.36C1796.48 276.465 1796.86 278.284 1797.64 279.817C1798.43 281.349 1799.55 282.531 1800.99 283.362C1802.43 284.193 1804.14 284.609 1806.12 284.609C1807.43 284.609 1808.63 284.424 1809.72 284.055C1810.81 283.685 1811.74 283.131 1812.51 282.393C1813.29 281.654 1813.88 280.749 1814.29 279.678L1825.2 280.398C1824.65 283.02 1823.51 285.31 1821.79 287.268C1820.09 289.207 1817.9 290.721 1815.2 291.81C1812.52 292.881 1809.43 293.417 1805.92 293.417ZM1848.83 293.278C1845.6 293.278 1842.67 292.447 1840.05 290.785C1837.44 289.105 1835.38 286.64 1833.84 283.39C1832.33 280.121 1831.57 276.114 1831.57 271.368C1831.57 266.493 1832.36 262.44 1833.93 259.209C1835.5 255.959 1837.58 253.53 1840.19 251.924C1842.81 250.299 1845.68 249.486 1848.8 249.486C1851.18 249.486 1853.17 249.893 1854.76 250.705C1856.36 251.499 1857.65 252.496 1858.63 253.697C1859.63 254.878 1860.39 256.042 1860.9 257.187H1861.26V235.859H1873.04V292.586H1861.4V285.772H1860.9C1860.35 286.954 1859.57 288.126 1858.55 289.29C1857.55 290.435 1856.25 291.386 1854.64 292.143C1853.06 292.9 1851.12 293.278 1848.83 293.278ZM1852.57 283.888C1854.47 283.888 1856.08 283.371 1857.39 282.337C1858.72 281.285 1859.73 279.817 1860.43 277.933C1861.15 276.05 1861.51 273.843 1861.51 271.313C1861.51 268.783 1861.16 266.586 1860.46 264.721C1859.76 262.856 1858.74 261.415 1857.41 260.4C1856.08 259.384 1854.47 258.876 1852.57 258.876C1850.63 258.876 1848.99 259.403 1847.66 260.455C1846.33 261.508 1845.33 262.966 1844.65 264.832C1843.96 266.697 1843.62 268.857 1843.62 271.313C1843.62 273.788 1843.96 275.976 1844.65 277.878C1845.35 279.761 1846.35 281.239 1847.66 282.31C1848.99 283.362 1850.63 283.888 1852.57 283.888ZM1901.01 292.586V235.859H1939.24V245.747H1913.01V259.264H1937.27V269.153H1913.01V282.697H1939.35V292.586H1901.01ZM1964.23 293.278C1961 293.278 1958.07 292.447 1955.45 290.785C1952.84 289.105 1950.78 286.64 1949.24 283.39C1947.73 280.121 1946.97 276.114 1946.97 271.368C1946.97 266.493 1947.76 262.44 1949.33 259.209C1950.9 255.959 1952.98 253.53 1955.59 251.924C1958.21 250.299 1961.08 249.486 1964.2 249.486C1966.58 249.486 1968.57 249.893 1970.16 250.705C1971.76 251.499 1973.05 252.496 1974.03 253.697C1975.03 254.878 1975.79 256.042 1976.3 257.187H1976.66V235.859H1988.44V292.586H1976.8V285.772H1976.3C1975.75 286.954 1974.97 288.126 1973.95 289.29C1972.95 290.435 1971.65 291.386 1970.04 292.143C1968.46 292.9 1966.52 293.278 1964.23 293.278ZM1967.97 283.888C1969.87 283.888 1971.48 283.371 1972.79 282.337C1974.12 281.285 1975.13 279.817 1975.83 277.933C1976.55 276.05 1976.91 273.843 1976.91 271.313C1976.91 268.783 1976.56 266.586 1975.86 264.721C1975.16 262.856 1974.14 261.415 1972.81 260.4C1971.49 259.384 1969.87 258.876 1967.97 258.876C1966.03 258.876 1964.39 259.403 1963.06 260.455C1961.74 261.508 1960.73 262.966 1960.05 264.832C1959.36 266.697 1959.02 268.857 1959.02 271.313C1959.02 273.788 1959.36 275.976 1960.05 277.878C1960.75 279.761 1961.75 281.239 1963.06 282.31C1964.39 283.362 1966.03 283.888 1967.97 283.888ZM2017.31 309.427C2013.48 309.427 2010.21 308.9 2007.47 307.848C2004.76 306.814 2002.6 305.401 2000.99 303.61C1999.38 301.819 1998.34 299.806 1997.86 297.572L2008.77 296.104C2009.11 296.953 2009.63 297.747 2010.35 298.486C2011.07 299.224 2012.02 299.815 2013.21 300.258C2014.41 300.72 2015.87 300.951 2017.58 300.951C2020.15 300.951 2022.26 300.323 2023.93 299.067C2025.61 297.83 2026.45 295.753 2026.45 292.835V285.052H2025.95C2025.43 286.234 2024.66 287.351 2023.62 288.403C2022.59 289.456 2021.26 290.315 2019.63 290.979C2018.01 291.644 2016.07 291.976 2013.82 291.976C2010.62 291.976 2007.71 291.238 2005.09 289.761C2002.49 288.265 2000.41 285.984 1998.86 282.919C1997.33 279.835 1996.56 275.939 1996.56 271.23C1996.56 266.41 1997.34 262.385 1998.91 259.153C2000.48 255.922 2002.57 253.503 2005.17 251.896C2007.8 250.29 2010.67 249.486 2013.79 249.486C2016.17 249.486 2018.16 249.893 2019.77 250.705C2021.38 251.499 2022.67 252.496 2023.65 253.697C2024.65 254.878 2025.41 256.042 2025.95 257.187H2026.39V250.04H2038.11V293.001C2038.11 296.621 2037.22 299.649 2035.45 302.087C2033.68 304.524 2031.22 306.352 2028.08 307.571C2024.96 308.808 2021.37 309.427 2017.31 309.427ZM2017.56 283.113C2019.46 283.113 2021.06 282.642 2022.38 281.7C2023.7 280.74 2024.72 279.373 2025.42 277.601C2026.14 275.81 2026.5 273.667 2026.5 271.175C2026.5 268.682 2026.15 266.521 2025.45 264.693C2024.75 262.846 2023.73 261.415 2022.4 260.4C2021.07 259.384 2019.46 258.876 2017.56 258.876C2015.62 258.876 2013.98 259.403 2012.65 260.455C2011.32 261.489 2010.32 262.93 2009.63 264.776C2008.95 266.623 2008.61 268.756 2008.61 271.175C2008.61 273.631 2008.95 275.754 2009.63 277.545C2010.34 279.318 2011.34 280.694 2012.65 281.672C2013.98 282.633 2015.62 283.113 2017.56 283.113ZM2066.89 293.417C2062.51 293.417 2058.74 292.53 2055.59 290.758C2052.45 288.966 2050.03 286.437 2048.33 283.168C2046.63 279.881 2045.78 275.994 2045.78 271.507C2045.78 267.131 2046.63 263.29 2048.33 259.984C2050.03 256.679 2052.42 254.103 2055.5 252.256C2058.61 250.41 2062.24 249.486 2066.42 249.486C2069.22 249.486 2071.84 249.939 2074.25 250.844C2076.69 251.73 2078.82 253.069 2080.63 254.86C2082.45 256.651 2083.88 258.904 2084.89 261.618C2085.91 264.315 2086.41 267.472 2086.41 271.091V274.332H2050.49V267.02H2075.31C2075.31 265.321 2074.94 263.816 2074.2 262.505C2073.46 261.194 2072.44 260.169 2071.12 259.43C2069.83 258.673 2068.33 258.295 2066.61 258.295C2064.82 258.295 2063.23 258.71 2061.85 259.541C2060.48 260.354 2059.41 261.452 2058.63 262.837C2057.86 264.204 2057.46 265.727 2057.44 267.408V274.36C2057.44 276.465 2057.83 278.284 2058.61 279.817C2059.4 281.349 2060.52 282.531 2061.96 283.362C2063.4 284.193 2065.11 284.609 2067.08 284.609C2068.39 284.609 2069.59 284.424 2070.68 284.055C2071.77 283.685 2072.7 283.131 2073.48 282.393C2074.25 281.654 2074.85 280.749 2075.25 279.678L2086.17 280.398C2085.61 283.02 2084.48 285.31 2082.76 287.268C2081.06 289.207 2078.86 290.721 2076.17 291.81C2073.49 292.881 2070.4 293.417 2066.89 293.417Z" fill="white"/>
<defs>
<filter id="filter0_d_8000_2523" x="828" y="559.637" width="237" height="238.117" filterUnits="userSpaceOnUse" color-interpolation-filters="sRGB">
<feFlood flood-opacity="0" result="BackgroundImageFix"/>
<feColorMatrix in="SourceAlpha" type="matrix" values="0 0 0 0 0 0 0 0 0 0 0 0 0 0 0 0 0 0 127 0" result="hardAlpha"/>
<feOffset dy="12"/>
<feGaussianBlur stdDeviation="48"/>
<feComposite in2="hardAlpha" operator="out"/>
<feColorMatrix type="matrix" values="0 0 0 0 0.286275 0 0 0 0 0.490196 0 0 0 0 0.976471 0 0 0 1 0"/>
<feBlend mode="normal" in2="BackgroundImageFix" result="effect1_dropShadow_8000_2523"/>
<feBlend mode="normal" in="SourceGraphic" in2="effect1_dropShadow_8000_2523" result="shape"/>
</filter>
<filter id="filter1_d_8000_2523" x="1860" y="267.564" width="258" height="259.638" filterUnits="userSpaceOnUse" color-interpolation-filters="sRGB">
<feFlood flood-opacity="0" result="BackgroundImageFix"/>
<feColorMatrix in="SourceAlpha" type="matrix" values="0 0 0 0 0 0 0 0 0 0 0 0 0 0 0 0 0 0 127 0" result="hardAlpha"/>
<feOffset dy="12"/>
<feGaussianBlur stdDeviation="48"/>
<feComposite in2="hardAlpha" operator="out"/>
<feColorMatrix type="matrix" values="0 0 0 0 0.286275 0 0 0 0 0.490196 0 0 0 0 0.976471 0 0 0 1 0"/>
<feBlend mode="normal" in2="BackgroundImageFix" result="effect1_dropShadow_8000_2523"/>
<feBlend mode="normal" in="SourceGraphic" in2="effect1_dropShadow_8000_2523" result="shape"/>
</filter>
<filter id="filter2_d_8000_2523" x="2517" y="70.8514" width="237" height="238.117" filterUnits="userSpaceOnUse" color-interpolation-filters="sRGB">
<feFlood flood-opacity="0" result="BackgroundImageFix"/>
<feColorMatrix in="SourceAlpha" type="matrix" values="0 0 0 0 0 0 0 0 0 0 0 0 0 0 0 0 0 0 127 0" result="hardAlpha"/>
<feOffset dy="12"/>
<feGaussianBlur stdDeviation="48"/>
<feComposite in2="hardAlpha" operator="out"/>
<feColorMatrix type="matrix" values="0 0 0 0 0.286275 0 0 0 0 0.490196 0 0 0 0 0.976471 0 0 0 1 0"/>
<feBlend mode="normal" in2="BackgroundImageFix" result="effect1_dropShadow_8000_2523"/>
<feBlend mode="normal" in="SourceGraphic" in2="effect1_dropShadow_8000_2523" result="shape"/>
</filter>
<filter id="filter3_d_8000_2523" x="474" y="676.466" width="237" height="238.117" filterUnits="userSpaceOnUse" color-interpolation-filters="sRGB">
<feFlood flood-opacity="0" result="BackgroundImageFix"/>
<feColorMatrix in="SourceAlpha" type="matrix" values="0 0 0 0 0 0 0 0 0 0 0 0 0 0 0 0 0 0 127 0" result="hardAlpha"/>
<feOffset dy="12"/>
<feGaussianBlur stdDeviation="48"/>
<feComposite in2="hardAlpha" operator="out"/>
<feColorMatrix type="matrix" values="0 0 0 0 0.286275 0 0 0 0 0.490196 0 0 0 0 0.976471 0 0 0 1 0"/>
<feBlend mode="normal" in2="BackgroundImageFix" result="effect1_dropShadow_8000_2523"/>
<feBlend mode="normal" in="SourceGraphic" in2="effect1_dropShadow_8000_2523" result="shape"/>
</filter>
<linearGradient id="paint0_linear_8000_2523" x1="2253.59" y1="-1337.68" x2="1375.82" y2="1003.59" gradientUnits="userSpaceOnUse">
<stop stop-color="#497DF9"/>
<stop offset="0.89791" stop-color="#497DF9" stop-opacity="0"/>
</linearGradient>
<linearGradient id="paint1_linear_8000_2523" x1="1393.15" y1="-1400.2" x2="2677.82" y2="483.91" gradientUnits="userSpaceOnUse">
<stop stop-color="#497DF9"/>
<stop offset="0.89791" stop-color="#497DF9" stop-opacity="0"/>
</linearGradient>
<linearGradient id="paint2_linear_8000_2523" x1="2016" y1="-461.628" x2="2396.86" y2="716.901" gradientUnits="userSpaceOnUse">
<stop stop-color="#497DF9" stop-opacity="0.5"/>
<stop offset="1" stop-color="#497DF9" stop-opacity="0"/>
</linearGradient>
<linearGradient id="paint3_linear_8000_2523" x1="1984.5" y1="230.123" x2="3072" y2="221.341" gradientUnits="userSpaceOnUse">
<stop stop-color="white"/>
<stop offset="1" stop-color="white" stop-opacity="0"/>
</linearGradient>
<radialGradient id="paint4_radial_8000_2523" cx="0" cy="0" r="1" gradientUnits="userSpaceOnUse" gradientTransform="translate(163.988 1368.42) rotate(-90.8786) scale(1303.5 54.1924)">
<stop stop-color="#002852"/>
<stop offset="1" stop-color="#497DF9"/>
</radialGradient>
<radialGradient id="paint5_radial_8000_2523" cx="0" cy="0" r="1" gradientUnits="userSpaceOnUse" gradientTransform="translate(202.638 2.7935e+15) rotate(-90) scale(2.7935e+15 8013.94)">
<stop stop-color="#002852"/>
<stop offset="1" stop-color="#497DF9"/>
</radialGradient>
</defs>
</svg>
