<svg width="102" height="102" viewBox="0 0 102 102" fill="none" xmlns="http://www.w3.org/2000/svg">
<rect x="46.8426" y="34.2814" width="44.6829" height="44.6829" rx="8.25" transform="rotate(15 46.8426 34.2814)" fill="#5082FF" stroke="#5082FF" stroke-width="4.5" stroke-linecap="round" stroke-linejoin="round"/>
<path d="M71.58 53.9692L54.42 69.0315M60.8517 53.1718C61.6905 55.0537 60.9123 57.2908 59.1134 58.1684C57.3146 59.0459 55.1764 58.2317 54.3376 56.3498C53.4988 54.4678 54.277 52.2307 56.0758 51.3532C57.8747 50.4756 60.0129 51.2898 60.8517 53.1718ZM71.6624 66.6502C72.5012 68.5322 71.723 70.7693 69.9242 71.6468C68.1253 72.5244 65.9871 71.7102 65.1483 69.8282C64.3095 67.9463 65.0877 65.7092 66.8866 64.8316C68.6854 63.9541 70.8236 64.7683 71.6624 66.6502Z" stroke="white" stroke-width="4.5" stroke-linecap="round" stroke-linejoin="round"/>
<path d="M39.7205 43.1156L38.4685 48L32.9428 42.2628L32.3984 40.0781L34.162 39.6186C34.8674 39.4348 35.4601 39.1756 35.9402 38.841C36.4349 38.4815 36.8096 38.059 37.0642 37.5735C37.3384 37.0829 37.4755 36.5441 37.4753 35.9573L31.7436 37.4505L31.1992 35.2658L36.9015 33.7803C36.6564 33.2991 36.3378 32.9001 35.9458 32.583C35.5734 32.2608 35.125 32.0528 34.6008 31.9588C34.0912 31.84 33.5131 31.8649 32.8665 32.0333L30.5444 32.6383L30 30.4536L43.2564 27L43.8008 29.1847L39.1861 30.3869C39.6124 30.6741 39.9873 31.0061 40.3107 31.383C40.6538 31.7547 40.9282 32.1862 41.1341 32.6776L44.4556 31.8123L45 33.997L41.7373 34.8469C41.9043 36.3545 41.6303 37.6415 40.9153 38.7081C40.1954 39.755 39.1472 40.6149 37.7707 41.288L39.7205 43.1156Z" fill="#5082FF"/>
<path d="M60 27.6995C56.0635 20.1615 48.0455 15 38.7945 15C25.6532 15 15 25.4154 15 38.2634C15 48.1849 21.3528 56.6558 30.2985 60" stroke="#5082FF" stroke-width="6" stroke-linecap="round" stroke-linejoin="round"/>
<path d="M17.8263 64.4395L26.8882 68.9557C27.1392 69.0808 27.3626 69.2531 27.5455 69.4627C27.7285 69.6723 27.8674 69.915 27.9544 70.1771C28.0415 70.4392 28.0749 70.7155 28.0528 70.9903C28.0306 71.265 27.9534 71.5328 27.8255 71.7783C27.6975 72.0238 27.5214 72.2423 27.3071 72.4212C27.0929 72.6002 26.8447 72.7361 26.5768 72.8212C26.3088 72.9064 26.0263 72.9391 25.7455 72.9174C25.4646 72.8958 25.1908 72.8202 24.9398 72.6951L22.1855 71.3224C26.0337 85.1891 38.3469 91.0866 47.9737 88.1179C48.3216 88.0102 48.5505 88.4645 48.2667 88.6717C39.3821 95.139 24.8571 93.129 17.3868 78.184C16.6809 76.731 16.0178 75.2451 15.3931 73.7337L14.1468 76.1262C14.019 76.3717 13.8429 76.5902 13.6287 76.7692C13.4145 76.9481 13.1663 77.084 12.8984 77.1692C12.6305 77.2544 12.3481 77.2871 12.0672 77.2654C11.7864 77.2438 11.5127 77.1683 11.2617 77.0432C11.0107 76.9181 10.7873 76.7459 10.6044 76.5364C10.4214 76.3269 10.2824 76.0841 10.1954 75.8221C10.1083 75.56 10.0749 75.2838 10.097 75.0091C10.1191 74.7344 10.1963 74.4666 10.3242 74.2211L14.9413 65.3572C15.0691 65.1116 15.2451 64.893 15.4593 64.714C15.6734 64.535 15.9215 64.399 16.1894 64.3137C16.4573 64.2285 16.7398 64.1958 17.0206 64.2173C17.3015 64.2389 17.5752 64.3144 17.8263 64.4395Z" fill="#5082FF"/>
<path d="M82.8958 39.1076L75.1438 33.7222C74.9291 33.573 74.7465 33.3839 74.6065 33.1656C74.4665 32.9474 74.3718 32.7044 74.3278 32.4503C74.2839 32.1963 74.2915 31.9363 74.3502 31.6852C74.409 31.434 74.5177 31.1967 74.6703 30.9866C74.8228 30.7766 75.0162 30.598 75.2393 30.4611C75.4624 30.3241 75.7109 30.2315 75.9706 30.1885C76.2303 30.1455 76.4961 30.1529 76.7528 30.2104C77.0096 30.2679 77.2522 30.3742 77.467 30.5234L79.8231 32.1603C78.1965 18.8219 67.6298 11.7254 58.3122 13.1875C57.9754 13.2407 57.8271 12.79 58.1185 12.6362C67.2371 7.83927 80.3912 11.6351 85.2177 26.4539C85.6682 27.8919 86.0744 29.3546 86.4415 30.8358L87.9276 28.7891C88.0801 28.5791 88.2734 28.4005 88.4964 28.2635C88.7195 28.1266 88.968 28.0339 89.2276 27.9909C89.4873 27.9479 89.7531 27.9553 90.0098 28.0127C90.2665 28.0702 90.5092 28.1765 90.7239 28.3257C90.9386 28.4748 91.1212 28.6639 91.2612 28.8821C91.4012 29.1003 91.4959 29.3433 91.5399 29.5973C91.5839 29.8513 91.5763 30.1113 91.5176 30.3624C91.4589 30.6135 91.3502 30.8508 91.1977 31.0609L85.692 38.6435C85.5396 38.8536 85.3463 39.0323 85.1233 39.1693C84.9003 39.3063 84.6518 39.399 84.3922 39.4421C84.1325 39.4852 83.8667 39.4779 83.61 39.4205C83.3532 39.3631 83.1105 39.2567 82.8958 39.1076Z" fill="#5082FF"/>
</svg>
