<svg width="100" height="100" viewBox="0 0 100 100" fill="none" xmlns="http://www.w3.org/2000/svg">
<path d="M89.2501 45.5085C89.996 45.1795 90.629 44.6388 91.0707 43.9535C91.5123 43.2683 91.7433 42.4685 91.7348 41.6533C91.7264 40.838 91.479 40.0432 91.0233 39.3672C90.5676 38.6912 89.9235 38.1638 89.171 37.8502L53.4585 21.5835C52.3728 21.0883 51.1934 20.832 50.0001 20.832C48.8069 20.832 47.6275 21.0883 46.5418 21.5835L10.8335 37.8335C10.0917 38.1584 9.46062 38.6924 9.0175 39.3702C8.57437 40.0481 8.33838 40.8404 8.33838 41.6502C8.33838 42.46 8.57437 43.2523 9.0175 43.9301C9.46062 44.608 10.0917 45.142 10.8335 45.4669L46.5418 61.7502C47.6275 62.2454 48.8069 62.5017 50.0001 62.5017C51.1934 62.5017 52.3728 62.2454 53.4585 61.7502L89.2501 45.5085Z" stroke="black" stroke-width="3" stroke-linecap="round" stroke-linejoin="round"/>
<path d="M91.6665 41.667V66.667" stroke="black" stroke-width="3" stroke-linecap="round" stroke-linejoin="round"/>
<path d="M25 52.083V66.6663C25 69.9815 27.6339 73.161 32.3223 75.5052C37.0107 77.8494 43.3696 79.1663 50 79.1663C56.6304 79.1663 62.9893 77.8494 67.6777 75.5052C72.3661 73.161 75 69.9815 75 66.6663V52.083" stroke="black" stroke-width="3" stroke-linecap="round" stroke-linejoin="round"/>
</svg>
