<svg width="20" height="20" viewBox="0 0 20 20" fill="none" xmlns="http://www.w3.org/2000/svg">
<path d="M2.35635 5.53793C2.19318 5.15721 1.75228 4.98085 1.37155 5.14402C0.99083 5.30718 0.814467 5.74809 0.977633 6.12881L1.66699 5.83337L2.35635 5.53793ZM12.9896 11.1073L12.715 10.4094L12.9896 11.1073ZM7.63964 11.5163C7.86555 11.1691 7.76723 10.7046 7.42004 10.4787C7.07285 10.2527 6.60827 10.3511 6.38236 10.6983L7.011 11.1073L7.63964 11.5163ZM5.20502 12.5077C4.97911 12.8549 5.07743 13.3194 5.42462 13.5453C5.77181 13.7713 6.23639 13.6729 6.4623 13.3257L5.83366 12.9167L5.20502 12.5077ZM19.023 6.12881C19.1862 5.74809 19.0098 5.30718 18.6291 5.14402C18.2484 4.98085 17.8075 5.15721 17.6443 5.53793L18.3337 5.83337L19.023 6.12881ZM15.8337 9.27407L15.3204 8.72722V8.72722L15.8337 9.27407ZM16.5533 11.0544C16.8462 11.3473 17.3211 11.3473 17.614 11.0544C17.9069 10.7615 17.9069 10.2866 17.614 9.99374L17.0837 10.5241L16.5533 11.0544ZM9.25033 13.75C9.25033 14.1643 9.58611 14.5 10.0003 14.5C10.4145 14.5 10.7503 14.1643 10.7503 13.75H10.0003H9.25033ZM13.5384 13.3257C13.7643 13.6729 14.2288 13.7713 14.576 13.5453C14.9232 13.3194 15.0215 12.8549 14.7956 12.5077L14.167 12.9167L13.5384 13.3257ZM4.69732 9.8044C4.99022 9.51151 4.99022 9.03664 4.69732 8.74374C4.40443 8.45085 3.92956 8.45085 3.63666 8.74374L4.16699 9.27407L4.69732 9.8044ZM2.38666 9.99374C2.09377 10.2866 2.09377 10.7615 2.38666 11.0544C2.67956 11.3473 3.15443 11.3473 3.44732 11.0544L2.91699 10.5241L2.38666 9.99374ZM10.0003 11.6667V10.9167C7.35977 10.9167 5.46165 9.60298 4.19575 8.2397C3.56303 7.5583 3.09878 6.87454 2.79323 6.36122C2.64088 6.10527 2.52915 5.89366 2.45663 5.74861C2.4204 5.67615 2.39404 5.62047 2.37737 5.58439C2.36904 5.56635 2.36313 5.55322 2.35964 5.54536C2.35789 5.54143 2.35674 5.53881 2.35619 5.53756C2.35592 5.53693 2.3558 5.53665 2.35582 5.53671C2.35584 5.53674 2.35589 5.53686 2.35598 5.53706C2.35602 5.53716 2.35611 5.53738 2.35614 5.53743C2.35624 5.53767 2.35635 5.53793 1.66699 5.83337C0.977633 6.12881 0.977765 6.12912 0.977906 6.12945C0.977966 6.12959 0.978118 6.12994 0.978238 6.13022C0.978478 6.13078 0.978758 6.13143 0.979077 6.13216C0.979714 6.13364 0.980508 6.13547 0.981458 6.13764C0.983359 6.142 0.985888 6.14775 0.989048 6.15486C0.995368 6.16907 1.00422 6.1887 1.01562 6.21338C1.03842 6.26275 1.07147 6.3324 1.11499 6.41944C1.20197 6.5934 1.33113 6.83752 1.50429 7.12845C1.84978 7.70887 2.37512 8.48344 3.09656 9.26038C4.539 10.8138 6.80755 12.4167 10.0003 12.4167V11.6667ZM12.9896 11.1073L12.715 10.4094C11.9202 10.7222 11.0187 10.9167 10.0003 10.9167V11.6667V12.4167C11.2152 12.4167 12.3027 12.1837 13.2643 11.8052L12.9896 11.1073ZM7.011 11.1073L6.38236 10.6983L5.20502 12.5077L5.83366 12.9167L6.4623 13.3257L7.63964 11.5163L7.011 11.1073ZM18.3337 5.83337C17.6443 5.53793 17.6444 5.53778 17.6444 5.53764C17.6444 5.5376 17.6445 5.53746 17.6445 5.53738C17.6446 5.53722 17.6447 5.53709 17.6447 5.53699C17.6448 5.53679 17.6448 5.53669 17.6448 5.5367C17.6448 5.53673 17.6446 5.53719 17.6442 5.53807C17.6435 5.53984 17.6419 5.54331 17.6396 5.54842C17.6351 5.55865 17.6275 5.57543 17.6168 5.59826C17.5955 5.64394 17.5621 5.71377 17.5161 5.80381C17.4242 5.98405 17.283 6.24427 17.0904 6.55327C16.704 7.17345 16.1184 7.97822 15.3204 8.72722L15.8337 9.27407L16.3469 9.82092C17.2644 8.95974 17.9288 8.04416 18.3635 7.34653C18.5815 6.99664 18.7436 6.69859 18.8524 6.48529C18.9068 6.37856 18.948 6.2928 18.9764 6.23209C18.9905 6.20172 19.0014 6.1776 19.0092 6.16022C19.0131 6.15154 19.0162 6.14453 19.0185 6.13928C19.0196 6.13665 19.0206 6.13446 19.0213 6.13271C19.0217 6.13184 19.022 6.13108 19.0223 6.13043C19.0225 6.1301 19.0226 6.1298 19.0227 6.12954C19.0228 6.1294 19.0228 6.12922 19.0229 6.12915C19.0229 6.12898 19.023 6.12881 18.3337 5.83337ZM15.8337 9.27407L15.3204 8.72722C14.6135 9.39068 13.7484 10.0026 12.715 10.4094L12.9896 11.1073L13.2643 11.8052C14.51 11.3149 15.5324 10.5855 16.3469 9.82092L15.8337 9.27407ZM15.8337 9.27407L15.3033 9.8044L16.5533 11.0544L17.0837 10.5241L17.614 9.99374L16.364 8.74374L15.8337 9.27407ZM10.0003 11.6667H9.25033V13.75H10.0003H10.7503V11.6667H10.0003ZM12.9896 11.1073L12.361 11.5163L13.5384 13.3257L14.167 12.9167L14.7956 12.5077L13.6183 10.6983L12.9896 11.1073ZM4.16699 9.27407L3.63666 8.74374L2.38666 9.99374L2.91699 10.5241L3.44732 11.0544L4.69732 9.8044L4.16699 9.27407Z" fill="#6C6C6C"/>
</svg>
