<svg width="40" height="39" viewBox="0 0 40 39" fill="none" xmlns="http://www.w3.org/2000/svg">
<g clip-path="url(#clip0_1096_9343)">
<path d="M39.457 19.5699C39.457 29.6344 31.9356 37.8817 22.3249 39V23.9032H26.9213L27.6177 18.5914H22.4642V15.3763C22.4642 13.8387 22.882 12.8602 25.1106 12.8602H27.8963V7.96774C26.5035 7.82796 25.2499 7.82796 23.857 7.82796C19.8177 7.82796 17.032 10.3441 17.032 14.8172V18.7312H12.4356V24.043H17.032V39C7.5606 37.4624 0.457031 29.3548 0.457031 19.5699C0.457031 8.80645 9.23203 0 19.957 0C30.682 0 39.457 8.80645 39.457 19.5699Z" fill="#002852"/>
</g>
<defs>
<clipPath id="clip0_1096_9343">
<rect width="39" height="39" fill="white" transform="translate(0.457031)"/>
</clipPath>
</defs>
</svg>
