<svg width="140" height="141" viewBox="0 0 140 141" fill="none" xmlns="http://www.w3.org/2000/svg">
<g clip-path="url(#clip0_7813_1700)">
<path d="M105.653 32.6505L100.274 36.2369L91.3075 34.4437L85.9277 32.6505L78.7548 34.4437L73.375 32.6505L76.9614 25.4776H84.1343L91.1639 21.9629C96.5851 24.6437 101.49 28.2624 105.653 32.6505Z" fill="#03AA6F"/>
<path d="M64.4113 25.4787L62.6181 30.8585L57.2383 32.6517L51.8585 41.6179L42.8924 46.9976L30.3398 48.7908V54.1706L33.9262 57.757V64.93L28.5469 61.3434L23.1671 57.757L20.0469 48.3785C25.4175 35.58 35.6839 25.4625 48.5592 20.2783L53.6519 23.6855L64.4113 25.4787Z" fill="#03AA6F"/>
<path d="M67.9957 75.688L66.2025 84.6541L59.0296 91.8271V97.2069L51.8566 102.586V111.553L46.477 109.759L42.8904 100.793V82.8609L33.9243 81.0677L30.3379 73.8948V68.515L33.9243 64.9286L39.304 59.5488L42.8904 66.7218H55.443L60.8227 75.688H67.9957Z" fill="#03AA6F"/>
<path d="M113.364 43.1071C123.153 60.5714 122.038 82.1064 110.495 98.464L105.653 93.6223V86.4494L102.067 79.2764L98.4805 72.1034V64.9305L93.1007 61.3441L85.9278 63.1373L73.3752 57.7575L71.582 45.205L76.9618 39.8252H87.7212L91.3075 45.205L102.067 46.9982L112.826 43.4118L113.364 43.1071Z" fill="#03AA6F"/>
<path d="M78.7558 34.4447L85.9288 32.6515L91.3085 34.4447L100.275 36.2379L105.654 32.6515C108.658 35.7951 111.249 39.3079 113.365 43.106L112.827 43.4109L102.068 46.9972L91.3087 45.204L87.7223 39.8243H76.963L71.5832 45.204L73.3764 57.7566L85.929 63.1364L93.1019 61.3432L98.4817 64.9295V72.1025L102.068 79.2755L105.654 86.4484V93.6214L110.496 98.4631C93.9358 121.929 61.4871 127.526 38.0226 110.965C18.0944 96.8992 10.6184 70.874 20.0454 48.3781L23.1656 57.7566L28.5454 61.343L33.9252 64.9293L30.3386 68.5159V73.8957L33.925 81.0687L42.8912 82.8619V100.794L46.4775 109.76L51.8573 111.554V102.587L59.0303 97.2076V91.8278L66.2032 84.6548L67.9964 75.6887H60.8235L55.4437 66.7225H42.8912L39.3048 59.5496L33.9252 64.9293L33.925 57.7564L30.3386 54.1702V48.7904L42.8912 46.9972L51.8573 41.6175L57.2371 32.6513L62.6169 30.8581L64.4101 25.4783L53.6507 23.6851L48.5579 20.2779C62.3479 14.7243 77.8557 15.3375 91.1651 21.9637L84.1356 25.4783H76.9626L73.3762 32.6513L78.7558 34.4447Z" fill="#86DAF1"/>
</g>
<defs>
<clipPath id="clip0_7813_1700">
<rect width="104" height="104" fill="white" transform="translate(16 16.5)"/>
</clipPath>
</defs>
</svg>
