<svg width="24" height="24" viewBox="0 0 24 24" fill="none" xmlns="http://www.w3.org/2000/svg">
<mask id="mask0_7919_1042" style="mask-type:luminance" maskUnits="userSpaceOnUse" x="0" y="0" width="24" height="24">
<path d="M24 0H0V24H24V0Z" fill="white"/>
</mask>
<g mask="url(#mask0_7919_1042)">
<path d="M20.689 3.72711L19.4477 4.55474L17.3785 4.14093L16.137 3.72711L14.4817 4.14093L13.2402 3.72711L14.0679 2.07183H15.7231L17.3454 1.26074C18.5964 1.87939 19.7283 2.71447 20.689 3.72711Z" fill="#03AA6F"/>
<path d="M11.172 2.07216L10.7582 3.31365L9.51671 3.72747L8.27522 5.79659L6.20612 7.03806L3.30937 7.45188V8.69337L4.137 9.521V11.1763L2.89562 10.3486L1.65413 9.521L0.934082 7.35673C2.17345 4.40323 4.54262 2.06842 7.51384 0.87207L8.68908 1.65835L11.172 2.07216Z" fill="#03AA6F"/>
<path d="M11.9989 13.659L11.585 15.7281L9.92975 17.3834V18.6249L8.27445 19.8662V21.9355L7.033 21.5215L6.20532 19.4525V15.3143L4.13622 14.9005L3.30859 13.2452V12.0037L4.13622 11.1761L5.37769 9.93457L6.20532 11.5899H9.10208L10.3435 13.659H11.9989Z" fill="#03AA6F"/>
<path d="M22.4687 6.14017C24.7277 10.1704 24.4704 15.14 21.8066 18.9148L20.6892 17.7975V16.1422L19.8617 14.4869L19.034 12.8316V11.1763L17.7925 10.3487L16.1372 10.7625L13.2405 9.52104L12.8267 6.62431L14.0682 5.38281H16.5511L17.3787 6.62431L19.8617 7.03812L22.3445 6.21049L22.4687 6.14017Z" fill="#03AA6F"/>
<path d="M14.4821 4.14108L16.1374 3.72727L17.3789 4.14108L19.4481 4.5549L20.6894 3.72727C21.3826 4.45271 21.9805 5.26336 22.4688 6.13984L22.3447 6.2102L19.8618 7.03781L17.3789 6.624L16.5513 5.38253H14.0684L12.8269 6.624L13.2407 9.52075L16.1375 10.7622L17.7927 10.3484L19.0342 11.176V12.8313L19.8618 14.4867L20.6894 16.1419V17.7972L21.8068 18.9146C17.9852 24.3298 10.497 25.6214 5.08214 21.7996C0.483326 18.5537 -1.2419 12.5478 0.933557 7.35648L1.6536 9.52075L2.8951 10.3484L4.13659 11.176L3.30891 12.0037V13.2452L4.13654 14.9005L6.20566 15.3143V19.4525L7.03327 21.5215L8.27477 21.9355V19.8662L9.93007 18.6248V17.3833L11.5854 15.728L11.9992 13.6589H10.3439L9.1024 11.5898H6.20566L5.37803 9.93452L4.13659 11.176L4.13654 9.52071L3.30891 8.69312V7.45163L6.20566 7.03781L8.27477 5.79634L9.51626 3.72722L10.7578 3.3134L11.1716 2.07191L8.68863 1.6581L7.51336 0.87182C10.6957 -0.40978 14.2744 -0.268273 17.3458 1.26085L15.7236 2.07191H14.0683L13.2407 3.72722L14.4821 4.14108Z" fill="#86DAF1"/>
</g>
</svg>
