<svg width="210" height="210" viewBox="0 0 210 210" fill="none" xmlns="http://www.w3.org/2000/svg">
<path d="M177.235 53.9257C177.234 53.9254 177.234 53.925 177.233 53.9247L177.235 53.9257ZM177.235 53.9257C177.239 53.9271 177.243 53.9285 177.247 53.9299M177.235 53.9257L177.247 53.9299M177.247 53.9299C177.26 53.9345 177.273 53.9389 177.288 53.9434L177.261 53.9352L177.247 53.9299ZM43.1271 105.591L44.5571 106.146L85.8209 122.164L85.8217 122.164C86.33 122.362 86.8706 122.463 87.416 122.463L43.1271 105.591ZM43.1271 105.591V107.125M43.1271 105.591V107.125M43.1271 107.125V140.815V141.552L43.8213 141.802L101.915 162.726L103.321 163.232V161.738V103.354V99.4563L101.363 102.827L91.2325 120.267L91.2325 120.267M43.1271 107.125L91.2325 120.267M91.2325 120.267C90.8444 120.935 90.2876 121.49 89.6178 121.875C88.9481 122.261 88.189 122.464 87.4163 122.463L91.2325 120.267ZM198.798 89.4782L198.798 89.4783C199.114 90.0293 199.307 90.642 199.364 91.2746C199.422 91.9071 199.341 92.5445 199.13 93.1433C198.918 93.742 198.579 94.2879 198.137 94.7437C197.694 95.1995 197.159 95.5544 196.567 95.7841L196.567 95.7842L181.988 101.443L181.318 101.703V102.422V144.652C181.318 145.56 181.038 146.446 180.516 147.189C179.994 147.932 179.255 148.495 178.401 148.803L109.306 173.689C108.83 173.861 108.333 173.948 107.835 173.95C107.834 173.95 107.832 173.95 107.831 173.95C107.816 173.949 107.794 173.949 107.769 173.949C107.743 173.949 107.721 173.949 107.705 173.95C107.074 173.946 106.451 173.805 105.88 173.537L105.836 173.517L105.79 173.5L37.2202 148.803C36.366 148.495 35.6276 147.932 35.1056 147.189C34.5835 146.446 34.3034 145.56 34.3034 144.652V102.884V102.165L33.6333 101.905L17.8653 95.7842C17.2732 95.5543 16.7378 95.1994 16.2955 94.7436C15.8532 94.2878 15.5146 93.7419 15.3027 93.1431C15.0909 92.5444 15.0108 91.907 15.0679 91.2745C15.125 90.642 15.318 90.0292 15.6337 89.4782C15.6337 89.4781 15.6337 89.4781 15.6338 89.4781L34.8872 55.8745L34.8874 55.8743C35.4068 54.9671 36.2321 54.2744 37.2156 53.92L37.3176 53.8832L37.3222 53.8804L106.315 29.0307C106.315 29.0306 106.315 29.0306 106.316 29.0306C107.29 28.6798 108.357 28.6829 109.329 29.0392L177.203 53.914C177.213 53.9178 177.222 53.9217 177.232 53.9256L177.239 53.9283L177.246 53.9309C178.217 54.2885 179.031 54.9766 179.545 55.8745L179.545 55.8748L198.798 89.4782ZM108.156 38.0068L107.798 37.8756L107.439 38.0048L54.4341 57.0959L51.6997 58.0808L54.4322 59.071L107.361 78.2502L107.721 78.3808L108.081 78.2484L160.233 59.063L162.917 58.0757L160.232 57.0917L108.156 38.0068ZM41.5294 63.7805L40.6994 63.4798L40.2606 64.2457L26.4464 88.3555L25.8396 89.4146L26.9775 89.8563L84.6608 112.248L85.4977 112.573L85.9487 111.796L100.635 86.5134L101.266 85.4269L100.085 84.9988L41.5294 63.7805ZM171.8 141.802L172.494 141.552V140.815V106.663V105.129L171.064 105.684L128.611 122.164C127.615 122.55 126.513 122.562 125.509 122.198C124.504 121.833 123.667 121.116 123.151 120.181L114.114 103.79L112.145 104.297V161.794V163.289L113.55 162.782L171.8 141.802ZM128.572 111.737L129.015 112.542L129.871 112.209L187.454 89.8563L188.592 89.4146L187.986 88.3555L174.183 64.2654L173.742 63.4956L172.909 63.8019L115.223 85.0231L114.076 85.4451L114.666 86.5155L128.572 111.737ZM107.67 173.953C107.668 173.953 107.669 173.953 107.671 173.953L107.67 173.953Z" fill="#002852" stroke="#F2F8FF" stroke-width="2.1"/>
</svg>
