<svg width="85" height="85" viewBox="0 0 85 85" fill="none" xmlns="http://www.w3.org/2000/svg">
<path d="M14.1665 7.08301V77.9163L21.2498 74.3747L28.3332 77.9163L35.4165 74.3747L42.4998 77.9163L49.5832 74.3747L56.6665 77.9163L63.7498 74.3747L70.8332 77.9163V7.08301L63.7498 10.6247L56.6665 7.08301L49.5832 10.6247L42.4998 7.08301L35.4165 10.6247L28.3332 7.08301L21.2498 10.6247L14.1665 7.08301Z" stroke="black" stroke-width="3" stroke-linecap="round" stroke-linejoin="round"/>
<path d="M28.3335 24.792H56.6668" stroke="black" stroke-width="3" stroke-linecap="round" stroke-linejoin="round"/>
<path d="M42.5002 61.9795L28.3335 53.1253H31.8752C35.6324 53.1253 39.2357 51.6328 41.8925 48.976C44.5493 46.3192 46.0418 42.7159 46.0418 38.9587C46.0418 35.2014 44.5493 31.5981 41.8925 28.9413C39.2357 26.2845 35.6324 24.792 31.8752 24.792" stroke="black" stroke-width="3" stroke-linecap="round" stroke-linejoin="round"/>
<path d="M28.3335 38.958H56.6668" stroke="black" stroke-width="3" stroke-linecap="round" stroke-linejoin="round"/>
</svg>
