<svg width="140" height="141" viewBox="0 0 140 141" fill="none" xmlns="http://www.w3.org/2000/svg">
<g clip-path="url(#clip0_7813_1702)">
<circle cx="72" cy="72.5" r="44" fill="white"/>
<path d="M71.5198 24.5C89.8435 24.5 105.714 34.984 113.458 50.2791H29.5859C37.3323 34.984 53.2027 24.5 71.5198 24.5Z" fill="#FF9933"/>
<path d="M29.0547 91.5938H113.995C106.459 107.482 90.2784 118.465 71.5226 118.465C52.7713 118.465 36.5926 107.482 29.0547 91.5938Z" fill="#128807"/>
<path fill-rule="evenodd" clip-rule="evenodd" d="M71.5239 54.9648C80.6532 54.9648 88.0521 62.3638 88.0521 71.4887C88.0521 80.6158 80.6532 88.0148 71.5239 88.0148C62.3989 88.0148 55 80.6158 55 71.4887C55 62.3638 62.3989 54.9648 71.5239 54.9648ZM74.4135 71.3411C74.4049 71.187 74.3853 71.035 74.3549 70.8873L77.2424 70.4705L85.4946 67.748L76.9841 69.5152L74.2789 70.5986C74.2312 70.451 74.1726 70.3098 74.1031 70.1752L76.7822 69.0268L84.0465 64.2591C83.8511 63.9204 83.6449 63.5904 83.4234 63.2713L83.4386 63.2604C83.1216 63.5058 82.6679 63.4428 82.4226 63.128C82.3093 62.9779 82.2587 62.7897 82.2814 62.603C82.3041 62.4164 82.3982 62.2458 82.5441 62.1271C82.2918 61.8292 82.0267 61.5424 81.7495 61.2674V61.2631L75.2646 67.0489L73.4648 69.3437C73.3497 69.2395 73.226 69.1462 73.1001 69.0615L74.8456 66.7276L78.7557 58.9661L73.9902 66.2326L72.8417 68.9139C72.7071 68.8444 72.5638 68.7858 72.414 68.738L73.5017 66.0329L75.2689 57.5223L72.5421 65.7745L72.1296 68.662C71.982 68.6316 71.83 68.6121 71.6759 68.6012L72.0232 65.705L71.5239 57.0317C71.1331 57.0317 70.7445 57.0512 70.358 57.0795L70.3559 57.0577C70.408 57.455 70.1279 57.8176 69.7328 57.8697C69.5457 57.8943 69.3564 57.8447 69.2055 57.7315C69.0545 57.6183 68.9539 57.4505 68.9251 57.264C68.1479 57.4051 67.3945 57.6092 66.6672 57.8697C66.8084 58.2344 66.6325 58.6513 66.2678 58.7989C65.9074 58.9466 65.4905 58.7816 65.332 58.4233C64.9782 58.5927 64.6308 58.7772 64.2943 58.9704L69.0619 66.2326L70.2104 68.9139C70.345 68.8444 70.4861 68.7858 70.6337 68.738L69.5504 66.0329L67.7832 57.5223L70.5078 65.7745L70.9225 68.662C71.0701 68.6316 71.2221 68.6121 71.3762 68.6012L71.0289 65.705L71.5239 57.0317C71.9168 57.0317 72.3076 57.0491 72.6941 57.0795L72.6963 57.0577C72.6717 57.248 72.7235 57.4402 72.8402 57.5923C72.957 57.7445 73.1293 57.8442 73.3193 57.8697C73.708 57.9218 74.0684 57.6504 74.127 57.264C74.9042 57.4051 75.6576 57.6092 76.387 57.8697C76.2459 58.2344 76.4218 58.6513 76.7822 58.7989C77.1469 58.9466 77.5616 58.7816 77.7201 58.4233C78.4322 58.7598 79.1052 59.1485 79.7457 59.5935L79.7565 59.5783C79.5112 59.8953 79.5741 60.3491 79.8889 60.5922C80.0417 60.7081 80.234 60.7592 80.4241 60.7344C80.6143 60.7096 80.787 60.611 80.905 60.4598L80.8898 60.4771C81.1857 60.7271 81.4711 60.9893 81.7452 61.2631H81.7495L75.9659 67.7523L73.6732 69.5521C73.7774 69.6672 73.8686 69.7866 73.9511 69.9169L76.2872 68.167L84.0465 64.2591C84.2397 64.5978 84.4243 64.943 84.5936 65.2969C84.4203 65.3718 84.2835 65.5122 84.2132 65.6874C84.1428 65.8627 84.1446 66.0586 84.218 66.2326C84.3657 66.5952 84.7782 66.771 85.1472 66.6299C85.4056 67.355 85.6097 68.1127 85.7508 68.89C85.5647 68.9192 85.3974 69.0201 85.2847 69.171C85.1719 69.3219 85.1226 69.5109 85.1472 69.6976C85.1972 70.0927 85.5619 70.3706 85.957 70.3185L85.9375 70.3229C85.9657 70.7071 85.9853 71.0958 85.9853 71.4887L77.3119 70.9937L74.4135 71.3411ZM64.2943 58.9704L68.2043 66.7276L69.9542 69.0615C69.8239 69.1462 69.7024 69.2395 69.5895 69.3437L67.7875 67.0489L61.3026 61.2674C61.5783 60.9917 61.867 60.7268 62.1623 60.4728C62.4076 60.7746 62.8527 60.831 63.1632 60.5922C63.2386 60.5345 63.3019 60.4625 63.3495 60.3803C63.3971 60.2981 63.428 60.2073 63.4405 60.1132C63.453 60.019 63.4469 59.9233 63.4224 59.8315C63.3979 59.7398 63.3555 59.6537 63.2978 59.5783L63.3086 59.5935C63.6299 59.3721 63.9578 59.1658 64.2943 58.9704ZM61.3026 61.2674L67.0862 67.7523L69.3789 69.5521C69.2768 69.6672 69.1835 69.7866 69.0966 69.9169L66.7628 68.167L59.0034 64.2591C58.8102 64.5956 58.6278 64.943 58.4607 65.2925C58.6327 65.3701 58.7679 65.5116 58.8376 65.687C58.9072 65.8624 58.906 66.0581 58.8341 66.2326C58.6864 66.5952 58.2696 66.771 57.907 66.6299C57.7746 66.999 57.6617 67.3702 57.5597 67.748L65.8097 70.4705L68.6993 70.8873C68.6668 71.035 68.6472 71.187 68.6364 71.3411L65.7424 70.9937L57.0668 71.4887C57.0668 71.8817 57.0886 72.2725 57.1146 72.6568L57.0951 72.6611C57.4902 72.6068 57.8549 72.8847 57.907 73.2842C57.957 73.6728 57.6856 74.0332 57.3013 74.0918C57.4424 74.8691 57.6443 75.6181 57.907 76.3475C58.2696 76.2086 58.6864 76.3844 58.8341 76.7448C58.9817 77.1074 58.8167 77.5264 58.4607 77.6849C58.6278 78.0388 58.8102 78.3818 59.0034 78.7183L66.7628 74.8104L69.0966 73.0627C69.1835 73.1908 69.2768 73.3146 69.3789 73.4275L67.0862 75.2294L61.3004 81.7144H61.3026C61.5783 81.9879 61.867 82.2528 62.1623 82.509C62.4076 82.205 62.8527 82.1464 63.1632 82.3874C63.4801 82.6306 63.5409 83.0865 63.2978 83.4013L63.3086 83.3883C63.6278 83.6119 63.9578 83.8181 64.2943 84.0135L69.0619 76.7448L70.2104 74.0636C70.345 74.1352 70.4861 74.1939 70.6337 74.2416L69.5504 76.9489L67.7832 85.4573C68.1587 85.5571 68.5409 85.644 68.9251 85.7156C68.9534 85.5288 69.0538 85.3604 69.2048 85.2467C69.3558 85.1331 69.5454 85.0832 69.7328 85.1077C70.1214 85.162 70.3971 85.5137 70.3559 85.9002C70.7401 85.9327 71.1288 85.9501 71.5239 85.9501L72.0232 77.2724L71.6759 74.3762C71.83 74.3697 71.982 74.348 72.1296 74.3176L72.5421 77.2051L75.2689 85.4573L73.5017 76.9489L72.414 74.2416C72.5638 74.1939 72.7071 74.1331 72.8417 74.0636L73.9902 76.7448L78.7557 84.0135C79.0922 83.8181 79.4265 83.6075 79.7457 83.3883L79.7565 83.4013C79.5112 83.0865 79.5741 82.6306 79.8889 82.3874C80.1994 82.1464 80.6466 82.205 80.8876 82.509C81.1851 82.2571 81.4738 81.9879 81.7495 81.7144L75.9659 75.2294L73.6732 73.4275C73.7774 73.3146 73.8686 73.1908 73.9511 73.0627L76.2872 74.8104L84.0509 78.7183L76.7822 73.9507L74.0988 72.8044C74.1726 72.6676 74.2312 72.5265 74.2789 72.3789L76.9841 73.4666L85.4903 75.2316C85.5901 74.8582 85.6791 74.4804 85.7508 74.0918C85.5647 74.0626 85.3974 73.9617 85.2847 73.8108C85.1719 73.6599 85.1226 73.4709 85.1472 73.2842C85.1592 73.19 85.1897 73.0991 85.237 73.0167C85.2842 72.9343 85.3473 72.8621 85.4225 72.8042C85.4978 72.7463 85.5838 72.7039 85.6755 72.6793C85.7672 72.6547 85.8629 72.6485 85.957 72.6611L85.9375 72.6568C85.9679 72.2725 85.9853 71.8839 85.9853 71.4887L77.3119 71.9837L74.4135 71.6364C74.4049 71.7948 74.3853 71.9468 74.3549 72.0944L77.2424 72.507L85.4903 75.2316C85.3882 75.6116 85.2775 75.9828 85.1472 76.3475C84.7782 76.2086 84.3657 76.3844 84.218 76.7448C84.0661 77.1139 84.2354 77.5286 84.5936 77.6849C84.2608 78.3909 83.8693 79.0677 83.4234 79.7083L83.4386 79.7192C83.3631 79.6612 83.2769 79.6187 83.1849 79.5941C83.093 79.5695 82.9971 79.5633 82.9027 79.5758C82.8083 79.5883 82.7173 79.6193 82.6349 79.667C82.5526 79.7147 82.4804 79.7782 82.4226 79.8538C82.1838 80.1621 82.2424 80.6093 82.5441 80.8503C82.2901 81.1481 82.0251 81.4363 81.7495 81.7144L75.2646 75.9307L73.4648 73.6381C73.3497 73.7379 73.226 73.8335 73.1001 73.916L74.8456 76.2498L78.7557 84.0135C78.4191 84.2068 78.0739 84.3891 77.7201 84.5563C77.5659 84.2002 77.1491 84.0309 76.7822 84.1829C76.4131 84.3327 76.2394 84.756 76.3936 85.1251L76.387 85.1099C75.6518 85.3742 74.8958 85.5768 74.127 85.7156C74.0987 85.5288 73.9983 85.3604 73.8473 85.2467C73.6963 85.1331 73.5067 85.0832 73.3193 85.1077C72.9307 85.162 72.655 85.5137 72.6963 85.9002C72.312 85.9284 71.9168 85.9501 71.5239 85.9501L71.0289 77.2724L71.3762 74.3762C71.2221 74.3697 71.0701 74.348 70.9225 74.3176L70.5078 77.2051L67.7832 85.4573C67.4032 85.3574 67.0276 85.2402 66.6672 85.1099C66.7365 84.9339 66.7333 84.7377 66.6585 84.5641C66.5837 84.3904 66.4432 84.2534 66.2678 84.1829C65.903 84.0309 65.4862 84.2002 65.3299 84.5563C64.9774 84.3897 64.6319 84.2086 64.2943 84.0135L68.2043 76.2498L69.9542 73.916C69.8239 73.8335 69.7024 73.7379 69.5895 73.6381L67.7875 75.9307L61.3004 81.7144V81.71C61.0247 81.4343 60.7598 81.1456 60.508 80.8503C60.8119 80.6093 60.8662 80.1621 60.6295 79.8538C60.5719 79.7782 60.5 79.7148 60.4178 79.6671C60.3356 79.6194 60.2448 79.5884 60.1506 79.5759C60.0564 79.5634 59.9606 79.5696 59.8688 79.5942C59.777 79.6188 59.691 79.6613 59.6157 79.7192L59.6287 79.7083C59.4094 79.3892 59.1988 79.057 59.0034 78.7183L66.2678 73.9507L68.949 72.8044C68.8817 72.6676 68.8231 72.5265 68.7732 72.3789L66.068 73.4666L57.5597 75.2316L65.8097 72.507L68.6993 72.0944C68.6668 71.9468 68.6472 71.7948 68.6364 71.6364L65.7424 71.9837L57.0668 71.4887C57.0668 71.0936 57.0842 70.7071 57.1146 70.3229L57.0951 70.3185C57.4902 70.3706 57.8549 70.0927 57.907 69.6976C57.957 69.309 57.6856 68.9486 57.3013 68.89C57.373 68.5035 57.4598 68.1236 57.5597 67.748L66.068 69.5152L68.7732 70.5986C68.8231 70.451 68.8817 70.3098 68.949 70.1752L66.2678 69.0268L59.0034 64.2591C59.1988 63.9204 59.4051 63.5904 59.6287 63.2713L59.6157 63.2604C59.9305 63.5058 60.3842 63.4428 60.6295 63.128C60.8662 62.8175 60.8119 62.3703 60.508 62.1271C60.7641 61.8319 61.029 61.5431 61.3026 61.2674Z" fill="#000088"/>
</g>
<rect x="26" y="26.5" width="92" height="92" rx="46" stroke="#D1D5DB" stroke-width="4"/>
<defs>
<clipPath id="clip0_7813_1702">
<rect x="24" y="24.5" width="96" height="96" rx="48" fill="white"/>
</clipPath>
</defs>
</svg>
