<svg width="24" height="24" viewBox="0 0 24 24" fill="none" xmlns="http://www.w3.org/2000/svg">
<mask id="mask0_7919_1053" style="mask-type:luminance" maskUnits="userSpaceOnUse" x="0" y="0" width="24" height="24">
<path d="M24 12C24 5.37258 18.6274 0 12 0C5.37258 0 0 5.37258 0 12C0 18.6274 5.37258 24 12 24C18.6274 24 24 18.6274 24 12Z" fill="white"/>
</mask>
<g mask="url(#mask0_7919_1053)">
<path d="M12 23C18.0751 23 23 18.0751 23 12C23 5.92487 18.0751 1 12 1C5.92487 1 1 5.92487 1 12C1 18.0751 5.92487 23 12 23Z" fill="white"/>
<path d="M11.88 0C16.4609 0 20.4285 2.621 22.3645 6.44477H1.39648C3.33308 2.621 7.30068 0 11.88 0Z" fill="#FF9933"/>
<path d="M1.26367 16.7734H22.4987C20.6147 20.7455 16.5696 23.4912 11.8806 23.4912C7.19282 23.4912 3.14815 20.7455 1.26367 16.7734Z" fill="#128807"/>
<path fill-rule="evenodd" clip-rule="evenodd" d="M11.881 7.61621C14.1633 7.61621 16.013 9.46596 16.013 11.7472C16.013 14.029 14.1633 15.8787 11.881 15.8787C9.59973 15.8787 7.75 14.029 7.75 11.7472C7.75 9.46596 9.59973 7.61621 11.881 7.61621ZM12.6034 11.7103C12.6012 11.6718 12.5963 11.6338 12.5887 11.5968L13.3106 11.4926L15.3736 10.812L13.246 11.2538L12.5697 11.5247C12.5578 11.4878 12.5432 11.4525 12.5258 11.4188L13.1956 11.1317L15.0116 9.93979C14.9628 9.85511 14.9112 9.77261 14.8559 9.69284L14.8596 9.69011C14.7804 9.75146 14.667 9.73571 14.6056 9.65701C14.5773 9.61949 14.5647 9.57244 14.5704 9.52576C14.576 9.47911 14.5995 9.43646 14.636 9.40679C14.5729 9.33231 14.5067 9.26061 14.4374 9.19186V9.19079L12.8162 10.6372L12.3662 11.2109C12.3374 11.1849 12.3065 11.1616 12.275 11.1404L12.7114 10.5569L13.6889 8.61654L12.4975 10.4332L12.2104 11.1035C12.1768 11.0861 12.141 11.0715 12.1035 11.0595L12.3754 10.3832L12.8172 8.25559L12.1355 10.3186L12.0324 11.0405C11.9955 11.0329 11.9575 11.028 11.919 11.0253L12.0058 10.3013L11.881 8.13294C11.7833 8.13294 11.6861 8.13781 11.5895 8.14489L11.589 8.13944C11.602 8.23876 11.532 8.32941 11.4332 8.34244C11.3864 8.34859 11.3391 8.33619 11.3014 8.30789C11.2636 8.27959 11.2385 8.23764 11.2313 8.19101C11.037 8.22629 10.8486 8.27731 10.6668 8.34244C10.7021 8.43361 10.6581 8.53784 10.5669 8.57474C10.4768 8.61166 10.3726 8.57041 10.333 8.48084C10.2446 8.52319 10.1577 8.56931 10.0736 8.61761L11.2655 10.4332L11.5526 11.1035C11.5863 11.0861 11.6215 11.0715 11.6584 11.0595L11.3876 10.3832L10.9458 8.25559L11.6269 10.3186L11.7306 11.0405C11.7675 11.0329 11.8055 11.028 11.844 11.0253L11.7572 10.3013L11.881 8.13294C11.9792 8.13294 12.0769 8.13729 12.1735 8.14489L12.1741 8.13944C12.1679 8.18701 12.1809 8.23506 12.2101 8.27309C12.2393 8.31114 12.2823 8.33606 12.3298 8.34244C12.427 8.35546 12.5171 8.28761 12.5317 8.19101C12.726 8.22629 12.9144 8.27731 13.0968 8.34244C13.0615 8.43361 13.1055 8.53784 13.1956 8.57474C13.2867 8.61166 13.3904 8.57041 13.43 8.48084C13.6081 8.56496 13.7763 8.66214 13.9364 8.77339L13.9391 8.76959C13.8778 8.84884 13.8935 8.96229 13.9722 9.02306C14.0104 9.05204 14.0585 9.06481 14.106 9.05861C14.1536 9.05241 14.1967 9.02776 14.2262 8.98996L14.2225 8.99429C14.2964 9.05679 14.3678 9.12234 14.4363 9.19079H14.4374L12.9915 10.8131L12.4183 11.263C12.4444 11.2918 12.4672 11.3217 12.4878 11.3542L13.0718 10.9168L15.0116 9.93979C15.0599 10.0245 15.1061 10.1108 15.1484 10.1992C15.1051 10.218 15.0709 10.2531 15.0533 10.2969C15.0357 10.3407 15.0362 10.3897 15.0545 10.4332C15.0914 10.5238 15.1946 10.5678 15.2868 10.5325C15.3514 10.7138 15.4024 10.9032 15.4377 11.0975C15.3912 11.1048 15.3493 11.13 15.3212 11.1678C15.293 11.2055 15.2807 11.2527 15.2868 11.2994C15.2993 11.3982 15.3905 11.4677 15.4893 11.4546L15.4844 11.4557C15.4914 11.5518 15.4963 11.649 15.4963 11.7472L13.328 11.6234L12.6034 11.7103ZM10.0736 8.61761L11.0511 10.5569L11.4886 11.1404C11.456 11.1616 11.4256 11.1849 11.3974 11.2109L10.9469 10.6372L9.32565 9.19186C9.39458 9.12294 9.46675 9.05671 9.54058 8.99321C9.6019 9.06866 9.71318 9.08276 9.7908 9.02306C9.80965 9.00864 9.82547 8.99064 9.83737 8.97009C9.84927 8.94954 9.857 8.92684 9.86012 8.90331C9.86325 8.87976 9.86173 8.85584 9.8556 8.83289C9.84948 8.80996 9.83887 8.78844 9.82445 8.76959L9.82715 8.77339C9.90748 8.71804 9.98945 8.66646 10.0736 8.61761ZM9.32565 9.19186L10.7715 10.8131L11.3447 11.263C11.3192 11.2918 11.2959 11.3217 11.2742 11.3542L10.6907 10.9168L8.75085 9.93979C8.70255 10.0239 8.65695 10.1108 8.61518 10.1981C8.65818 10.2175 8.69198 10.2529 8.7094 10.2968C8.7268 10.3406 8.7265 10.3895 8.70852 10.4332C8.6716 10.5238 8.5674 10.5678 8.47675 10.5325C8.44365 10.6248 8.41543 10.7176 8.38993 10.812L10.4524 11.4926L11.1748 11.5968C11.1667 11.6338 11.1618 11.6718 11.1591 11.7103L10.4356 11.6234L8.2667 11.7472C8.2667 11.8454 8.27215 11.9431 8.27865 12.0392L8.27378 12.0403C8.37255 12.0267 8.46373 12.0962 8.47675 12.1961C8.48925 12.2932 8.4214 12.3833 8.32533 12.398C8.3606 12.5923 8.41108 12.7795 8.47675 12.9619C8.5674 12.9272 8.6716 12.9711 8.70852 13.0612C8.74542 13.1519 8.70418 13.2566 8.61518 13.2962C8.65695 13.3847 8.70255 13.4705 8.75085 13.5546L10.6907 12.5776L11.2742 12.1407C11.2959 12.1727 11.3192 12.2037 11.3447 12.2319L10.7715 12.6824L9.3251 14.3036H9.32565C9.39458 14.372 9.46675 14.4382 9.54058 14.5023C9.6019 14.4263 9.71318 14.4116 9.7908 14.4719C9.87003 14.5327 9.88522 14.6466 9.82445 14.7253L9.82715 14.7221C9.90695 14.778 9.98945 14.8295 10.0736 14.8784L11.2655 13.0612L11.5526 12.3909C11.5863 12.4088 11.6215 12.4235 11.6584 12.4354L11.3876 13.1122L10.9458 15.2393C11.0397 15.2643 11.1352 15.286 11.2313 15.3039C11.2384 15.2572 11.2635 15.2151 11.3012 15.1867C11.339 15.1583 11.3864 15.1458 11.4332 15.1519C11.5304 15.1655 11.5993 15.2534 11.589 15.3501C11.685 15.3582 11.7822 15.3625 11.881 15.3625L12.0058 13.1931L11.919 12.4691C11.9575 12.4674 11.9955 12.462 12.0324 12.4544L12.1355 13.1763L12.8172 15.2393L12.3754 13.1122L12.1035 12.4354C12.141 12.4235 12.1768 12.4083 12.2104 12.3909L12.4975 13.0612L13.6889 14.8784C13.773 14.8295 13.8566 14.7769 13.9364 14.7221L13.9391 14.7253C13.8778 14.6466 13.8935 14.5327 13.9722 14.4719C14.0499 14.4116 14.1617 14.4263 14.2219 14.5023C14.2963 14.4393 14.3684 14.372 14.4374 14.3036L12.9915 12.6824L12.4183 12.2319C12.4444 12.2037 12.4672 12.1727 12.4878 12.1407L13.0718 12.5776L15.0127 13.5546L13.1956 12.3627L12.5247 12.0761C12.5432 12.0419 12.5578 12.0066 12.5697 11.9697L13.246 12.2417L15.3726 12.6829C15.3975 12.5896 15.4198 12.4951 15.4377 12.398C15.3912 12.3907 15.3493 12.3654 15.3212 12.3277C15.293 12.29 15.2807 12.2427 15.2868 12.1961C15.2898 12.1725 15.2974 12.1498 15.3092 12.1292C15.321 12.1086 15.3368 12.0905 15.3556 12.0761C15.3745 12.0616 15.3959 12.051 15.4189 12.0448C15.4418 12.0387 15.4657 12.0371 15.4893 12.0403L15.4844 12.0392C15.492 11.9431 15.4963 11.846 15.4963 11.7472L13.328 11.8709L12.6034 11.7841C12.6012 11.8237 12.5963 11.8617 12.5887 11.8986L13.3106 12.0018L15.3726 12.6829C15.3471 12.7779 15.3194 12.8707 15.2868 12.9619C15.1946 12.9272 15.0914 12.9711 15.0545 13.0612C15.0165 13.1535 15.0588 13.2572 15.1484 13.2962C15.0652 13.4727 14.9673 13.6419 14.8559 13.8021L14.8596 13.8048C14.8408 13.7903 14.8192 13.7797 14.7962 13.7735C14.7732 13.7674 14.7493 13.7658 14.7257 13.769C14.7021 13.7721 14.6793 13.7798 14.6587 13.7918C14.6382 13.8037 14.6201 13.8196 14.6056 13.8385C14.5459 13.9155 14.5606 14.0273 14.636 14.0876C14.5725 14.162 14.5063 14.2341 14.4374 14.3036L12.8162 12.8577L12.3662 12.2845C12.3374 12.3095 12.3065 12.3334 12.275 12.354L12.7114 12.9375L13.6889 14.8784C13.6048 14.9267 13.5185 14.9723 13.43 15.0141C13.3915 14.9251 13.2873 14.8827 13.1956 14.9207C13.1033 14.9582 13.0599 15.064 13.0984 15.1563L13.0968 15.1525C12.913 15.2186 12.7239 15.2692 12.5317 15.3039C12.5247 15.2572 12.4996 15.2151 12.4618 15.1867C12.4241 15.1583 12.3767 15.1458 12.3298 15.1519C12.2327 15.1655 12.1637 15.2534 12.1741 15.3501C12.078 15.3571 11.9792 15.3625 11.881 15.3625L11.7572 13.1931L11.844 12.4691C11.8055 12.4674 11.7675 12.462 11.7306 12.4544L11.6269 13.1763L10.9458 15.2393C10.8508 15.2144 10.7569 15.1851 10.6668 15.1525C10.6841 15.1085 10.6833 15.0594 10.6646 15.016C10.6459 14.9726 10.6108 14.9384 10.5669 14.9207C10.4757 14.8827 10.3716 14.9251 10.3325 15.0141C10.2444 14.9724 10.158 14.9272 10.0736 14.8784L11.0511 12.9375L11.4886 12.354C11.456 12.3334 11.4256 12.3095 11.3974 12.2845L10.9469 12.8577L9.3251 14.3036V14.3025C9.25617 14.2336 9.18995 14.1614 9.127 14.0876C9.20297 14.0273 9.21655 13.9155 9.15738 13.8385C9.14298 13.8196 9.125 13.8037 9.10445 13.7918C9.0839 13.7799 9.0612 13.7721 9.03765 13.769C9.0141 13.7659 8.99015 13.7674 8.9672 13.7736C8.94425 13.7797 8.92275 13.7903 8.90392 13.8048L8.90718 13.8021C8.85235 13.7223 8.7997 13.6393 8.75085 13.5546L10.5669 12.3627L11.2372 12.0761C11.2204 12.0419 11.2058 12.0066 11.1933 11.9697L10.517 12.2417L8.38993 12.6829L10.4524 12.0018L11.1748 11.8986C11.1667 11.8617 11.1618 11.8237 11.1591 11.7841L10.4356 11.8709L8.2667 11.7472C8.2667 11.6484 8.27105 11.5518 8.27865 11.4557L8.27378 11.4546C8.37255 11.4677 8.46373 11.3982 8.47675 11.2994C8.48925 11.2023 8.4214 11.1122 8.32533 11.0975C8.34325 11.0009 8.36495 10.9059 8.38993 10.812L10.517 11.2538L11.1933 11.5247C11.2058 11.4878 11.2204 11.4525 11.2372 11.4188L10.5669 11.1317L8.75085 9.93979C8.7997 9.85511 8.85128 9.77261 8.90718 9.69284L8.90392 9.69011C8.98262 9.75146 9.09605 9.73571 9.15738 9.65701C9.21655 9.57939 9.20297 9.46759 9.127 9.40679C9.19102 9.33299 9.25725 9.26079 9.32565 9.19186Z" fill="#000088"/>
</g>
<path d="M23.5 12C23.5 5.64873 18.3513 0.5 12 0.5C5.64873 0.5 0.5 5.64873 0.5 12C0.5 18.3513 5.64873 23.5 12 23.5C18.3513 23.5 23.5 18.3513 23.5 12Z" stroke="#D1D5DB"/>
</svg>
