<svg width="197" height="142" viewBox="0 0 197 142" fill="none" xmlns="http://www.w3.org/2000/svg">
<path d="M0.757812 141.282L159.908 141.282L159.908 50.1875L0.757812 50.1875L0.757812 141.282ZM15.3991 75.832C17.0777 75.832 18.7399 75.5013 20.2906 74.8588C21.8414 74.2163 23.2504 73.2746 24.4372 72.0874C25.624 70.9002 26.5652 69.4909 27.2072 67.9399C27.8492 66.3889 28.1794 64.7266 28.1788 63.048L132.482 63.048C132.482 66.4385 133.829 69.6902 136.227 72.0877C138.624 74.4851 141.876 75.832 145.266 75.832V115.604C141.876 115.604 138.624 116.95 136.227 119.348C133.829 121.745 132.482 124.997 132.482 128.388H28.1788C28.1794 126.709 27.8492 125.047 27.2072 123.496C26.5652 121.945 25.624 120.535 24.4372 119.348C23.2504 118.161 21.8414 117.219 20.2906 116.577C18.7399 115.934 17.0777 115.604 15.3991 115.604L15.3991 75.832Z" fill="#002852"/>
<path d="M80.3323 114.918C90.9229 114.918 99.5083 106.333 99.5083 95.7424C99.5083 85.1518 90.9229 76.5664 80.3323 76.5664C69.7416 76.5664 61.1562 85.1518 61.1562 95.7424C61.1562 106.333 69.7416 114.918 80.3323 114.918Z" fill="#002852"/>
<path d="M9.11328 43.8166L166.291 43.8166L166.291 117.342L179.126 115.982L169.606 25.4141L9.11328 43.8166Z" fill="#002852"/>
<path d="M179.085 0.886719L17.7383 34.9462L175.26 18.3967L183.165 93.5367L196.255 90.3917L179.085 0.886719Z" fill="#002852"/>
</svg>
