<svg width="181" height="181" viewBox="0 0 181 181" fill="none" xmlns="http://www.w3.org/2000/svg">
<path d="M15.7802 37.0354L25.4133 34.8847L35.6764 58.0457C34.2288 58.9013 33.0873 60.191 32.4139 61.7318C31.7404 63.2726 31.5691 64.9863 31.9243 66.6299C32.8553 70.7978 37.2498 73.5878 41.4084 72.6506L73.0326 65.5933C73.4404 65.5148 73.8282 65.3552 74.1732 65.124C74.5182 64.8929 74.8133 64.5948 75.041 64.2475C75.2687 63.9002 75.4244 63.5107 75.4988 63.1022C75.5733 62.6936 75.565 62.2743 75.4744 61.869C75.3838 61.4637 75.2128 61.0808 74.9716 60.7428C74.7303 60.4048 74.4236 60.1186 74.0697 59.9013C73.7159 59.684 73.322 59.5399 72.9114 59.4776C72.5008 59.4152 72.0819 59.436 71.6795 59.5385L40.0553 66.5957C39.6059 66.6914 39.1368 66.6068 38.7491 66.3601C38.3614 66.1134 38.086 65.7244 37.9822 65.2768C37.888 64.8543 37.9531 64.4119 38.165 64.0344C38.3769 63.657 38.7207 63.3711 39.1305 63.2316L70.5778 53.4092C71.1577 53.2284 71.6717 52.881 72.0558 52.4103C72.4398 51.9396 72.677 51.3664 72.7377 50.7619L74.7395 31.2412C74.9505 29.165 73.014 27.4333 70.975 27.8957L32.874 36.3992L31.0864 32.3709C30.5025 31.0614 29.4844 29.9936 28.2043 29.3479C26.9241 28.7021 25.4603 28.5181 24.0602 28.8268L14.4271 30.9774C14.0293 31.0663 13.6529 31.2326 13.3194 31.4669C12.9859 31.7012 12.7019 31.9989 12.4834 32.343C12.0423 33.0379 11.8952 33.8796 12.0746 34.683C12.2541 35.4863 12.7453 36.1854 13.4402 36.6266C14.1351 37.0678 14.9768 37.2148 15.7802 37.0354ZM46.4484 74.7081C45.6454 74.878 44.8841 75.2054 44.2085 75.6714C43.5328 76.1374 42.9563 76.7328 42.5123 77.4231C42.0683 78.1135 41.7657 78.885 41.6219 79.693C41.478 80.5011 41.4959 81.3297 41.6744 82.1308C41.8529 82.9319 42.1886 83.6897 42.6619 84.3602C43.1353 85.0307 43.7369 85.6007 44.432 86.0372C45.1271 86.4737 45.9018 86.768 46.7114 86.903C47.521 87.0381 48.3493 87.0112 49.1484 86.824C50.7399 86.4512 52.12 85.4657 52.9892 84.0815C53.8584 82.6972 54.1465 81.026 53.791 79.4306C53.4355 77.8353 52.465 76.4445 51.0903 75.5604C49.7156 74.6762 48.0476 74.3699 46.4484 74.7081Z" fill="#002852"/>
<path d="M7.77407 115.14L41.0927 107.701C41.6551 107.576 42.1714 107.296 42.5837 106.894C42.996 106.491 43.2878 105.982 43.4265 105.423L46.3158 93.8191L80.7951 86.1225C81.3575 85.9975 81.8738 85.718 82.2861 85.3156C82.6984 84.9132 82.9902 84.4038 83.1289 83.8446L86.0182 72.2377L110.154 66.8501L109.462 67.9363C109.243 68.2805 109.095 68.6643 109.025 69.0659C108.954 69.4675 108.964 69.8789 109.053 70.2768C109.142 70.6746 109.308 71.051 109.543 71.3846C109.777 71.7181 110.075 72.0022 110.419 72.2206C110.763 72.4391 111.147 72.5876 111.549 72.6577C111.95 72.7278 112.362 72.7181 112.76 72.6292C113.157 72.5403 113.534 72.3739 113.867 72.1395C114.201 71.9052 114.485 71.6074 114.703 71.2632L119.408 63.8522C119.624 63.5077 119.77 63.1239 119.838 62.723C119.906 62.322 119.893 61.9116 119.802 61.5153C119.628 60.7124 119.143 60.0115 118.452 59.5663L111.041 54.8646C110.346 54.4234 109.504 54.2766 108.7 54.4564C107.896 54.6363 107.197 55.1281 106.755 55.8236C106.314 56.5191 106.167 57.3613 106.347 58.1651C106.527 58.9689 107.019 59.6682 107.714 60.1094L108.798 60.7922L82.7937 66.5956C82.231 66.7209 81.7144 67.0009 81.302 67.4038C80.8897 67.8068 80.5981 68.3169 80.4599 68.8767L77.5675 80.4836L70.3551 82.0942C71.1581 81.9244 71.9195 81.597 72.5951 81.131C73.2707 80.665 73.8472 80.0696 74.2912 79.3792C74.7352 78.6889 75.0379 77.9174 75.1817 77.1093C75.3255 76.3013 75.3077 75.4727 75.1291 74.6716C74.9506 73.8705 74.615 73.1127 74.1416 72.4422C73.6683 71.7716 73.0667 71.2016 72.3716 70.7652C71.6765 70.3287 70.9017 70.0344 70.0922 69.8994C69.2826 69.7643 68.4542 69.7912 67.6551 69.9784C66.0637 70.3512 64.6836 71.3367 63.8144 72.7209C62.9452 74.1052 62.657 75.7764 63.0126 77.3717C63.3681 78.9671 64.3386 80.3579 65.7133 81.242C67.088 82.1262 68.756 82.4324 70.3551 82.0942L43.0944 88.1801C42.5315 88.3047 42.0145 88.5839 41.6016 88.9863C41.1888 89.3888 40.8964 89.8985 40.7575 90.458L37.8682 102.062L6.42097 109.082C6.02319 109.171 5.6468 109.337 5.3133 109.571C4.9798 109.806 4.69572 110.103 4.47727 110.447C4.25883 110.791 4.1103 111.175 4.04017 111.577C3.97004 111.978 3.97969 112.39 4.06856 112.787C4.43476 114.432 6.13545 115.509 7.77407 115.14ZM121.925 37.628L125.801 40.536C126.254 40.8742 126.487 41.436 126.406 41.9977L125.724 46.777C125.001 51.8232 129.479 56.2456 134.5 55.5536L139.283 54.8708C139.558 54.8263 139.84 54.8591 140.097 54.9654C140.355 55.0717 140.578 55.2474 140.741 55.4729L143.649 59.3553C146.706 63.4332 153.012 63.4208 156.063 59.3522L158.968 55.4791C159.134 55.2546 159.358 55.0796 159.616 54.973C159.874 54.8664 160.157 54.8321 160.433 54.8739L165.212 55.5567C170.255 56.2736 174.709 51.8139 173.989 46.7739L173.306 41.9977C173.267 41.7222 173.303 41.4413 173.409 41.1843C173.515 40.9272 173.689 40.7034 173.911 40.536L177.787 37.628C181.856 34.5773 181.85 28.2587 177.787 25.2142L173.911 22.3063C173.689 22.1389 173.515 21.915 173.409 21.658C173.303 21.4009 173.267 21.1201 173.306 20.8446L173.989 16.0653C174.709 11.0284 170.221 6.59976 165.212 7.28873L160.43 7.97148C160.155 8.01417 159.873 7.98061 159.616 7.87445C159.359 7.76829 159.136 7.59361 158.971 7.36942L156.063 3.487C153.006 -0.590929 146.7 -0.578516 143.649 3.49011L140.744 7.36321C140.582 7.59143 140.358 7.76923 140.099 7.87626C139.84 7.98328 139.556 8.01521 139.28 7.96838L134.5 7.28562C129.488 6.57183 125.007 11.0718 125.724 16.0684L126.406 20.8446C126.445 21.1201 126.41 21.4009 126.303 21.658C126.197 21.915 126.024 22.1389 125.801 22.3063L121.925 25.2142C117.847 28.2711 117.853 34.5773 121.925 37.628ZM162.27 39.1798C162.27 40.4144 161.779 41.5984 160.906 42.4715C160.033 43.3445 158.849 43.8349 157.615 43.8349C156.38 43.8349 155.196 43.3445 154.323 42.4715C153.45 41.5984 152.96 40.4144 152.96 39.1798C152.96 37.9451 153.45 36.7611 154.323 35.8881C155.196 35.015 156.38 34.5246 157.615 34.5246C158.849 34.5246 160.033 35.015 160.906 35.8881C161.779 36.7611 162.27 37.9451 162.27 39.1798ZM153.481 20.3884C153.938 19.7036 154.648 19.2283 155.455 19.0671C156.262 18.9058 157.101 19.0719 157.785 19.5287C158.47 19.9855 158.946 20.6957 159.107 21.5029C159.268 22.3102 159.102 23.1484 158.645 23.8332L146.231 42.4539C145.769 43.1322 145.06 43.6022 144.255 43.763C143.45 43.9237 142.614 43.7624 141.927 43.3136C141.588 43.0874 141.296 42.7966 141.07 42.4579C140.843 42.1192 140.685 41.7391 140.605 41.3394C140.526 40.9397 140.525 40.5281 140.604 40.1283C140.684 39.7285 140.841 39.3481 141.067 39.0091L153.481 20.3884ZM142.098 19.0073C143.332 19.0073 144.516 19.4978 145.389 20.3708C146.262 21.2438 146.753 22.4279 146.753 23.6625C146.753 24.8971 146.262 26.0812 145.389 26.9542C144.516 27.8272 143.332 28.3177 142.098 28.3177C140.863 28.3177 139.679 27.8272 138.806 26.9542C137.933 26.0812 137.442 24.8971 137.442 23.6625C137.442 22.4279 137.933 21.2438 138.806 20.3708C139.679 19.4978 140.863 19.0073 142.098 19.0073ZM56.7527 105.904C55.9296 105.904 55.1402 106.231 54.5582 106.813C53.9762 107.395 53.6492 108.184 53.6492 109.007V161.766H84.6837V109.007C84.6837 108.184 84.3568 107.395 83.7748 106.813C83.1927 106.231 82.4034 105.904 81.5803 105.904H56.7527ZM125.029 87.2832H100.201C99.3779 87.2832 98.5885 87.6102 98.0065 88.1922C97.4245 88.7742 97.0975 89.5636 97.0975 90.3867V161.766H128.132V90.3867C128.132 89.5636 127.805 88.7742 127.223 88.1922C126.641 87.6102 125.852 87.2832 125.029 87.2832ZM143.649 68.6625C142.826 68.6625 142.037 68.9895 141.455 69.5715C140.873 70.1535 140.546 70.9429 140.546 71.766V161.766H171.58V71.766C171.58 70.9429 171.253 70.1535 170.671 69.5715C170.089 68.9895 169.3 68.6625 168.477 68.6625H143.649ZM0.890625 167.973V174.18C0.890625 177.603 3.67442 180.387 7.09752 180.387H174.684C178.107 180.387 180.891 177.603 180.891 174.18V167.973H0.890625ZM38.132 124.525H13.3044C12.4813 124.525 11.692 124.852 11.11 125.434C10.5279 126.016 10.201 126.805 10.201 127.628V161.766H41.2355V127.628C41.2355 126.805 40.9085 126.016 40.3265 125.434C39.7445 124.852 38.9551 124.525 38.132 124.525Z" fill="#002852"/>
</svg>
