<svg width="235" height="235" viewBox="0 0 235 235" fill="none" xmlns="http://www.w3.org/2000/svg">
<path fill-rule="evenodd" clip-rule="evenodd" d="M60.3008 161.053C59.9018 160.748 59.5215 160.419 59.1624 160.067C57.0618 157.955 55.8835 155.115 55.8835 152.134V145.726C55.8835 144.036 54.8696 142.534 53.3135 141.877L47.3871 139.436C44.6433 138.286 42.4629 136.103 41.3245 133.357C40.1885 130.611 40.1885 127.536 41.3245 124.79L43.7796 118.875C44.4251 117.303 44.0683 115.519 42.8783 114.322L38.3438 109.792C36.2431 107.703 35.0625 104.84 35.0625 101.883C35.0625 98.9018 36.2431 96.0618 38.3438 93.9494L42.8783 89.4197C44.0683 88.2227 44.4251 86.4387 43.7796 84.8897L41.3245 78.9515C40.1885 76.2054 40.1885 73.1309 41.3245 70.3848C42.4629 67.6387 44.6433 65.4557 47.3871 64.3291L53.3135 61.8649C54.8696 61.2311 55.8835 59.7055 55.8835 58.0156V51.6081C55.8835 48.6508 57.0618 45.7873 59.1624 43.6984C61.2654 41.586 64.1124 40.4124 67.0839 40.4124H73.4985C75.1813 40.4124 76.6999 39.4032 77.343 37.8307L79.798 31.916C80.934 29.1699 83.1145 26.9869 85.8606 25.8603C88.6043 24.7102 91.6884 24.7102 94.4345 25.8603L100.359 28.3014C101.915 28.9585 103.703 28.583 104.893 27.4095L109.43 22.8797C111.531 20.7674 114.38 19.5938 117.349 19.5938C120.321 19.5938 123.17 20.7674 125.271 22.8797L129.807 27.4095C130.997 28.583 132.786 28.9585 134.342 28.3014L140.266 25.8603C143.012 24.7102 146.096 24.7102 148.84 25.8603C151.586 26.9869 153.767 29.1699 154.903 31.916L157.358 37.8307C158.001 39.4032 159.519 40.4124 161.202 40.4124H167.617C170.586 40.4124 173.435 41.586 175.538 43.6984C177.639 45.7873 178.817 48.6508 178.817 51.6081V58.0156C178.817 59.7055 179.831 61.2311 181.387 61.8649L187.314 64.3291C190.057 65.4557 192.238 67.6387 193.376 70.3848C194.512 73.1309 194.512 76.2054 193.376 78.9515L190.921 84.8897C190.276 86.4387 190.632 88.2227 191.822 89.4197L196.357 93.9494C198.458 96.0618 199.638 98.9018 199.638 101.883C199.638 104.84 198.458 107.703 196.357 109.792L191.822 114.322C190.632 115.519 190.276 117.303 190.921 118.875L193.376 124.79C194.512 127.536 194.512 130.611 193.376 133.357C192.238 136.103 190.057 138.286 187.314 139.436L181.387 141.877C179.831 142.534 178.817 144.036 178.817 145.726V152.134C178.817 155.115 177.639 157.955 175.538 160.067C175.179 160.419 174.799 160.748 174.4 161.053L190.388 188.748C191.057 189.898 191.013 191.354 190.269 192.457C189.527 193.584 188.215 194.17 186.886 194.006L163.763 191.001L154.055 213.017C153.52 214.214 152.349 215.036 151.025 215.106C149.699 215.177 148.448 214.496 147.784 213.346L127.662 178.492L125.271 180.886C123.17 182.975 120.321 184.172 117.349 184.172C114.38 184.172 111.531 182.975 109.43 180.886L107.038 178.492L86.9168 213.346C86.2526 214.496 85.0015 215.177 83.6754 215.106C82.3517 215.036 81.1805 214.214 80.6454 213.017L70.9378 191.001L47.8143 194.006C46.4858 194.17 45.1738 193.584 44.4321 192.457C43.6881 191.354 43.6435 189.898 44.3124 188.748L60.3008 161.053ZM168.631 156.171C169.354 156.006 170.023 155.631 170.558 155.091C171.339 154.293 171.776 153.237 171.776 152.134V145.726C171.776 141.196 174.505 137.112 178.693 135.376L184.617 132.911C185.638 132.512 186.447 131.691 186.87 130.681C187.292 129.649 187.292 128.499 186.87 127.489L184.415 121.551C182.68 117.373 183.64 112.562 186.844 109.346L191.379 104.816C192.16 104.042 192.597 102.986 192.597 101.883C192.597 100.779 192.16 99.7232 191.379 98.9252L186.844 94.3955C183.64 91.2034 182.68 86.3683 184.415 82.1905L186.87 76.276C187.292 75.2433 187.292 74.093 186.87 73.0837C186.447 72.051 185.638 71.2531 184.617 70.8306L178.693 68.3661C174.505 66.6292 171.776 62.5455 171.776 58.0156V51.6081C171.776 50.505 171.339 49.4488 170.558 48.6742C169.778 47.8762 168.72 47.4537 167.617 47.4537H161.202C156.67 47.4537 152.586 44.7309 150.852 40.5296L148.399 34.6152C147.976 33.5825 147.167 32.7843 146.146 32.3618C145.127 31.9393 143.982 31.9393 142.961 32.3618L137.037 34.8028C132.849 36.5397 128.031 35.5773 124.827 32.3853L120.292 27.8556C119.513 27.0575 118.455 26.635 117.349 26.635C116.246 26.635 115.187 27.0575 114.408 27.8556L109.874 32.3853C106.67 35.5773 101.851 36.5397 97.6641 34.8028L91.74 32.3618C90.7191 31.9393 89.5737 31.9393 88.5551 32.3618C87.5341 32.7843 86.7243 33.5825 86.3019 34.6152L83.8491 40.5296C82.1146 44.7309 78.0283 47.4537 73.4985 47.4537H67.0839C65.9807 47.4537 64.9222 47.8762 64.143 48.6742C63.3614 49.4488 62.9248 50.505 62.9248 51.6081V58.0156C62.9248 62.5455 60.1952 66.6292 56.008 68.3661L50.0816 70.8306C49.0629 71.2531 48.2531 72.051 47.8307 73.0837C47.4082 74.093 47.4082 75.2433 47.8307 76.276L50.2858 82.1905C52.0203 86.3683 51.0603 91.2034 47.8565 94.3955L43.3219 98.9252C42.5404 99.7232 42.1038 100.779 42.1038 101.883C42.1038 102.986 42.5404 104.042 43.3219 104.816L47.8565 109.346C51.0603 112.562 52.0203 117.373 50.2858 121.551L47.8307 127.489C47.4082 128.499 47.4082 129.649 47.8307 130.681C48.2531 131.691 49.0629 132.512 50.0816 132.911L56.008 135.376C60.1952 137.112 62.9248 141.196 62.9248 145.726V152.134C62.9248 153.237 63.3614 154.293 64.143 155.091C64.6781 155.631 65.347 156.006 66.0699 156.171C66.3985 156.265 66.7388 156.312 67.0839 156.312H73.4985C78.0283 156.312 82.1146 159.034 83.8491 163.212L86.3019 169.15C86.7243 170.159 87.5341 170.981 88.5551 171.403C89.5737 171.826 90.7191 171.826 91.74 171.403L97.6641 168.939C101.157 167.484 105.088 167.93 108.156 169.972C108.766 170.371 109.341 170.84 109.874 171.38L114.408 175.91C115.187 176.684 116.246 177.13 117.349 177.13C118.455 177.13 119.513 176.684 120.292 175.91L124.827 171.38C125.36 170.84 125.935 170.371 126.545 169.972C129.613 167.93 133.544 167.484 137.037 168.939L142.961 171.403C143.982 171.826 145.127 171.826 146.146 171.403C147.167 170.981 147.976 170.159 148.399 169.15L150.852 163.212C152.586 159.034 156.67 156.312 161.202 156.312H167.617C167.962 156.312 168.302 156.265 168.631 156.171ZM133.952 175.3L150.413 203.817L158.383 185.744C159.012 184.336 160.507 183.491 162.057 183.679L180.73 186.096L167.591 163.353H161.202C159.519 163.353 158.001 164.362 157.358 165.911L154.903 171.849C153.767 174.572 151.586 176.755 148.84 177.905C146.096 179.031 143.012 179.031 140.266 177.905L134.342 175.441C134.213 175.394 134.084 175.347 133.952 175.3ZM67.1097 163.353L53.9707 186.096L72.6442 183.679C74.1932 183.491 75.6883 184.336 76.3173 185.744L84.2881 203.817L100.748 175.3C100.617 175.347 100.488 175.394 100.359 175.441L94.4345 177.905C91.6884 179.031 88.6043 179.031 85.8606 177.905C83.1145 176.755 80.934 174.572 79.798 171.849L77.343 165.911C76.6999 164.362 75.1813 163.353 73.4985 163.353H67.1097ZM117.349 44.0267C149.281 44.0267 175.207 69.9387 175.207 101.883C175.207 133.803 149.281 159.738 117.349 159.738C85.4194 159.738 59.4933 133.803 59.4933 101.883C59.4933 69.9387 85.4194 44.0267 117.349 44.0267ZM117.349 51.068C89.3038 51.068 66.5346 73.8348 66.5346 101.883C66.5346 129.93 89.3038 152.697 117.349 152.697C145.397 152.697 168.166 129.93 168.166 101.883C168.166 73.8348 145.397 51.068 117.349 51.068ZM142.977 130.634H90.3553C86.3371 130.634 83.0793 127.372 83.0793 123.358V88.1287C83.0793 84.1151 86.3371 80.8527 90.3553 80.8527H101.443V72.0746C101.443 69.399 102.295 67.0519 103.882 65.3385C104.877 64.2588 106.182 63.3903 107.836 62.8505C108.106 62.78 108.381 62.7097 108.665 62.6393C109.867 62.3576 111.132 62.2638 112.46 62.3342C117.725 62.4515 121.956 66.7702 121.956 72.0746V79.9138C121.956 81.3925 123.156 82.5896 124.635 82.5896H142.977C147.751 82.5896 151.621 86.4621 151.621 91.2502V121.974C151.621 126.762 147.751 130.634 142.977 130.634ZM101.443 87.894H90.3553C90.2262 87.894 90.1205 88.0113 90.1205 88.1287V123.358C90.1205 123.476 90.2262 123.593 90.3553 123.593H101.443V87.894ZM110.181 69.5164C109.716 69.6103 109.339 69.798 109.062 70.1032C108.609 70.5961 108.484 71.3001 108.484 72.0746V123.593H142.977C143.862 123.593 144.58 122.866 144.58 121.974V91.2502C144.58 90.3583 143.862 89.6308 142.977 89.6308H124.635C119.267 89.6308 114.915 85.2887 114.915 79.9138V72.0511C114.915 70.5725 113.716 69.3754 112.237 69.3754C112.237 69.3754 111.653 69.3754 111.352 69.3754C110.951 69.3989 110.559 69.4225 110.181 69.5164Z" fill="#002852"/>
<path d="M150.006 102C153.006 138 121.26 126 108.006 126C81.0059 132 87.0055 112.255 87.0055 99.0005C87.0055 79.1179 99.0055 87.0003 105.006 78.0003C102.006 66 114.006 54.0004 119.634 81.0005C127.012 85.0947 148.422 82.997 150.006 102Z" fill="#002852"/>
<path d="M69 159L84 168L87 177L99 174L105 177L84 213L75 186L48 189L69 159Z" fill="#002852"/>
<path d="M168 159L159 162L153 168L150 177L138 174H132V177L153 213L162 186L189 189L168 159Z" fill="#002852"/>
</svg>
