<svg width="39" height="39" viewBox="0 0 39 39" fill="none" xmlns="http://www.w3.org/2000/svg">
<path d="M19.5 23.042C21.7086 23.042 23.499 21.2516 23.499 19.043C23.499 16.8344 21.7086 15.0439 19.5 15.0439C17.2914 15.0439 15.501 16.8344 15.501 19.043C15.501 21.2516 17.2914 23.042 19.5 23.042Z" fill="#002852"/>
<path d="M19.5 0C8.98287 0 0.457031 8.52584 0.457031 19.043C0.457031 29.5601 8.98287 38.0859 19.5 38.0859C30.0171 38.0859 38.543 29.5601 38.543 19.043C38.543 8.52584 30.0171 0 19.5 0ZM31.2654 23.8829C31.174 25.6934 30.6652 27.4787 29.3458 28.7841C28.0137 30.1018 26.2199 30.5928 24.392 30.6833H14.6081C12.78 30.5928 10.9864 30.1021 9.65425 28.7841C8.3348 27.4787 7.82613 25.6934 7.73472 23.8829V14.203C7.82613 12.3926 8.33488 10.6072 9.65425 9.3018C10.9864 7.98403 12.7802 7.49303 14.6081 7.40261H24.3919C26.22 7.49303 28.0136 7.9838 29.3457 9.3018C30.6652 10.6072 31.1739 12.3926 31.2653 14.203L31.2654 23.8829Z" fill="#002852"/>
<path d="M24.2681 9.60737C21.885 9.54201 17.1151 9.54201 14.732 9.60737C13.4918 9.64142 12.0859 9.95014 11.2023 10.8939C10.2842 11.8749 9.93719 13.0602 9.902 14.3861C9.84015 16.7133 9.902 23.6983 9.902 23.6983C9.9423 25.024 10.2842 26.2094 11.2023 27.1904C12.0859 28.1345 13.4918 28.4429 14.732 28.477C17.1151 28.5423 21.885 28.5423 24.2681 28.477C25.5082 28.4429 26.9142 28.1342 27.7977 27.1904C28.7159 26.2094 29.0629 25.0242 29.0981 23.6983V14.3861C29.0629 13.0602 28.7159 11.8749 27.7977 10.8939C26.9138 9.94983 25.5079 9.64142 24.2681 9.60737ZM19.4997 25.2407C18.2738 25.2407 17.0754 24.8771 16.056 24.196C15.0367 23.5149 14.2422 22.5469 13.7731 21.4142C13.3039 20.2816 13.1812 19.0353 13.4204 17.8329C13.6595 16.6305 14.2499 15.526 15.1167 14.6592C15.9836 13.7923 17.0881 13.202 18.2905 12.9628C19.4929 12.7236 20.7392 12.8464 21.8718 13.3155C23.0044 13.7847 23.9725 14.5791 24.6536 15.5985C25.3347 16.6178 25.6982 17.8162 25.6982 19.0422C25.6982 20.6861 25.0452 22.2627 23.8827 23.4252C22.7203 24.5876 21.1437 25.2407 19.4997 25.2407ZM25.7246 14.1231C25.4794 14.1231 25.2397 14.0503 25.0359 13.9141C24.8321 13.7778 24.6732 13.5842 24.5795 13.3576C24.4857 13.1311 24.4612 12.8819 24.509 12.6414C24.5569 12.4009 24.675 12.1801 24.8484 12.0067C25.0218 11.8334 25.2427 11.7154 25.4831 11.6675C25.7236 11.6197 25.9729 11.6443 26.1994 11.7381C26.4259 11.832 26.6195 11.9909 26.7557 12.1947C26.8919 12.3986 26.9646 12.6383 26.9646 12.8834C26.9646 13.0463 26.9325 13.2075 26.8702 13.3579C26.8079 13.5084 26.7165 13.645 26.6014 13.7601C26.4862 13.8753 26.3495 13.9666 26.1991 14.0289C26.0486 14.0911 25.8874 14.1232 25.7246 14.1231Z" fill="#002852"/>
</svg>
