<svg width="40" height="39" viewBox="0 0 40 39" fill="none" xmlns="http://www.w3.org/2000/svg">
<g clip-path="url(#clip0_1096_9352)">
<path d="M23.5966 16.7285C21.9275 16.7285 21.1821 17.6459 20.765 18.29V16.9516H17.6216C17.6624 17.8376 17.6216 26.4094 17.6216 26.4094H20.765V21.1256C20.765 20.8436 20.7831 20.56 20.8679 20.3582C21.0957 19.7926 21.6125 19.2074 22.4813 19.2074C23.6186 19.2074 24.0734 20.0746 24.0734 21.3471V26.407H27.2168H27.2176V20.9834C27.2161 18.0803 25.6648 16.7285 23.5966 16.7285ZM20.7627 18.323H20.743C20.7493 18.312 20.7587 18.3018 20.7627 18.2908V18.323Z" fill="#002852"/>
<path d="M12.7358 16.9521H15.8793V26.41H12.7358V16.9521Z" fill="#002852"/>
<path d="M20.043 0C9.29071 0 0.542969 8.74774 0.542969 19.5C0.542969 30.2515 9.29071 39 20.043 39C30.7944 39 39.543 30.2515 39.543 19.5C39.543 8.74774 30.796 0 20.043 0ZM30.3836 28.32C30.3836 29.1495 29.6956 29.8202 28.8449 29.8202H11.1083C10.26 29.8202 9.57112 29.1495 9.57112 28.32V10.3768C9.57112 9.54813 10.26 8.87656 11.1083 8.87656H28.8449C29.6948 8.87656 30.3836 9.54892 30.3836 10.3768V28.32Z" fill="#002852"/>
<path d="M14.3286 12.3926C13.2541 12.3926 12.5503 13.0979 12.5503 14.0263C12.5503 14.9336 13.2329 15.6601 14.287 15.6601H14.3074C15.4039 15.6601 16.0865 14.9336 16.0865 14.0263C16.0653 13.0987 15.4047 12.3926 14.3286 12.3926Z" fill="#002852"/>
</g>
<defs>
<clipPath id="clip0_1096_9352">
<rect width="39" height="39" fill="white" transform="translate(0.542969)"/>
</clipPath>
</defs>
</svg>
