<svg width="125" height="35" viewBox="0 0 125 35" fill="none" xmlns="http://www.w3.org/2000/svg">
<rect width="124.327" height="35" rx="17.5" fill="white"/>
<rect width="124.327" height="35" rx="17.5" fill="url(#paint0_linear_8138_2821)"/>
<g clip-path="url(#clip0_8138_2821)">
<g filter="url(#filter0_d_8138_2821)">
<path d="M31.8944 17.282C31.8944 11.5203 27.2236 6.84949 21.4619 6.84949C15.7001 6.84949 11.0293 11.5203 11.0293 17.282C11.0293 23.0438 15.7001 27.7146 21.4619 27.7146C27.2236 27.7146 31.8944 23.0438 31.8944 17.282Z" fill="url(#paint1_linear_8138_2821)"/>
</g>
<path d="M26.9922 15.5345C26.8548 15.4396 26.6735 15.4387 26.5345 15.5308L24.4044 16.9506L21.7849 13.5821C21.7042 13.479 21.5803 13.4195 21.4478 13.4248C21.317 13.4297 21.1964 13.4969 21.1239 13.6061L18.8898 16.9572L16.3677 15.5158C16.2275 15.4359 16.0527 15.4457 15.9223 15.5422C15.7923 15.6388 15.7319 15.8035 15.7682 15.9612L16.9908 21.259C17.0332 21.4444 17.1978 21.5752 17.3877 21.5752H25.5381C25.7281 21.5752 25.8927 21.4444 25.9355 21.2594L27.1581 15.9616C27.1951 15.799 27.1299 15.6295 26.9922 15.5345ZM25.2141 20.7602H17.7117L17.5234 19.9451H25.4017L25.2141 20.7602ZM25.5903 19.13H17.3355L16.7715 16.6858L18.8157 17.8537C19.0019 17.9605 19.2379 17.9038 19.3569 17.7262L21.4882 14.5287L23.9936 17.7502C24.1248 17.9193 24.3641 17.9576 24.5413 17.839L26.1328 16.7783L25.5903 19.13Z" fill="url(#paint2_linear_8138_2821)"/>
<path d="M26.9922 15.5345C26.8548 15.4396 26.6735 15.4387 26.5345 15.5308L24.4044 16.9506L21.7849 13.5821C21.7042 13.479 21.5803 13.4195 21.4478 13.4248C21.317 13.4297 21.1964 13.4969 21.1239 13.6061L18.8898 16.9572L16.3677 15.5158C16.2275 15.4359 16.0527 15.4457 15.9223 15.5422C15.7923 15.6388 15.7319 15.8035 15.7682 15.9612L16.9908 21.259C17.0332 21.4444 17.1978 21.5752 17.3877 21.5752H25.5381C25.7281 21.5752 25.8927 21.4444 25.9355 21.2594L27.1581 15.9616C27.1951 15.799 27.1299 15.6295 26.9922 15.5345ZM25.2141 20.7602H17.7117L17.5234 19.9451H25.4017L25.2141 20.7602ZM25.5903 19.13H17.3355L16.7715 16.6858L18.8157 17.8537C19.0019 17.9605 19.2379 17.9038 19.3569 17.7262L21.4882 14.5287L23.9936 17.7502C24.1248 17.9193 24.3641 17.9576 24.5413 17.839L26.1328 16.7783L25.5903 19.13Z" fill="white"/>
<path d="M26.9922 15.5345C26.8548 15.4396 26.6735 15.4387 26.5345 15.5308L24.4044 16.9506L21.7849 13.5821C21.7042 13.479 21.5803 13.4195 21.4478 13.4248C21.317 13.4297 21.1964 13.4969 21.1239 13.6061L18.8898 16.9572L16.3677 15.5158C16.2275 15.4359 16.0527 15.4457 15.9223 15.5422C15.7923 15.6388 15.7319 15.8035 15.7682 15.9612L16.9908 21.259C17.0332 21.4444 17.1978 21.5752 17.3877 21.5752H25.5381C25.7281 21.5752 25.8927 21.4444 25.9355 21.2594L27.1581 15.9616C27.1951 15.799 27.1299 15.6295 26.9922 15.5345ZM25.2141 20.7602H17.7117L17.5234 19.9451H25.4017L25.2141 20.7602ZM25.5903 19.13H17.3355L16.7715 16.6858L18.8157 17.8537C19.0019 17.9605 19.2379 17.9038 19.3569 17.7262L21.4882 14.5287L23.9936 17.7502C24.1248 17.9193 24.3641 17.9576 24.5413 17.839L26.1328 16.7783L25.5903 19.13Z" stroke="url(#paint3_linear_8138_2821)" stroke-width="0.0200114"/>
<path d="M27.2344 15.1101C27.097 15.0151 26.9157 15.0143 26.7767 15.1064L24.6466 16.5262L22.0271 13.1576C21.9464 13.0545 21.8225 12.995 21.69 13.0003C21.5592 13.0052 21.4386 13.0725 21.366 13.1817L19.132 16.5327L16.6099 15.0913C16.4697 15.0115 16.2949 15.0212 16.1644 15.1178C16.0344 15.2144 15.9741 15.379 16.0104 15.5367L17.233 20.8345C17.2753 21.02 17.44 21.1507 17.6299 21.1507H25.7803C25.9703 21.1507 26.1349 21.02 26.1777 20.835L27.4002 15.5372C27.4373 15.3746 27.3721 15.205 27.2344 15.1101ZM25.4563 20.3357H17.9539L17.7656 19.5207H25.6439L25.4563 20.3357ZM25.8325 18.7056H17.5777L17.0137 16.2613L19.0578 17.4293C19.2441 17.5361 19.48 17.4794 19.599 17.3017L21.7304 14.1043L24.2358 17.3258C24.367 17.4949 24.6063 17.5332 24.7835 17.4146L26.375 16.3538L25.8325 18.7056Z" stroke="white" stroke-width="0.0200114"/>
</g>
<path d="M38.5162 14.456L40.3494 20.0004H40.4217L42.2515 14.456H43.6548L41.1715 21.5H39.5962L37.1163 14.456H38.5162ZM46.2988 21.6032C45.7692 21.6032 45.3117 21.4931 44.9265 21.273C44.5436 21.0506 44.2489 20.7364 44.0426 20.3306C43.8362 19.9224 43.733 19.4421 43.733 18.8894C43.733 18.346 43.8362 17.8691 44.0426 17.4586C44.2512 17.0459 44.5424 16.7249 44.9162 16.4956C45.2899 16.264 45.729 16.1482 46.2335 16.1482C46.5591 16.1482 46.8664 16.2009 47.1553 16.3064C47.4465 16.4096 47.7033 16.5701 47.9257 16.7879C48.1504 17.0058 48.327 17.2832 48.4554 17.6203C48.5838 17.9551 48.648 18.354 48.648 18.8172V19.199H44.3177V18.3598H47.4545C47.4522 18.1213 47.4006 17.9092 47.2997 17.7235C47.1988 17.5354 47.0578 17.3875 46.8767 17.2798C46.6978 17.172 46.4892 17.1181 46.2507 17.1181C45.9962 17.1181 45.7726 17.18 45.58 17.3039C45.3874 17.4254 45.2372 17.5859 45.1294 17.7854C45.0239 17.9826 44.9701 18.1993 44.9678 18.4354V19.168C44.9678 19.4753 45.0239 19.739 45.1363 19.9591C45.2487 20.177 45.4057 20.3443 45.6075 20.4613C45.8093 20.5759 46.0455 20.6333 46.316 20.6333C46.4972 20.6333 46.6611 20.608 46.8079 20.5576C46.9546 20.5048 47.0819 20.428 47.1897 20.3271C47.2974 20.2263 47.3788 20.1013 47.4339 19.9522L48.5964 20.0829C48.523 20.3902 48.3832 20.6585 48.1768 20.8878C47.9727 21.1148 47.7113 21.2913 47.3926 21.4175C47.0739 21.5413 46.7093 21.6032 46.2988 21.6032ZM53.8768 17.6134L52.7418 17.7372C52.7097 17.6226 52.6535 17.5148 52.5733 17.4139C52.4953 17.313 52.3898 17.2316 52.2569 17.1697C52.1239 17.1078 51.9611 17.0768 51.7685 17.0768C51.5093 17.0768 51.2915 17.133 51.115 17.2454C50.9407 17.3577 50.8547 17.5033 50.857 17.6822C50.8547 17.8358 50.9109 17.9608 51.0255 18.0571C51.1425 18.1534 51.3351 18.2325 51.6034 18.2944L52.5045 18.487C53.0044 18.5948 53.3758 18.7656 53.6189 18.9995C53.8642 19.2334 53.9881 19.5395 53.9903 19.9178C53.9881 20.2503 53.8906 20.5438 53.698 20.7983C53.5077 21.0506 53.2428 21.2478 52.9035 21.3899C52.5641 21.5321 52.1743 21.6032 51.7341 21.6032C51.0874 21.6032 50.5669 21.4679 50.1725 21.1973C49.7781 20.9245 49.5431 20.545 49.4675 20.0589L50.6816 19.9419C50.7366 20.1804 50.8536 20.3604 51.0324 20.4819C51.2113 20.6034 51.444 20.6642 51.7306 20.6642C52.0264 20.6642 52.2637 20.6034 52.4426 20.4819C52.6237 20.3604 52.7143 20.2102 52.7143 20.0313C52.7143 19.88 52.6558 19.755 52.5389 19.6564C52.4242 19.5578 52.2454 19.4822 52.0023 19.4294L51.1012 19.2403C50.5944 19.1348 50.2195 18.9571 49.9765 18.7072C49.7334 18.4549 49.6131 18.1362 49.6153 17.751C49.6131 17.4254 49.7013 17.1433 49.8802 16.9049C50.0613 16.6641 50.3124 16.4784 50.6334 16.3477C50.9567 16.2147 51.3293 16.1482 51.7513 16.1482C52.3704 16.1482 52.8576 16.28 53.213 16.5437C53.5707 16.8074 53.792 17.164 53.8768 17.6134ZM57.6551 16.217V17.18H54.618V16.217H57.6551ZM55.3679 14.9513H56.6129V19.911C56.6129 20.0784 56.6382 20.2068 56.6886 20.2962C56.7413 20.3833 56.8101 20.4429 56.895 20.475C56.9798 20.5071 57.0738 20.5232 57.177 20.5232C57.255 20.5232 57.3261 20.5175 57.3903 20.506C57.4568 20.4945 57.5072 20.4842 57.5416 20.475L57.7514 21.4484C57.6849 21.4713 57.5897 21.4966 57.4659 21.5241C57.3444 21.5516 57.1954 21.5676 57.0188 21.5722C56.707 21.5814 56.4261 21.5344 56.1761 21.4312C55.9262 21.3257 55.7279 21.1629 55.5811 20.9428C55.4366 20.7227 55.3656 20.4475 55.3679 20.1173V14.9513ZM60.9785 21.6032C60.4488 21.6032 59.9914 21.4931 59.6061 21.273C59.2232 21.0506 58.9286 20.7364 58.7222 20.3306C58.5158 19.9224 58.4126 19.4421 58.4126 18.8894C58.4126 18.346 58.5158 17.8691 58.7222 17.4586C58.9309 17.0459 59.2221 16.7249 59.5958 16.4956C59.9696 16.264 60.4087 16.1482 60.9131 16.1482C61.2387 16.1482 61.546 16.2009 61.8349 16.3064C62.1261 16.4096 62.3829 16.5701 62.6053 16.7879C62.8301 17.0058 63.0066 17.2832 63.135 17.6203C63.2634 17.9551 63.3276 18.354 63.3276 18.8172V19.199H58.9973V18.3598H62.1341C62.1318 18.1213 62.0803 17.9092 61.9794 17.7235C61.8785 17.5354 61.7375 17.3875 61.5563 17.2798C61.3775 17.172 61.1688 17.1181 60.9303 17.1181C60.6758 17.1181 60.4522 17.18 60.2596 17.3039C60.067 17.4254 59.9168 17.5859 59.8091 17.7854C59.7036 17.9826 59.6497 18.1993 59.6474 18.4354V19.168C59.6474 19.4753 59.7036 19.739 59.8159 19.9591C59.9283 20.177 60.0854 20.3443 60.2871 20.4613C60.4889 20.5759 60.7251 20.6333 60.9957 20.6333C61.1768 20.6333 61.3408 20.608 61.4875 20.5576C61.6343 20.5048 61.7615 20.428 61.8693 20.3271C61.9771 20.2263 62.0585 20.1013 62.1135 19.9522L63.276 20.0829C63.2027 20.3902 63.0628 20.6585 62.8564 20.8878C62.6524 21.1148 62.391 21.2913 62.0722 21.4175C61.7535 21.5413 61.3889 21.6032 60.9785 21.6032ZM66.3415 21.5929C65.9264 21.5929 65.555 21.4862 65.2271 21.273C64.8992 21.0597 64.6401 20.7502 64.4498 20.3443C64.2594 19.9385 64.1643 19.4455 64.1643 18.8654C64.1643 18.2784 64.2606 17.7831 64.4532 17.3795C64.6481 16.9737 64.9106 16.6676 65.2408 16.4612C65.571 16.2525 65.939 16.1482 66.3449 16.1482C66.6545 16.1482 66.909 16.2009 67.1085 16.3064C67.308 16.4096 67.4662 16.5346 67.5831 16.6813C67.7001 16.8258 67.7906 16.9622 67.8548 17.0906H67.9064V14.456H69.1549V21.5H67.9305V20.6676H67.8548C67.7906 20.7961 67.6978 20.9325 67.5762 21.0769C67.4547 21.2191 67.2942 21.3406 67.0947 21.4415C66.8952 21.5424 66.6441 21.5929 66.3415 21.5929ZM66.6889 20.5713C66.9525 20.5713 67.1773 20.5003 67.363 20.3581C67.5487 20.2136 67.6897 20.013 67.786 19.7562C67.8823 19.4994 67.9305 19.2001 67.9305 18.8585C67.9305 18.5168 67.8823 18.2199 67.786 17.9677C67.692 17.7154 67.5522 17.5194 67.3664 17.3795C67.183 17.2396 66.9571 17.1697 66.6889 17.1697C66.4114 17.1697 66.1798 17.2419 65.9941 17.3864C65.8083 17.5309 65.6685 17.7303 65.5745 17.9849C65.4805 18.2394 65.4334 18.5306 65.4334 18.8585C65.4334 19.1887 65.4805 19.4833 65.5745 19.7424C65.6708 19.9992 65.8118 20.2022 65.9975 20.3512C66.1855 20.498 66.416 20.5713 66.6889 20.5713ZM72.9392 21.5V14.456H75.5807C76.1219 14.456 76.5759 14.5569 76.9428 14.7586C77.3119 14.9604 77.5905 15.2379 77.7785 15.591C77.9689 15.9418 78.064 16.3408 78.064 16.7879C78.064 17.2396 77.9689 17.6409 77.7785 17.9917C77.5882 18.3426 77.3073 18.6189 76.9359 18.8207C76.5644 19.0201 76.107 19.1199 75.5635 19.1199H73.8128V18.0709H75.3916C75.708 18.0709 75.9671 18.0158 76.1689 17.9058C76.3707 17.7957 76.5197 17.6444 76.616 17.4517C76.7146 17.2591 76.7639 17.0379 76.7639 16.7879C76.7639 16.538 76.7146 16.3179 76.616 16.1276C76.5197 15.9372 76.3695 15.7893 76.1654 15.6839C75.9637 15.5761 75.7034 15.5222 75.3847 15.5222H74.2153V21.5H72.9392ZM79.1174 21.5V16.217H80.3246V17.0975H80.3796C80.4759 16.7925 80.641 16.5575 80.8749 16.3924C81.1111 16.225 81.3805 16.1413 81.6832 16.1413C81.752 16.1413 81.8288 16.1448 81.9136 16.1516C82.0008 16.1562 82.073 16.1642 82.1303 16.1757V17.321C82.0776 17.3027 81.9939 17.2867 81.8793 17.2729C81.7669 17.2568 81.658 17.2488 81.5525 17.2488C81.3255 17.2488 81.1214 17.2981 80.9403 17.3967C80.7614 17.493 80.6204 17.6272 80.5172 17.7991C80.414 17.9711 80.3624 18.1695 80.3624 18.3942V21.5H79.1174ZM85.0788 21.6032C84.5491 21.6032 84.0917 21.4931 83.7065 21.273C83.3235 21.0506 83.0289 20.7364 82.8225 20.3306C82.6162 19.9224 82.513 19.4421 82.513 18.8894C82.513 18.346 82.6162 17.8691 82.8225 17.4586C83.0312 17.0459 83.3224 16.7249 83.6961 16.4956C84.0699 16.264 84.509 16.1482 85.0135 16.1482C85.3391 16.1482 85.6463 16.2009 85.9352 16.3064C86.2264 16.4096 86.4833 16.5701 86.7057 16.7879C86.9304 17.0058 87.1069 17.2832 87.2354 17.6203C87.3638 17.9551 87.428 18.354 87.428 18.8172V19.199H83.0977V18.3598H86.2345C86.2322 18.1213 86.1806 17.9092 86.0797 17.7235C85.9788 17.5354 85.8378 17.3875 85.6566 17.2798C85.4778 17.172 85.2691 17.1181 85.0307 17.1181C84.7761 17.1181 84.5526 17.18 84.36 17.3039C84.1674 17.4254 84.0172 17.5859 83.9094 17.7854C83.8039 17.9826 83.75 18.1993 83.7477 18.4354V19.168C83.7477 19.4753 83.8039 19.739 83.9163 19.9591C84.0286 20.177 84.1857 20.3443 84.3875 20.4613C84.5893 20.5759 84.8254 20.6333 85.096 20.6333C85.2772 20.6333 85.4411 20.608 85.5879 20.5576C85.7346 20.5048 85.8619 20.428 85.9696 20.3271C86.0774 20.2263 86.1588 20.1013 86.2138 19.9522L87.3764 20.0829C87.303 20.3902 87.1631 20.6585 86.9568 20.8878C86.7527 21.1148 86.4913 21.2913 86.1726 21.4175C85.8538 21.5413 85.4893 21.6032 85.0788 21.6032ZM88.4813 21.5V16.217H89.6714V17.1147H89.7333C89.8433 16.812 90.0256 16.5758 90.2801 16.4062C90.5347 16.2342 90.8385 16.1482 91.1916 16.1482C91.5493 16.1482 91.8508 16.2353 92.0962 16.4096C92.3438 16.5816 92.5181 16.8166 92.619 17.1147H92.674C92.791 16.8212 92.9881 16.5873 93.2656 16.413C93.5453 16.2365 93.8767 16.1482 94.2596 16.1482C94.7457 16.1482 95.1424 16.3018 95.4497 16.6091C95.7569 16.9163 95.9105 17.3646 95.9105 17.9539V21.5H94.662V18.1465C94.662 17.8186 94.5749 17.579 94.4006 17.4277C94.2264 17.274 94.0131 17.1972 93.7609 17.1972C93.4605 17.1972 93.2255 17.2912 93.0558 17.4793C92.8884 17.665 92.8047 17.9069 92.8047 18.205V21.5H91.5837V18.0949C91.5837 17.8221 91.5012 17.6042 91.3361 17.4414C91.1733 17.2786 90.96 17.1972 90.6963 17.1972C90.5175 17.1972 90.3547 17.2431 90.2079 17.3348C90.0612 17.4242 89.9442 17.5515 89.8571 17.7166C89.77 17.8794 89.7264 18.0697 89.7264 18.2875V21.5H88.4813ZM97.1737 21.5V16.217H98.4188V21.5H97.1737ZM97.7997 15.4672C97.6025 15.4672 97.4328 15.4018 97.2906 15.2711C97.1485 15.1381 97.0774 14.9788 97.0774 14.793C97.0774 14.605 97.1485 14.4457 97.2906 14.315C97.4328 14.182 97.6025 14.1155 97.7997 14.1155C97.9992 14.1155 98.1688 14.182 98.3087 14.315C98.4509 14.4457 98.522 14.605 98.522 14.793C98.522 14.9788 98.4509 15.1381 98.3087 15.2711C98.1688 15.4018 97.9992 15.4672 97.7997 15.4672ZM103.066 19.2781V16.217H104.311V21.5H103.104V20.561H103.049C102.93 20.8568 102.734 21.0987 102.461 21.2868C102.19 21.4748 101.857 21.5688 101.46 21.5688C101.114 21.5688 100.808 21.492 100.542 21.3383C100.278 21.1824 100.072 20.9566 99.9227 20.6608C99.7736 20.3627 99.6991 20.0027 99.6991 19.5808V16.217H100.944V19.3882C100.944 19.7229 101.036 19.9889 101.219 20.1861C101.403 20.3833 101.644 20.4819 101.942 20.4819C102.125 20.4819 102.303 20.4372 102.475 20.3478C102.647 20.2584 102.788 20.1254 102.898 19.9488C103.01 19.7699 103.066 19.5464 103.066 19.2781ZM105.592 21.5V16.217H106.782V17.1147H106.844C106.954 16.812 107.136 16.5758 107.391 16.4062C107.645 16.2342 107.949 16.1482 108.302 16.1482C108.66 16.1482 108.961 16.2353 109.207 16.4096C109.454 16.5816 109.629 16.8166 109.729 17.1147H109.784C109.901 16.8212 110.099 16.5873 110.376 16.413C110.656 16.2365 110.987 16.1482 111.37 16.1482C111.856 16.1482 112.253 16.3018 112.56 16.6091C112.867 16.9163 113.021 17.3646 113.021 17.9539V21.5H111.773V18.1465C111.773 17.8186 111.685 17.579 111.511 17.4277C111.337 17.274 111.124 17.1972 110.871 17.1972C110.571 17.1972 110.336 17.2912 110.166 17.4793C109.999 17.665 109.915 17.9069 109.915 18.205V21.5H108.694V18.0949C108.694 17.8221 108.612 17.6042 108.447 17.4414C108.284 17.2786 108.07 17.1972 107.807 17.1972C107.628 17.1972 107.465 17.2431 107.318 17.3348C107.172 17.4242 107.055 17.5515 106.968 17.7166C106.88 17.8794 106.837 18.0697 106.837 18.2875V21.5H105.592Z" fill="white"/>
<defs>
<filter id="filter0_d_8138_2821" x="10.2288" y="6.04903" width="22.4661" height="22.466" filterUnits="userSpaceOnUse" color-interpolation-filters="sRGB">
<feFlood flood-opacity="0" result="BackgroundImageFix"/>
<feColorMatrix in="SourceAlpha" type="matrix" values="0 0 0 0 0 0 0 0 0 0 0 0 0 0 0 0 0 0 127 0" result="hardAlpha"/>
<feOffset/>
<feGaussianBlur stdDeviation="0.400229"/>
<feColorMatrix type="matrix" values="0 0 0 0 0 0 0 0 0 0 0 0 0 0 0 0 0 0 0.2 0"/>
<feBlend mode="normal" in2="BackgroundImageFix" result="effect1_dropShadow_8138_2821"/>
<feBlend mode="normal" in="SourceGraphic" in2="effect1_dropShadow_8138_2821" result="shape"/>
</filter>
<linearGradient id="paint0_linear_8138_2821" x1="7.938e-08" y1="1.48937" x2="125.445" y2="30.0986" gradientUnits="userSpaceOnUse">
<stop stop-color="#BF953F"/>
<stop offset="0.541667" stop-color="#B38728"/>
<stop offset="0.916667" stop-color="#996515"/>
</linearGradient>
<linearGradient id="paint1_linear_8138_2821" x1="11.0293" y1="7.73737" x2="33.086" y2="9.15348" gradientUnits="userSpaceOnUse">
<stop stop-color="#BF953F"/>
<stop offset="0.541667" stop-color="#B38728"/>
<stop offset="0.916667" stop-color="#996515"/>
</linearGradient>
<linearGradient id="paint2_linear_8138_2821" x1="15.7578" y1="13.7713" x2="27.7726" y2="14.8512" gradientUnits="userSpaceOnUse">
<stop stop-color="#BF953F"/>
<stop offset="0.541667" stop-color="#B38728"/>
<stop offset="0.916667" stop-color="#996515"/>
</linearGradient>
<linearGradient id="paint3_linear_8138_2821" x1="15.7578" y1="13.7713" x2="27.7726" y2="14.8512" gradientUnits="userSpaceOnUse">
<stop stop-color="#BF953F"/>
<stop offset="0.541667" stop-color="#B38728"/>
<stop offset="0.916667" stop-color="#996515"/>
</linearGradient>
<clipPath id="clip0_8138_2821">
<rect width="21.7925" height="21.7925" fill="white" transform="translate(10.5664 6.60388)"/>
</clipPath>
</defs>
</svg>
