<svg width="140" height="42" viewBox="0 0 140 42" fill="none" xmlns="http://www.w3.org/2000/svg">
<g id="Google_Play_Store_badge" clip-path="url(#clip0_8138_2803)">
<path id="path11" d="M134.811 41.4593H5.18701C2.33521 41.4593 0.00195312 39.1273 0.00195312 36.277V5.18316C0.00195312 2.33287 2.33521 0.000854492 5.18701 0.000854492H134.811C137.663 0.000854492 139.997 2.33287 139.997 5.18316V36.277C139.997 39.1273 137.663 41.4593 134.811 41.4593Z" fill="#100F0D"/>
<path id="path13" d="M134.811 0.000854492H5.18701C2.33521 0.000854492 0.00195312 2.33287 0.00195312 5.18316V36.277C0.00195312 39.1273 2.33521 41.4593 5.18701 41.4593H134.811C137.663 41.4593 139.997 39.1273 139.997 36.277V5.18316C139.997 2.33287 137.663 0.000854492 134.811 0.000854492ZM134.811 0.829604C137.213 0.829604 139.167 2.78273 139.167 5.18316V36.277C139.167 38.6774 137.213 40.6306 134.811 40.6306H5.18701C2.78531 40.6306 0.831998 38.6774 0.831998 36.277V5.18316C0.831998 2.78273 2.78531 0.829604 5.18701 0.829604H134.811Z" fill="#A2A2A1"/>
<path id="path35" d="M110.895 31.0946H112.83V18.1367H110.895V31.0946ZM128.325 22.8048L126.106 28.4224H126.04L123.738 22.8048H121.654L125.107 30.6562L123.138 35.0238H125.156L130.477 22.8052L128.325 22.8048ZM117.35 29.6228C116.718 29.6228 115.833 29.3057 115.833 28.5223C115.833 27.5223 116.934 27.1389 117.884 27.1389C118.735 27.1389 119.136 27.3219 119.652 27.5721C119.502 28.7725 118.468 29.6227 117.35 29.6227L117.35 29.6228ZM117.585 22.5214C116.184 22.5214 114.733 23.1384 114.132 24.5053L115.85 25.2219C116.217 24.5053 116.9 24.2721 117.618 24.2721C118.618 24.2721 119.636 24.8717 119.652 25.939V26.0721C119.302 25.8721 118.551 25.5722 117.634 25.5722C115.782 25.5722 113.898 26.5887 113.898 28.4891C113.898 30.2228 115.416 31.3398 117.117 31.3398C118.417 31.3398 119.136 30.7564 119.585 30.0726H119.652V31.0734H121.521V26.1053C121.521 23.8048 119.802 22.5214 117.585 22.5214V22.5214ZM105.625 24.3822H102.873V19.9409H105.625C107.072 19.9409 107.893 21.1377 107.893 22.1615C107.893 23.1656 107.072 24.3822 105.625 24.3822ZM105.576 18.1371H100.939V31.095H102.873V26.186H105.576C107.72 26.186 109.829 24.6345 109.829 22.1619C109.829 19.6898 107.72 18.1376 105.576 18.1376L105.576 18.1371ZM80.2924 29.625C78.9556 29.625 77.8367 28.5059 77.8367 26.9703C77.8367 25.4168 78.9556 24.2819 80.2924 24.2819C81.6122 24.2819 82.648 25.4168 82.648 26.9703C82.648 28.5059 81.6122 29.625 80.2924 29.625ZM82.5143 23.5302H82.4474C82.0132 23.0127 81.1775 22.5451 80.1255 22.5451C77.9198 22.5451 75.8984 24.4824 75.8984 26.9703C75.8984 29.4412 77.9198 31.3614 80.1255 31.3614C81.1775 31.3614 82.0132 30.8938 82.4474 30.3598H82.5143V30.9938C82.5143 32.6809 81.6122 33.5821 80.1587 33.5821C78.973 33.5821 78.2378 32.7307 77.9368 32.0128L76.2498 32.714C76.7338 33.8824 78.0199 35.319 80.1588 35.319C82.4313 35.319 84.3526 33.9828 84.3526 30.7265V22.8122H82.5144L82.5143 23.5302ZM85.6893 31.0943H87.6265V18.1364H85.6893V31.0943ZM90.4836 26.8197C90.4337 25.1164 91.8041 24.2483 92.7893 24.2483C93.5581 24.2483 94.209 24.6325 94.4271 25.1832L90.4836 26.8197ZM96.4978 25.35C96.1304 24.3654 95.0112 22.5451 92.7224 22.5451C90.4499 22.5451 88.5622 24.3317 88.5622 26.9533C88.5622 29.4246 90.4337 31.3615 92.9392 31.3615C94.9605 31.3615 96.1305 30.1263 96.6153 29.408L95.1116 28.406C94.6102 29.1408 93.9255 29.625 92.9392 29.625C91.954 29.625 91.252 29.1741 90.8016 28.2891L96.6983 25.8513L96.4978 25.35ZM49.513 23.8977V25.7678H53.9903C53.8566 26.8198 53.5058 27.5877 52.9711 28.1222C52.3193 28.7732 51.3002 29.4914 49.513 29.4914C46.7563 29.4914 44.6013 27.2707 44.6013 24.5156C44.6013 21.7604 46.7563 19.5394 49.513 19.5394C50.9999 19.5394 52.0856 20.124 52.8876 20.8754L54.2078 19.556C53.0881 18.4875 51.6014 17.6693 49.513 17.6693C45.7367 17.6693 42.5625 20.7418 42.5625 24.5156C42.5625 28.289 45.7367 31.3615 49.513 31.3615C51.5509 31.3615 53.0882 30.6935 54.2908 29.4413C55.5272 28.2056 55.9116 26.4691 55.9116 25.0663C55.9116 24.6326 55.8779 24.2318 55.8111 23.8977H49.513ZM61.0024 29.625C59.6655 29.625 58.5127 28.5229 58.5127 26.9533C58.5127 25.367 59.6655 24.282 61.0024 24.282C62.3387 24.282 63.4915 25.367 63.4915 26.9533C63.4915 28.5229 62.3387 29.625 61.0024 29.625ZM61.0024 22.5451C58.5625 22.5451 56.5747 24.3985 56.5747 26.9533C56.5747 29.4914 58.5625 31.3615 61.0024 31.3615C63.4413 31.3615 65.4295 29.4914 65.4295 26.9533C65.4295 24.3985 63.4413 22.5451 61.0024 22.5451ZM70.66 29.625C69.3241 29.625 68.1709 28.5229 68.1709 26.9533C68.1709 25.367 69.3242 24.282 70.66 24.282C71.9969 24.282 73.1493 25.367 73.1493 26.9533C73.1493 28.5229 71.9969 29.625 70.66 29.625ZM70.66 22.5451C68.2211 22.5451 66.2333 24.3985 66.2333 26.9533C66.2333 29.4914 68.2211 31.3615 70.66 31.3615C73.0999 31.3615 75.0877 29.4914 75.0877 26.9533C75.0877 24.3985 73.0999 22.5451 70.66 22.5451Z" fill="white"/>
<g id="Group 1977">
<path id="path37" d="M21.4812 20.133L10.4414 31.8447C10.4418 31.8471 10.4427 31.8492 10.443 31.8517C10.7816 33.1234 11.9438 34.0598 13.3232 34.0598C13.8745 34.0598 14.3922 33.9109 14.8362 33.6493L14.8714 33.6287L27.2988 26.4613L21.4818 20.1328" fill="#EB3131"/>
<path id="path39" d="M32.6529 18.1392L32.6423 18.132L27.2771 15.0233L21.2324 20.3993L27.2981 26.4609L32.635 23.3832C33.5707 22.8783 34.2059 21.8924 34.2059 20.7555C34.2059 19.6268 33.5792 18.6458 32.6528 18.1393" fill="#F6B60B"/>
<path id="path41" d="M10.4411 9.61621C10.3747 9.86082 10.3398 10.117 10.3398 10.3831V31.0789C10.3398 31.3445 10.3743 31.6015 10.4415 31.8453L21.8624 20.4328L10.4415 9.61651" fill="#5778C5"/>
<path id="path43" d="M21.5637 20.7309L27.2782 15.0211L14.8649 7.82784C14.4137 7.55774 13.8871 7.40186 13.3236 7.40186C11.9443 7.40186 10.7805 8.33998 10.4418 9.61323C10.4414 9.61447 10.4414 9.61533 10.4414 9.61641L21.5636 20.7312" fill="#3BAD49"/>
</g>
<path id="path33" d="M49.1503 10.1384H46.1251V10.8866H48.392C48.3304 11.4972 48.0874 11.9766 47.6774 12.3248C47.2675 12.673 46.7441 12.8479 46.1251 12.8479C45.4462 12.8479 44.871 12.6115 44.3996 12.1418C43.9377 11.6625 43.7028 11.0697 43.7028 10.3555C43.7028 9.64141 43.9377 9.04863 44.3996 8.5693C44.871 8.09968 45.4462 7.86482 46.1251 7.86482C46.4736 7.86482 46.8057 7.92474 47.1103 8.05595C47.4149 8.18706 47.6596 8.3701 47.8508 8.60496L48.426 8.03004C48.1651 7.73361 47.8346 7.50693 47.4246 7.34173C47.0146 7.17651 46.5869 7.09722 46.1251 7.09722C45.2193 7.09722 44.4514 7.41137 43.8242 8.03815C43.1972 8.66645 42.8828 9.44059 42.8828 10.3555C42.8828 11.2705 43.1971 12.0463 43.8242 12.6731C44.4513 13.2998 45.2193 13.614 46.1251 13.614C47.0762 13.614 47.8345 13.3095 48.4179 12.6908C48.9315 12.1759 49.194 11.4795 49.194 10.6083C49.194 10.4609 49.1761 10.3038 49.1502 10.1385L49.1503 10.1384ZM50.3222 7.23636V13.4746H53.9663V12.7086H51.1243V10.7297H53.6877V9.98143H51.1243V8.00405H53.9663V7.23634L50.3222 7.23636ZM59.0761 8.00407V7.23636H54.7871V8.00407H56.5306V13.4746H57.3327V8.00407H59.0761ZM62.9592 7.23636H62.1571V13.4746H62.9592V7.23636ZM68.2532 8.00407V7.23636H63.9642V8.00407H65.7076V13.4746H66.5097V8.00407H68.2532ZM76.3468 8.04781C75.7278 7.41132 74.9695 7.09717 74.0637 7.09717C73.1563 7.09717 72.3981 7.41132 71.779 8.03809C71.16 8.65676 70.8555 9.43245 70.8555 10.3555C70.8555 11.2785 71.1601 12.0543 71.779 12.6731C72.398 13.2997 73.1563 13.614 74.0637 13.614C74.9613 13.614 75.7277 13.2997 76.3468 12.6731C76.9658 12.0544 77.2703 11.2786 77.2703 10.3555C77.2703 9.44054 76.9657 8.66636 76.3468 8.04781ZM72.3543 8.56925C72.8161 8.09963 73.3832 7.86477 74.0637 7.86477C74.7426 7.86477 75.3098 8.09964 75.7634 8.56925C76.2252 9.03079 76.452 9.63315 76.452 10.3555C76.452 11.0794 76.2252 11.6802 75.7634 12.1418C75.3097 12.6114 74.7426 12.8478 74.0637 12.8478C73.3832 12.8478 72.8161 12.6114 72.3543 12.1418C71.9021 11.6705 71.6754 11.0794 71.6754 10.3555C71.6754 9.63317 71.9021 9.04049 72.3543 8.56925ZM79.1759 9.58954L79.1419 8.38618H79.1759L82.3485 13.4746H83.1862V7.2363H82.3841V10.8866L82.4181 12.0899H82.3841L79.3509 7.2363H78.3738V13.4746H79.1759V9.58954Z" fill="white" stroke="white" stroke-width="0.26666" stroke-miterlimit="10"/>
</g>
<defs>
<clipPath id="clip0_8138_2803">
<rect width="140" height="41.4592" fill="white"/>
</clipPath>
</defs>
</svg>
