<svg width="24" height="24" viewBox="0 0 24 24" fill="none" xmlns="http://www.w3.org/2000/svg">
<path fill-rule="evenodd" clip-rule="evenodd" d="M11.5761 5.56129C8.91348 4.12481 6.16474 2.64284 5.78567 2.44231C5.39685 2.21956 4.95676 2.14951 4.55084 2.21926C4.54307 2.22058 4.53531 2.22202 4.52756 2.22359C4.52021 2.22508 4.5129 2.22667 4.50563 2.22836C4.15962 2.30827 3.82798 2.50554 3.59029 2.83812C3.35546 3.16671 3.24976 3.57391 3.24976 4.01826V19.8419C3.24976 20.2297 3.32549 20.6383 3.53792 20.9821C3.76539 21.3503 4.13842 21.6175 4.62114 21.6621C4.67849 21.6674 4.73568 21.6661 4.79169 21.6584C5.14035 21.6598 5.47313 21.5473 5.78099 21.3799L5.89002 21.3208C6.02044 21.2501 6.23012 21.1364 6.50601 20.9872C8.39311 19.967 13.3482 17.288 16.8998 15.3571C16.9084 15.3524 16.9168 15.3477 16.925 15.3427C17.6021 14.975 18.2275 14.6348 18.7704 14.3395L19.6212 13.8768C19.9691 13.6877 20.2533 13.5334 20.4592 13.4222C20.5622 13.3665 20.6448 13.3221 20.7056 13.2896L20.7783 13.251L20.8045 13.2373L20.8223 13.2283C21.144 13.059 21.5875 12.6995 21.7158 12.154C21.7876 11.8484 21.7488 11.5166 21.5672 11.2119C21.3963 10.9254 21.1293 10.712 20.8254 10.5503L20.8182 10.5466C20.5317 10.3981 18.9495 9.53912 16.9009 8.4211C16.8595 8.39851 16.8167 8.38017 16.773 8.36599L15.2497 7.54369C14.2568 7.00778 12.9264 6.28976 11.5761 5.56129ZM13.7069 10.8513L8.3109 5.50448C9.1126 5.93671 9.9919 6.41098 10.8639 6.88142C12.2141 7.60983 13.5444 8.32781 14.5372 8.86368L15.2898 9.26991L13.7069 10.8513ZM4.74976 19.783V4.08749L12.6452 11.9109L4.74976 19.783ZM14.7755 11.9067L16.6826 10.0107C18.4697 10.9853 19.8351 11.7262 20.1238 11.8762L20.146 11.8883C20.1397 11.8921 20.1335 11.8957 20.1274 11.8989C19.9722 11.9782 19.1539 12.4233 17.981 13.0613C17.5816 13.2785 17.1412 13.5181 16.6718 13.7732L14.7755 11.9067ZM8.40894 18.2529L13.7125 12.9651L15.2941 14.5224C13.0525 15.7398 10.439 17.1546 8.40894 18.2529Z" fill="#002852"/>
</svg>
