<svg width="41" height="41" viewBox="0 0 41 41" fill="none" xmlns="http://www.w3.org/2000/svg">
<g clip-path="url(#clip0_8138_2789)">
<g filter="url(#filter0_d_8138_2789)">
<path d="M40.1284 20.0904C40.1284 9.25037 31.3408 0.462769 20.5007 0.462769C9.66065 0.462769 0.873047 9.25037 0.873047 20.0904C0.873047 30.9305 9.66065 39.7181 20.5007 39.7181C31.3408 39.7181 40.1284 30.9305 40.1284 20.0904Z" fill="url(#paint0_linear_8138_2789)"/>
</g>
<path d="M30.9037 16.8023C30.6453 16.6237 30.3042 16.6221 30.0427 16.7954L26.0352 19.4666L21.1068 13.129C20.955 12.935 20.7219 12.8231 20.4727 12.8331C20.2266 12.8423 19.9997 12.9688 19.8632 13.1743L15.6601 19.4789L10.915 16.767C10.6512 16.6168 10.3223 16.6352 10.077 16.8169C9.83238 16.9986 9.71891 17.3084 9.78715 17.6051L12.0873 27.5722C12.167 27.9211 12.4767 28.1671 12.834 28.1671H28.1681C28.5255 28.1671 28.8352 27.9211 28.9157 27.5731L31.2158 17.6058C31.2856 17.2999 31.1628 16.981 30.9037 16.8023ZM27.5585 26.6338H13.4436L13.0893 25.1004H27.9114L27.5585 26.6338ZM28.2662 23.5669H12.7359L11.6748 18.9683L15.5206 21.1656C15.871 21.3665 16.3149 21.2599 16.5388 20.9257L20.5486 14.9101L25.2623 20.9709C25.5092 21.2891 25.9593 21.3612 26.2928 21.138L29.2869 19.1423L28.2662 23.5669Z" fill="url(#paint1_linear_8138_2789)"/>
<path d="M30.9037 16.8023C30.6453 16.6237 30.3042 16.6221 30.0427 16.7954L26.0352 19.4666L21.1068 13.129C20.955 12.935 20.7219 12.8231 20.4727 12.8331C20.2266 12.8423 19.9997 12.9688 19.8632 13.1743L15.6601 19.4789L10.915 16.767C10.6512 16.6168 10.3223 16.6352 10.077 16.8169C9.83238 16.9986 9.71891 17.3084 9.78715 17.6051L12.0873 27.5722C12.167 27.9211 12.4767 28.1671 12.834 28.1671H28.1681C28.5255 28.1671 28.8352 27.9211 28.9157 27.5731L31.2158 17.6058C31.2856 17.2999 31.1628 16.981 30.9037 16.8023ZM27.5585 26.6338H13.4436L13.0893 25.1004H27.9114L27.5585 26.6338ZM28.2662 23.5669H12.7359L11.6748 18.9683L15.5206 21.1656C15.871 21.3665 16.3149 21.2599 16.5388 20.9257L20.5486 14.9101L25.2623 20.9709C25.5092 21.2891 25.9593 21.3612 26.2928 21.138L29.2869 19.1423L28.2662 23.5669Z" fill="white"/>
<path d="M30.9037 16.8023C30.6453 16.6237 30.3042 16.6221 30.0427 16.7954L26.0352 19.4666L21.1068 13.129C20.955 12.935 20.7219 12.8231 20.4727 12.8331C20.2266 12.8423 19.9997 12.9688 19.8632 13.1743L15.6601 19.4789L10.915 16.767C10.6512 16.6168 10.3223 16.6352 10.077 16.8169C9.83238 16.9986 9.71891 17.3084 9.78715 17.6051L12.0873 27.5722C12.167 27.9211 12.4767 28.1671 12.834 28.1671H28.1681C28.5255 28.1671 28.8352 27.9211 28.9157 27.5731L31.2158 17.6058C31.2856 17.2999 31.1628 16.981 30.9037 16.8023ZM27.5585 26.6338H13.4436L13.0893 25.1004H27.9114L27.5585 26.6338ZM28.2662 23.5669H12.7359L11.6748 18.9683L15.5206 21.1656C15.871 21.3665 16.3149 21.2599 16.5388 20.9257L20.5486 14.9101L25.2623 20.9709C25.5092 21.2891 25.9593 21.3612 26.2928 21.138L29.2869 19.1423L28.2662 23.5669Z" stroke="url(#paint2_linear_8138_2789)" stroke-width="0.0459137"/>
<path d="M30.9037 16.8023C30.6453 16.6237 30.3042 16.6221 30.0427 16.7954L26.0352 19.4666L21.1068 13.129C20.955 12.935 20.7219 12.8231 20.4727 12.8331C20.2266 12.8423 19.9997 12.9688 19.8632 13.1743L15.6601 19.4789L10.915 16.767C10.6512 16.6168 10.3223 16.6352 10.077 16.8169C9.83238 16.9986 9.71891 17.3084 9.78715 17.6051L12.0873 27.5722C12.167 27.9211 12.4767 28.1671 12.834 28.1671H28.1681C28.5255 28.1671 28.8352 27.9211 28.9157 27.5731L31.2158 17.6058C31.2856 17.2999 31.1628 16.981 30.9037 16.8023ZM27.5585 26.6338H13.4436L13.0893 25.1004H27.9114L27.5585 26.6338ZM28.2662 23.5669H12.7359L11.6748 18.9683L15.5206 21.1656C15.871 21.3665 16.3149 21.2599 16.5388 20.9257L20.5486 14.9101L25.2623 20.9709C25.5092 21.2891 25.9593 21.3612 26.2928 21.138L29.2869 19.1423L28.2662 23.5669Z" stroke="white" stroke-width="0.0459137"/>
</g>
<defs>
<filter id="filter0_d_8138_2789" x="-0.9635" y="-1.37378" width="42.929" height="42.9284" filterUnits="userSpaceOnUse" color-interpolation-filters="sRGB">
<feFlood flood-opacity="0" result="BackgroundImageFix"/>
<feColorMatrix in="SourceAlpha" type="matrix" values="0 0 0 0 0 0 0 0 0 0 0 0 0 0 0 0 0 0 127 0" result="hardAlpha"/>
<feOffset/>
<feGaussianBlur stdDeviation="0.918273"/>
<feColorMatrix type="matrix" values="0 0 0 0 0 0 0 0 0 0 0 0 0 0 0 0 0 0 0.2 0"/>
<feBlend mode="normal" in2="BackgroundImageFix" result="effect1_dropShadow_8138_2789"/>
<feBlend mode="normal" in="SourceGraphic" in2="effect1_dropShadow_8138_2789" result="shape"/>
</filter>
<linearGradient id="paint0_linear_8138_2789" x1="0.873047" y1="2.13321" x2="42.3703" y2="4.79747" gradientUnits="userSpaceOnUse">
<stop stop-color="#BF953F"/>
<stop offset="0.541667" stop-color="#B38728"/>
<stop offset="0.916667" stop-color="#996515"/>
</linearGradient>
<linearGradient id="paint1_linear_8138_2789" x1="9.76758" y1="13.485" x2="32.3721" y2="15.5167" gradientUnits="userSpaceOnUse">
<stop stop-color="#BF953F"/>
<stop offset="0.541667" stop-color="#B38728"/>
<stop offset="0.916667" stop-color="#996515"/>
</linearGradient>
<linearGradient id="paint2_linear_8138_2789" x1="9.76758" y1="13.485" x2="32.3721" y2="15.5167" gradientUnits="userSpaceOnUse">
<stop stop-color="#BF953F"/>
<stop offset="0.541667" stop-color="#B38728"/>
<stop offset="0.916667" stop-color="#996515"/>
</linearGradient>
<clipPath id="clip0_8138_2789">
<rect width="41" height="41" fill="white"/>
</clipPath>
</defs>
</svg>
