<svg width="101" height="22" viewBox="0 0 101 22" fill="none" xmlns="http://www.w3.org/2000/svg">
<g clip-path="url(#clip0_1277_1707)">
<path d="M90.4513 11.5851C60.3389 23.9216 30.7739 24.3545 0.333008 14.1823C2.523 11.9098 4.3845 12.7755 5.808 13.2083C16.758 16.1301 28.0364 16.4548 39.2054 16.8876C55.3019 17.5369 70.5223 13.8576 85.4143 7.9058C86.0713 7.68937 86.6188 7.25652 87.9328 6.3908C80.3773 4.8758 72.8218 7.47296 66.2519 4.44295C66.3614 4.01009 66.3614 3.469 66.4709 3.03614C71.3983 2.7115 76.4353 2.38685 81.3628 1.954C86.2903 1.52114 91.1083 0.980084 96.0358 0.65544C99.6493 0.439011 101.182 2.17044 99.8683 5.41688C98.2258 9.63725 95.9263 13.533 93.8458 17.5369C93.6268 17.9698 93.2983 18.5108 92.8603 18.7273C91.6558 19.1601 90.4513 19.2684 89.1373 19.593C88.9183 18.5109 88.3708 17.3205 88.4803 16.3466C88.6993 15.048 89.4658 13.9658 90.4513 11.5851Z" fill="#B2BECB"/>
</g>
<defs>
<clipPath id="clip0_1277_1707">
<rect width="100" height="20.7254" fill="white" transform="translate(0.333008 0.637329)"/>
</clipPath>
</defs>
</svg>
