<svg width="17" height="17" viewBox="0 0 17 17" fill="none" xmlns="http://www.w3.org/2000/svg">
<g id="share-2" clip-path="url(#clip0_48_2668)">
<g id="Group 21856">
<path id="Vector" d="M13 5.99999C14.1046 5.99999 15 5.10456 15 3.99999C15 2.89542 14.1046 1.99999 13 1.99999C11.8954 1.99999 11 2.89542 11 3.99999C11 5.10456 11.8954 5.99999 13 5.99999Z" stroke="#002852" stroke-opacity="0.8" stroke-width="1.6" stroke-linecap="round" stroke-linejoin="round"/>
<path id="Vector_2" d="M5 10.6667C6.10457 10.6667 7 9.77123 7 8.66666C7 7.56209 6.10457 6.66666 5 6.66666C3.89543 6.66666 3 7.56209 3 8.66666C3 9.77123 3.89543 10.6667 5 10.6667Z" stroke="#002852" stroke-opacity="0.8" stroke-width="1.6" stroke-linecap="round" stroke-linejoin="round"/>
<path id="Vector_3" d="M13 15.3333C14.1046 15.3333 15 14.4379 15 13.3333C15 12.2288 14.1046 11.3333 13 11.3333C11.8954 11.3333 11 12.2288 11 13.3333C11 14.4379 11.8954 15.3333 13 15.3333Z" stroke="#002852" stroke-opacity="0.8" stroke-width="1.6" stroke-linecap="round" stroke-linejoin="round"/>
<path id="Vector_4" d="M6.72656 9.67333L11.2799 12.3267" stroke="#002852" stroke-opacity="0.8" stroke-width="1.6" stroke-linecap="round" stroke-linejoin="round"/>
<path id="Vector_5" d="M11.2732 5.00666L6.72656 7.65999" stroke="#002852" stroke-opacity="0.8" stroke-width="1.6" stroke-linecap="round" stroke-linejoin="round"/>
</g>
</g>
<defs>
<clipPath id="clip0_48_2668">
<rect width="16" height="16" fill="white" transform="translate(0.881348 0.338982)"/>
</clipPath>
</defs>
</svg>
