<svg width="158" height="185" viewBox="0 0 158 185" fill="none" xmlns="http://www.w3.org/2000/svg">
<path d="M117.977 131.72C117.977 133.456 118.666 135.122 119.894 136.35C121.122 137.578 122.788 138.267 124.524 138.267H157.263V125.172H124.524C122.788 125.172 121.122 125.862 119.894 127.09C118.666 128.318 117.977 129.983 117.977 131.72Z" fill="#002852"/>
<path d="M144.173 80.5838V72.7919C144.173 67.5821 142.103 62.5857 138.42 58.9019C134.736 55.218 129.739 53.1484 124.53 53.1484H106.458L93.362 66.2441H124.53C126.266 66.2441 127.932 66.9339 129.16 68.1619C130.388 69.3898 131.077 71.0553 131.077 72.7919V79.3397H19.7645C18.0279 79.3397 16.3625 78.6498 15.1345 77.4219C13.9066 76.1939 13.2167 74.5285 13.2167 72.7919C13.2167 71.0553 13.9066 69.3898 15.1345 68.1619C16.3625 66.9339 18.0279 66.2441 19.7645 66.2441H50.9321L37.8365 53.1484H19.7645C14.5548 53.1484 9.55838 55.218 5.87452 58.9019C2.19067 62.5857 0.121094 67.5821 0.121094 72.7919V164.461C0.121094 169.671 2.19067 174.667 5.87452 178.351C9.55838 182.035 14.5548 184.105 19.7645 184.105H137.625C142.835 184.105 147.831 182.035 151.515 178.351C155.199 174.667 157.269 169.671 157.269 164.461V151.366H124.53C119.32 151.366 114.323 149.296 110.64 145.612C106.956 141.928 104.886 136.932 104.886 131.722C104.886 126.512 106.956 121.516 110.64 117.832C114.323 114.148 119.32 112.079 124.53 112.079H157.269V98.9831C157.244 94.9416 155.973 91.0061 153.629 87.7134C151.286 84.4206 147.983 81.9309 144.173 80.5838Z" fill="#002852"/>
<path d="M67.4953 64.3449C68.104 64.9586 68.8282 65.4457 69.6261 65.7781C70.424 66.1106 71.2798 66.2817 72.1442 66.2817C73.0086 66.2817 73.8644 66.1106 74.6624 65.7781C75.4603 65.4457 76.1845 64.9586 76.7932 64.3449L96.4366 44.7015C97.3452 43.7807 97.9606 42.6114 98.2054 41.3412C98.4501 40.071 98.3131 38.7568 97.8117 37.5643C97.3204 36.3686 96.4863 35.345 95.4142 34.6225C94.3422 33.9001 93.0804 33.5111 91.7877 33.5047H78.692V7.31344C78.692 5.57685 78.0022 3.91139 76.7742 2.68343C75.5463 1.45548 73.8808 0.765625 72.1442 0.765625C70.4076 0.765625 68.7422 1.45548 67.5142 2.68343C66.2863 3.91139 65.5964 5.57685 65.5964 7.31344V33.5047H52.5008C51.2081 33.5111 49.9462 33.9001 48.8742 34.6225C47.8022 35.345 46.968 36.3686 46.4768 37.5643C45.9754 38.7568 45.8384 40.071 46.0831 41.3412C46.3278 42.6114 46.9433 43.7807 47.8518 44.7015L67.4953 64.3449Z" fill="#002852"/>
</svg>
