<svg width="204" height="203" viewBox="0 0 204 203" fill="none" xmlns="http://www.w3.org/2000/svg">
<path d="M141.332 191.067H126.074L123.948 182.351H79.4748L77.3488 191.067H62.0903C58.8081 191.067 56.1471 193.728 56.1471 197.011C56.1471 200.293 58.8081 202.954 62.0903 202.954H141.332C144.615 202.954 147.276 200.293 147.276 197.011C147.276 193.728 144.615 191.067 141.332 191.067ZM58.7189 126.881H95.7682V95.1844H62.681L58.7189 126.881ZM95.7682 138.768H57.2331L53.271 170.464H95.7682V138.768ZM107.655 138.768V170.464H150.152L146.19 138.768H107.655ZM107.655 126.881H144.704L140.742 95.1844H107.655V126.881ZM187.113 99.6861C186.791 98.4003 186.049 97.2588 185.004 96.4431C183.96 95.6274 182.672 95.1844 181.347 95.1844H152.72L156.682 126.881H193.912L187.113 99.6861ZM202.961 163.08L196.883 138.768H158.168L162.13 170.464H197.195C201.062 170.464 203.899 166.831 202.961 163.08ZM0.461642 163.08C-0.47619 166.831 2.36108 170.464 6.2273 170.464H41.2924L45.2545 138.768H6.53991L0.461642 163.08ZM16.3101 99.6861L9.5115 126.881H46.7407L50.7028 95.1844H22.0757C20.7503 95.1844 19.463 95.6274 18.4183 96.4431C17.3736 97.2588 16.6315 98.4003 16.3101 99.6861ZM65.2873 74.8595C65.9755 77.4951 68.3445 79.3359 71.0482 79.3359H132.374C135.078 79.3359 137.447 77.4951 138.135 74.8599C138.939 71.7942 139.348 68.6381 139.351 65.4686C139.351 44.7138 122.466 27.8285 101.711 27.8285C80.9567 27.8285 64.0713 44.7138 64.0713 65.4686C64.0747 68.6379 64.4834 71.7938 65.2873 74.8595ZM161.143 71.4117C164.425 71.4117 167.086 68.7508 167.086 65.4686C167.086 62.1863 164.425 59.5254 161.143 59.5254H150.88C151.114 61.4748 151.238 63.4574 151.238 65.4686C151.238 67.4504 151.111 69.4354 150.868 71.4117H161.143ZM52.5428 59.5254H42.2797C38.9975 59.5254 36.3366 62.1863 36.3366 65.4686C36.3366 68.7508 38.9975 71.4117 42.2797 71.4117H52.5551C52.3103 69.4401 52.1867 67.4553 52.185 65.4686C52.185 63.4574 52.3086 61.4748 52.5428 59.5254ZM107.655 16.3V6.03691C107.655 2.7547 104.994 0.09375 101.711 0.09375C98.4292 0.09375 95.7682 2.7547 95.7682 6.03691V16.3C97.7176 16.0658 99.7002 15.9422 101.711 15.9422C103.723 15.9422 105.705 16.0658 107.655 16.3ZM140.667 34.9179L147.939 27.6463C150.26 25.3253 150.26 21.5624 147.939 19.2414C145.617 16.9204 141.855 16.9204 139.534 19.2414L132.262 26.5131C135.388 28.9702 138.21 31.7918 140.667 34.9179ZM62.7559 34.9179C65.213 31.7918 68.0346 28.9702 71.1607 26.5131L63.8891 19.2414C61.5681 16.9204 57.8053 16.9204 55.4842 19.2414C53.1632 21.5624 53.1632 25.3253 55.4842 27.6463L62.7559 34.9179Z" fill="#002852"/>
</svg>
