<svg width="204" height="203" viewBox="0 0 204 203" fill="none" xmlns="http://www.w3.org/2000/svg">
<path fill-rule="evenodd" clip-rule="evenodd" d="M98.6687 52.4394C105.868 54.1543 112.747 57.0063 119.048 60.888L132.291 55.0064L147.899 70.6141L142.019 83.8526C145.902 90.1549 148.754 97.0362 150.469 104.237L163.98 109.438V109.881C163.485 109.865 162.991 109.857 162.496 109.856C151.551 109.856 141.464 113.521 133.389 119.689C132.968 91.9001 110.319 69.506 82.4308 69.506C54.2798 69.506 31.4631 92.3228 31.4631 120.474C31.4631 148.625 54.2798 171.442 82.4308 171.442C94.6048 171.442 105.779 167.173 114.544 160.052C114.877 167.451 116.883 174.413 120.195 180.569L119.053 180.062C112.751 183.945 105.869 186.797 98.6682 188.512L93.4679 202.023H71.3954L66.1938 188.509C58.9949 186.794 52.1155 183.942 45.8147 180.06L32.572 185.942L16.9639 170.334L22.8437 157.095C18.9608 150.793 16.1082 143.912 14.3935 136.71L0.882812 131.51V109.438L14.3956 104.236C16.1104 97.0367 18.9627 90.1567 22.845 83.8556L16.963 70.6145L32.5707 55.0068L45.8135 60.8884C52.1141 57.0067 58.9936 54.1547 66.1926 52.4398L71.3946 38.9258H93.4671L98.6687 52.4394ZM162.496 131.438C147.903 131.438 136.074 143.267 136.074 157.86C136.074 172.453 147.903 184.283 162.496 184.283C177.09 184.283 188.919 172.454 188.919 157.86C188.919 143.267 177.089 131.438 162.496 131.438ZM165.877 175.56V176.72C165.877 177.617 165.521 178.477 164.887 179.111C164.253 179.745 163.393 180.101 162.496 180.101C161.6 180.101 160.74 179.745 160.106 179.111C159.472 178.477 159.115 177.617 159.115 176.72V175.492C154.526 174.452 150.827 171.365 149.66 166.683C149.45 165.816 149.593 164.901 150.056 164.138C150.52 163.376 151.266 162.828 152.133 162.615C152.999 162.402 153.915 162.541 154.679 163.001C155.443 163.462 155.994 164.206 156.21 165.072C156.941 168.004 160.038 169.203 162.806 169.137C163.147 169.125 163.487 169.097 163.825 169.053C165.671 168.829 168.743 167.94 168.688 165.601C168.686 165.551 168.674 165.43 168.65 165.234C168.292 162.282 164.39 161.477 161.982 161.082C156.347 160.156 150.874 157.45 150.562 151.009C150.298 145.586 154.09 141.574 159.115 140.283V139.001C159.115 138.104 159.472 137.244 160.106 136.61C160.74 135.976 161.6 135.62 162.496 135.62C163.393 135.62 164.253 135.976 164.887 136.61C165.521 137.244 165.877 138.104 165.877 139.001V140.235C169.796 141.212 172.82 143.766 174.387 147.499C174.716 148.322 174.707 149.242 174.365 150.059C174.022 150.876 173.372 151.526 172.555 151.868C171.738 152.211 170.819 152.219 169.996 151.891C169.173 151.563 168.511 150.925 168.154 150.115C166.973 147.302 164.015 146.146 161.145 146.724C159.152 147.125 157.187 148.429 157.297 150.692C157.425 153.321 160.994 154.086 163.065 154.426C168.881 155.381 174.56 157.854 175.36 164.441C175.392 164.713 175.414 165.049 175.423 165.443C175.559 171.145 171.012 174.538 165.877 175.56ZM162.496 116.618C139.719 116.618 121.254 135.083 121.254 157.86C121.254 180.638 139.719 199.103 162.496 199.103C185.274 199.103 203.739 180.638 203.739 157.86C203.739 135.083 185.274 116.618 162.496 116.618ZM162.496 191.045C144.17 191.045 129.312 176.187 129.312 157.86C129.312 139.534 144.17 124.676 162.496 124.676C180.823 124.676 195.681 139.534 195.681 157.86C195.681 176.187 180.823 191.045 162.496 191.045ZM84.5435 83.485C83.1996 82.709 81.6612 82.709 80.3177 83.485L51.4533 100.15C50.1094 100.926 49.3402 102.258 49.3402 103.81V137.139C49.3402 138.691 50.1094 140.023 51.4533 140.799L80.3177 157.464C81.6617 158.24 83.2 158.24 84.5435 157.464L113.408 140.799C114.752 140.023 115.521 138.691 115.521 137.139V103.81C115.521 102.258 114.752 100.926 113.408 100.15L103.774 94.5876L70.6837 113.692V128.739L61.0873 123.198V108.152L94.1779 89.047L84.5435 83.485Z" fill="#002852"/>
<path fill-rule="evenodd" clip-rule="evenodd" d="M178.784 70.9157C176.872 74.1745 174.452 77.1074 171.616 79.6041L172.51 86.9479L162.559 92.2374L156.974 87.3898C153.317 88.3444 149.531 88.7095 145.76 88.4715L141.203 94.2913L140.987 94.2251C141.068 93.9861 141.146 93.7459 141.22 93.5045C142.855 88.1608 142.571 82.6885 140.766 77.825C154.396 81.7694 168.712 74.0555 172.877 60.4393C177.08 46.6951 169.348 32.148 155.603 27.9441C141.859 23.7403 127.312 31.473 123.108 45.2173C121.29 51.161 121.706 57.2543 123.873 62.5968C120.211 61.6546 116.513 61.5944 113.012 62.2921L113.431 61.8102C112.476 58.1534 112.111 54.3677 112.349 50.5959L106.529 46.0394L109.825 35.2628L117.2 34.7413C119.112 31.4826 121.532 28.5497 124.368 26.0532L123.474 18.7093L133.425 13.4196L139.011 18.2673C142.667 17.3126 146.453 16.9475 150.225 17.1856L154.782 11.3658L165.558 14.6619L166.08 22.036C169.339 23.9483 172.272 26.3683 174.769 29.2047L182.112 28.3102L187.401 38.2611L182.552 43.8484C183.506 47.5042 183.871 51.2889 183.634 55.0598L189.455 59.6176L186.159 70.3941L178.784 70.9157Z" fill="#002852"/>
<circle cx="162.759" cy="156.933" r="32.5833" fill="#EFF4FC" stroke="#002852" stroke-width="6"/>
<path d="M175.455 146.997L174.191 151.354H150.098L151.362 146.997H175.455ZM164.152 176.366L150.544 159.541L150.469 156.386H157.236C158.996 156.386 160.496 156.136 161.735 155.635C162.975 155.122 163.923 154.358 164.579 153.344C165.236 152.318 165.565 151.028 165.565 149.476C165.565 147.185 164.883 145.388 163.52 144.086C162.157 142.772 160.062 142.115 157.236 142.115H150.098L151.362 137.908H157.236C160.26 137.908 162.739 138.415 164.672 139.429C166.618 140.431 168.056 141.808 168.985 143.561C169.927 145.301 170.398 147.272 170.398 149.476C170.398 151.466 169.964 153.3 169.097 154.978C168.242 156.643 166.866 157.982 164.97 158.996C163.086 160.01 160.595 160.517 157.497 160.517H157.385L169.952 176.066V176.366H164.152ZM175.455 137.908L174.191 142.265L155.229 142.115L156.493 137.908H175.455Z" fill="#002852"/>
<circle cx="82.8799" cy="120.213" r="39.1416" fill="#EDF2FE"/>
</svg>
