<svg width="17" height="16" viewBox="0 0 17 16" fill="none" xmlns="http://www.w3.org/2000/svg">
<path d="M8.26514 0.5C8.29088 0.5 8.31213 0.507364 8.32568 0.516602C8.33603 0.523703 8.34943 0.53724 8.35986 0.569336L9.8999 5.30762C10.0471 5.76072 10.4694 6.06819 10.9458 6.06836H15.9292C15.9631 6.06838 15.9798 6.07729 15.9897 6.08496C16.0026 6.09494 16.016 6.11249 16.0239 6.13672C16.0318 6.16102 16.0314 6.18349 16.0269 6.19922C16.0233 6.21127 16.0153 6.22905 15.9878 6.24902L11.9565 9.17773C11.5711 9.45777 11.4101 9.9541 11.5571 10.4072L13.0972 15.1465C13.1077 15.1788 13.1034 15.1981 13.0991 15.21C13.0935 15.2253 13.0807 15.2438 13.0601 15.2588C13.0394 15.2737 13.0177 15.2798 13.0015 15.2803C12.9889 15.2806 12.97 15.2784 12.9429 15.2588L8.91162 12.3291C8.52621 12.0493 8.00407 12.0493 7.61865 12.3291L3.5874 15.2588C3.5603 15.2784 3.54134 15.2806 3.52881 15.2803C3.51253 15.2798 3.4909 15.2737 3.47021 15.2588C3.44961 15.2438 3.43677 15.2253 3.43115 15.21C3.42692 15.1981 3.4226 15.1788 3.43311 15.1465L4.97314 10.4072C5.12021 9.9541 4.95915 9.45777 4.57373 9.17773L0.54248 6.24902C0.514989 6.22905 0.506936 6.21127 0.503418 6.19922C0.498909 6.18349 0.498451 6.16102 0.506348 6.13672C0.514316 6.11249 0.527642 6.09494 0.540527 6.08496C0.550445 6.07729 0.567166 6.06838 0.601074 6.06836H5.58447C6.06086 6.06819 6.48315 5.76072 6.63037 5.30762L8.17041 0.569336C8.18084 0.53724 8.19424 0.523703 8.20459 0.516602C8.21814 0.507364 8.2394 0.5 8.26514 0.5Z" stroke="#6B6B6B"/>
</svg>
