<svg width="111" height="18" viewBox="0 0 111 18" fill="none" xmlns="http://www.w3.org/2000/svg">
<g clip-path="url(#clip0_463_5586)">
<path fill-rule="evenodd" clip-rule="evenodd" d="M9.41841 1.15335C9.36 1.02677 9.26656 0.919573 9.14914 0.844437C9.03172 0.769301 8.89524 0.72937 8.75584 0.72937C8.61644 0.72937 8.47995 0.769301 8.36253 0.844437C8.24512 0.919573 8.15168 1.02677 8.09327 1.15335L5.99903 5.69208L1.03635 6.28095C0.897887 6.29729 0.767009 6.35297 0.659202 6.44138C0.551394 6.52979 0.471172 6.64723 0.428028 6.77981C0.384884 6.91239 0.380626 7.05455 0.415756 7.18947C0.450886 7.3244 0.523935 7.44643 0.626257 7.54114L4.29664 10.9342L3.3225 15.8378C3.29544 15.9745 3.30809 16.1161 3.35894 16.2458C3.4098 16.3756 3.49673 16.488 3.60948 16.5699C3.72222 16.6518 3.85605 16.6997 3.99515 16.7079C4.13425 16.7162 4.2728 16.6844 4.39442 16.6164L8.75584 14.1748L13.1173 16.6164C13.2389 16.6847 13.3777 16.7167 13.517 16.7085C13.6563 16.7004 13.7904 16.6524 13.9033 16.5704C14.0162 16.4884 14.1032 16.3757 14.154 16.2457C14.2048 16.1158 14.2173 15.9739 14.1899 15.8371L13.2158 10.935L16.8854 7.54114C16.9877 7.44643 17.0608 7.3244 17.0959 7.18947C17.1311 7.05455 17.1268 6.91239 17.0836 6.77981C17.0405 6.64723 16.9603 6.52979 16.8525 6.44138C16.7447 6.35297 16.6138 6.29729 16.4753 6.28095L11.5119 5.69135L9.41841 1.15335Z" fill="#F2B347"/>
</g>
<g clip-path="url(#clip1_463_5586)">
<path fill-rule="evenodd" clip-rule="evenodd" d="M32.7689 1.15335C32.7105 1.02677 32.617 0.919573 32.4996 0.844437C32.3822 0.769301 32.2457 0.72937 32.1063 0.72937C31.9669 0.72937 31.8304 0.769301 31.713 0.844437C31.5956 0.919573 31.5021 1.02677 31.4437 1.15335L29.3495 5.69208L24.3868 6.28095C24.2484 6.29729 24.1175 6.35297 24.0097 6.44138C23.9019 6.52979 23.8216 6.64723 23.7785 6.77981C23.7353 6.91239 23.7311 7.05455 23.7662 7.18947C23.8013 7.3244 23.8744 7.44643 23.9767 7.54114L27.6471 10.9342L26.673 15.8378C26.6459 15.9745 26.6585 16.1161 26.7094 16.2458C26.7603 16.3756 26.8472 16.488 26.9599 16.5699C27.0727 16.6518 27.2065 16.6997 27.3456 16.7079C27.4847 16.7162 27.6233 16.6844 27.7449 16.6164L32.1063 14.1748L36.4677 16.6164C36.5894 16.6847 36.7281 16.7167 36.8675 16.7085C37.0068 16.7004 37.1408 16.6524 37.2537 16.5704C37.3666 16.4884 37.4536 16.3757 37.5044 16.2457C37.5552 16.1158 37.5677 15.9739 37.5404 15.8371L36.5662 10.935L40.2359 7.54114C40.3382 7.44643 40.4113 7.3244 40.4464 7.18947C40.4815 7.05455 40.4773 6.91239 40.4341 6.77981C40.391 6.64723 40.3107 6.52979 40.2029 6.44138C40.0951 6.35297 39.9643 6.29729 39.8258 6.28095L34.8624 5.69135L32.7689 1.15335Z" fill="#F2B347"/>
</g>
<path fill-rule="evenodd" clip-rule="evenodd" d="M56.1203 1.15335C56.0619 1.02677 55.9685 0.919573 55.851 0.844437C55.7336 0.769301 55.5971 0.72937 55.4577 0.72937C55.3183 0.72937 55.1819 0.769301 55.0644 0.844437C54.947 0.919573 54.8536 1.02677 54.7952 1.15335L52.7009 5.69208L47.7383 6.28095C47.5998 6.29729 47.4689 6.35297 47.3611 6.44138C47.2533 6.52979 47.1731 6.64723 47.1299 6.77981C47.0868 6.91239 47.0825 7.05455 47.1177 7.18947C47.1528 7.3244 47.2258 7.44643 47.3282 7.54114L50.9985 10.9342L50.0244 15.8378C49.9973 15.9745 50.01 16.1161 50.0608 16.2458C50.1117 16.3756 50.1986 16.488 50.3114 16.5699C50.4241 16.6518 50.558 16.6997 50.6971 16.7079C50.8362 16.7162 50.9747 16.6844 51.0963 16.6164L55.4577 14.1748L59.8192 16.6164C59.9409 16.6847 60.0796 16.7167 60.2189 16.7085C60.3582 16.7004 60.4923 16.6524 60.6052 16.5704C60.7181 16.4884 60.8051 16.3757 60.8559 16.2457C60.9067 16.1158 60.9192 15.9739 60.8918 15.8371L59.9177 10.935L63.5873 7.54114C63.6896 7.44643 63.7627 7.3244 63.7978 7.18947C63.833 7.05455 63.8287 6.91239 63.7856 6.77981C63.7424 6.64723 63.6622 6.52979 63.5544 6.44138C63.4466 6.35297 63.3157 6.29729 63.1772 6.28095L58.2138 5.69135L56.1203 1.15335Z" fill="#F2B347"/>
<g clip-path="url(#clip2_463_5586)">
<path fill-rule="evenodd" clip-rule="evenodd" d="M79.4697 1.15335C79.4113 1.02677 79.3178 0.919573 79.2004 0.844437C79.083 0.769301 78.9465 0.72937 78.8071 0.72937C78.6677 0.72937 78.5312 0.769301 78.4138 0.844437C78.2964 0.919573 78.2029 1.02677 78.1445 1.15335L76.0503 5.69208L71.0876 6.28095C70.9492 6.29729 70.8183 6.35297 70.7105 6.44138C70.6027 6.52979 70.5224 6.64723 70.4793 6.77981C70.4362 6.91239 70.4319 7.05455 70.467 7.18947C70.5022 7.3244 70.5752 7.44643 70.6775 7.54114L74.3479 10.9342L73.3738 15.8378C73.3467 15.9745 73.3594 16.1161 73.4102 16.2458C73.4611 16.3756 73.548 16.488 73.6607 16.5699C73.7735 16.6518 73.9073 16.6997 74.0464 16.7079C74.1855 16.7162 74.3241 16.6844 74.4457 16.6164L78.8071 14.1748L83.1685 16.6164C83.2902 16.6847 83.4289 16.7167 83.5683 16.7085C83.7076 16.7004 83.8416 16.6524 83.9545 16.5704C84.0674 16.4884 84.1544 16.3757 84.2052 16.2457C84.2561 16.1158 84.2685 15.9739 84.2412 15.8371L83.267 10.935L86.9367 7.54114C87.039 7.44643 87.1121 7.3244 87.1472 7.18947C87.1823 7.05455 87.1781 6.91239 87.1349 6.77981C87.0918 6.64723 87.0116 6.52979 86.9037 6.44138C86.7959 6.35297 86.6651 6.29729 86.5266 6.28095L81.5632 5.69135L79.4697 1.15335Z" fill="#F2B347"/>
</g>
<g clip-path="url(#clip3_463_5586)">
<path fill-rule="evenodd" clip-rule="evenodd" d="M102.82 1.15335C102.762 1.02677 102.669 0.919573 102.551 0.844437C102.434 0.769301 102.297 0.72937 102.158 0.72937C102.018 0.72937 101.882 0.769301 101.765 0.844437C101.647 0.919573 101.554 1.02677 101.495 1.15335L99.401 5.69208L94.4383 6.28095C94.2999 6.29729 94.169 6.35297 94.0612 6.44138C93.9534 6.52979 93.8731 6.64723 93.83 6.77981C93.7869 6.91239 93.7826 7.05455 93.8177 7.18947C93.8529 7.3244 93.9259 7.44643 94.0282 7.54114L97.6986 10.9342L96.7245 15.8378C96.6974 15.9745 96.7101 16.1161 96.7609 16.2458C96.8118 16.3756 96.8987 16.488 97.0115 16.5699C97.1242 16.6518 97.258 16.6997 97.3971 16.7079C97.5362 16.7162 97.6748 16.6844 97.7964 16.6164L102.158 14.1748L106.519 16.6164C106.641 16.6847 106.78 16.7167 106.919 16.7085C107.058 16.7004 107.192 16.6524 107.305 16.5704C107.418 16.4884 107.505 16.3757 107.556 16.2457C107.607 16.1158 107.619 15.9739 107.592 15.8371L106.618 10.935L110.287 7.54114C110.39 7.44643 110.463 7.3244 110.498 7.18947C110.533 7.05455 110.529 6.91239 110.486 6.77981C110.442 6.64723 110.362 6.52979 110.254 6.44138C110.147 6.35297 110.016 6.29729 109.877 6.28095L104.914 5.69135L102.82 1.15335Z" fill="#F2B347"/>
</g>
<defs>
<clipPath id="clip0_463_5586">
<rect width="17.5128" height="17.5128" fill="white"/>
</clipPath>
<clipPath id="clip1_463_5586">
<rect width="17.5128" height="17.5128" fill="white" transform="translate(23.3503)"/>
</clipPath>
<clipPath id="clip2_463_5586">
<rect width="17.5128" height="17.5128" fill="white" transform="translate(70.051)"/>
</clipPath>
<clipPath id="clip3_463_5586">
<rect width="17.5128" height="17.5128" fill="white" transform="translate(93.4016)"/>
</clipPath>
</defs>
</svg>
