<svg width="24" height="25" viewBox="0 0 24 25" fill="none" xmlns="http://www.w3.org/2000/svg">
<path d="M7.72739 7.24819L9.14161 8.66241M16.2127 15.7335L17.6269 17.1477M11.97 11.4908L13.3842 12.905M2.77765 17.8548C3.34025 17.2922 4.10332 16.9761 4.89897 16.9761C5.69462 16.9761 6.45768 17.2922 7.02029 17.8548C7.5829 18.4174 7.89897 19.1805 7.89897 19.9761C7.89897 20.7718 7.5829 21.5348 7.02029 22.0974L8.4345 23.5116C8.80957 23.8867 9.31828 24.0974 9.84871 24.0974C10.3791 24.0974 10.8879 23.8867 11.2629 23.5116L22.5766 12.1979C22.9517 11.8229 23.1624 11.3142 23.1624 10.7837C23.1624 10.2533 22.9517 9.74459 22.5766 9.36951L21.1624 7.9553C20.5998 8.51791 19.8368 8.83398 19.0411 8.83398C18.2455 8.83398 17.4824 8.51791 16.9198 7.9553C16.3572 7.39269 16.0411 6.62963 16.0411 5.83398C16.0411 5.03833 16.3572 4.27527 16.9198 3.71266L15.5056 2.29845C15.1305 1.92337 14.6218 1.71266 14.0914 1.71266C13.5609 1.71266 13.0522 1.92337 12.6771 2.29845L1.36343 13.6122C0.98836 13.9872 0.777646 14.4959 0.777646 15.0264C0.777646 15.5568 0.98836 16.0655 1.36343 16.4406L2.77765 17.8548Z" stroke="#7C3AED" stroke-width="1.5" stroke-linecap="round" stroke-linejoin="round"/>
</svg>
