<svg width="20" height="16" viewBox="0 0 20 16" fill="none" xmlns="http://www.w3.org/2000/svg">
<path d="M5.77539 0C6.68587 0.000185396 7.42383 0.73889 7.42383 1.64941C7.42377 2.55989 6.68583 3.29767 5.77539 3.29785H4.6709L11.0576 13.2539C11.5498 14.0211 11.3264 15.041 10.5586 15.5322C9.79076 16.0234 8.76952 15.7994 8.27734 15.0322L0.289062 2.58203C0.217862 2.47845 0.159575 2.36588 0.113281 2.24707C0.110351 2.23957 0.107306 2.23213 0.104492 2.22461C0.0887567 2.1824 0.0747941 2.13947 0.0625 2.0957C0.059751 2.08596 0.05725 2.07617 0.0546875 2.06641C0.0302881 1.97291 0.0134829 1.87653 0.00585938 1.77734C0.00485021 1.76433 0.00460474 1.75129 0.00390625 1.73828C0.0023381 1.70882 1.94258e-06 1.67926 0 1.64941C0 1.64031 0.000829648 1.63114 0.000976562 1.62207C0.00121409 1.60805 0.0023359 1.59407 0.00292969 1.58008C0.018467 1.20429 0.157692 0.860687 0.383789 0.59082C0.392793 0.580059 0.402803 0.570128 0.412109 0.55957C0.438939 0.529152 0.466141 0.499064 0.495117 0.470703C0.501369 0.464591 0.508284 0.45915 0.514648 0.453125C0.586119 0.385355 0.66339 0.323733 0.746094 0.269531C0.750996 0.266322 0.755795 0.262931 0.760742 0.259766C0.77093 0.253248 0.781717 0.247477 0.791992 0.241211C0.827909 0.219316 0.86469 0.198844 0.902344 0.179688C0.908448 0.176573 0.914771 0.17393 0.920898 0.170898C0.961451 0.150902 1.00257 0.131911 1.04492 0.115234C1.05884 0.109724 1.07291 0.104717 1.08691 0.0996094C1.12319 0.0864607 1.15986 0.074101 1.19727 0.0634766C1.21736 0.0577253 1.2376 0.0528112 1.25781 0.0478516C1.28527 0.0411756 1.31284 0.0345786 1.34082 0.0292969C1.37194 0.0233522 1.40331 0.0197459 1.43457 0.015625C1.45632 0.0128049 1.478 0.00880013 1.5 0.00683594C1.53678 0.00348224 1.57357 0.00185762 1.61035 0.000976562C1.62301 0.00068892 1.63571 6.54606e-07 1.64844 0H5.77539ZM18.2021 0.00195312C18.2386 0.0028302 18.2751 0.00353207 18.3115 0.00683594C18.3339 0.00880824 18.3559 0.0127712 18.3779 0.015625C18.4086 0.0196634 18.4392 0.0235091 18.4697 0.0292969C18.4991 0.0347868 18.5279 0.0418078 18.5566 0.0488281C18.5762 0.053643 18.5958 0.0579237 18.6152 0.0634766C18.6551 0.0747707 18.6939 0.0883888 18.7324 0.102539C18.7425 0.106246 18.7527 0.109367 18.7627 0.113281C18.8047 0.129652 18.8455 0.148334 18.8857 0.167969C18.8938 0.171933 18.9021 0.17558 18.9102 0.179688C19.4458 0.451998 19.8135 1.00733 19.8135 1.64941C19.8135 1.99927 19.7034 2.32298 19.5176 2.58984L13.8281 11.459L11.8672 8.40234L15.1426 3.29785H14.0381C13.1275 3.29785 12.3897 2.56 12.3896 1.64941C12.3896 0.738776 13.1274 0 14.0381 0H18.165C18.1775 3.4906e-06 18.1898 0.00167685 18.2021 0.00195312Z" fill="#002852"/>
</svg>
