<svg width="140" height="141" viewBox="0 0 140 141" fill="none" xmlns="http://www.w3.org/2000/svg">
<rect x="12" y="12.5" width="112" height="112" rx="54.4444" fill="#754FE1"/>
<path d="M67.9918 66.0954C62.7887 66.0954 58.392 63.1643 58.392 59.6956C58.392 56.2269 62.7887 53.2957 67.9918 53.2957C70.9357 53.2957 73.662 54.2173 75.4668 55.8173C76.7851 56.9884 78.8011 56.8796 79.985 55.5485C81.1626 54.2301 81.041 52.2078 79.7162 51.0302C77.4763 49.0399 74.4684 47.6959 71.1917 47.1647V43.696C71.1917 41.9297 69.7581 40.4961 67.9918 40.4961C66.2254 40.4961 64.7918 41.9297 64.7918 43.696V47.1519C57.496 48.3423 51.9922 53.5133 51.9922 59.6956C51.9922 66.7546 59.1728 72.4952 67.9918 72.4952C73.1948 72.4952 77.5915 75.4263 77.5915 78.895C77.5915 82.3638 73.1948 85.2949 67.9918 85.2949C65.0478 85.2949 62.3215 84.3733 60.5168 82.7733C59.1984 81.5958 57.176 81.711 55.9985 83.0421C54.8209 84.3605 54.9425 86.3828 56.2673 87.5604C58.5072 89.5572 61.5151 90.8947 64.7918 91.4323V94.8946C64.7918 96.661 66.2254 98.0945 67.9918 98.0945C69.7581 98.0945 71.1917 96.661 71.1917 94.8946V91.4387C78.4875 90.2483 83.9913 85.0773 83.9913 78.895C83.9913 71.836 76.8107 66.0954 67.9918 66.0954Z" fill="white"/>
<path d="M67.9996 66.0993C62.7965 66.0993 58.3998 63.1682 58.3998 59.6995C58.3998 56.2308 62.7965 53.2997 67.9996 53.2997C70.9435 53.2997 73.6698 54.2212 75.4746 55.8212C76.7929 56.9924 78.8089 56.8836 79.9928 55.5524C81.1704 54.234 81.0488 52.2117 79.724 51.0341C77.4841 49.0438 74.4762 47.6998 71.1995 47.1686V43.6999C71.1995 41.9336 69.7659 40.5 67.9996 40.5C66.2332 40.5 64.7997 41.9336 64.7997 43.6999V47.1558C57.5039 48.3462 52 53.5172 52 59.6995C52 66.7585 59.1806 72.4991 67.9996 72.4991C73.2026 72.4991 77.5993 75.4302 77.5993 78.899C77.5993 82.3677 73.2026 85.2988 67.9996 85.2988C65.0556 85.2988 62.3293 84.3772 60.5246 82.7772C59.2062 81.5997 57.1839 81.7149 56.0063 83.046C54.8287 84.3644 54.9503 86.3868 56.2751 87.5643C58.515 89.5611 61.5229 90.8986 64.7997 91.4362V94.8985C64.7997 96.6649 66.2332 98.0984 67.9996 98.0984C69.7659 98.0984 71.1995 96.6649 71.1995 94.8985V91.4426C78.4953 90.2522 83.9991 85.0812 83.9991 78.899C83.9991 71.8399 76.8185 66.0993 67.9996 66.0993Z" fill="white"/>
</svg>
