<svg width="27" height="27" viewBox="0 0 27 27" fill="none" xmlns="http://www.w3.org/2000/svg">
<path d="M17.1376 11.8313C18.7871 11.6443 19.9576 10.163 19.7706 8.51352C19.5836 6.86409 18.111 5.68248 16.4616 5.86952C14.8122 6.05655 13.6317 7.539 13.8187 9.18843C14.0058 10.8379 15.4882 12.0183 17.1376 11.8313ZM9.18859 12.7327C10.838 12.5456 12.0086 11.0643 11.8215 9.4149C11.6345 7.76547 10.162 6.58386 8.51255 6.77089C6.86313 6.95793 5.68264 8.44037 5.86967 10.0898C6.05671 11.7392 7.53916 12.9197 9.18859 12.7327ZM9.41393 14.7199C7.09877 14.9825 2.59033 16.6712 2.85286 18.9864L3.02186 20.4768C3.08383 21.0233 3.58167 21.4197 4.12817 21.3578L16.0518 20.0057C16.5983 19.9437 16.9947 19.4459 16.9327 18.8994L16.7637 17.409C16.5012 15.0938 11.7291 14.4574 9.41393 14.7199ZM17.363 13.8186C17.0748 13.8512 16.7492 13.9083 16.4048 13.9775C16.4258 13.9852 16.438 14.004 16.4491 14.0128C17.6753 14.7091 18.5853 15.723 18.751 17.1836L18.92 18.6741C18.9594 19.0218 18.9282 19.3676 18.8538 19.688L24.0008 19.1043C24.5473 19.0424 24.9437 18.5445 24.8818 17.998L24.7128 16.5076C24.4502 14.1924 19.6782 13.556 17.363 13.8186Z" fill="white"/>
</svg>
