<svg width="145" height="144" viewBox="0 0 145 144" fill="none" xmlns="http://www.w3.org/2000/svg">
<path d="M139.986 0H4.96552C2.48115 0 0.464844 2.0163 0.464844 4.50068V67.5102C0.464844 69.9946 2.48115 72.0109 4.96552 72.0109H21.51C25.0926 65.7369 27.4959 59.67 28.9721 54.0082H27.4689C22.5002 54.0082 18.4676 49.9755 18.4676 45.0068V27.0041C18.4676 22.0353 22.5002 18.0027 27.4689 18.0027H117.483C122.451 18.0027 126.484 22.0353 126.484 27.0041V45.0068C126.484 49.1474 123.63 52.4779 119.832 53.5311C118.779 59.373 117.041 65.5749 114.476 72.0109H139.986C142.47 72.0109 144.487 69.9946 144.487 67.5102V4.50068C144.487 2.0163 142.47 0 139.986 0Z" fill="white"/>
<path d="M111.681 27H39.5976C41.1909 38.7018 40.8038 57.8747 28.1389 78.6588C5.06843 116.501 18.4985 140.732 19.0745 141.749C19.4699 142.436 20.0391 143.006 20.7249 143.403C21.4107 143.799 22.1889 144.008 22.9811 144.009H85.9907C87.5839 144.009 89.0511 143.145 89.8612 141.776C90.6714 140.408 90.6894 138.689 89.9153 137.294C89.4472 136.457 78.7356 116.339 98.8356 83.3485C112.527 60.8901 113.328 40.304 111.681 27ZM54.4769 40.502C54.4769 38.0177 56.4932 36.0014 58.9776 36.0014C61.4619 36.0014 63.4783 38.0177 63.4783 40.502V49.5034C63.4783 51.9878 61.4619 54.0041 58.9776 54.0041C56.4932 54.0041 54.4769 51.9878 54.4769 49.5034V40.502ZM72.4796 121.514C72.4796 123.999 70.4633 126.015 67.9789 126.015C65.4946 126.015 63.4783 123.999 63.4783 121.514V112.513C63.4783 110.029 65.4946 108.012 67.9789 108.012C70.4633 108.012 72.4796 110.029 72.4796 112.513V121.514ZM63.4783 96.7605C56.0341 96.7605 49.9762 89.6945 49.9762 81.0082C49.9762 72.3218 56.0341 65.2558 63.4783 65.2558C70.9224 65.2558 76.9803 72.3218 76.9803 81.0082C76.9803 89.6945 70.9224 96.7605 63.4783 96.7605Z" fill="white"/>
</svg>
