<svg width="177" height="183" viewBox="0 0 177 183" fill="none" xmlns="http://www.w3.org/2000/svg">
<path fill-rule="evenodd" clip-rule="evenodd" d="M71.675 0H102.329C104.53 0 106.33 1.80061 106.33 4.00167V34.6552C106.33 36.8562 104.529 38.6568 102.329 38.6568H71.675C69.474 38.6568 67.6737 36.8562 67.6737 34.6552V4.00167C67.6737 1.80096 69.4743 0 71.675 0ZM112.04 23.8258V29.869C124.325 34.486 135.001 42.4087 142.986 52.5574C152.51 64.6627 158.192 79.938 158.192 96.544C158.192 116.203 150.224 134.001 137.341 146.883C124.458 159.766 106.661 167.734 87.0021 167.734H3.32012C2.56285 167.734 1.8366 168.035 1.30113 168.57C0.765666 169.106 0.464844 169.832 0.464844 170.589C0.464844 171.347 0.765666 172.073 1.30113 172.608C1.8366 173.144 2.56285 173.445 3.32012 173.445H87.0018C108.237 173.445 127.462 164.837 141.379 150.921C155.295 137.004 163.903 117.779 163.903 96.544C163.903 78.6146 157.762 62.1147 147.469 49.0329C138.427 37.5401 126.167 28.688 112.04 23.8258ZM164.853 181.469C164.257 181.917 163.51 182.113 162.77 182.015C162.031 181.918 161.36 181.534 160.901 180.946C160.442 180.359 160.232 179.615 160.317 178.874C160.401 178.133 160.772 177.455 161.351 176.985L165.885 173.445H136.704C135.946 173.445 135.22 173.144 134.685 172.608C134.149 172.073 133.848 171.347 133.848 170.589C133.848 169.832 134.149 169.106 134.685 168.57C135.22 168.035 135.946 167.734 136.704 167.734H165.885L161.351 164.194C160.765 163.726 160.386 163.047 160.298 162.302C160.21 161.557 160.42 160.808 160.882 160.217C161.343 159.626 162.019 159.242 162.763 159.147C163.507 159.051 164.258 159.254 164.853 159.71L175.872 168.314C176.221 168.576 176.505 168.916 176.702 169.306C176.899 169.695 177.004 170.125 177.008 170.562C177.012 170.999 176.915 171.431 176.726 171.824C176.536 172.218 176.259 172.562 175.914 172.831L164.853 181.469ZM41.6404 151.418C42.2232 151.9 42.5905 152.594 42.6617 153.347C42.7328 154.1 42.5019 154.851 42.0198 155.433C41.5376 156.016 40.8437 156.383 40.0907 156.455C39.3377 156.526 38.5873 156.295 38.0046 155.813C29.326 148.63 22.2499 139.573 17.3948 129.26C12.7165 119.322 10.101 108.232 10.101 96.5443C10.101 78.9237 16.0382 62.6779 26.0238 49.6971C35.1172 37.8759 47.574 28.7737 61.9632 23.8198V29.8744C49.4224 34.5863 38.5613 42.736 30.5298 53.177C21.2998 65.1756 15.8116 80.2132 15.8116 96.544C15.8116 107.385 18.2271 117.649 22.5475 126.828C27.0407 136.373 33.5964 144.761 41.6404 151.418ZM86.9971 100.519C73.2151 100.519 61.5224 109.475 57.4144 121.881C51.6039 115.084 48.0937 106.262 48.0937 96.6182C48.0937 75.1326 65.5112 57.7151 86.9968 57.7151C108.482 57.7151 125.9 75.1326 125.9 96.6182C125.9 106.262 122.39 115.084 116.579 121.881C112.474 109.473 100.782 100.519 86.9971 100.519ZM86.9968 52.0045C111.636 52.0045 131.61 71.9786 131.61 96.6182C131.61 121.258 111.636 141.232 86.9968 141.232C62.3572 141.232 42.3831 121.258 42.3831 96.6182C42.3831 71.9786 62.3572 52.0045 86.9968 52.0045ZM86.9971 67.0615C95.6968 67.0615 102.749 74.114 102.749 82.8137C102.749 91.5133 95.6964 98.5655 86.9971 98.5655C78.2975 98.5655 71.2449 91.513 71.2449 82.8137C71.2453 74.114 78.2978 67.0615 86.9971 67.0615ZM76.8291 20.5544L83.5487 27.2739C83.8329 27.5582 84.174 27.7792 84.5496 27.9226C84.9252 28.0659 85.3268 28.1283 85.7282 28.1057C86.1296 28.0831 86.5216 27.976 86.8788 27.7914C87.2359 27.6068 87.55 27.3488 87.8005 27.0345L97.3757 15.1972C97.6116 14.9057 97.7877 14.5707 97.894 14.2111C98.0004 13.8516 98.0348 13.4746 97.9954 13.1017C97.9561 12.7289 97.8436 12.3674 97.6645 12.038C97.4854 11.7086 97.2432 11.4177 96.9517 11.182C96.6602 10.9462 96.3251 10.7701 95.9656 10.6638C95.6061 10.5574 95.2291 10.523 94.8563 10.5624C94.4834 10.6017 94.122 10.7142 93.7926 10.8932C93.4632 11.0723 93.1723 11.3145 92.9365 11.606L85.3429 20.9934L80.8665 16.5167C80.6028 16.2452 80.2878 16.0288 79.9397 15.8802C79.5917 15.7316 79.2175 15.6536 78.8391 15.6508C78.4606 15.6481 78.0854 15.7206 77.7352 15.8642C77.385 16.0078 77.0669 16.2195 76.7992 16.4871C76.5316 16.7548 76.3199 17.0729 76.1764 17.4231C76.0328 17.7733 75.9603 18.1486 75.9631 18.527C75.9659 18.9055 76.0439 19.2796 76.1926 19.6277C76.3412 19.9757 76.5576 20.2907 76.8291 20.5544Z" fill="white"/>
</svg>
