<svg width="42" height="42" viewBox="0 0 42 42" fill="none" xmlns="http://www.w3.org/2000/svg">
<rect width="42" height="42" rx="4" fill="#002852"/>
<path d="M22.8779 27.9807L14.3832 14.7965H16.6931C17.3638 14.7965 17.9057 13.9785 17.9057 12.9764C17.9057 11.9743 17.3638 11.1562 16.6931 11.1562H10.969C10.6439 11.1699 10.3187 11.2585 10.0274 11.4494C9.17389 12.0084 8.93002 13.1536 9.4855 14.0194L19.7821 29.9985C20.3376 30.8574 21.4756 31.1029 22.336 30.5439C23.1895 29.9917 23.4334 28.8396 22.8779 27.9807Z" fill="white"/>
<path d="M32.5781 11.4557C32.2868 11.2648 31.9616 11.1694 31.6432 11.1626H25.9191C25.2485 11.1626 24.7066 11.9806 24.7066 12.9827C24.7066 13.9848 25.2485 14.8029 25.9191 14.8029H28.2223L23.2772 22.4857L25.4178 25.9828L33.12 14.0257C33.6755 13.16 33.4316 12.0147 32.5781 11.4557Z" fill="#E6E7E8"/>
</svg>
