<svg width="172" height="144" viewBox="0 0 172 144" fill="none" xmlns="http://www.w3.org/2000/svg">
<path d="M170.376 54.1373L140.054 2.46921C138.664 0.100431 135.622 -0.702936 133.244 0.670552L115.072 11.1623L98.7031 5.14155C98.1041 4.92219 97.4942 4.73401 96.8758 4.57776C92.2672 3.4062 87.382 4.06362 83.2135 6.47039L56.156 22.0922C50.1795 25.5426 48.132 33.1848 51.5823 39.1612C55.0327 45.1376 62.6749 47.1852 68.6513 43.7348L98.3426 26.5922C99.8622 25.7149 101.586 25.253 103.341 25.253C105.095 25.253 106.819 25.7149 108.339 26.5922C108.339 26.5922 168.159 61.141 168.351 61.2596L169.242 60.5259C170.16 59.77 170.779 58.7116 170.987 57.5406C171.195 56.3696 170.978 55.1629 170.376 54.1373Z" fill="white"/>
<path d="M162.779 69.5533L103.345 35.2394L73.6535 52.3817C70.1881 54.3826 66.3415 55.4046 62.4443 55.4046C60.4662 55.4031 58.4968 55.1424 56.5865 54.6289C50.7833 53.0738 45.9328 49.3522 42.9293 44.1491C39.9254 38.9467 39.1277 32.8853 40.6828 27.0822C41.9663 22.2913 44.7299 18.1532 48.5815 15.1639L36.3267 8.08857C33.8833 6.67777 30.7568 7.5681 29.423 10.0545L1.05921 62.9355C-0.216644 65.3142 0.626708 68.2768 2.96484 69.6263L5.56287 71.1261L10.1228 63.2277C13.9058 56.6751 20.9588 52.6046 28.5293 52.6046C32.2547 52.6074 35.9139 53.5896 39.14 55.4526C40.9696 56.5063 42.6324 57.8261 44.0738 59.3688C46.4017 58.5169 48.861 58.0804 51.3398 58.0789C55.0652 58.0818 58.7244 59.0639 61.9505 60.9269C66.864 63.7635 70.379 68.3444 71.8475 73.8251C72.0065 74.4243 72.1397 75.0301 72.2467 75.6407C74.2999 76.1147 76.2713 76.891 78.0965 77.9442C83.0103 80.7808 86.5253 85.3618 87.9938 90.8424C88.1528 91.4416 88.286 92.0474 88.393 92.658C90.4461 93.1319 92.4174 93.9081 94.2425 94.9612C104.386 100.818 107.874 113.835 102.018 123.978L95.7916 134.763L109.138 142.469C114.517 145.574 121.395 143.731 124.5 138.353C127.606 132.974 125.763 126.096 120.384 122.99L129.041 127.989C134.42 131.094 141.298 129.251 144.403 123.872C147.509 118.494 145.666 111.616 140.287 108.51L146.058 111.842C151.437 114.948 158.315 113.105 161.42 107.726C164.526 102.347 162.683 95.469 157.304 92.3638L151.533 89.0317C156.911 92.1372 163.789 90.2943 166.895 84.9153C170 79.5366 168.157 72.6588 162.779 69.5533Z" fill="white"/>
<path d="M89.2393 103.619C83.8606 100.514 76.9828 102.357 73.8773 107.735L77.2094 101.964C80.3149 96.5853 78.472 89.7076 73.0933 86.6021C67.7146 83.4966 60.8369 85.3395 57.7314 90.7182L61.0634 84.9467C64.169 79.568 62.326 72.6903 56.9473 69.5847C51.5687 66.4792 44.6909 68.3222 41.5854 73.7009L38.2533 79.4721C41.3585 74.0934 39.5158 67.2156 34.1368 64.1101C28.7582 61.0046 21.8804 62.8476 18.7749 68.2263L6.69606 89.1475C3.59055 94.5261 5.43353 101.404 10.8122 104.509C16.1909 107.615 23.069 105.772 26.1741 100.393C23.0686 105.772 24.9116 112.65 30.2903 115.755C35.6689 118.86 42.547 117.017 45.6522 111.638C42.5467 117.017 44.3897 123.895 49.7687 127C55.1473 130.106 62.0251 128.263 65.1306 122.884C62.0251 128.263 63.8681 135.141 69.2467 138.246C74.6254 141.351 81.5035 139.508 84.6087 134.129L93.3554 118.98C96.4612 113.602 94.6183 106.724 89.2393 103.619Z" fill="white"/>
</svg>
