<svg width="130" height="40" viewBox="0 0 130 40" fill="none" xmlns="http://www.w3.org/2000/svg">
<g clip-path="url(#clip0_722_1635)">
<path d="M80.6307 30.968C73.0852 36.496 62.1485 39.4454 52.7322 39.4454C39.529 39.4454 27.6427 34.5916 18.6503 26.5187C17.9438 25.8838 18.5768 25.0187 19.4246 25.513C29.1292 31.1253 41.1285 34.5017 53.5235 34.5017C61.8828 34.5017 71.0787 32.7826 79.5342 29.2152C80.8116 28.6759 81.8798 30.0467 80.6307 30.968Z" fill="#FF9900"/>
<path d="M83.7688 27.4005C82.808 26.1758 77.3933 26.8218 74.9629 27.1084C74.2225 27.1982 74.1095 26.5578 74.7764 26.0971C79.0889 23.0803 86.1653 23.9511 86.9905 24.9623C87.8157 25.9792 86.7757 33.0296 82.7232 36.3947C82.1015 36.9116 81.508 36.6363 81.7849 35.9509C82.6949 33.6925 84.7353 28.6308 83.7688 27.4005Z" fill="#FF9900"/>
<path d="M75.1326 4.80008V1.86754C75.1326 1.42372 75.4717 1.12598 75.8787 1.12598H89.0875C89.5114 1.12598 89.8505 1.42934 89.8505 1.86754V4.37874C89.8449 4.80008 89.4888 5.35063 88.8558 6.22141L82.0111 15.9347C84.5546 15.873 87.2393 16.2493 89.5453 17.5415C90.0653 17.8336 90.2066 18.2606 90.2462 18.6819V21.8111C90.2462 22.238 89.7714 22.738 89.274 22.4796C85.2102 20.3616 79.8125 20.1313 75.3191 22.5021C74.8613 22.7493 74.3809 22.2549 74.3809 21.8279V18.8561C74.3809 18.3785 74.3865 17.5639 74.8669 16.8392L82.7968 5.53602H75.8956C75.4717 5.53602 75.1326 5.23828 75.1326 4.80008Z" fill="#221F1F"/>
<path d="M26.9493 23.0975H22.9307C22.5464 23.0694 22.2412 22.7829 22.2129 22.4177V1.91804C22.2129 1.50793 22.5577 1.18209 22.9872 1.18209H26.7345C27.1245 1.19893 27.4354 1.49669 27.4637 1.86747V4.54721H27.5371C28.5149 1.95736 30.3518 0.749512 32.8275 0.749512C35.3426 0.749512 36.9139 1.95736 38.0443 4.54721C39.0165 1.95736 41.2264 0.749512 43.5946 0.749512C45.2789 0.749512 47.1215 1.44051 48.2463 2.99105C49.518 4.71575 49.258 7.22133 49.258 9.41793L49.2523 22.3559C49.2523 22.766 48.9076 23.0975 48.478 23.0975H44.465C44.0637 23.0694 43.7416 22.7492 43.7416 22.3559V11.4909C43.7416 10.6258 43.8207 8.4685 43.6285 7.64829C43.329 6.27191 42.4303 5.88427 41.266 5.88427C40.2938 5.88427 39.2764 6.53033 38.8638 7.56402C38.4512 8.59771 38.4908 10.328 38.4908 11.4909V22.3559C38.4908 22.766 38.146 23.0975 37.7165 23.0975H33.7035C33.2966 23.0694 32.9801 22.7492 32.9801 22.3559L32.9744 11.4909C32.9744 9.20445 33.3531 5.83932 30.4988 5.83932C27.6106 5.83932 27.7236 9.12017 27.7236 11.4909V22.3559C27.7236 22.766 27.3789 23.0975 26.9493 23.0975Z" fill="#221F1F"/>
<path d="M101.223 0.749512C107.186 0.749512 110.413 5.83932 110.413 12.3111C110.413 18.5639 106.847 23.5245 101.223 23.5245C95.3675 23.5245 92.1797 18.4346 92.1797 12.092C92.1797 5.71011 95.407 0.749512 101.223 0.749512ZM101.257 4.93485C98.2952 4.93485 98.1087 8.94602 98.1087 11.446C98.1087 13.9516 98.0691 19.2998 101.223 19.2998C104.337 19.2998 104.484 14.9853 104.484 12.3561C104.484 10.6258 104.411 8.55839 103.885 6.91796C103.433 5.49102 102.534 4.93485 101.257 4.93485Z" fill="#221F1F"/>
<path d="M118.145 23.0975H114.143C113.742 23.0694 113.42 22.7492 113.42 22.3559L113.414 1.85062C113.448 1.47422 113.781 1.18209 114.188 1.18209H117.913C118.264 1.19893 118.552 1.4349 118.631 1.75512V4.8899H118.704C119.829 2.08657 121.406 0.749512 124.181 0.749512C125.984 0.749512 127.742 1.39557 128.872 3.16521C129.924 4.80563 129.924 7.56402 129.924 9.54713V22.4514C129.879 22.811 129.545 23.0975 129.149 23.0975H125.119C124.752 23.0694 124.447 22.7998 124.407 22.4514V11.3168C124.407 9.07523 124.667 5.79438 121.892 5.79438C120.914 5.79438 120.016 6.44606 119.569 7.43481C119.004 8.6876 118.93 9.93477 118.93 11.3168V22.3559C118.925 22.766 118.574 23.0975 118.145 23.0975Z" fill="#221F1F"/>
<path d="M64.6028 13.3054V12.4402C61.6976 12.4402 58.6286 13.0582 58.6286 16.4626C58.6286 18.1873 59.5272 19.3558 61.0702 19.3558C62.2007 19.3558 63.2124 18.6648 63.8511 17.5413C64.6423 16.1592 64.6028 14.8615 64.6028 13.3054ZM68.6553 23.0412C68.3897 23.2771 68.0053 23.294 67.7058 23.1367C66.3719 22.0356 66.1345 21.5243 65.3997 20.4738C63.1954 22.7097 61.6354 23.3782 58.7755 23.3782C55.3956 23.3782 52.7617 21.3052 52.7617 17.1536C52.7617 13.9121 54.5308 11.7043 57.046 10.6256C59.2277 9.67058 62.2741 9.50204 64.6028 9.238V8.72116C64.6028 7.77173 64.6763 6.64815 64.1167 5.82794C63.625 5.09199 62.6867 4.78863 61.8615 4.78863C60.3298 4.78863 58.962 5.56951 58.6286 7.18747C58.5607 7.54702 58.2951 7.90094 57.9333 7.9178L54.0334 7.50207C53.7056 7.42904 53.3439 7.165 53.4343 6.66501C54.333 1.96845 58.6003 0.552734 62.4211 0.552734C64.3767 0.552734 66.9314 1.06958 68.4744 2.54147C70.43 4.35605 70.2435 6.77736 70.2435 9.41216V15.6368C70.2435 17.5075 71.0235 18.3278 71.7583 19.339C72.0183 19.6985 72.0748 20.1311 71.747 20.4008C70.9274 21.0805 69.4692 22.3446 68.6666 23.0524L68.6553 23.0412Z" fill="#221F1F"/>
<path d="M11.9192 13.3054V12.4402C9.01402 12.4402 5.94496 13.0582 5.94496 16.4626C5.94496 18.1873 6.84363 19.3558 8.38664 19.3558C9.51706 19.3558 10.5288 18.6648 11.1675 17.5413C11.9587 16.1592 11.9192 14.8615 11.9192 13.3054ZM15.9717 23.0412C15.7061 23.2771 15.3217 23.294 15.0222 23.1367C13.6883 22.0356 13.4509 21.5243 12.7161 20.4738C10.5118 22.7097 8.95185 23.3782 6.09191 23.3782C2.71198 23.3782 0.078125 21.3052 0.078125 17.1536C0.078125 13.9121 1.84722 11.7043 4.36238 10.6256C6.54408 9.67058 9.59053 9.50204 11.9192 9.238V8.72116C11.9192 7.77173 11.9927 6.64815 11.4331 5.82794C10.9414 5.09199 10.0031 4.78863 9.17793 4.78863C7.64623 4.78863 6.27843 5.56951 5.94496 7.18747C5.87713 7.54702 5.61149 7.90094 5.24976 7.9178L1.34984 7.50207C1.02202 7.42904 0.660286 7.165 0.750719 6.66501C1.6494 1.96845 5.9167 0.552734 9.73749 0.552734C11.6931 0.552734 14.2478 1.06958 15.7908 2.54147C17.7465 4.35605 17.5599 6.77736 17.5599 9.41216V15.6368C17.5599 17.5075 18.3399 18.3278 19.0747 19.339C19.3347 19.6985 19.3912 20.1311 19.0634 20.4008C18.2438 21.0805 16.7856 22.3446 15.983 23.0524L15.9717 23.0412Z" fill="#221F1F"/>
</g>
<defs>
<clipPath id="clip0_722_1635">
<rect width="130" height="39" fill="white" transform="translate(0 0.5)"/>
</clipPath>
</defs>
</svg>
