<svg width="120" height="26" viewBox="0 0 120 26" fill="none" xmlns="http://www.w3.org/2000/svg">
<g clip-path="url(#clip0_1093_5836)">
<path d="M8.3561 3.02C8.3561 2.22001 7.95437 1.62002 6.18673 1.62002C4.41909 1.62002 4.01736 2.22001 4.01736 3.02V5.17997C4.01736 5.89997 4.31866 6.57996 4.88109 7.03995L10.8469 12.1799C11.6704 12.7599 12.1726 13.6999 12.2329 14.6999V17.9598C12.2329 19.8998 9.94296 20.9798 6.14656 20.9798C2.00868 20.9598 0 20.0198 0 17.9398V15.1399H3.77632V17.8398C3.77632 18.8198 4.51953 19.3798 6.18673 19.3798C7.73341 19.3798 8.47663 18.8198 8.47663 17.8398V14.9399C8.47663 14.2199 8.19541 13.6799 7.39194 12.9799L1.8279 8.15994C0.803472 7.29995 0.220955 6.59996 0.220955 5.53997V3.06C0.220955 1.04003 2.35015 0.0400391 6.18673 0.0400391C10.425 0.0400391 12.1324 1.04003 12.1324 2.92V5.53997H8.3561V3.02Z" fill="#5A2A82"/>
<path d="M44.796 3.46044C44.796 1.44047 46.3226 0.000488281 51.4247 0.000488281C56.5267 0.000488281 58.0533 1.46047 58.0533 3.46044V17.4403C58.0533 19.4602 56.5066 20.9002 51.4046 20.9002C46.3025 20.9002 44.7559 19.4402 44.7559 17.4403L44.796 3.46044ZM48.5723 17.3603C48.5723 18.5003 49.0343 19.3002 51.4247 19.3002C53.815 19.3002 54.277 18.5203 54.277 17.3803V3.54044C54.277 2.40046 53.8351 1.60047 51.4247 1.60047C48.9942 1.60047 48.5523 2.40046 48.5523 3.54044V17.3603H48.5723Z" fill="#5A2A82"/>
<path d="M60.1621 0.160156H66.1681C71.0291 0.160156 72.4552 0.960146 72.4552 3.30012V8.34005C72.4552 10.68 71.0291 11.48 66.1681 11.48H63.9384V20.7599H60.1621V0.160156ZM65.7663 9.88003C67.4737 9.88003 68.6789 9.66004 68.6789 8.58005V3.04012C68.6789 1.98013 67.4737 1.74014 65.7663 1.74014H63.9384V9.88003H65.7663Z" fill="#5A2A82"/>
<path d="M81.8957 3.00045C81.8957 2.20046 81.494 1.60047 79.7263 1.60047C77.9587 1.60047 77.557 2.20046 77.557 3.00045V5.16042C77.557 5.88041 77.8784 6.56041 78.4207 7.0204L84.4267 12.1403C85.2301 12.7403 85.7323 13.6603 85.7926 14.6403V17.8803C85.7926 19.8202 83.5027 20.9002 79.7063 20.9002C75.5282 20.9002 73.5195 19.9602 73.5195 17.8803V15.0803H77.2758V17.7803C77.2758 18.7403 78.019 19.3202 79.6862 19.3202C81.2329 19.3202 81.9761 18.7403 81.9761 17.7803V14.9003C81.9761 14.2003 81.6949 13.6403 80.8914 12.9403L75.3474 8.12039C74.323 7.2604 73.7405 6.56041 73.7405 5.50042V3.02045C73.7606 1.00048 75.8898 0.000488281 79.7263 0.000488281C83.9647 0.000488281 85.672 1.00048 85.672 2.88045V5.50042H81.8957V3.00045Z" fill="#5A2A82"/>
<path d="M109.775 3.00045C109.775 2.20046 109.373 1.60047 107.605 1.60047C105.838 1.60047 105.436 2.20046 105.436 3.00045V5.16042C105.436 5.88041 105.757 6.56041 106.3 7.0204L112.306 12.1403C113.109 12.7403 113.611 13.6603 113.671 14.6403V17.8803C113.671 19.8202 111.382 20.9002 107.585 20.9002C103.407 20.9002 101.398 19.9602 101.398 17.8803V15.0803H105.175V17.7803C105.175 18.7403 105.918 19.3202 107.585 19.3202C109.132 19.3202 109.875 18.7403 109.875 17.7803V14.9003C109.875 14.2003 109.594 13.6403 108.79 12.9403L103.246 8.12039C102.222 7.2604 101.639 6.56041 101.639 5.50042V3.02045C101.639 1.00048 103.749 0.000488281 107.585 0.000488281C111.823 0.000488281 113.531 1.00048 113.531 2.88045V5.50042H109.755V3.00045H109.775Z" fill="#5A2A82"/>
<path d="M23.9437 0.179688H27.72L19.4443 25.9994H15.668L23.9437 0.179688Z" fill="#5A2A82"/>
<path d="M17.9796 16.2195L12.8574 0.219727H16.6337L19.8677 10.2996L17.9796 16.2195Z" fill="#5A2A82"/>
<path d="M97.4222 0.179688H101.219L92.9429 25.9994H89.1465L97.4222 0.179688Z" fill="#5A2A82"/>
<path d="M91.477 16.1595L86.375 0.179688H90.1513L93.3652 10.2596L91.477 16.1595Z" fill="#5A2A82"/>
<path d="M42.4643 20.7599V3.30012C42.4643 0.960146 41.0381 0.160156 36.1771 0.160156H28.9258V20.7399H32.7021V1.78014H35.8156C37.543 1.78014 38.7281 2.00013 38.7281 3.08012V20.7599H42.4643Z" fill="#5A2A82"/>
<path d="M115.12 2.71954C115.1 1.37956 116.184 0.27957 117.53 0.27957C118.876 0.25957 119.981 1.33956 119.981 2.67954C119.981 4.01952 118.916 5.11951 117.57 5.11951C117.57 5.11951 117.57 5.11951 117.55 5.11951C116.224 5.13951 115.12 4.09952 115.1 2.77954C115.12 2.73954 115.12 2.73954 115.12 2.71954ZM117.57 4.71951C118.635 4.71951 119.519 3.85953 119.519 2.79954C119.519 2.77954 119.519 2.75954 119.519 2.71954C119.519 1.63955 118.635 0.779564 117.57 0.779564C116.486 0.779564 115.622 1.65955 115.622 2.71954C115.582 3.77953 116.425 4.67951 117.51 4.71951C117.51 4.71951 117.55 4.71951 117.57 4.71951ZM117.068 4.09952H116.626V1.33956H117.691C118.354 1.33956 118.675 1.57955 118.675 2.11955C118.695 2.51954 118.394 2.85954 117.992 2.87954C117.972 2.87954 117.972 2.87954 117.952 2.87954L118.735 4.09952H118.273L117.53 2.89954H117.048L117.068 4.09952ZM117.57 2.53954C117.932 2.53954 118.253 2.51954 118.253 2.09955C118.253 1.75955 117.932 1.69955 117.651 1.69955H117.068V2.55954L117.57 2.53954Z" fill="#5A2A82"/>
</g>
<defs>
<clipPath id="clip0_1093_5836">
<rect width="119.998" height="25.9997" fill="white" transform="translate(0 0.000488281)"/>
</clipPath>
</defs>
</svg>
