<svg width="110" height="60" viewBox="0 0 110 60" fill="none" xmlns="http://www.w3.org/2000/svg">
<g clip-path="url(#clip0_722_1645)">
<path d="M11.0843 17.7922H18.495L28.9612 42.8454H21.1285L14.5112 26.2104L10.139 37.1271H15.3383L17.4147 42.8454H0.5L11.0843 17.7922ZM37.6886 22.9907C38.4483 22.9907 39.2754 23.0578 40.1026 23.259V17.0544H46.6524V41.7387C45.15 42.4094 41.9089 43.2311 38.6677 43.2311C32.7932 43.2311 27.7458 39.9108 27.7458 33.287C27.7458 26.6631 32.6075 23.0074 37.6886 23.0074V22.9907ZM38.5158 37.865C39.1235 37.865 39.6131 37.7476 40.1026 37.5967V28.5078C39.6131 28.3233 39.1235 28.2394 38.482 28.2394C36.3382 28.2394 34.3462 29.8158 34.3462 33.1361C34.3462 36.4564 36.3719 37.8482 38.5158 37.8482V37.865ZM58.3171 22.9907C63.7696 22.9907 68.4119 26.6464 68.4119 33.0858C68.4119 39.5251 63.7865 43.1808 58.3171 43.1808C52.8477 43.1808 48.1886 39.5251 48.1886 33.0858C48.1886 26.6464 52.7802 22.9907 58.3171 22.9907ZM58.3171 37.7644C60.1909 37.7644 61.9296 36.2719 61.9296 33.0858C61.9296 29.8996 60.1909 28.4071 58.3171 28.4071C56.4433 28.4071 54.7383 29.8996 54.7383 33.0858C54.7383 36.2719 56.3589 37.7644 58.3171 37.7644ZM69.9818 17.0544H76.5654V23.259C77.3588 23.1081 78.1859 22.9907 79.0131 22.9907C84.128 22.9907 88.8715 26.311 88.8715 32.8174C88.8715 39.6928 83.8241 43.1808 77.8483 43.1808C75.2824 43.1808 72.0075 42.661 69.9818 41.7219V17.0376V17.0544ZM78.0002 37.8314C80.2623 37.8314 82.3217 36.2216 82.3217 32.9013C82.3217 29.799 80.296 28.3401 78.1015 28.3401C77.4938 28.3401 77.0043 28.4071 76.5654 28.6084V37.5799C76.9367 37.7308 77.4263 37.8482 78.0002 37.8482V37.8314ZM100.047 22.9907C104.976 22.9907 109.5 26.1265 109.5 32.4485C109.5 33.3037 109.466 34.1254 109.348 34.9471H97.0757C97.7509 37.1607 99.7091 38.2004 102.157 38.2004C104.149 38.2004 105.989 37.7141 108.065 36.8253V41.8058C106.141 42.7784 103.845 43.1808 101.482 43.1808C95.2356 43.1808 90.3739 39.4413 90.3739 33.0858C90.3739 26.7302 94.7799 22.9907 100.047 22.9907ZM103.355 30.8722C103.018 28.7425 101.583 27.8873 100.114 27.8873C98.6456 27.8873 97.447 28.7928 96.9575 30.8722H103.355Z" fill="#EB1000"/>
</g>
<defs>
<clipPath id="clip0_722_1645">
<rect width="109" height="58.6923" fill="white" transform="translate(0.5 0.653809)"/>
</clipPath>
</defs>
</svg>
