<svg width="141" height="41" viewBox="0 0 141 41" fill="none" xmlns="http://www.w3.org/2000/svg">
<path d="M140.131 36.0137C140.131 38.1831 138.337 39.9403 136.118 39.9403H4.80066C2.58289 39.9403 0.782715 38.1831 0.782715 36.0137V4.69985C0.782715 2.53147 2.58289 0.768066 4.80066 0.768066H136.117C138.337 0.768066 140.13 2.53147 140.13 4.69985L140.131 36.0137Z" fill="white"/>
<path d="M135.695 0.815527C138.111 0.815527 140.077 2.73264 140.077 5.08864V35.6199C140.077 37.9759 138.111 39.8931 135.695 39.8931H5.21903C2.80262 39.8931 0.836349 37.9759 0.836349 35.6199V5.08864C0.836349 2.73264 2.80262 0.815527 5.21903 0.815527H135.695ZM135.695 8.7738e-05H5.21903C2.34987 8.7738e-05 0 2.29121 0 5.08864V35.6199C0 38.4174 2.34987 40.7085 5.21903 40.7085H135.695C138.564 40.7085 140.914 38.4174 140.914 35.6199V5.08864C140.914 2.29121 138.564 8.7738e-05 135.695 8.7738e-05Z" fill="#A6A6A6"/>
<path d="M31.4478 20.1344C31.4175 16.8543 34.2024 15.2586 34.3298 15.1843C32.7526 12.9423 30.308 12.6359 29.4489 12.6115C27.3958 12.4008 25.4042 13.8094 24.3583 13.8094C23.2915 13.8094 21.6809 12.6319 19.9451 12.6665C17.7113 12.7 15.6216 13.961 14.4755 15.9191C12.1103 19.9115 13.8743 25.7786 16.1404 29.0058C17.274 30.5863 18.5986 32.351 20.3323 32.2889C22.0285 32.2207 22.6621 31.2346 24.709 31.2346C26.7371 31.2346 27.3321 32.2889 29.1003 32.2492C30.9207 32.2207 32.0668 30.6616 33.1607 29.0669C34.4707 27.2553 34.9967 25.4713 35.0176 25.3797C34.9748 25.3655 31.4823 24.0658 31.4478 20.1344Z" fill="black"/>
<path d="M28.1076 10.4886C29.0199 9.37621 29.6441 7.86287 29.4708 6.32715C28.1504 6.38414 26.4991 7.21765 25.5482 8.30558C24.7069 9.26426 23.9554 10.8356 24.1495 12.3133C25.6328 12.4212 27.1557 11.5836 28.1076 10.4886Z" fill="black"/>
<path d="M51.1985 10.1863C51.1985 11.3841 50.8301 12.2858 50.0942 12.8914C49.4126 13.4501 48.4439 13.73 47.1893 13.73C46.5672 13.73 46.0348 13.7035 45.5891 13.6506V7.10569C46.1705 7.0141 46.7968 6.96729 47.4732 6.96729C48.6683 6.96729 49.5691 7.22069 50.1766 7.72751C50.8572 8.30049 51.1985 9.11974 51.1985 10.1863ZM50.0451 10.2158C50.0451 9.4393 49.8343 8.84394 49.4126 8.42872C48.9909 8.01451 48.375 7.8069 47.564 7.8069C47.2195 7.8069 46.9262 7.82929 46.683 7.8761V12.8517C46.8177 12.872 47.064 12.8812 47.422 12.8812C48.2592 12.8812 48.9053 12.6543 49.3604 12.2004C49.8155 11.7465 50.0451 11.0849 50.0451 10.2158Z" fill="black"/>
<path d="M57.3144 11.2326C57.3144 11.9705 57.0983 12.575 56.6662 13.0492C56.2132 13.5367 55.613 13.78 54.8635 13.78C54.1412 13.78 53.5661 13.5469 53.1371 13.0788C52.7091 12.6116 52.4951 12.0224 52.4951 11.312C52.4951 10.5691 52.7154 9.95948 53.1579 9.48624C53.6005 9.01301 54.1955 8.77588 54.9449 8.77588C55.6672 8.77588 56.2476 9.00893 56.687 9.47606C57.1046 9.92996 57.3144 10.5162 57.3144 11.2326ZM56.1798 11.2672C56.1798 10.8245 56.0816 10.4449 55.8864 10.1284C55.6568 9.74576 55.3301 9.55443 54.9053 9.55443C54.4658 9.55443 54.1318 9.74576 53.9022 10.1284C53.7059 10.4449 53.6089 10.8306 53.6089 11.2866C53.6089 11.7293 53.707 12.1089 53.9022 12.4254C54.1391 12.808 54.469 12.9994 54.8948 12.9994C55.3124 12.9994 55.6401 12.805 55.876 12.4152C56.0785 12.0926 56.1798 11.7099 56.1798 11.2672Z" fill="black"/>
<path d="M65.5144 8.87354L63.9748 13.671H62.9728L62.335 11.5878C62.1732 11.0677 62.0417 10.5507 61.9394 10.0378H61.9196C61.8246 10.565 61.6931 11.0809 61.524 11.5878L60.8465 13.671H59.833L58.3853 8.87354H59.5094L60.0658 11.1542C60.2004 11.6936 60.3111 12.2076 60.3998 12.694H60.4196C60.501 12.293 60.6357 11.7822 60.8257 11.1644L61.524 8.87455H62.4154L63.0845 11.1156C63.2463 11.6621 63.3778 12.1882 63.479 12.695H63.5093C63.5834 12.2014 63.6951 11.6753 63.8433 11.1156L64.4404 8.87455H65.5144V8.87354Z" fill="black"/>
<path d="M71.1855 13.6712H70.0916V10.9234C70.0916 10.0766 69.7618 9.65327 69.1 9.65327C68.7754 9.65327 68.5134 9.76929 68.3099 10.0023C68.1084 10.2354 68.0061 10.5102 68.0061 10.8247V13.6702H66.9122V10.2446C66.9122 9.82323 66.8987 9.36627 66.8726 8.87167H67.8339L67.885 9.62172H67.9153C68.0427 9.38866 68.2326 9.19632 68.4821 9.04264C68.7785 8.86353 69.1105 8.77295 69.4737 8.77295C69.933 8.77295 70.315 8.91746 70.6188 9.20751C70.9966 9.56269 71.1855 10.0929 71.1855 10.7972V13.6712V13.6712Z" fill="black"/>
<path d="M74.202 13.6707H73.1091V6.67188H74.202V13.6707Z" fill="black"/>
<path d="M80.6423 11.2326C80.6423 11.9705 80.4262 12.575 79.994 13.0492C79.541 13.5367 78.9398 13.78 78.1914 13.78C77.468 13.78 76.8929 13.5469 76.4649 13.0788C76.037 12.6116 75.823 12.0224 75.823 11.312C75.823 10.5691 76.0432 9.95948 76.4858 9.48624C76.9284 9.01301 77.5234 8.77588 78.2718 8.77588C78.9951 8.77588 79.5744 9.00893 80.0149 9.47606C80.4324 9.92996 80.6423 10.5162 80.6423 11.2326ZM79.5066 11.2672C79.5066 10.8245 79.4085 10.4449 79.2133 10.1284C78.9847 9.74576 78.6569 9.55443 78.2331 9.55443C77.7927 9.55443 77.4586 9.74576 77.23 10.1284C77.0338 10.4449 76.9367 10.8306 76.9367 11.2866C76.9367 11.7293 77.0349 12.1089 77.23 12.4254C77.467 12.808 77.7968 12.9994 78.2227 12.9994C78.6402 12.9994 78.9669 12.805 79.2028 12.4152C79.4064 12.0926 79.5066 11.7099 79.5066 11.2672Z" fill="black"/>
<path d="M85.9365 13.6711H84.9543L84.8729 13.1184H84.8426C84.5065 13.5591 84.0274 13.78 83.4053 13.78C82.9408 13.78 82.565 13.6344 82.2821 13.3454C82.0254 13.0828 81.897 12.7561 81.897 12.3684C81.897 11.7822 82.1475 11.3354 82.6516 11.026C83.1548 10.7167 83.8625 10.565 84.7737 10.5721V10.4826C84.7737 9.85058 84.4334 9.53509 83.7518 9.53509C83.2664 9.53509 82.8385 9.65416 82.469 9.89027L82.2466 9.19009C82.7038 8.91429 83.2685 8.77588 83.9345 8.77588C85.2204 8.77588 85.8655 9.43739 85.8655 10.7604V12.5272C85.8655 13.0065 85.8895 13.3881 85.9365 13.6711ZM84.8008 12.0224V11.2825C83.5942 11.2621 82.9909 11.5848 82.9909 12.2493C82.9909 12.4997 83.0598 12.6869 83.2007 12.8121C83.3416 12.9373 83.5211 12.9994 83.7351 12.9994C83.9752 12.9994 84.1996 12.9251 84.4042 12.7775C84.6098 12.6289 84.7361 12.4407 84.7831 12.2096C84.7946 12.1577 84.8008 12.0946 84.8008 12.0224Z" fill="black"/>
<path d="M92.1524 13.6707H91.1817L91.1306 12.9003H91.1003C90.7903 13.4865 90.2621 13.7796 89.52 13.7796C88.9271 13.7796 88.4334 13.5526 88.0419 13.0987C87.6505 12.6448 87.4553 12.0556 87.4553 11.332C87.4553 10.5555 87.6672 9.92651 88.0931 9.44615C88.5054 8.99836 89.0106 8.77446 89.6118 8.77446C90.2725 8.77446 90.7349 8.99124 90.998 9.4258H91.0189V6.67188H92.1138V12.3782C92.1138 12.8453 92.1263 13.2758 92.1524 13.6707ZM91.0189 11.6475V10.8475C91.0189 10.7091 91.0084 10.5972 90.9886 10.5117C90.927 10.2552 90.7944 10.0395 90.593 9.86545C90.3895 9.69142 90.1442 9.6039 89.8613 9.6039C89.4532 9.6039 89.1338 9.76164 88.8989 10.0782C88.6661 10.3947 88.5482 10.7987 88.5482 11.2923C88.5482 11.7665 88.6599 12.1512 88.8843 12.4474C89.1212 12.7629 89.4406 12.9206 89.8404 12.9206C90.1995 12.9206 90.4865 12.7893 90.7047 12.5257C90.9155 12.2825 91.0189 11.9894 91.0189 11.6475Z" fill="black"/>
<path d="M101.508 11.2326C101.508 11.9705 101.292 12.575 100.86 13.0492C100.407 13.5367 99.8076 13.78 99.0571 13.78C98.3358 13.78 97.7607 13.5469 97.3307 13.0788C96.9027 12.6116 96.6887 12.0224 96.6887 11.312C96.6887 10.5691 96.909 9.95948 97.3515 9.48624C97.7941 9.01301 98.3891 8.77588 99.1396 8.77588C99.8608 8.77588 100.442 9.00893 100.881 9.47606C101.298 9.92996 101.508 10.5162 101.508 11.2326ZM100.374 11.2672C100.374 10.8245 100.276 10.4449 100.081 10.1284C99.8504 9.74576 99.5247 9.55443 99.0989 9.55443C98.6605 9.55443 98.3264 9.74576 98.0958 10.1284C97.8995 10.4449 97.8025 10.8306 97.8025 11.2866C97.8025 11.7293 97.9006 12.1089 98.0958 12.4254C98.3327 12.808 98.6626 12.9994 99.0884 12.9994C99.506 12.9994 99.8348 12.805 100.071 12.4152C100.272 12.0926 100.374 11.7099 100.374 11.2672Z" fill="black"/>
<path d="M107.39 13.6712H106.297V10.9234C106.297 10.0766 105.967 9.65327 105.304 9.65327C104.98 9.65327 104.718 9.76929 104.515 10.0023C104.313 10.2354 104.211 10.5102 104.211 10.8247V13.6702H103.117V10.2446C103.117 9.82323 103.104 9.36627 103.078 8.87167H104.038L104.089 9.62172H104.12C104.248 9.38866 104.438 9.19632 104.686 9.04264C104.984 8.86353 105.315 8.77295 105.679 8.77295C106.137 8.77295 106.519 8.91746 106.823 9.20751C107.202 9.56269 107.39 10.0929 107.39 10.7972V13.6712V13.6712Z" fill="black"/>
<path d="M114.752 9.6724H113.547V12.003C113.547 12.5953 113.761 12.8914 114.185 12.8914C114.381 12.8914 114.544 12.8751 114.673 12.8416L114.701 13.6506C114.485 13.73 114.201 13.7697 113.851 13.7697C113.419 13.7697 113.083 13.6415 112.84 13.385C112.595 13.1285 112.474 12.697 112.474 12.0915V9.6724H111.755V8.8735H112.474V7.9942L113.546 7.67871V8.87249H114.751V9.6724H114.752Z" fill="black"/>
<path d="M120.543 13.6707H119.448V10.9432C119.448 10.0832 119.118 9.65275 118.457 9.65275C117.95 9.65275 117.603 9.90209 117.413 10.4008C117.381 10.5056 117.362 10.6338 117.362 10.7844V13.6697H116.269V6.67188H117.362V9.56319H117.383C117.727 9.03703 118.221 8.77446 118.861 8.77446C119.314 8.77446 119.689 8.91898 119.986 9.20903C120.357 9.57031 120.543 10.1077 120.543 10.818V13.6707V13.6707Z" fill="black"/>
<path d="M126.516 11.0453C126.516 11.2366 126.502 11.3974 126.476 11.5287H123.195C123.21 12.0029 123.366 12.3642 123.67 12.6146C123.948 12.8385 124.306 12.9504 124.744 12.9504C125.229 12.9504 125.672 12.8751 126.071 12.7235L126.242 13.4644C125.775 13.6618 125.226 13.7605 124.591 13.7605C123.829 13.7605 123.228 13.5417 122.794 13.1041C122.358 12.6665 122.142 12.0792 122.142 11.3424C122.142 10.6188 122.343 10.0163 122.749 9.53599C123.173 9.02306 123.746 8.7666 124.47 8.7666C125.177 8.7666 125.715 9.02306 126.078 9.53599C126.371 9.94307 126.516 10.4468 126.516 11.0453ZM125.473 10.7695C125.481 10.4529 125.409 10.1802 125.261 9.9502C125.071 9.65404 124.782 9.50546 124.39 9.50546C124.033 9.50546 123.742 9.64997 123.52 9.94002C123.338 10.171 123.231 10.4468 123.195 10.7695H125.473Z" fill="black"/>
<path d="M55.995 32.0618H53.6245L52.326 28.0835H47.8126L46.5757 32.0618H44.2678L48.7395 18.5181H51.5014L55.995 32.0618ZM51.9346 26.4145L50.7603 22.8779C50.6361 22.5167 50.4033 21.6658 50.0599 20.3265H50.0181C49.8814 20.9026 49.6612 21.7534 49.3585 22.8779L48.2051 26.4145H51.9346V26.4145Z" fill="black"/>
<path d="M67.4947 27.0591C67.4947 28.72 67.0344 30.0328 66.1137 30.9966C65.2891 31.8545 64.2651 32.283 63.0428 32.283C61.7235 32.283 60.7757 31.8209 60.1985 30.8969H60.1567V36.0414H57.9313V25.5111C57.9313 24.467 57.9032 23.3953 57.8489 22.2962H59.806L59.9302 23.8441H59.972C60.7141 22.6778 61.8404 22.0957 63.3518 22.0957C64.5334 22.0957 65.5198 22.5506 66.3089 23.4615C67.1001 24.3733 67.4947 25.5722 67.4947 27.0591ZM65.2275 27.1385C65.2275 26.1879 65.0083 25.4043 64.5678 24.7875C64.0867 24.1444 63.4405 23.8228 62.6305 23.8228C62.0815 23.8228 61.5826 24.0019 61.1369 24.355C60.6901 24.7112 60.3978 25.1763 60.2611 25.7523C60.1922 26.021 60.1578 26.2408 60.1578 26.4138V28.0422C60.1578 28.7525 60.3811 29.352 60.8279 29.8415C61.2746 30.331 61.855 30.5753 62.569 30.5753C63.4071 30.5753 64.0595 30.2598 64.5261 29.6308C64.9937 29.0009 65.2275 28.1704 65.2275 27.1385Z" fill="black"/>
<path d="M79.0151 27.0591C79.0151 28.72 78.5548 30.0328 77.6331 30.9966C76.8096 31.8545 75.7856 32.283 74.5633 32.283C73.2439 32.283 72.2961 31.8209 71.72 30.8969H71.6782V36.0414H69.4528V25.5111C69.4528 24.467 69.4246 23.3953 69.3704 22.2962H71.3275L71.4517 23.8441H71.4935C72.2346 22.6778 73.3608 22.0957 74.8733 22.0957C76.0539 22.0957 77.0403 22.5506 77.8315 23.4615C78.6195 24.3733 79.0151 25.5722 79.0151 27.0591ZM76.748 27.1385C76.748 26.1879 76.5277 25.4043 76.0873 24.7875C75.6061 24.1444 74.962 23.8228 74.151 23.8228C73.6009 23.8228 73.103 24.0019 72.6563 24.355C72.2095 24.7112 71.9183 25.1763 71.7816 25.7523C71.7137 26.021 71.6782 26.2408 71.6782 26.4138V28.0422C71.6782 28.7525 71.9016 29.352 72.3462 29.8415C72.793 30.33 73.3734 30.5753 74.0894 30.5753C74.9276 30.5753 75.58 30.2598 76.0465 29.6308C76.5142 29.0009 76.748 28.1704 76.748 27.1385Z" fill="black"/>
<path d="M91.8955 28.2639C91.8955 29.4159 91.4853 30.3532 90.6617 31.0768C89.7567 31.8676 88.4969 32.2625 86.8779 32.2625C85.3832 32.2625 84.1849 31.9816 83.2778 31.4188L83.7935 29.6103C84.7705 30.1863 85.8425 30.4754 87.0105 30.4754C87.8487 30.4754 88.501 30.2901 88.9697 29.9217C89.4363 29.5533 89.6691 29.0587 89.6691 28.442C89.6691 27.8924 89.477 27.4294 89.0918 27.0538C88.7088 26.6783 88.0689 26.3292 87.1754 26.0066C84.7433 25.1222 83.5284 23.8267 83.5284 22.123C83.5284 21.0096 83.9542 20.0967 84.807 19.3864C85.6567 18.675 86.7902 18.3198 88.2077 18.3198C89.4718 18.3198 90.5218 18.5346 91.36 18.963L90.8037 20.7318C90.0208 20.3166 89.1357 20.109 88.1451 20.109C87.3622 20.109 86.7506 20.2972 86.3122 20.6718C85.9416 21.0066 85.7558 21.4147 85.7558 21.8981C85.7558 22.4334 85.9677 22.8761 86.3936 23.2242C86.7641 23.5458 87.4374 23.8938 88.4144 24.2694C89.6096 24.7385 90.4874 25.2871 91.0521 25.916C91.6147 26.5429 91.8955 27.3276 91.8955 28.2639Z" fill="black"/>
<path d="M99.2536 23.9245H96.8006V28.666C96.8006 29.872 97.2328 30.4745 98.0991 30.4745C98.4968 30.4745 98.8266 30.4409 99.0876 30.3737L99.1492 32.0214C98.7108 32.1812 98.1336 32.2616 97.4186 32.2616C96.5397 32.2616 95.8528 32 95.357 31.4779C94.8633 30.9548 94.6149 30.0776 94.6149 28.8451V23.9224H93.1536V22.2941H94.6149V20.506L96.8006 19.8628V22.2941H99.2536V23.9245Z" fill="black"/>
<path d="M110.321 27.0987C110.321 28.5998 109.88 29.8323 109.001 30.7961C108.08 31.7883 106.856 32.2829 105.331 32.2829C103.862 32.2829 102.692 31.8077 101.819 30.8571C100.946 29.9066 100.51 28.7067 100.51 27.2605C100.51 25.7472 100.959 24.5076 101.86 23.5439C102.758 22.5791 103.971 22.0967 105.496 22.0967C106.966 22.0967 108.149 22.572 109.041 23.5235C109.895 24.4466 110.321 25.6383 110.321 27.0987ZM108.012 27.1689C108.012 26.2683 107.815 25.4958 107.415 24.8516C106.948 24.0721 106.281 23.6833 105.417 23.6833C104.522 23.6833 103.843 24.0731 103.376 24.8516C102.977 25.4968 102.779 26.2815 102.779 27.2097C102.779 28.1103 102.977 28.8828 103.376 29.526C103.857 30.3055 104.53 30.6943 105.397 30.6943C106.247 30.6943 106.914 30.2974 107.395 29.5056C107.805 28.8492 108.012 28.0686 108.012 27.1689Z" fill="black"/>
<path d="M117.554 24.2044C117.334 24.1647 117.099 24.1444 116.853 24.1444C116.07 24.1444 115.465 24.4324 115.039 25.0094C114.668 25.5183 114.483 26.1615 114.483 26.938V32.0621H112.258L112.279 25.3717C112.279 24.2461 112.251 23.2213 112.196 22.2972H114.134L114.215 24.1657H114.277C114.512 23.5236 114.882 23.0066 115.39 22.6188C115.885 22.2697 116.421 22.0957 116.998 22.0957C117.204 22.0957 117.39 22.11 117.554 22.1354V24.2044Z" fill="black"/>
<path d="M127.507 26.7169C127.507 27.1057 127.481 27.4334 127.426 27.701H120.749C120.776 28.6658 121.098 29.4036 121.718 29.9125C122.281 30.3674 123.008 30.5954 123.902 30.5954C124.89 30.5954 125.792 30.4417 126.603 30.1333L126.952 31.6396C126.004 32.0426 124.885 32.2431 123.594 32.2431C122.041 32.2431 120.821 31.7973 119.934 30.9068C119.049 30.0163 118.605 28.8205 118.605 27.3204C118.605 25.8478 119.018 24.6214 119.843 23.6434C120.708 22.5992 121.876 22.0771 123.345 22.0771C124.789 22.0771 125.882 22.5992 126.624 23.6434C127.212 24.4728 127.507 25.4987 127.507 26.7169ZM125.385 26.1541C125.4 25.5109 125.255 24.9552 124.953 24.4861C124.568 23.8826 123.976 23.5813 123.179 23.5813C122.452 23.5813 121.86 23.8754 121.408 24.4657C121.038 24.9349 120.817 25.4977 120.749 26.1531H125.385V26.1541Z" fill="black"/>
</svg>
